G75*
G70*
%OFA0B0*%
%FSLAX25Y25*%
%IPPOS*%
%LPD*%
%AMOC8*
5,1,8,0,0,1.08239X$1,22.5*
%
%ADD10C,0.13060*%
%ADD11R,0.09100X0.02800*%
%ADD12C,0.07000*%
%ADD15R,0.04600X0.09000*%
%ADD16C,0.02760*%
%ADD17R,0.07880X0.07880*%
%ADD26C,0.07400*%
%ADD31R,0.05120X0.05120*%
%ADD33R,0.05120X0.02570*%
%ADD42R,0.09000X0.04600*%
%ADD45R,0.09460X0.06700*%
%ADD49R,0.03550X0.05120*%
%ADD51R,0.01970X0.05710*%
%ADD52R,0.05120X0.03550*%
X0011000Y0011000D02*
G75*
%LPD*%
D11*
X0032640Y0039810D03*
X0032640Y0044810D03*
X0032640Y0049810D03*
X0032640Y0054810D03*
X0059140Y0054810D03*
X0059140Y0049810D03*
X0059140Y0044810D03*
X0059140Y0039810D03*
D52*
X0082630Y0060910D03*
X0082630Y0067990D03*
X0065000Y0065460D03*
X0065000Y0072540D03*
X0057000Y0072540D03*
X0057000Y0065460D03*
X0033000Y0065460D03*
X0033000Y0072540D03*
D15*
X0074510Y0080110D03*
X0074510Y0063110D03*
D49*
X0073580Y0054740D03*
X0080670Y0054740D03*
X0039930Y0032140D03*
X0032850Y0032140D03*
D31*
X0041100Y0064370D03*
X0049000Y0064270D03*
X0049000Y0072530D03*
X0041100Y0072630D03*
X0088660Y0075810D03*
X0096930Y0075810D03*
D33*
X0080620Y0048330D03*
X0080620Y0044590D03*
X0080620Y0040850D03*
X0070380Y0040850D03*
X0070380Y0048330D03*
D10*
X0091000Y0091000D03*
X0021000Y0091000D03*
D45*
X0042700Y0018100D03*
X0067500Y0018100D03*
D51*
X0058930Y0083660D03*
X0056370Y0083660D03*
X0053810Y0083660D03*
X0051250Y0083660D03*
X0048690Y0083660D03*
D17*
X0049090Y0094190D03*
X0058530Y0094190D03*
X0069360Y0094190D03*
X0038260Y0094190D03*
D16*
X0045940Y0085140D03*
X0061680Y0085140D03*
D12*
X0016000Y0016000D03*
X0016000Y0026000D03*
X0016000Y0036000D03*
X0016000Y0046000D03*
X0016000Y0056000D03*
X0016000Y0066000D03*
X0016000Y0076000D03*
X0096000Y0066000D03*
X0096000Y0056000D03*
X0096000Y0026000D03*
X0096000Y0016000D03*
D42*
X0080500Y0031000D03*
X0063500Y0031000D03*
D26*
X0080400Y0020200D03*
X0026700Y0077800D03*
X0011000Y0107250D02*
G75*
%LPD*%
D11*
X0032640Y0136060D03*
X0032640Y0141060D03*
X0032640Y0146060D03*
X0032640Y0151060D03*
X0059140Y0151060D03*
X0059140Y0146060D03*
X0059140Y0141060D03*
X0059140Y0136060D03*
D52*
X0082630Y0157160D03*
X0082630Y0164240D03*
X0065000Y0161710D03*
X0065000Y0168790D03*
X0057000Y0168790D03*
X0057000Y0161710D03*
X0033000Y0161710D03*
X0033000Y0168790D03*
D15*
X0074510Y0176360D03*
X0074510Y0159360D03*
D49*
X0073580Y0150990D03*
X0080670Y0150990D03*
X0039930Y0128390D03*
X0032850Y0128390D03*
D31*
X0041100Y0160620D03*
X0049000Y0160520D03*
X0049000Y0168780D03*
X0041100Y0168880D03*
X0088660Y0172060D03*
X0096930Y0172060D03*
D33*
X0080620Y0144580D03*
X0080620Y0140840D03*
X0080620Y0137100D03*
X0070380Y0137100D03*
X0070380Y0144580D03*
D10*
X0091000Y0187250D03*
X0021000Y0187250D03*
D45*
X0042700Y0114350D03*
X0067500Y0114350D03*
D51*
X0058930Y0179910D03*
X0056370Y0179910D03*
X0053810Y0179910D03*
X0051250Y0179910D03*
X0048690Y0179910D03*
D17*
X0049090Y0190440D03*
X0058530Y0190440D03*
X0069360Y0190440D03*
X0038260Y0190440D03*
D16*
X0045940Y0181390D03*
X0061680Y0181390D03*
D12*
X0016000Y0112250D03*
X0016000Y0122250D03*
X0016000Y0132250D03*
X0016000Y0142250D03*
X0016000Y0152250D03*
X0016000Y0162250D03*
X0016000Y0172250D03*
X0096000Y0162250D03*
X0096000Y0152250D03*
X0096000Y0122250D03*
X0096000Y0112250D03*
D42*
X0080500Y0127250D03*
X0063500Y0127250D03*
D26*
X0080400Y0116450D03*
X0026700Y0174050D03*
X0011000Y0203500D02*
G75*
%LPD*%
D11*
X0032640Y0232310D03*
X0032640Y0237310D03*
X0032640Y0242310D03*
X0032640Y0247310D03*
X0059140Y0247310D03*
X0059140Y0242310D03*
X0059140Y0237310D03*
X0059140Y0232310D03*
D52*
X0082630Y0253410D03*
X0082630Y0260490D03*
X0065000Y0257960D03*
X0065000Y0265040D03*
X0057000Y0265040D03*
X0057000Y0257960D03*
X0033000Y0257960D03*
X0033000Y0265040D03*
D15*
X0074510Y0272610D03*
X0074510Y0255610D03*
D49*
X0073580Y0247240D03*
X0080670Y0247240D03*
X0039930Y0224640D03*
X0032850Y0224640D03*
D31*
X0041100Y0256870D03*
X0049000Y0256770D03*
X0049000Y0265030D03*
X0041100Y0265130D03*
X0088660Y0268310D03*
X0096930Y0268310D03*
D33*
X0080620Y0240830D03*
X0080620Y0237090D03*
X0080620Y0233350D03*
X0070380Y0233350D03*
X0070380Y0240830D03*
D10*
X0091000Y0283500D03*
X0021000Y0283500D03*
D45*
X0042700Y0210600D03*
X0067500Y0210600D03*
D51*
X0058930Y0276160D03*
X0056370Y0276160D03*
X0053810Y0276160D03*
X0051250Y0276160D03*
X0048690Y0276160D03*
D17*
X0049090Y0286690D03*
X0058530Y0286690D03*
X0069360Y0286690D03*
X0038260Y0286690D03*
D16*
X0045940Y0277640D03*
X0061680Y0277640D03*
D12*
X0016000Y0208500D03*
X0016000Y0218500D03*
X0016000Y0228500D03*
X0016000Y0238500D03*
X0016000Y0248500D03*
X0016000Y0258500D03*
X0016000Y0268500D03*
X0096000Y0258500D03*
X0096000Y0248500D03*
X0096000Y0218500D03*
X0096000Y0208500D03*
D42*
X0080500Y0223500D03*
X0063500Y0223500D03*
D26*
X0080400Y0212700D03*
X0026700Y0270300D03*
X0011000Y0299750D02*
G75*
%LPD*%
D11*
X0032640Y0328560D03*
X0032640Y0333560D03*
X0032640Y0338560D03*
X0032640Y0343560D03*
X0059140Y0343560D03*
X0059140Y0338560D03*
X0059140Y0333560D03*
X0059140Y0328560D03*
D52*
X0082630Y0349660D03*
X0082630Y0356740D03*
X0065000Y0354210D03*
X0065000Y0361290D03*
X0057000Y0361290D03*
X0057000Y0354210D03*
X0033000Y0354210D03*
X0033000Y0361290D03*
D15*
X0074510Y0368860D03*
X0074510Y0351860D03*
D49*
X0073580Y0343490D03*
X0080670Y0343490D03*
X0039930Y0320890D03*
X0032850Y0320890D03*
D31*
X0041100Y0353120D03*
X0049000Y0353020D03*
X0049000Y0361280D03*
X0041100Y0361380D03*
X0088660Y0364560D03*
X0096930Y0364560D03*
D33*
X0080620Y0337080D03*
X0080620Y0333340D03*
X0080620Y0329600D03*
X0070380Y0329600D03*
X0070380Y0337080D03*
D10*
X0091000Y0379750D03*
X0021000Y0379750D03*
D45*
X0042700Y0306850D03*
X0067500Y0306850D03*
D51*
X0058930Y0372410D03*
X0056370Y0372410D03*
X0053810Y0372410D03*
X0051250Y0372410D03*
X0048690Y0372410D03*
D17*
X0049090Y0382940D03*
X0058530Y0382940D03*
X0069360Y0382940D03*
X0038260Y0382940D03*
D16*
X0045940Y0373890D03*
X0061680Y0373890D03*
D12*
X0016000Y0304750D03*
X0016000Y0314750D03*
X0016000Y0324750D03*
X0016000Y0334750D03*
X0016000Y0344750D03*
X0016000Y0354750D03*
X0016000Y0364750D03*
X0096000Y0354750D03*
X0096000Y0344750D03*
X0096000Y0314750D03*
X0096000Y0304750D03*
D42*
X0080500Y0319750D03*
X0063500Y0319750D03*
D26*
X0080400Y0308950D03*
X0026700Y0366550D03*
X0107130Y0011000D02*
G75*
%LPD*%
D11*
X0128770Y0039810D03*
X0128770Y0044810D03*
X0128770Y0049810D03*
X0128770Y0054810D03*
X0155270Y0054810D03*
X0155270Y0049810D03*
X0155270Y0044810D03*
X0155270Y0039810D03*
D52*
X0178760Y0060910D03*
X0178760Y0067990D03*
X0161130Y0065460D03*
X0161130Y0072540D03*
X0153130Y0072540D03*
X0153130Y0065460D03*
X0129130Y0065460D03*
X0129130Y0072540D03*
D15*
X0170640Y0080110D03*
X0170640Y0063110D03*
D49*
X0169710Y0054740D03*
X0176800Y0054740D03*
X0136060Y0032140D03*
X0128980Y0032140D03*
D31*
X0137230Y0064370D03*
X0145130Y0064270D03*
X0145130Y0072530D03*
X0137230Y0072630D03*
X0184790Y0075810D03*
X0193060Y0075810D03*
D33*
X0176750Y0048330D03*
X0176750Y0044590D03*
X0176750Y0040850D03*
X0166510Y0040850D03*
X0166510Y0048330D03*
D10*
X0187130Y0091000D03*
X0117130Y0091000D03*
D45*
X0138830Y0018100D03*
X0163630Y0018100D03*
D51*
X0155060Y0083660D03*
X0152500Y0083660D03*
X0149940Y0083660D03*
X0147380Y0083660D03*
X0144820Y0083660D03*
D17*
X0145220Y0094190D03*
X0154660Y0094190D03*
X0165490Y0094190D03*
X0134390Y0094190D03*
D16*
X0142070Y0085140D03*
X0157810Y0085140D03*
D12*
X0112130Y0016000D03*
X0112130Y0026000D03*
X0112130Y0036000D03*
X0112130Y0046000D03*
X0112130Y0056000D03*
X0112130Y0066000D03*
X0112130Y0076000D03*
X0192130Y0066000D03*
X0192130Y0056000D03*
X0192130Y0026000D03*
X0192130Y0016000D03*
D42*
X0176630Y0031000D03*
X0159630Y0031000D03*
D26*
X0176530Y0020200D03*
X0122830Y0077800D03*
X0107130Y0107250D02*
G75*
%LPD*%
D11*
X0128770Y0136060D03*
X0128770Y0141060D03*
X0128770Y0146060D03*
X0128770Y0151060D03*
X0155270Y0151060D03*
X0155270Y0146060D03*
X0155270Y0141060D03*
X0155270Y0136060D03*
D52*
X0178760Y0157160D03*
X0178760Y0164240D03*
X0161130Y0161710D03*
X0161130Y0168790D03*
X0153130Y0168790D03*
X0153130Y0161710D03*
X0129130Y0161710D03*
X0129130Y0168790D03*
D15*
X0170640Y0176360D03*
X0170640Y0159360D03*
D49*
X0169710Y0150990D03*
X0176800Y0150990D03*
X0136060Y0128390D03*
X0128980Y0128390D03*
D31*
X0137230Y0160620D03*
X0145130Y0160520D03*
X0145130Y0168780D03*
X0137230Y0168880D03*
X0184790Y0172060D03*
X0193060Y0172060D03*
D33*
X0176750Y0144580D03*
X0176750Y0140840D03*
X0176750Y0137100D03*
X0166510Y0137100D03*
X0166510Y0144580D03*
D10*
X0187130Y0187250D03*
X0117130Y0187250D03*
D45*
X0138830Y0114350D03*
X0163630Y0114350D03*
D51*
X0155060Y0179910D03*
X0152500Y0179910D03*
X0149940Y0179910D03*
X0147380Y0179910D03*
X0144820Y0179910D03*
D17*
X0145220Y0190440D03*
X0154660Y0190440D03*
X0165490Y0190440D03*
X0134390Y0190440D03*
D16*
X0142070Y0181390D03*
X0157810Y0181390D03*
D12*
X0112130Y0112250D03*
X0112130Y0122250D03*
X0112130Y0132250D03*
X0112130Y0142250D03*
X0112130Y0152250D03*
X0112130Y0162250D03*
X0112130Y0172250D03*
X0192130Y0162250D03*
X0192130Y0152250D03*
X0192130Y0122250D03*
X0192130Y0112250D03*
D42*
X0176630Y0127250D03*
X0159630Y0127250D03*
D26*
X0176530Y0116450D03*
X0122830Y0174050D03*
X0107130Y0203500D02*
G75*
%LPD*%
D11*
X0128770Y0232310D03*
X0128770Y0237310D03*
X0128770Y0242310D03*
X0128770Y0247310D03*
X0155270Y0247310D03*
X0155270Y0242310D03*
X0155270Y0237310D03*
X0155270Y0232310D03*
D52*
X0178760Y0253410D03*
X0178760Y0260490D03*
X0161130Y0257960D03*
X0161130Y0265040D03*
X0153130Y0265040D03*
X0153130Y0257960D03*
X0129130Y0257960D03*
X0129130Y0265040D03*
D15*
X0170640Y0272610D03*
X0170640Y0255610D03*
D49*
X0169710Y0247240D03*
X0176800Y0247240D03*
X0136060Y0224640D03*
X0128980Y0224640D03*
D31*
X0137230Y0256870D03*
X0145130Y0256770D03*
X0145130Y0265030D03*
X0137230Y0265130D03*
X0184790Y0268310D03*
X0193060Y0268310D03*
D33*
X0176750Y0240830D03*
X0176750Y0237090D03*
X0176750Y0233350D03*
X0166510Y0233350D03*
X0166510Y0240830D03*
D10*
X0187130Y0283500D03*
X0117130Y0283500D03*
D45*
X0138830Y0210600D03*
X0163630Y0210600D03*
D51*
X0155060Y0276160D03*
X0152500Y0276160D03*
X0149940Y0276160D03*
X0147380Y0276160D03*
X0144820Y0276160D03*
D17*
X0145220Y0286690D03*
X0154660Y0286690D03*
X0165490Y0286690D03*
X0134390Y0286690D03*
D16*
X0142070Y0277640D03*
X0157810Y0277640D03*
D12*
X0112130Y0208500D03*
X0112130Y0218500D03*
X0112130Y0228500D03*
X0112130Y0238500D03*
X0112130Y0248500D03*
X0112130Y0258500D03*
X0112130Y0268500D03*
X0192130Y0258500D03*
X0192130Y0248500D03*
X0192130Y0218500D03*
X0192130Y0208500D03*
D42*
X0176630Y0223500D03*
X0159630Y0223500D03*
D26*
X0176530Y0212700D03*
X0122830Y0270300D03*
X0107130Y0299750D02*
G75*
%LPD*%
D11*
X0128770Y0328560D03*
X0128770Y0333560D03*
X0128770Y0338560D03*
X0128770Y0343560D03*
X0155270Y0343560D03*
X0155270Y0338560D03*
X0155270Y0333560D03*
X0155270Y0328560D03*
D52*
X0178760Y0349660D03*
X0178760Y0356740D03*
X0161130Y0354210D03*
X0161130Y0361290D03*
X0153130Y0361290D03*
X0153130Y0354210D03*
X0129130Y0354210D03*
X0129130Y0361290D03*
D15*
X0170640Y0368860D03*
X0170640Y0351860D03*
D49*
X0169710Y0343490D03*
X0176800Y0343490D03*
X0136060Y0320890D03*
X0128980Y0320890D03*
D31*
X0137230Y0353120D03*
X0145130Y0353020D03*
X0145130Y0361280D03*
X0137230Y0361380D03*
X0184790Y0364560D03*
X0193060Y0364560D03*
D33*
X0176750Y0337080D03*
X0176750Y0333340D03*
X0176750Y0329600D03*
X0166510Y0329600D03*
X0166510Y0337080D03*
D10*
X0187130Y0379750D03*
X0117130Y0379750D03*
D45*
X0138830Y0306850D03*
X0163630Y0306850D03*
D51*
X0155060Y0372410D03*
X0152500Y0372410D03*
X0149940Y0372410D03*
X0147380Y0372410D03*
X0144820Y0372410D03*
D17*
X0145220Y0382940D03*
X0154660Y0382940D03*
X0165490Y0382940D03*
X0134390Y0382940D03*
D16*
X0142070Y0373890D03*
X0157810Y0373890D03*
D12*
X0112130Y0304750D03*
X0112130Y0314750D03*
X0112130Y0324750D03*
X0112130Y0334750D03*
X0112130Y0344750D03*
X0112130Y0354750D03*
X0112130Y0364750D03*
X0192130Y0354750D03*
X0192130Y0344750D03*
X0192130Y0314750D03*
X0192130Y0304750D03*
D42*
X0176630Y0319750D03*
X0159630Y0319750D03*
D26*
X0176530Y0308950D03*
X0122830Y0366550D03*
X0203260Y0011000D02*
G75*
%LPD*%
D11*
X0224900Y0039810D03*
X0224900Y0044810D03*
X0224900Y0049810D03*
X0224900Y0054810D03*
X0251400Y0054810D03*
X0251400Y0049810D03*
X0251400Y0044810D03*
X0251400Y0039810D03*
D52*
X0274890Y0060910D03*
X0274890Y0067990D03*
X0257260Y0065460D03*
X0257260Y0072540D03*
X0249260Y0072540D03*
X0249260Y0065460D03*
X0225260Y0065460D03*
X0225260Y0072540D03*
D15*
X0266770Y0080110D03*
X0266770Y0063110D03*
D49*
X0265840Y0054740D03*
X0272930Y0054740D03*
X0232190Y0032140D03*
X0225110Y0032140D03*
D31*
X0233360Y0064370D03*
X0241260Y0064270D03*
X0241260Y0072530D03*
X0233360Y0072630D03*
X0280920Y0075810D03*
X0289190Y0075810D03*
D33*
X0272880Y0048330D03*
X0272880Y0044590D03*
X0272880Y0040850D03*
X0262640Y0040850D03*
X0262640Y0048330D03*
D10*
X0283260Y0091000D03*
X0213260Y0091000D03*
D45*
X0234960Y0018100D03*
X0259760Y0018100D03*
D51*
X0251190Y0083660D03*
X0248630Y0083660D03*
X0246070Y0083660D03*
X0243510Y0083660D03*
X0240950Y0083660D03*
D17*
X0241350Y0094190D03*
X0250790Y0094190D03*
X0261620Y0094190D03*
X0230520Y0094190D03*
D16*
X0238200Y0085140D03*
X0253940Y0085140D03*
D12*
X0208260Y0016000D03*
X0208260Y0026000D03*
X0208260Y0036000D03*
X0208260Y0046000D03*
X0208260Y0056000D03*
X0208260Y0066000D03*
X0208260Y0076000D03*
X0288260Y0066000D03*
X0288260Y0056000D03*
X0288260Y0026000D03*
X0288260Y0016000D03*
D42*
X0272760Y0031000D03*
X0255760Y0031000D03*
D26*
X0272660Y0020200D03*
X0218960Y0077800D03*
X0203260Y0107250D02*
G75*
%LPD*%
D11*
X0224900Y0136060D03*
X0224900Y0141060D03*
X0224900Y0146060D03*
X0224900Y0151060D03*
X0251400Y0151060D03*
X0251400Y0146060D03*
X0251400Y0141060D03*
X0251400Y0136060D03*
D52*
X0274890Y0157160D03*
X0274890Y0164240D03*
X0257260Y0161710D03*
X0257260Y0168790D03*
X0249260Y0168790D03*
X0249260Y0161710D03*
X0225260Y0161710D03*
X0225260Y0168790D03*
D15*
X0266770Y0176360D03*
X0266770Y0159360D03*
D49*
X0265840Y0150990D03*
X0272930Y0150990D03*
X0232190Y0128390D03*
X0225110Y0128390D03*
D31*
X0233360Y0160620D03*
X0241260Y0160520D03*
X0241260Y0168780D03*
X0233360Y0168880D03*
X0280920Y0172060D03*
X0289190Y0172060D03*
D33*
X0272880Y0144580D03*
X0272880Y0140840D03*
X0272880Y0137100D03*
X0262640Y0137100D03*
X0262640Y0144580D03*
D10*
X0283260Y0187250D03*
X0213260Y0187250D03*
D45*
X0234960Y0114350D03*
X0259760Y0114350D03*
D51*
X0251190Y0179910D03*
X0248630Y0179910D03*
X0246070Y0179910D03*
X0243510Y0179910D03*
X0240950Y0179910D03*
D17*
X0241350Y0190440D03*
X0250790Y0190440D03*
X0261620Y0190440D03*
X0230520Y0190440D03*
D16*
X0238200Y0181390D03*
X0253940Y0181390D03*
D12*
X0208260Y0112250D03*
X0208260Y0122250D03*
X0208260Y0132250D03*
X0208260Y0142250D03*
X0208260Y0152250D03*
X0208260Y0162250D03*
X0208260Y0172250D03*
X0288260Y0162250D03*
X0288260Y0152250D03*
X0288260Y0122250D03*
X0288260Y0112250D03*
D42*
X0272760Y0127250D03*
X0255760Y0127250D03*
D26*
X0272660Y0116450D03*
X0218960Y0174050D03*
X0203260Y0203500D02*
G75*
%LPD*%
D11*
X0224900Y0232310D03*
X0224900Y0237310D03*
X0224900Y0242310D03*
X0224900Y0247310D03*
X0251400Y0247310D03*
X0251400Y0242310D03*
X0251400Y0237310D03*
X0251400Y0232310D03*
D52*
X0274890Y0253410D03*
X0274890Y0260490D03*
X0257260Y0257960D03*
X0257260Y0265040D03*
X0249260Y0265040D03*
X0249260Y0257960D03*
X0225260Y0257960D03*
X0225260Y0265040D03*
D15*
X0266770Y0272610D03*
X0266770Y0255610D03*
D49*
X0265840Y0247240D03*
X0272930Y0247240D03*
X0232190Y0224640D03*
X0225110Y0224640D03*
D31*
X0233360Y0256870D03*
X0241260Y0256770D03*
X0241260Y0265030D03*
X0233360Y0265130D03*
X0280920Y0268310D03*
X0289190Y0268310D03*
D33*
X0272880Y0240830D03*
X0272880Y0237090D03*
X0272880Y0233350D03*
X0262640Y0233350D03*
X0262640Y0240830D03*
D10*
X0283260Y0283500D03*
X0213260Y0283500D03*
D45*
X0234960Y0210600D03*
X0259760Y0210600D03*
D51*
X0251190Y0276160D03*
X0248630Y0276160D03*
X0246070Y0276160D03*
X0243510Y0276160D03*
X0240950Y0276160D03*
D17*
X0241350Y0286690D03*
X0250790Y0286690D03*
X0261620Y0286690D03*
X0230520Y0286690D03*
D16*
X0238200Y0277640D03*
X0253940Y0277640D03*
D12*
X0208260Y0208500D03*
X0208260Y0218500D03*
X0208260Y0228500D03*
X0208260Y0238500D03*
X0208260Y0248500D03*
X0208260Y0258500D03*
X0208260Y0268500D03*
X0288260Y0258500D03*
X0288260Y0248500D03*
X0288260Y0218500D03*
X0288260Y0208500D03*
D42*
X0272760Y0223500D03*
X0255760Y0223500D03*
D26*
X0272660Y0212700D03*
X0218960Y0270300D03*
X0203260Y0299750D02*
G75*
%LPD*%
D11*
X0224900Y0328560D03*
X0224900Y0333560D03*
X0224900Y0338560D03*
X0224900Y0343560D03*
X0251400Y0343560D03*
X0251400Y0338560D03*
X0251400Y0333560D03*
X0251400Y0328560D03*
D52*
X0274890Y0349660D03*
X0274890Y0356740D03*
X0257260Y0354210D03*
X0257260Y0361290D03*
X0249260Y0361290D03*
X0249260Y0354210D03*
X0225260Y0354210D03*
X0225260Y0361290D03*
D15*
X0266770Y0368860D03*
X0266770Y0351860D03*
D49*
X0265840Y0343490D03*
X0272930Y0343490D03*
X0232190Y0320890D03*
X0225110Y0320890D03*
D31*
X0233360Y0353120D03*
X0241260Y0353020D03*
X0241260Y0361280D03*
X0233360Y0361380D03*
X0280920Y0364560D03*
X0289190Y0364560D03*
D33*
X0272880Y0337080D03*
X0272880Y0333340D03*
X0272880Y0329600D03*
X0262640Y0329600D03*
X0262640Y0337080D03*
D10*
X0283260Y0379750D03*
X0213260Y0379750D03*
D45*
X0234960Y0306850D03*
X0259760Y0306850D03*
D51*
X0251190Y0372410D03*
X0248630Y0372410D03*
X0246070Y0372410D03*
X0243510Y0372410D03*
X0240950Y0372410D03*
D17*
X0241350Y0382940D03*
X0250790Y0382940D03*
X0261620Y0382940D03*
X0230520Y0382940D03*
D16*
X0238200Y0373890D03*
X0253940Y0373890D03*
D12*
X0208260Y0304750D03*
X0208260Y0314750D03*
X0208260Y0324750D03*
X0208260Y0334750D03*
X0208260Y0344750D03*
X0208260Y0354750D03*
X0208260Y0364750D03*
X0288260Y0354750D03*
X0288260Y0344750D03*
X0288260Y0314750D03*
X0288260Y0304750D03*
D42*
X0272760Y0319750D03*
X0255760Y0319750D03*
D26*
X0272660Y0308950D03*
X0218960Y0366550D03*
X0299390Y0011000D02*
G75*
%LPD*%
D11*
X0321030Y0039810D03*
X0321030Y0044810D03*
X0321030Y0049810D03*
X0321030Y0054810D03*
X0347530Y0054810D03*
X0347530Y0049810D03*
X0347530Y0044810D03*
X0347530Y0039810D03*
D52*
X0371020Y0060910D03*
X0371020Y0067990D03*
X0353390Y0065460D03*
X0353390Y0072540D03*
X0345390Y0072540D03*
X0345390Y0065460D03*
X0321390Y0065460D03*
X0321390Y0072540D03*
D15*
X0362900Y0080110D03*
X0362900Y0063110D03*
D49*
X0361970Y0054740D03*
X0369060Y0054740D03*
X0328320Y0032140D03*
X0321240Y0032140D03*
D31*
X0329490Y0064370D03*
X0337390Y0064270D03*
X0337390Y0072530D03*
X0329490Y0072630D03*
X0377050Y0075810D03*
X0385320Y0075810D03*
D33*
X0369010Y0048330D03*
X0369010Y0044590D03*
X0369010Y0040850D03*
X0358770Y0040850D03*
X0358770Y0048330D03*
D10*
X0379390Y0091000D03*
X0309390Y0091000D03*
D45*
X0331090Y0018100D03*
X0355890Y0018100D03*
D51*
X0347320Y0083660D03*
X0344760Y0083660D03*
X0342200Y0083660D03*
X0339640Y0083660D03*
X0337080Y0083660D03*
D17*
X0337480Y0094190D03*
X0346920Y0094190D03*
X0357750Y0094190D03*
X0326650Y0094190D03*
D16*
X0334330Y0085140D03*
X0350070Y0085140D03*
D12*
X0304390Y0016000D03*
X0304390Y0026000D03*
X0304390Y0036000D03*
X0304390Y0046000D03*
X0304390Y0056000D03*
X0304390Y0066000D03*
X0304390Y0076000D03*
X0384390Y0066000D03*
X0384390Y0056000D03*
X0384390Y0026000D03*
X0384390Y0016000D03*
D42*
X0368890Y0031000D03*
X0351890Y0031000D03*
D26*
X0368790Y0020200D03*
X0315090Y0077800D03*
X0299390Y0107250D02*
G75*
%LPD*%
D11*
X0321030Y0136060D03*
X0321030Y0141060D03*
X0321030Y0146060D03*
X0321030Y0151060D03*
X0347530Y0151060D03*
X0347530Y0146060D03*
X0347530Y0141060D03*
X0347530Y0136060D03*
D52*
X0371020Y0157160D03*
X0371020Y0164240D03*
X0353390Y0161710D03*
X0353390Y0168790D03*
X0345390Y0168790D03*
X0345390Y0161710D03*
X0321390Y0161710D03*
X0321390Y0168790D03*
D15*
X0362900Y0176360D03*
X0362900Y0159360D03*
D49*
X0361970Y0150990D03*
X0369060Y0150990D03*
X0328320Y0128390D03*
X0321240Y0128390D03*
D31*
X0329490Y0160620D03*
X0337390Y0160520D03*
X0337390Y0168780D03*
X0329490Y0168880D03*
X0377050Y0172060D03*
X0385320Y0172060D03*
D33*
X0369010Y0144580D03*
X0369010Y0140840D03*
X0369010Y0137100D03*
X0358770Y0137100D03*
X0358770Y0144580D03*
D10*
X0379390Y0187250D03*
X0309390Y0187250D03*
D45*
X0331090Y0114350D03*
X0355890Y0114350D03*
D51*
X0347320Y0179910D03*
X0344760Y0179910D03*
X0342200Y0179910D03*
X0339640Y0179910D03*
X0337080Y0179910D03*
D17*
X0337480Y0190440D03*
X0346920Y0190440D03*
X0357750Y0190440D03*
X0326650Y0190440D03*
D16*
X0334330Y0181390D03*
X0350070Y0181390D03*
D12*
X0304390Y0112250D03*
X0304390Y0122250D03*
X0304390Y0132250D03*
X0304390Y0142250D03*
X0304390Y0152250D03*
X0304390Y0162250D03*
X0304390Y0172250D03*
X0384390Y0162250D03*
X0384390Y0152250D03*
X0384390Y0122250D03*
X0384390Y0112250D03*
D42*
X0368890Y0127250D03*
X0351890Y0127250D03*
D26*
X0368790Y0116450D03*
X0315090Y0174050D03*
X0299390Y0203500D02*
G75*
%LPD*%
D11*
X0321030Y0232310D03*
X0321030Y0237310D03*
X0321030Y0242310D03*
X0321030Y0247310D03*
X0347530Y0247310D03*
X0347530Y0242310D03*
X0347530Y0237310D03*
X0347530Y0232310D03*
D52*
X0371020Y0253410D03*
X0371020Y0260490D03*
X0353390Y0257960D03*
X0353390Y0265040D03*
X0345390Y0265040D03*
X0345390Y0257960D03*
X0321390Y0257960D03*
X0321390Y0265040D03*
D15*
X0362900Y0272610D03*
X0362900Y0255610D03*
D49*
X0361970Y0247240D03*
X0369060Y0247240D03*
X0328320Y0224640D03*
X0321240Y0224640D03*
D31*
X0329490Y0256870D03*
X0337390Y0256770D03*
X0337390Y0265030D03*
X0329490Y0265130D03*
X0377050Y0268310D03*
X0385320Y0268310D03*
D33*
X0369010Y0240830D03*
X0369010Y0237090D03*
X0369010Y0233350D03*
X0358770Y0233350D03*
X0358770Y0240830D03*
D10*
X0379390Y0283500D03*
X0309390Y0283500D03*
D45*
X0331090Y0210600D03*
X0355890Y0210600D03*
D51*
X0347320Y0276160D03*
X0344760Y0276160D03*
X0342200Y0276160D03*
X0339640Y0276160D03*
X0337080Y0276160D03*
D17*
X0337480Y0286690D03*
X0346920Y0286690D03*
X0357750Y0286690D03*
X0326650Y0286690D03*
D16*
X0334330Y0277640D03*
X0350070Y0277640D03*
D12*
X0304390Y0208500D03*
X0304390Y0218500D03*
X0304390Y0228500D03*
X0304390Y0238500D03*
X0304390Y0248500D03*
X0304390Y0258500D03*
X0304390Y0268500D03*
X0384390Y0258500D03*
X0384390Y0248500D03*
X0384390Y0218500D03*
X0384390Y0208500D03*
D42*
X0368890Y0223500D03*
X0351890Y0223500D03*
D26*
X0368790Y0212700D03*
X0315090Y0270300D03*
X0299390Y0299750D02*
G75*
%LPD*%
D11*
X0321030Y0328560D03*
X0321030Y0333560D03*
X0321030Y0338560D03*
X0321030Y0343560D03*
X0347530Y0343560D03*
X0347530Y0338560D03*
X0347530Y0333560D03*
X0347530Y0328560D03*
D52*
X0371020Y0349660D03*
X0371020Y0356740D03*
X0353390Y0354210D03*
X0353390Y0361290D03*
X0345390Y0361290D03*
X0345390Y0354210D03*
X0321390Y0354210D03*
X0321390Y0361290D03*
D15*
X0362900Y0368860D03*
X0362900Y0351860D03*
D49*
X0361970Y0343490D03*
X0369060Y0343490D03*
X0328320Y0320890D03*
X0321240Y0320890D03*
D31*
X0329490Y0353120D03*
X0337390Y0353020D03*
X0337390Y0361280D03*
X0329490Y0361380D03*
X0377050Y0364560D03*
X0385320Y0364560D03*
D33*
X0369010Y0337080D03*
X0369010Y0333340D03*
X0369010Y0329600D03*
X0358770Y0329600D03*
X0358770Y0337080D03*
D10*
X0379390Y0379750D03*
X0309390Y0379750D03*
D45*
X0331090Y0306850D03*
X0355890Y0306850D03*
D51*
X0347320Y0372410D03*
X0344760Y0372410D03*
X0342200Y0372410D03*
X0339640Y0372410D03*
X0337080Y0372410D03*
D17*
X0337480Y0382940D03*
X0346920Y0382940D03*
X0357750Y0382940D03*
X0326650Y0382940D03*
D16*
X0334330Y0373890D03*
X0350070Y0373890D03*
D12*
X0304390Y0304750D03*
X0304390Y0314750D03*
X0304390Y0324750D03*
X0304390Y0334750D03*
X0304390Y0344750D03*
X0304390Y0354750D03*
X0304390Y0364750D03*
X0384390Y0354750D03*
X0384390Y0344750D03*
X0384390Y0314750D03*
X0384390Y0304750D03*
D42*
X0368890Y0319750D03*
X0351890Y0319750D03*
D26*
X0368790Y0308950D03*
X0315090Y0366550D03*
M02*
