%
T01C0.023600
X2767Y3393
X3638Y2822
X5100Y4500
X4538Y5872
X5550Y6050
X7545Y4729
X7548Y4178
X6617Y3590
X8200Y7650
X6168Y8514
X4594Y8514
X2767Y13018
X3638Y12447
X5100Y14125
X4538Y15497
X5550Y15675
X7545Y14354
X7548Y13803
X6617Y13215
X8200Y17275
X6168Y18139
X4594Y18139
X2767Y22643
X3638Y22072
X5100Y23750
X4538Y25122
X5550Y25300
X7545Y23979
X7548Y23428
X6617Y22840
X8200Y26900
X6168Y27764
X4594Y27764
X2767Y32268
X3638Y31697
X5100Y33375
X4538Y34747
X5550Y34925
X7545Y33604
X7548Y33053
X6617Y32465
X8200Y36525
X6168Y37389
X4594Y37389
X12380Y3393
X13251Y2822
X14713Y4500
X14151Y5872
X15163Y6050
X17158Y4729
X17161Y4178
X16230Y3590
X17813Y7650
X15781Y8514
X14207Y8514
X12380Y13018
X13251Y12447
X14713Y14125
X14151Y15497
X15163Y15675
X17158Y14354
X17161Y13803
X16230Y13215
X17813Y17275
X15781Y18139
X14207Y18139
X12380Y22643
X13251Y22072
X14713Y23750
X14151Y25122
X15163Y25300
X17158Y23979
X17161Y23428
X16230Y22840
X17813Y26900
X15781Y27764
X14207Y27764
X12380Y32268
X13251Y31697
X14713Y33375
X14151Y34747
X15163Y34925
X17158Y33604
X17161Y33053
X16230Y32465
X17813Y36525
X15781Y37389
X14207Y37389
X21993Y3393
X22864Y2822
X24326Y4500
X23764Y5872
X24776Y6050
X26771Y4729
X26774Y4178
X25843Y3590
X27426Y7650
X25394Y8514
X23820Y8514
X21993Y13018
X22864Y12447
X24326Y14125
X23764Y15497
X24776Y15675
X26771Y14354
X26774Y13803
X25843Y13215
X27426Y17275
X25394Y18139
X23820Y18139
X21993Y22643
X22864Y22072
X24326Y23750
X23764Y25122
X24776Y25300
X26771Y23979
X26774Y23428
X25843Y22840
X27426Y26900
X25394Y27764
X23820Y27764
X21993Y32268
X22864Y31697
X24326Y33375
X23764Y34747
X24776Y34925
X26771Y33604
X26774Y33053
X25843Y32465
X27426Y36525
X25394Y37389
X23820Y37389
X31606Y3393
X32477Y2822
X33939Y4500
X33377Y5872
X34389Y6050
X36384Y4729
X36387Y4178
X35456Y3590
X37039Y7650
X35007Y8514
X33433Y8514
X31606Y13018
X32477Y12447
X33939Y14125
X33377Y15497
X34389Y15675
X36384Y14354
X36387Y13803
X35456Y13215
X37039Y17275
X35007Y18139
X33433Y18139
X31606Y22643
X32477Y22072
X33939Y23750
X33377Y25122
X34389Y25300
X36384Y23979
X36387Y23428
X35456Y22840
X37039Y26900
X35007Y27764
X33433Y27764
X31606Y32268
X32477Y31697
X33939Y33375
X33377Y34747
X34389Y34925
X36384Y33604
X36387Y33053
X35456Y32465
X37039Y36525
X35007Y37389
X33433Y37389
T02C0.039700
X8040Y2020
X2670Y7780
X1600Y1600
X1600Y2600
X1600Y3600
X1600Y4600
X1600Y5600
X1600Y6600
X1600Y7600
X9600Y6600
X9600Y5600
X9600Y2600
X9600Y1600
X8040Y11645
X2670Y17405
X1600Y11225
X1600Y12225
X1600Y13225
X1600Y14225
X1600Y15225
X1600Y16225
X1600Y17225
X9600Y16225
X9600Y15225
X9600Y12225
X9600Y11225
X8040Y21270
X2670Y27030
X1600Y20850
X1600Y21850
X1600Y22850
X1600Y23850
X1600Y24850
X1600Y25850
X1600Y26850
X9600Y25850
X9600Y24850
X9600Y21850
X9600Y20850
X8040Y30895
X2670Y36655
X1600Y30475
X1600Y31475
X1600Y32475
X1600Y33475
X1600Y34475
X1600Y35475
X1600Y36475
X9600Y35475
X9600Y34475
X9600Y31475
X9600Y30475
X17653Y2020
X12283Y7780
X11213Y1600
X11213Y2600
X11213Y3600
X11213Y4600
X11213Y5600
X11213Y6600
X11213Y7600
X19213Y6600
X19213Y5600
X19213Y2600
X19213Y1600
X17653Y11645
X12283Y17405
X11213Y11225
X11213Y12225
X11213Y13225
X11213Y14225
X11213Y15225
X11213Y16225
X11213Y17225
X19213Y16225
X19213Y15225
X19213Y12225
X19213Y11225
X17653Y21270
X12283Y27030
X11213Y20850
X11213Y21850
X11213Y22850
X11213Y23850
X11213Y24850
X11213Y25850
X11213Y26850
X19213Y25850
X19213Y24850
X19213Y21850
X19213Y20850
X17653Y30895
X12283Y36655
X11213Y30475
X11213Y31475
X11213Y32475
X11213Y33475
X11213Y34475
X11213Y35475
X11213Y36475
X19213Y35475
X19213Y34475
X19213Y31475
X19213Y30475
X27266Y2020
X21896Y7780
X20826Y1600
X20826Y2600
X20826Y3600
X20826Y4600
X20826Y5600
X20826Y6600
X20826Y7600
X28826Y6600
X28826Y5600
X28826Y2600
X28826Y1600
X27266Y11645
X21896Y17405
X20826Y11225
X20826Y12225
X20826Y13225
X20826Y14225
X20826Y15225
X20826Y16225
X20826Y17225
X28826Y16225
X28826Y15225
X28826Y12225
X28826Y11225
X27266Y21270
X21896Y27030
X20826Y20850
X20826Y21850
X20826Y22850
X20826Y23850
X20826Y24850
X20826Y25850
X20826Y26850
X28826Y25850
X28826Y24850
X28826Y21850
X28826Y20850
X27266Y30895
X21896Y36655
X20826Y30475
X20826Y31475
X20826Y32475
X20826Y33475
X20826Y34475
X20826Y35475
X20826Y36475
X28826Y35475
X28826Y34475
X28826Y31475
X28826Y30475
X36879Y2020
X31509Y7780
X30439Y1600
X30439Y2600
X30439Y3600
X30439Y4600
X30439Y5600
X30439Y6600
X30439Y7600
X38439Y6600
X38439Y5600
X38439Y2600
X38439Y1600
X36879Y11645
X31509Y17405
X30439Y11225
X30439Y12225
X30439Y13225
X30439Y14225
X30439Y15225
X30439Y16225
X30439Y17225
X38439Y16225
X38439Y15225
X38439Y12225
X38439Y11225
X36879Y21270
X31509Y27030
X30439Y20850
X30439Y21850
X30439Y22850
X30439Y23850
X30439Y24850
X30439Y25850
X30439Y26850
X38439Y25850
X38439Y24850
X38439Y21850
X38439Y20850
X36879Y30895
X31509Y36655
X30439Y30475
X30439Y31475
X30439Y32475
X30439Y33475
X30439Y34475
X30439Y35475
X30439Y36475
X38439Y35475
X38439Y34475
X38439Y31475
X38439Y30475
T03C0.086600
X2100Y9100
X9100Y9100
X2100Y18725
X9100Y18725
X2100Y28350
X9100Y28350
X2100Y37975
X9100Y37975
X11713Y9100
X18713Y9100
X11713Y18725
X18713Y18725
X11713Y28350
X18713Y28350
X11713Y37975
X18713Y37975
X21326Y9100
X28326Y9100
X21326Y18725
X28326Y18725
X21326Y28350
X28326Y28350
X21326Y37975
X28326Y37975
X30939Y9100
X37939Y9100
X30939Y18725
X37939Y18725
X30939Y28350
X37939Y28350
X30939Y37975
X37939Y37975
M30
