G75*
G70*
%OFA0B0*%
%FSLAX25Y25*%
%IPPOS*%
%LPD*%
%AMOC8*
5,1,8,0,0,1.08239X$1,22.5*
%
%ADD10C,0.13060*%
%ADD12C,0.07000*%
%ADD16C,0.02760*%
%ADD25R,0.02900X0.01200*%
%ADD26C,0.07400*%
%ADD28R,0.00600X0.07200*%
%ADD29R,0.05000X0.06700*%
X0011000Y0011000D02*
G75*
%LPD*%
D10*
X0021000Y0091000D03*
X0091000Y0091000D03*
D16*
X0061680Y0085140D03*
X0045940Y0085140D03*
D12*
X0016000Y0016000D03*
X0016000Y0026000D03*
X0016000Y0036000D03*
X0016000Y0046000D03*
X0016000Y0056000D03*
X0016000Y0066000D03*
X0016000Y0076000D03*
X0096000Y0066000D03*
X0096000Y0056000D03*
X0096000Y0026000D03*
X0096000Y0016000D03*
D29*
X0094000Y0076000D03*
X0088000Y0076000D03*
D25*
X0091000Y0076000D03*
D28*
X0091000Y0076000D03*
D26*
X0080400Y0020200D03*
X0026700Y0077800D03*
X0011000Y0107250D02*
G75*
%LPD*%
D10*
X0021000Y0187250D03*
X0091000Y0187250D03*
D16*
X0061680Y0181390D03*
X0045940Y0181390D03*
D12*
X0016000Y0112250D03*
X0016000Y0122250D03*
X0016000Y0132250D03*
X0016000Y0142250D03*
X0016000Y0152250D03*
X0016000Y0162250D03*
X0016000Y0172250D03*
X0096000Y0162250D03*
X0096000Y0152250D03*
X0096000Y0122250D03*
X0096000Y0112250D03*
D29*
X0094000Y0172250D03*
X0088000Y0172250D03*
D25*
X0091000Y0172250D03*
D28*
X0091000Y0172250D03*
D26*
X0080400Y0116450D03*
X0026700Y0174050D03*
X0011000Y0203500D02*
G75*
%LPD*%
D10*
X0021000Y0283500D03*
X0091000Y0283500D03*
D16*
X0061680Y0277640D03*
X0045940Y0277640D03*
D12*
X0016000Y0208500D03*
X0016000Y0218500D03*
X0016000Y0228500D03*
X0016000Y0238500D03*
X0016000Y0248500D03*
X0016000Y0258500D03*
X0016000Y0268500D03*
X0096000Y0258500D03*
X0096000Y0248500D03*
X0096000Y0218500D03*
X0096000Y0208500D03*
D29*
X0094000Y0268500D03*
X0088000Y0268500D03*
D25*
X0091000Y0268500D03*
D28*
X0091000Y0268500D03*
D26*
X0080400Y0212700D03*
X0026700Y0270300D03*
X0011000Y0299750D02*
G75*
%LPD*%
D10*
X0021000Y0379750D03*
X0091000Y0379750D03*
D16*
X0061680Y0373890D03*
X0045940Y0373890D03*
D12*
X0016000Y0304750D03*
X0016000Y0314750D03*
X0016000Y0324750D03*
X0016000Y0334750D03*
X0016000Y0344750D03*
X0016000Y0354750D03*
X0016000Y0364750D03*
X0096000Y0354750D03*
X0096000Y0344750D03*
X0096000Y0314750D03*
X0096000Y0304750D03*
D29*
X0094000Y0364750D03*
X0088000Y0364750D03*
D25*
X0091000Y0364750D03*
D28*
X0091000Y0364750D03*
D26*
X0080400Y0308950D03*
X0026700Y0366550D03*
X0107130Y0011000D02*
G75*
%LPD*%
D10*
X0117130Y0091000D03*
X0187130Y0091000D03*
D16*
X0157810Y0085140D03*
X0142070Y0085140D03*
D12*
X0112130Y0016000D03*
X0112130Y0026000D03*
X0112130Y0036000D03*
X0112130Y0046000D03*
X0112130Y0056000D03*
X0112130Y0066000D03*
X0112130Y0076000D03*
X0192130Y0066000D03*
X0192130Y0056000D03*
X0192130Y0026000D03*
X0192130Y0016000D03*
D29*
X0190130Y0076000D03*
X0184130Y0076000D03*
D25*
X0187130Y0076000D03*
D28*
X0187130Y0076000D03*
D26*
X0176530Y0020200D03*
X0122830Y0077800D03*
X0107130Y0107250D02*
G75*
%LPD*%
D10*
X0117130Y0187250D03*
X0187130Y0187250D03*
D16*
X0157810Y0181390D03*
X0142070Y0181390D03*
D12*
X0112130Y0112250D03*
X0112130Y0122250D03*
X0112130Y0132250D03*
X0112130Y0142250D03*
X0112130Y0152250D03*
X0112130Y0162250D03*
X0112130Y0172250D03*
X0192130Y0162250D03*
X0192130Y0152250D03*
X0192130Y0122250D03*
X0192130Y0112250D03*
D29*
X0190130Y0172250D03*
X0184130Y0172250D03*
D25*
X0187130Y0172250D03*
D28*
X0187130Y0172250D03*
D26*
X0176530Y0116450D03*
X0122830Y0174050D03*
X0107130Y0203500D02*
G75*
%LPD*%
D10*
X0117130Y0283500D03*
X0187130Y0283500D03*
D16*
X0157810Y0277640D03*
X0142070Y0277640D03*
D12*
X0112130Y0208500D03*
X0112130Y0218500D03*
X0112130Y0228500D03*
X0112130Y0238500D03*
X0112130Y0248500D03*
X0112130Y0258500D03*
X0112130Y0268500D03*
X0192130Y0258500D03*
X0192130Y0248500D03*
X0192130Y0218500D03*
X0192130Y0208500D03*
D29*
X0190130Y0268500D03*
X0184130Y0268500D03*
D25*
X0187130Y0268500D03*
D28*
X0187130Y0268500D03*
D26*
X0176530Y0212700D03*
X0122830Y0270300D03*
X0107130Y0299750D02*
G75*
%LPD*%
D10*
X0117130Y0379750D03*
X0187130Y0379750D03*
D16*
X0157810Y0373890D03*
X0142070Y0373890D03*
D12*
X0112130Y0304750D03*
X0112130Y0314750D03*
X0112130Y0324750D03*
X0112130Y0334750D03*
X0112130Y0344750D03*
X0112130Y0354750D03*
X0112130Y0364750D03*
X0192130Y0354750D03*
X0192130Y0344750D03*
X0192130Y0314750D03*
X0192130Y0304750D03*
D29*
X0190130Y0364750D03*
X0184130Y0364750D03*
D25*
X0187130Y0364750D03*
D28*
X0187130Y0364750D03*
D26*
X0176530Y0308950D03*
X0122830Y0366550D03*
X0203260Y0011000D02*
G75*
%LPD*%
D10*
X0213260Y0091000D03*
X0283260Y0091000D03*
D16*
X0253940Y0085140D03*
X0238200Y0085140D03*
D12*
X0208260Y0016000D03*
X0208260Y0026000D03*
X0208260Y0036000D03*
X0208260Y0046000D03*
X0208260Y0056000D03*
X0208260Y0066000D03*
X0208260Y0076000D03*
X0288260Y0066000D03*
X0288260Y0056000D03*
X0288260Y0026000D03*
X0288260Y0016000D03*
D29*
X0286260Y0076000D03*
X0280260Y0076000D03*
D25*
X0283260Y0076000D03*
D28*
X0283260Y0076000D03*
D26*
X0272660Y0020200D03*
X0218960Y0077800D03*
X0203260Y0107250D02*
G75*
%LPD*%
D10*
X0213260Y0187250D03*
X0283260Y0187250D03*
D16*
X0253940Y0181390D03*
X0238200Y0181390D03*
D12*
X0208260Y0112250D03*
X0208260Y0122250D03*
X0208260Y0132250D03*
X0208260Y0142250D03*
X0208260Y0152250D03*
X0208260Y0162250D03*
X0208260Y0172250D03*
X0288260Y0162250D03*
X0288260Y0152250D03*
X0288260Y0122250D03*
X0288260Y0112250D03*
D29*
X0286260Y0172250D03*
X0280260Y0172250D03*
D25*
X0283260Y0172250D03*
D28*
X0283260Y0172250D03*
D26*
X0272660Y0116450D03*
X0218960Y0174050D03*
X0203260Y0203500D02*
G75*
%LPD*%
D10*
X0213260Y0283500D03*
X0283260Y0283500D03*
D16*
X0253940Y0277640D03*
X0238200Y0277640D03*
D12*
X0208260Y0208500D03*
X0208260Y0218500D03*
X0208260Y0228500D03*
X0208260Y0238500D03*
X0208260Y0248500D03*
X0208260Y0258500D03*
X0208260Y0268500D03*
X0288260Y0258500D03*
X0288260Y0248500D03*
X0288260Y0218500D03*
X0288260Y0208500D03*
D29*
X0286260Y0268500D03*
X0280260Y0268500D03*
D25*
X0283260Y0268500D03*
D28*
X0283260Y0268500D03*
D26*
X0272660Y0212700D03*
X0218960Y0270300D03*
X0203260Y0299750D02*
G75*
%LPD*%
D10*
X0213260Y0379750D03*
X0283260Y0379750D03*
D16*
X0253940Y0373890D03*
X0238200Y0373890D03*
D12*
X0208260Y0304750D03*
X0208260Y0314750D03*
X0208260Y0324750D03*
X0208260Y0334750D03*
X0208260Y0344750D03*
X0208260Y0354750D03*
X0208260Y0364750D03*
X0288260Y0354750D03*
X0288260Y0344750D03*
X0288260Y0314750D03*
X0288260Y0304750D03*
D29*
X0286260Y0364750D03*
X0280260Y0364750D03*
D25*
X0283260Y0364750D03*
D28*
X0283260Y0364750D03*
D26*
X0272660Y0308950D03*
X0218960Y0366550D03*
X0299390Y0011000D02*
G75*
%LPD*%
D10*
X0309390Y0091000D03*
X0379390Y0091000D03*
D16*
X0350070Y0085140D03*
X0334330Y0085140D03*
D12*
X0304390Y0016000D03*
X0304390Y0026000D03*
X0304390Y0036000D03*
X0304390Y0046000D03*
X0304390Y0056000D03*
X0304390Y0066000D03*
X0304390Y0076000D03*
X0384390Y0066000D03*
X0384390Y0056000D03*
X0384390Y0026000D03*
X0384390Y0016000D03*
D29*
X0382390Y0076000D03*
X0376390Y0076000D03*
D25*
X0379390Y0076000D03*
D28*
X0379390Y0076000D03*
D26*
X0368790Y0020200D03*
X0315090Y0077800D03*
X0299390Y0107250D02*
G75*
%LPD*%
D10*
X0309390Y0187250D03*
X0379390Y0187250D03*
D16*
X0350070Y0181390D03*
X0334330Y0181390D03*
D12*
X0304390Y0112250D03*
X0304390Y0122250D03*
X0304390Y0132250D03*
X0304390Y0142250D03*
X0304390Y0152250D03*
X0304390Y0162250D03*
X0304390Y0172250D03*
X0384390Y0162250D03*
X0384390Y0152250D03*
X0384390Y0122250D03*
X0384390Y0112250D03*
D29*
X0382390Y0172250D03*
X0376390Y0172250D03*
D25*
X0379390Y0172250D03*
D28*
X0379390Y0172250D03*
D26*
X0368790Y0116450D03*
X0315090Y0174050D03*
X0299390Y0203500D02*
G75*
%LPD*%
D10*
X0309390Y0283500D03*
X0379390Y0283500D03*
D16*
X0350070Y0277640D03*
X0334330Y0277640D03*
D12*
X0304390Y0208500D03*
X0304390Y0218500D03*
X0304390Y0228500D03*
X0304390Y0238500D03*
X0304390Y0248500D03*
X0304390Y0258500D03*
X0304390Y0268500D03*
X0384390Y0258500D03*
X0384390Y0248500D03*
X0384390Y0218500D03*
X0384390Y0208500D03*
D29*
X0382390Y0268500D03*
X0376390Y0268500D03*
D25*
X0379390Y0268500D03*
D28*
X0379390Y0268500D03*
D26*
X0368790Y0212700D03*
X0315090Y0270300D03*
X0299390Y0299750D02*
G75*
%LPD*%
D10*
X0309390Y0379750D03*
X0379390Y0379750D03*
D16*
X0350070Y0373890D03*
X0334330Y0373890D03*
D12*
X0304390Y0304750D03*
X0304390Y0314750D03*
X0304390Y0324750D03*
X0304390Y0334750D03*
X0304390Y0344750D03*
X0304390Y0354750D03*
X0304390Y0364750D03*
X0384390Y0354750D03*
X0384390Y0344750D03*
X0384390Y0314750D03*
X0384390Y0304750D03*
D29*
X0382390Y0364750D03*
X0376390Y0364750D03*
D25*
X0379390Y0364750D03*
D28*
X0379390Y0364750D03*
D26*
X0368790Y0308950D03*
X0315090Y0366550D03*
M02*
