<?xml version="1.0" encoding="UTF-8" standalone="no"?>
<svg
   xmlns:dc="http://purl.org/dc/elements/1.1/"
   xmlns:cc="http://creativecommons.org/ns#"
   xmlns:rdf="http://www.w3.org/1999/02/22-rdf-syntax-ns#"
   xmlns:svg="http://www.w3.org/2000/svg"
   xmlns="http://www.w3.org/2000/svg"
   viewBox="0 0 353.75 353.75"
   height="353.75"
   width="353.75"
   xml:space="preserve"
   version="1.1"
   id="svg126478"><metadata
     id="metadata126484"><rdf:RDF><cc:Work
         rdf:about=""><dc:format>image/svg+xml</dc:format><dc:type
           rdf:resource="http://purl.org/dc/dcmitype/StillImage" /><dc:title></dc:title></cc:Work></rdf:RDF></metadata><defs
     id="defs126482"><clipPath
       id="clipPath126502"
       clipPathUnits="userSpaceOnUse"><path
         style="clip-rule:evenodd"
         id="path126504"
         d="m 198,198 4328,0 0,4328 -4328,0 0,-4328 z" /></clipPath><clipPath
       id="clipPath126512"
       clipPathUnits="userSpaceOnUse"><path
         style="clip-rule:evenodd"
         id="path126514"
         d="m 198,198 4328,0 0,4328 -4328,0 0,-4328 z" /></clipPath><clipPath
       id="clipPath126518"
       clipPathUnits="userSpaceOnUse"><path
         style="clip-rule:evenodd"
         id="path126520"
         d="m 1758,1750 1207,0 0,1224 -1207,0 0,-1224 z" /></clipPath><filter
       x="0"
       y="0"
       width="1"
       height="1"
       color-interpolation-filters="sRGB"
       id="filter3557"><feColorMatrix
         id="feColorMatrix3559"
         result="result14"
         type="luminanceToAlpha"
         in="SourceGraphic" /><feComposite
         in2="result14"
         operator="out"
         in="SourceGraphic"
         result="fbSourceGraphic"
         id="feComposite3561" /><feBlend
         in2="fbSourceGraphic"
         mode="normal"
         result="fbSourceGraphic"
         id="feBlend3563" /><feColorMatrix
         result="fbSourceGraphicAlpha"
         in="fbSourceGraphic"
         values="0 0 0 -1 0 0 0 0 -1 0 0 0 0 -1 0 0 0 0 1 0"
         id="feColorMatrix3937" /><feColorMatrix
         id="feColorMatrix3939"
         type="saturate"
         values="1"
         result="fbSourceGraphic"
         in="fbSourceGraphic" /><feColorMatrix
         id="feColorMatrix3941"
         in="fbSourceGraphic"
         values="-1 0 0 0 1 0 -1 0 0 1 0 0 -1 0 1 0 0 0 1 0 "
         result="fbSourceGraphic" /><feColorMatrix
         result="fbSourceGraphicAlpha"
         in="fbSourceGraphic"
         values="0 0 0 -1 0 0 0 0 -1 0 0 0 0 -1 0 0 0 0 1 0"
         id="feColorMatrix3943" /><feColorMatrix
         id="feColorMatrix3945"
         type="saturate"
         values="1"
         result="fbSourceGraphic"
         in="fbSourceGraphic" /><feColorMatrix
         id="feColorMatrix3947"
         in="fbSourceGraphic"
         values="-1 0 0 0 1 0 -1 0 0 1 0 0 -1 0 1 0 0 0 1 0 "
         result="fbSourceGraphic" /><feColorMatrix
         result="fbSourceGraphicAlpha"
         in="fbSourceGraphic"
         values="0 0 0 -1 0 0 0 0 -1 0 0 0 0 -1 0 0 0 0 1 0"
         id="feColorMatrix3949" /><feColorMatrix
         id="feColorMatrix3951"
         type="saturate"
         values="1"
         result="fbSourceGraphic"
         in="fbSourceGraphic" /><feColorMatrix
         id="feColorMatrix3953"
         in="fbSourceGraphic"
         values="-1 0 0 0 1 0 -1 0 0 1 0 0 -1 0 1 0 0 0 1 0 " /></filter></defs><g
     style="display:inline"
     id="layer2"><path
       d="m 110.4,110.2 64.62,0"
       style="display:inline;fill:none;stroke:#000000;stroke-width:0.08;stroke-linecap:round;stroke-linejoin:round;stroke-miterlimit:10;stroke-dasharray:none;stroke-opacity:1"
       id="path126618"
       transform="matrix(1.25,0,0,-1.25,0,353.75)" /><path
       d="m 175.02,110.2 0,64.68"
       style="display:inline;fill:none;stroke:#000000;stroke-width:0.08;stroke-linecap:round;stroke-linejoin:round;stroke-miterlimit:10;stroke-dasharray:none;stroke-opacity:1"
       id="path126620"
       transform="matrix(1.25,0,0,-1.25,0,353.75)" /><path
       d="m 175.02,174.88 -64.62,0"
       style="display:inline;fill:none;stroke:#000000;stroke-width:0.08;stroke-linecap:round;stroke-linejoin:round;stroke-miterlimit:10;stroke-dasharray:none;stroke-opacity:1"
       id="path126622"
       transform="matrix(1.25,0,0,-1.25,0,353.75)" /><path
       d="m 110.4,174.88 0,-64.68"
       style="display:inline;fill:none;stroke:#000000;stroke-width:0.08;stroke-linecap:round;stroke-linejoin:round;stroke-miterlimit:10;stroke-dasharray:none;stroke-opacity:1"
       id="path126624"
       transform="matrix(1.25,0,0,-1.25,0,353.75)" /></g><g
     style="display:none"
     transform="matrix(1.25,0,0,-1.25,0,353.75)"
     id="g126486"><g
       transform="matrix(0.06,0,0,-0.06,0,283)"
       id="g126490"><g
         id="g126492" /></g><g
       transform="matrix(0.06,0,0,-0.06,0,283)"
       id="g126494"><g
         id="g126496" /></g><g
       transform="matrix(0.06,0,0,-0.06,0,283)"
       id="g126498"><g
         id="g126500"
         clip-path="url(#clipPath126502)"><g
           id="g126506" /></g></g><path
       d="m 122.28,167.68 c 0,-2.58469 -2.09531,-4.68 -4.68,-4.68 -2.58469,0 -4.68,2.09531 -4.68,4.68 0,2.58469 2.09531,4.68 4.68,4.68 2.58469,0 4.68,-2.09531 4.68,-4.68 z"
       style="fill:#000000;fill-opacity:1;fill-rule:evenodd;stroke:#000000;stroke-width:0.79999995;stroke-linecap:round;stroke-linejoin:round;stroke-miterlimit:10;stroke-dasharray:none;stroke-opacity:1"
       id="path126526" /><path
       d="m 120.84,167.68 c 0,-1.7894 -1.4506,-3.24 -3.24,-3.24 -1.7894,0 -3.24,1.4506 -3.24,3.24 0,1.7894 1.4506,3.24 3.24,3.24 1.7894,0 3.24,-1.4506 3.24,-3.24 z"
       style="fill:#ffffff;fill-opacity:1;fill-rule:evenodd;stroke:#000000;stroke-width:0.06;stroke-linecap:square;stroke-linejoin:bevel;stroke-miterlimit:10;stroke-dasharray:none;stroke-opacity:1"
       id="path126528" /><path
       d="m 172.56,167.68 c 0,-2.58469 -2.09531,-4.68 -4.68,-4.68 -2.58469,0 -4.68,2.09531 -4.68,4.68 0,2.58469 2.09531,4.68 4.68,4.68 2.58469,0 4.68,-2.09531 4.68,-4.68 z"
       style="fill:#000000;fill-opacity:1;fill-rule:evenodd;stroke:#000000;stroke-width:0.792;stroke-linecap:round;stroke-linejoin:round;stroke-miterlimit:10;stroke-dasharray:none;stroke-opacity:1"
       id="path126530" /><path
       d="m 171.12,167.68 c 0,-1.7894 -1.4506,-3.24 -3.24,-3.24 -1.7894,0 -3.24,1.4506 -3.24,3.24 0,1.7894 1.4506,3.24 3.24,3.24 1.7894,0 3.24,-1.4506 3.24,-3.24 z"
       style="fill:#ffffff;fill-opacity:1;fill-rule:evenodd;stroke:#000000;stroke-width:0.06;stroke-linecap:square;stroke-linejoin:bevel;stroke-miterlimit:10;stroke-dasharray:none;stroke-opacity:1"
       id="path126532" /><path
       d="m 173.88,149.74 c 0,-1.32548 -1.07452,-2.4 -2.4,-2.4 -1.32548,0 -2.4,1.07452 -2.4,2.4 0,1.32548 1.07452,2.4 2.4,2.4 1.32548,0 2.4,-1.07452 2.4,-2.4 z"
       style="fill:none;fill-opacity:1;fill-rule:evenodd;stroke:#00f100;stroke-width:0.792;stroke-linecap:round;stroke-linejoin:round;stroke-miterlimit:10;stroke-dasharray:none;stroke-opacity:1"
       id="path126534" /><path
       d="m 172.92,149.74 c 0,-0.79529 -0.64471,-1.44 -1.44,-1.44 -0.79529,0 -1.44,0.64471 -1.44,1.44 0,0.79529 0.64471,1.44 1.44,1.44 0.79529,0 1.44,-0.64471 1.44,-1.44 z"
       style="fill:none;fill-opacity:1;fill-rule:evenodd;stroke:#00f100;stroke-width:0.06;stroke-linecap:square;stroke-linejoin:bevel;stroke-miterlimit:10;stroke-dasharray:none;stroke-opacity:1"
       id="path126536" /><path
       d="m 173.88,142.54 c 0,-1.32548 -1.07452,-2.4 -2.4,-2.4 -1.32548,0 -2.4,1.07452 -2.4,2.4 0,1.32548 1.07452,2.4 2.4,2.4 1.32548,0 2.4,-1.07452 2.4,-2.4 z"
       style="fill:none;fill-opacity:1;fill-rule:evenodd;stroke:#00f100;stroke-width:0.79999995;stroke-linecap:round;stroke-linejoin:round;stroke-miterlimit:10;stroke-dasharray:none;stroke-opacity:1"
       id="path126538" /><path
       d="m 172.92,142.54 c 0,-0.79529 -0.64471,-1.44 -1.44,-1.44 -0.79529,0 -1.44,0.64471 -1.44,1.44 0,0.79529 0.64471,1.44 1.44,1.44 0.79529,0 1.44,-0.64471 1.44,-1.44 z"
       style="fill:none;fill-opacity:1;fill-rule:evenodd;stroke:#00f100;stroke-width:0.06;stroke-linecap:square;stroke-linejoin:bevel;stroke-miterlimit:10;stroke-dasharray:none;stroke-opacity:1"
       id="path126540" /><path
       d="m 173.88,121 c 0,-1.32548 -1.07452,-2.4 -2.4,-2.4 -1.32548,0 -2.4,1.07452 -2.4,2.4 0,1.32548 1.07452,2.4 2.4,2.4 1.32548,0 2.4,-1.07452 2.4,-2.4 z"
       style="fill:none;fill-opacity:1;fill-rule:evenodd;stroke:#00f100;stroke-width:0.79999995;stroke-linecap:round;stroke-linejoin:round;stroke-miterlimit:10;stroke-dasharray:none;stroke-opacity:1"
       id="path126542" /><path
       d="m 172.92,121 c 0,-0.79529 -0.64471,-1.44 -1.44,-1.44 -0.79529,0 -1.44,0.64471 -1.44,1.44 0,0.79529 0.64471,1.44 1.44,1.44 0.79529,0 1.44,-0.64471 1.44,-1.44 z"
       style="fill:none;fill-opacity:1;fill-rule:evenodd;stroke:#00f100;stroke-width:0.06;stroke-linecap:square;stroke-linejoin:bevel;stroke-miterlimit:10;stroke-dasharray:none;stroke-opacity:1"
       id="path126544" /><path
       d="m 173.88,113.8 c 0,-1.32548 -1.07452,-2.4 -2.4,-2.4 -1.32548,0 -2.4,1.07452 -2.4,2.4 0,1.32548 1.07452,2.4 2.4,2.4 1.32548,0 2.4,-1.07452 2.4,-2.4 z"
       style="fill:none;fill-opacity:1;fill-rule:evenodd;stroke:#00f100;stroke-width:0.79999995;stroke-linecap:round;stroke-linejoin:round;stroke-miterlimit:10;stroke-dasharray:none;stroke-opacity:1"
       id="path126546" /><path
       d="m 172.92,113.8 c 0,-0.79529 -0.64471,-1.44 -1.44,-1.44 -0.79529,0 -1.44,0.64471 -1.44,1.44 0,0.79529 0.64471,1.44 1.44,1.44 0.79529,0 1.44,-0.64471 1.44,-1.44 z"
       style="fill:none;fill-opacity:1;fill-rule:evenodd;stroke:#00f100;stroke-width:0.06;stroke-linecap:square;stroke-linejoin:bevel;stroke-miterlimit:10;stroke-dasharray:none;stroke-opacity:1"
       id="path126548" /><path
       d="m 116.4,156.94 c 0,-1.32548 -1.07452,-2.4 -2.4,-2.4 -1.32548,0 -2.4,1.07452 -2.4,2.4 0,1.32548 1.07452,2.4 2.4,2.4 1.32548,0 2.4,-1.07452 2.4,-2.4 z"
       style="fill:none;fill-opacity:1;fill-rule:evenodd;stroke:#00f100;stroke-width:0.79999995;stroke-linecap:round;stroke-linejoin:round;stroke-miterlimit:10;stroke-dasharray:none;stroke-opacity:1"
       id="path126550" /><path
       d="m 115.44,156.94 c 0,-0.79529 -0.64471,-1.44 -1.44,-1.44 -0.79529,0 -1.44,0.64471 -1.44,1.44 0,0.79529 0.64471,1.44 1.44,1.44 0.79529,0 1.44,-0.64471 1.44,-1.44 z"
       style="fill:none;fill-opacity:1;fill-rule:evenodd;stroke:#00f100;stroke-width:0.06;stroke-linecap:square;stroke-linejoin:bevel;stroke-miterlimit:10;stroke-dasharray:none;stroke-opacity:1"
       id="path126552" /><path
       d="m 116.4,149.74 c 0,-1.32548 -1.07452,-2.4 -2.4,-2.4 -1.32548,0 -2.4,1.07452 -2.4,2.4 0,1.32548 1.07452,2.4 2.4,2.4 1.32548,0 2.4,-1.07452 2.4,-2.4 z"
       style="fill:none;fill-opacity:1;fill-rule:evenodd;stroke:#00f100;stroke-width:0.79999995;stroke-linecap:round;stroke-linejoin:round;stroke-miterlimit:10;stroke-dasharray:none;stroke-opacity:1"
       id="path126554" /><path
       d="m 115.44,149.74 c 0,-0.79529 -0.64471,-1.44 -1.44,-1.44 -0.79529,0 -1.44,0.64471 -1.44,1.44 0,0.79529 0.64471,1.44 1.44,1.44 0.79529,0 1.44,-0.64471 1.44,-1.44 z"
       style="fill:none;fill-opacity:1;fill-rule:evenodd;stroke:#00f100;stroke-width:0.06;stroke-linecap:square;stroke-linejoin:bevel;stroke-miterlimit:10;stroke-dasharray:none;stroke-opacity:1"
       id="path126556" /><path
       d="m 116.4,142.54 c 0,-1.32548 -1.07452,-2.4 -2.4,-2.4 -1.32548,0 -2.4,1.07452 -2.4,2.4 0,1.32548 1.07452,2.4 2.4,2.4 1.32548,0 2.4,-1.07452 2.4,-2.4 z"
       style="fill:none;fill-opacity:1;fill-rule:evenodd;stroke:#00f100;stroke-width:0.79999995;stroke-linecap:round;stroke-linejoin:round;stroke-miterlimit:10;stroke-dasharray:none;stroke-opacity:1"
       id="path126558" /><path
       d="m 115.44,142.54 c 0,-0.79529 -0.64471,-1.44 -1.44,-1.44 -0.79529,0 -1.44,0.64471 -1.44,1.44 0,0.79529 0.64471,1.44 1.44,1.44 0.79529,0 1.44,-0.64471 1.44,-1.44 z"
       style="fill:none;fill-opacity:1;fill-rule:evenodd;stroke:#00f100;stroke-width:0.06;stroke-linecap:square;stroke-linejoin:bevel;stroke-miterlimit:10;stroke-dasharray:none;stroke-opacity:1"
       id="path126560" /><path
       d="m 116.4,135.34 c 0,-1.32548 -1.07452,-2.4 -2.4,-2.4 -1.32548,0 -2.4,1.07452 -2.4,2.4 0,1.32548 1.07452,2.4 2.4,2.4 1.32548,0 2.4,-1.07452 2.4,-2.4 z"
       style="fill:none;fill-opacity:1;fill-rule:evenodd;stroke:#00f100;stroke-width:0.79999995;stroke-linecap:round;stroke-linejoin:round;stroke-miterlimit:10;stroke-dasharray:none;stroke-opacity:1"
       id="path126562" /><path
       d="m 115.44,135.34 c 0,-0.79529 -0.64471,-1.44 -1.44,-1.44 -0.79529,0 -1.44,0.64471 -1.44,1.44 0,0.79529 0.64471,1.44 1.44,1.44 0.79529,0 1.44,-0.64471 1.44,-1.44 z"
       style="fill:none;fill-opacity:1;fill-rule:evenodd;stroke:#00f100;stroke-width:0.06;stroke-linecap:square;stroke-linejoin:bevel;stroke-miterlimit:10;stroke-dasharray:none;stroke-opacity:1"
       id="path126564" /><path
       d="m 116.4,128.14 c 0,-1.32548 -1.07452,-2.4 -2.4,-2.4 -1.32548,0 -2.4,1.07452 -2.4,2.4 0,1.32548 1.07452,2.4 2.4,2.4 1.32548,0 2.4,-1.07452 2.4,-2.4 z"
       style="fill:none;fill-opacity:1;fill-rule:evenodd;stroke:#00f100;stroke-width:0.79999995;stroke-linecap:round;stroke-linejoin:round;stroke-miterlimit:10;stroke-dasharray:none;stroke-opacity:1"
       id="path126566" /><path
       d="m 115.44,128.14 c 0,-0.79529 -0.64471,-1.44 -1.44,-1.44 -0.79529,0 -1.44,0.64471 -1.44,1.44 0,0.79529 0.64471,1.44 1.44,1.44 0.79529,0 1.44,-0.64471 1.44,-1.44 z"
       style="fill:none;fill-opacity:1;fill-rule:evenodd;stroke:#00f100;stroke-width:0.06;stroke-linecap:square;stroke-linejoin:bevel;stroke-miterlimit:10;stroke-dasharray:none;stroke-opacity:1"
       id="path126568" /><path
       d="m 116.4,121 c 0,-1.32548 -1.07452,-2.4 -2.4,-2.4 -1.32548,0 -2.4,1.07452 -2.4,2.4 0,1.32548 1.07452,2.4 2.4,2.4 1.32548,0 2.4,-1.07452 2.4,-2.4 z"
       style="fill:none;fill-opacity:1;fill-rule:evenodd;stroke:#00f100;stroke-width:0.79999995;stroke-linecap:round;stroke-linejoin:round;stroke-miterlimit:10;stroke-dasharray:none;stroke-opacity:1"
       id="path126570" /><path
       d="m 115.44,121 c 0,-0.79529 -0.64471,-1.44 -1.44,-1.44 -0.79529,0 -1.44,0.64471 -1.44,1.44 0,0.79529 0.64471,1.44 1.44,1.44 0.79529,0 1.44,-0.64471 1.44,-1.44 z"
       style="fill:none;fill-opacity:1;fill-rule:evenodd;stroke:#00f100;stroke-width:0.06;stroke-linecap:square;stroke-linejoin:bevel;stroke-miterlimit:10;stroke-dasharray:none;stroke-opacity:1"
       id="path126572" /><path
       d="m 116.4,113.8 c 0,-1.32548 -1.07452,-2.4 -2.4,-2.4 -1.32548,0 -2.4,1.07452 -2.4,2.4 0,1.32548 1.07452,2.4 2.4,2.4 1.32548,0 2.4,-1.07452 2.4,-2.4 z"
       style="fill:none;fill-opacity:1;fill-rule:evenodd;stroke:#00f100;stroke-width:0.79999995;stroke-linecap:round;stroke-linejoin:round;stroke-miterlimit:10;stroke-dasharray:none;stroke-opacity:1"
       id="path126574" /><path
       d="m 115.44,113.8 c 0,-0.79529 -0.64471,-1.44 -1.44,-1.44 -0.79529,0 -1.44,0.64471 -1.44,1.44 0,0.79529 0.64471,1.44 1.44,1.44 0.79529,0 1.44,-0.64471 1.44,-1.44 z"
       style="fill:none;fill-opacity:1;fill-rule:evenodd;stroke:#00f100;stroke-width:0.06;stroke-linecap:square;stroke-linejoin:bevel;stroke-miterlimit:10;stroke-dasharray:none;stroke-opacity:1"
       id="path126576" /><path
       d="m 121.74,123.88 c 0,-0.69588 -0.56412,-1.26 -1.26,-1.26 -0.69588,0 -1.26,0.56412 -1.26,1.26 0,0.69588 0.56412,1.26 1.26,1.26 0.69588,0 1.26,-0.56412 1.26,-1.26 z"
       style="fill:#000000;fill-opacity:1;fill-rule:evenodd;stroke:#ff0000;stroke-width:0.79999995;stroke-linecap:round;stroke-linejoin:round;stroke-miterlimit:10;stroke-dasharray:none;stroke-opacity:1"
       id="path126578" /><path
       d="m 121.32,123.88 c 0,-0.46392 -0.37608,-0.84 -0.84,-0.84 -0.46392,0 -0.84,0.37608 -0.84,0.84 0,0.46392 0.37608,0.84 0.84,0.84 0.46392,0 0.84,-0.37608 0.84,-0.84 z"
       style="fill:#ffffff;fill-opacity:1;fill-rule:evenodd;stroke:#ff0000;stroke-width:0.06;stroke-linecap:square;stroke-linejoin:bevel;stroke-miterlimit:10;stroke-dasharray:none;stroke-opacity:1"
       id="path126580" /><path
       d="m 136.08,124.6 c 0,-0.69588 -0.56412,-1.26 -1.26,-1.26 -0.69588,0 -1.26,0.56412 -1.26,1.26 0,0.69588 0.56412,1.26 1.26,1.26 0.69588,0 1.26,-0.56412 1.26,-1.26 z"
       style="fill:#000000;fill-opacity:1;fill-rule:evenodd;stroke:#ff0000;stroke-width:0.79999995;stroke-linecap:round;stroke-linejoin:round;stroke-miterlimit:10;stroke-dasharray:none;stroke-opacity:1"
       id="path126582" /><path
       d="m 135.66,124.6 c 0,-0.46392 -0.37608,-0.84 -0.84,-0.84 -0.46392,0 -0.84,0.37608 -0.84,0.84 0,0.46392 0.37608,0.84 0.84,0.84 0.46392,0 0.84,-0.37608 0.84,-0.84 z"
       style="fill:#ffffff;fill-opacity:1;fill-rule:evenodd;stroke:#ff0000;stroke-width:0.06;stroke-linecap:square;stroke-linejoin:bevel;stroke-miterlimit:10;stroke-dasharray:none;stroke-opacity:1"
       id="path126584" /><path
       d="m 146.82,143.92 c 0,-0.69588 -0.56412,-1.26 -1.26,-1.26 -0.69588,0 -1.26,0.56412 -1.26,1.26 0,0.69588 0.56412,1.26 1.26,1.26 0.69588,0 1.26,-0.56412 1.26,-1.26 z"
       style="fill:#000000;fill-opacity:1;fill-rule:evenodd;stroke:#ff0000;stroke-width:0.79999995;stroke-linecap:round;stroke-linejoin:round;stroke-miterlimit:10;stroke-dasharray:none;stroke-opacity:1"
       id="path126586" /><path
       d="m 146.4,143.92 c 0,-0.46392 -0.37608,-0.84 -0.84,-0.84 -0.46392,0 -0.84,0.37608 -0.84,0.84 0,0.46392 0.37608,0.84 0.84,0.84 0.46392,0 0.84,-0.37608 0.84,-0.84 z"
       style="fill:#ffffff;fill-opacity:1;fill-rule:evenodd;stroke:#ff0000;stroke-width:0.06;stroke-linecap:square;stroke-linejoin:bevel;stroke-miterlimit:10;stroke-dasharray:none;stroke-opacity:1"
       id="path126588" /><path
       d="m 163.02,113.8 c 0,-0.69588 -0.56412,-1.26 -1.26,-1.26 -0.69588,0 -1.26,0.56412 -1.26,1.26 0,0.69588 0.56412,1.26 1.26,1.26 0.69588,0 1.26,-0.56412 1.26,-1.26 z"
       style="fill:#000000;fill-opacity:1;fill-rule:evenodd;stroke:#ff0000;stroke-width:0.79999995;stroke-linecap:round;stroke-linejoin:round;stroke-miterlimit:10;stroke-dasharray:none;stroke-opacity:1"
       id="path126590" /><path
       d="m 162.6,113.8 c 0,-0.46392 -0.37608,-0.84 -0.84,-0.84 -0.46392,0 -0.84,0.37608 -0.84,0.84 0,0.46392 0.37608,0.84 0.84,0.84 0.46392,0 0.84,-0.37608 0.84,-0.84 z"
       style="fill:#ffffff;fill-opacity:1;fill-rule:evenodd;stroke:#ff0000;stroke-width:0.06;stroke-linecap:square;stroke-linejoin:bevel;stroke-miterlimit:10;stroke-dasharray:none;stroke-opacity:1"
       id="path126592" /><path
       d="m 139.32,136.42 c 0,-0.69588 -0.56412,-1.26 -1.26,-1.26 -0.69588,0 -1.26,0.56412 -1.26,1.26 0,0.69588 0.56412,1.26 1.26,1.26 0.69588,0 1.26,-0.56412 1.26,-1.26 z"
       style="fill:#000000;fill-opacity:1;fill-rule:evenodd;stroke:#ff0000;stroke-width:0.79999995;stroke-linecap:round;stroke-linejoin:round;stroke-miterlimit:10;stroke-dasharray:none;stroke-opacity:1"
       id="path126594" /><path
       d="m 138.9,136.42 c 0,-0.46392 -0.37608,-0.84 -0.84,-0.84 -0.46392,0 -0.84,0.37608 -0.84,0.84 0,0.46392 0.37608,0.84 0.84,0.84 0.46392,0 0.84,-0.37608 0.84,-0.84 z"
       style="fill:#ffffff;fill-opacity:1;fill-rule:evenodd;stroke:#ff0000;stroke-width:0.06;stroke-linecap:square;stroke-linejoin:bevel;stroke-miterlimit:10;stroke-dasharray:none;stroke-opacity:1"
       id="path126596" /><path
       d="m 139.32,122.08 c 0,-0.69588 -0.56412,-1.26 -1.26,-1.26 -0.69588,0 -1.26,0.56412 -1.26,1.26 0,0.69588 0.56412,1.26 1.26,1.26 0.69588,0 1.26,-0.56412 1.26,-1.26 z"
       style="fill:#000000;fill-opacity:1;fill-rule:evenodd;stroke:#ff0000;stroke-width:0.79999995;stroke-linecap:round;stroke-linejoin:round;stroke-miterlimit:10;stroke-dasharray:none;stroke-opacity:1"
       id="path126598" /><path
       d="m 138.9,122.08 c 0,-0.46392 -0.37608,-0.84 -0.84,-0.84 -0.46392,0 -0.84,0.37608 -0.84,0.84 0,0.46392 0.37608,0.84 0.84,0.84 0.46392,0 0.84,-0.37608 0.84,-0.84 z"
       style="fill:#ffffff;fill-opacity:1;fill-rule:evenodd;stroke:#ff0000;stroke-width:0.06;stroke-linecap:square;stroke-linejoin:bevel;stroke-miterlimit:10;stroke-dasharray:none;stroke-opacity:1"
       id="path126600" /><path
       d="m 126.78,119.2 c 0,-0.69588 -0.56412,-1.26 -1.26,-1.26 -0.69588,0 -1.26,0.56412 -1.26,1.26 0,0.69588 0.56412,1.26 1.26,1.26 0.69588,0 1.26,-0.56412 1.26,-1.26 z"
       style="fill:#000000;fill-opacity:1;fill-rule:evenodd;stroke:#ff0000;stroke-width:0.79999995;stroke-linecap:round;stroke-linejoin:round;stroke-miterlimit:10;stroke-dasharray:none;stroke-opacity:1"
       id="path126602" /><path
       d="m 126.36,119.2 c 0,-0.46392 -0.37608,-0.84 -0.84,-0.84 -0.46392,0 -0.84,0.37608 -0.84,0.84 0,0.46392 0.37608,0.84 0.84,0.84 0.46392,0 0.84,-0.37608 0.84,-0.84 z"
       style="fill:#ffffff;fill-opacity:1;fill-rule:evenodd;stroke:#ff0000;stroke-width:0.06;stroke-linecap:square;stroke-linejoin:bevel;stroke-miterlimit:10;stroke-dasharray:none;stroke-opacity:1"
       id="path126604" /><path
       d="m 159.42,125.86 2.52,0 0,-2.52 -2.52,0 0,2.52 z"
       style="fill:#000000;fill-opacity:1;fill-rule:nonzero;stroke:#ff0000;stroke-width:0.79999995;stroke-linecap:round;stroke-linejoin:round;stroke-miterlimit:10;stroke-dasharray:none;stroke-opacity:1"
       id="path126606" /><path
       d="m 161.52,124.6 c 0,-0.46392 -0.37608,-0.84 -0.84,-0.84 -0.46392,0 -0.84,0.37608 -0.84,0.84 0,0.46392 0.37608,0.84 0.84,0.84 0.46392,0 0.84,-0.37608 0.84,-0.84 z"
       style="fill:#ffffff;fill-opacity:1;fill-rule:evenodd;stroke:#ff0000;stroke-width:0.06;stroke-linecap:square;stroke-linejoin:bevel;stroke-miterlimit:10;stroke-dasharray:none;stroke-opacity:1"
       id="path126608" /><path
       d="m 170.22,161.74 2.52,0 0,-2.52 -2.52,0 0,2.52 z"
       style="fill:#000000;fill-opacity:1;fill-rule:nonzero;stroke:#000000;stroke-width:0.79999995;stroke-linecap:round;stroke-linejoin:round;stroke-miterlimit:10;stroke-dasharray:none;stroke-opacity:1"
       id="path126610" /><path
       d="m 172.32,160.48 c 0,-0.46392 -0.37608,-0.84 -0.84,-0.84 -0.46392,0 -0.84,0.37608 -0.84,0.84 0,0.46392 0.37608,0.84 0.84,0.84 0.46392,0 0.84,-0.37608 0.84,-0.84 z"
       style="fill:#ffffff;fill-opacity:1;fill-rule:evenodd;stroke:#000000;stroke-width:0.06;stroke-linecap:square;stroke-linejoin:bevel;stroke-miterlimit:10;stroke-dasharray:none;stroke-opacity:1"
       id="path126612" /><path
       d="m 130.32,142.54 c 0,-0.69588 -0.56412,-1.26 -1.26,-1.26 -0.69588,0 -1.26,0.56412 -1.26,1.26 0,0.69588 0.56412,1.26 1.26,1.26 0.69588,0 1.26,-0.56412 1.26,-1.26 z"
       style="fill:#000000;fill-opacity:1;fill-rule:evenodd;stroke:#ff0000;stroke-width:0.79999995;stroke-linecap:round;stroke-linejoin:round;stroke-miterlimit:10;stroke-dasharray:none;stroke-opacity:1"
       id="path126614" /><path
       d="m 129.9,142.54 c 0,-0.46392 -0.37608,-0.84 -0.84,-0.84 -0.46392,0 -0.84,0.37608 -0.84,0.84 0,0.46392 0.37608,0.84 0.84,0.84 0.46392,0 0.84,-0.37608 0.84,-0.84 z"
       style="fill:#ffffff;fill-opacity:1;fill-rule:evenodd;stroke:#ff0000;stroke-width:0.06;stroke-linecap:square;stroke-linejoin:bevel;stroke-miterlimit:10;stroke-dasharray:none;stroke-opacity:1"
       id="path126616" /><path
       d="m 147.66,163.48 c 0,-0.46392 -0.37608,-0.84 -0.84,-0.84 -0.46392,0 -0.84,0.37608 -0.84,0.84 0,0.46392 0.37608,0.84 0.84,0.84 0.46392,0 0.84,-0.37608 0.84,-0.84 z"
       style="fill:none;stroke:#000000;stroke-width:0.08;stroke-linecap:round;stroke-linejoin:round;stroke-miterlimit:10;stroke-dasharray:none;stroke-opacity:1"
       id="path126626" /><path
       d="m 136.32,163.48 c 0,-0.46392 -0.37608,-0.84 -0.84,-0.84 -0.46392,0 -0.84,0.37608 -0.84,0.84 0,0.46392 0.37608,0.84 0.84,0.84 0.46392,0 0.84,-0.37608 0.84,-0.84 z"
       style="fill:none;stroke:#000000;stroke-width:0.08;stroke-linecap:round;stroke-linejoin:round;stroke-miterlimit:10;stroke-dasharray:none;stroke-opacity:1"
       id="path126628" /></g><g
     style="display:inline"
     id="layer1"><g
       transform="matrix(0,-0.22689089,0.2225161,0,199.76891,330.6851)"
       id="layer1-0"><path
         d="m 804.79809,-209.92545 1.78125,6.65625 -7.65625,1.59375 -1.78125,-6.6875 z"
         id="path7646"
         style="fill:#000000;fill-opacity:1;stroke:none" /><path
         d="m 798.92309,-201.67545 1.8125,6.65625 -7.65625,1.59375 -1.8125,-6.6875 z"
         id="path7644"
         style="fill:#000000;fill-opacity:1;stroke:none" /><path
         d="m 793.07934,-193.42545 1.78125,6.65625 -7.65625,1.5625 -1.78125,-6.65625 z"
         id="path7642"
         style="fill:#000000;fill-opacity:1;stroke:none" /><path
         d="m 787.20434,-185.2067 1.8125,6.6875 -7.65625,1.5625 -1.8125,-6.65625 z"
         id="path7640"
         style="fill:#000000;fill-opacity:1;stroke:none" /><path
         d="m 781.36059,-176.9567 1.78125,6.6875 -7.65625,1.5625 -1.78125,-6.6875 z"
         id="path7638"
         style="fill:#000000;fill-opacity:1;stroke:none" /><path
         d="m 775.48559,-168.7067 1.0625,3.90625 8.46875,0.0625 -0.8125,6.53125 -3.5625,5.625 -9.84375,-0.3125 -3.125,-0.0937 -3.90625,0.78125 -0.25,-0.9375 -2.59375,-0.0937 -9.84375,-0.3125 -9.84375,-0.3125 -9.84375,-0.3125 -5,-0.15625 0.0937,5.21875 0.15625,9.375 0.15625,9.375 0.15625,9.375 0.15625,9.375 0.15625,9.375 0.15625,9.375 0.15625,9.375 0.15625,9.375 0.15625,9.375 0.39964,12.59193 -5.71875,0.15625 -5.65625,-0.375 -0.27464,-12.65443 -0.0625,-9.46875 -0.0625,-9.4375 -0.0312,-9.46875 -0.0625,-9.4375 -0.0625,-9.4375 -0.0312,-9.46875 -0.0625,-9.4375 -0.0625,-9.46875 -0.0312,-9.4375 -0.0312,-4.5625 -4.46875,-0.15625 -9.84375,-0.3125 -9.84375,-0.3125 -2.75,-0.0937 0,0.0625 -7.65625,1.5625 -0.5,-1.875 -8.8125,-0.28125 -9.84375,-0.3125 -9.875,-0.34375 -9.84375,-0.3125 -9.84375,-0.3125 -9.84375,-0.3125 -4.5,-0.15625 0.375,1.375 -7.65625,1.5625 -0.84375,-3.1875 -7.09375,-0.21875 -9.84375,-0.3125 -9.84375,-0.3125 -9.875,-0.3125 -9.84375,-0.3125 -9.71875,-0.3125 1.375,5.0625 -7.65625,1.5625 -1.8125,-6.65625 1.03125,-0.21875 -2.9064,-0.0937 -9.875,-0.3125 0.65625,-6.21875 9.625,0.0625 7.75,0.0625 -0.40625,-1.53125 7.65625,-1.59375 0.84375,3.1875 3.40625,0.0312 9.59375,0.0937 9.625,0.0625 9.625,0.0937 9.625,0.0625 9.59375,0.0625 4.375,0.0312 -1,-3.71875 7.65625,-1.5625 1.46875,5.375 6.75,0.0312 9.59375,0.0937 9.625,0.0625 9.625,0.0625 9.625,0.0937 9.59375,0.0625 7.3125,0.0625 -0.90625,-3.28125 7.65625,-1.5625 1.34375,4.90625 3.84375,0.0312 9.625,0.0937 7.96875,0.0625 -0.0312,-3.71875 5.0625,0.5625 5.0625,0.5625 0.0312,2.65625 1.125,0 9.625,0.0937 9.59375,0.0625 9.625,0.0937 9.625,0.0625 2.65625,0.0312 -0.625,-2.28125 z"
         id="path7636"
         style="fill:#000000;fill-opacity:1;stroke:none" /><path
         d="m 693.29809,-170.36295 -1.78125,-6.6875 7.65625,-1.5625 1.78125,6.6875 z"
         id="path7634"
         style="fill:#000000;fill-opacity:1;stroke:none" /><path
         d="m 699.17309,-178.61295 -1.8125,-6.6875 7.65625,-1.5625 1.8125,6.6875 z"
         id="path7632"
         style="fill:#000000;fill-opacity:1;stroke:none" /><path
         d="m 705.01684,-186.86295 -1.78125,-6.6875 7.65625,-1.5625 1.78125,6.6875 z"
         id="path7630"
         style="fill:#000000;fill-opacity:1;stroke:none" /><path
         d="m 710.89184,-195.11295 -1.8125,-6.6875 7.65625,-1.5625 1.8125,6.6875 z"
         id="path7628"
         style="fill:#000000;fill-opacity:1;stroke:none" /><path
         d="m 622.95434,-171.36295 -1.78125,-6.6875 7.65625,-1.5625 1.78125,6.6875 z"
         id="path7626"
         style="fill:#000000;fill-opacity:1;stroke:none" /><path
         d="m 628.82934,-179.61295 -1.8125,-6.65625 7.65625,-1.59375 1.8125,6.6875 z"
         id="path7624"
         style="fill:#000000;fill-opacity:1;stroke:none" /><path
         d="m 634.67309,-187.86295 -1.78125,-6.65625 7.65625,-1.59375 1.78125,6.6875 z"
         id="path7622"
         style="fill:#000000;fill-opacity:1;stroke:none" /><path
         d="m 559.61059,-169.7067 -1.8125,-6.65625 7.65625,-1.5625 1.8125,6.65625 z"
         id="path7620"
         style="fill:#000000;fill-opacity:1;stroke:none" /><path
         d="m 565.45434,-177.92545 -1.78125,-6.6875 7.65625,-1.5625 1.78125,6.65625 z"
         id="path7618"
         style="fill:#000000;fill-opacity:1;stroke:none" /><path
         d="m 547.89184,-153.2067 1.8125,6.6875 -7.6875,1.5625 -1.78125,-6.6875 z"
         id="path7616"
         style="fill:#000000;fill-opacity:1;stroke:none" /><path
         d="m 611.23559,-154.86295 1.8125,6.65625 -7.65625,1.59375 -1.8125,-6.6875 z"
         id="path7614"
         style="fill:#000000;fill-opacity:1;stroke:none" /><path
         d="m 605.39184,-146.61295 1.78125,6.65625 -7.65625,1.5625 -1.78125,-6.65625 z"
         id="path7612"
         style="fill:#000000;fill-opacity:1;stroke:none" /><path
         d="m 681.57934,-153.8942 1.8125,6.6875 -7.65625,1.5625 -1.8125,-6.65625 z"
         id="path7610"
         style="fill:#000000;fill-opacity:1;stroke:none" /><path
         d="m 675.73559,-145.6442 1.78125,6.6875 -7.65625,1.5625 -1.78125,-6.6875 z"
         id="path7608"
         style="fill:#000000;fill-opacity:1;stroke:none" /><path
         d="m 669.86059,-137.3942 1.8125,6.6875 -7.65625,1.5625 -1.8125,-6.6875 z"
         id="path7606"
         style="fill:#000000;fill-opacity:1;stroke:none" /><path
         d="m 763.76684,-152.2067 1.8125,6.6875 -7.65625,1.5625 -1.8125,-6.6875 z"
         id="path7604"
         style="fill:#000000;fill-opacity:1;stroke:none" /><path
         d="m 757.92309,-143.9567 1.78125,6.65625 -7.65625,1.59375 -1.78125,-6.6875 z"
         id="path7602"
         style="fill:#000000;fill-opacity:1;stroke:none" /><path
         d="m 752.04809,-135.7067 1.8125,6.65625 -7.65625,1.5625 -1.8125,-6.65625 z"
         id="path7600"
         style="fill:#000000;fill-opacity:1;stroke:none" /><path
         d="m 746.20434,-127.48795 1.78125,6.6875 -7.65625,1.5625 -1.78125,-6.65625 z"
         id="path3765"
         style="fill:#000000;fill-opacity:1;stroke:none" /><path
         d="m 703.88435,-52.038592 -9.42263,0 0,-5.014474 9.42263,0 0,5.014474"
         id="path3769"
         style="font-style:normal;font-variant:normal;font-weight:normal;font-stretch:normal;font-size:7px;line-height:125%;font-family:'Visitor TT1 BRK';-inkscape-font-specification:'Visitor TT1 BRK';letter-spacing:0px;word-spacing:0px;fill:#000000;fill-opacity:1;stroke:none" /><path
         d="m 664.11059,-81.17545 -1.625,0 -9.40625,0 0,9.71875 0,9.6875 0,9.71875 -9.40625,0 0,-8.8125 0,-8.78125 0,-8.8125 0,-8.8125 0,-8.78125 0,-8.8125 0,-8.8125 0,-8.8125 5.65625,0 0,-2.40625 9.125,0 5.65625,0 0,14.53125 -1.625,0 -9.40625,0 0,7.3125 0,7.28125 9.40625,0 1.625,0 0,14.59375 z"
         id="path7518"
         style="font-style:normal;font-variant:normal;font-weight:normal;font-stretch:normal;font-size:7px;line-height:125%;font-family:'Visitor TT1 BRK';-inkscape-font-specification:'Visitor TT1 BRK';letter-spacing:0px;word-spacing:0px;fill:#000000;fill-opacity:1;stroke:none" /><path
         d="m 664.11059,-81.17545 0,-14.59375 7.8125,0 9.40625,0 0,-7.28125 0,-7.3125 -9.40625,0 -7.8125,0 0,-14.53125 3.4375,0 9.125,0 9.125,0 0,2.40625 4.96875,0 0,8.8125 0,8.8125 0,8.8125 0,8.78125 0,8.8125 0,8.8125 0,8.78125 0,8.8125 -9.4375,0 0,-9.71875 0,-9.6875 0,-9.71875 -9.40625,0 -7.8125,0 z"
         id="path3771"
         style="font-style:normal;font-variant:normal;font-weight:normal;font-stretch:normal;font-size:7px;line-height:125%;font-family:'Visitor TT1 BRK';-inkscape-font-specification:'Visitor TT1 BRK';letter-spacing:0px;word-spacing:0px;fill:#000000;fill-opacity:1;stroke:none" /><path
         d="m 639.93753,-52.038592 -9.42276,0 0,-5.014474 9.42276,0 0,5.014474"
         id="path3773"
         style="font-style:normal;font-variant:normal;font-weight:normal;font-stretch:normal;font-size:7px;line-height:125%;font-family:'Visitor TT1 BRK';-inkscape-font-specification:'Visitor TT1 BRK';letter-spacing:0px;word-spacing:0px;fill:#000000;fill-opacity:1;stroke:none" /><path
         d="m 626.82934,-124.92545 0,9.125 0,9.09375 0,9.125 0,9.09375 0,9.125 0,9.09375 0,9.125 0,9.09375 -9.4375,0 0,-8.71875 0,-8.75 0,-8.75 0,-8.75 0,-8.75 -5.28125,0 -4.125,0 0,4.34375 -9.4375,0 0,-4.34375 -3.0625,0 -6.34375,0 0,8.75 0,8.75 0,8.75 0,8.75 0,8.71875 -9.4375,0 0,-9.09375 0,-9.125 0,-9.09375 0,-9.125 0,-9.09375 0,-9.125 0,-9.09375 0,-9.125 9.4375,0 0,7.28125 0,7.3125 9.40625,0 0,2.90625 5.25,0 4.1875,0 0,-2.90625 9.40625,0 0,-7.3125 0,-7.28125 9.4375,0 z"
         id="path5458"
         style="font-style:normal;font-variant:normal;font-weight:normal;font-stretch:normal;font-size:7px;line-height:125%;font-family:'Visitor TT1 BRK';-inkscape-font-specification:'Visitor TT1 BRK';letter-spacing:0px;word-spacing:0px;fill:#000000;fill-opacity:1;stroke:none" /><path
         d="m 575.99058,-52.038592 -9.42263,0 0,-5.697515 9.42263,0 0,5.697515"
         id="path3777"
         style="font-style:normal;font-variant:normal;font-weight:normal;font-stretch:normal;font-size:7px;line-height:125%;font-family:'Visitor TT1 BRK';-inkscape-font-specification:'Visitor TT1 BRK';letter-spacing:0px;word-spacing:0px;fill:#000000;fill-opacity:1;stroke:none" /><path
         d="m 561.4648,-117.17666 -5.17791,0 -5.17791,0 0,9.90719 0,9.906294 0,9.906701 0,9.906804 0,9.907356 0,9.906208 5.17791,0 5.17791,0 0,5.697515 -7.53296,0 -7.53216,0 -7.53293,0 -7.53327,0 0,-5.697515 5.17785,0 5.17784,0 0,-9.907187 0,-9.906297 0,-9.906701 0,-9.906804 0,-9.907354 0,-9.90621 -5.17784,0 -5.17785,0 0,-7.74683 7.53296,0 7.53216,0 7.53293,0 7.53327,0 0,7.74683"
         id="path3779"
         style="font-style:normal;font-variant:normal;font-weight:normal;font-stretch:normal;font-size:7px;line-height:125%;font-family:'Visitor TT1 BRK';-inkscape-font-specification:'Visitor TT1 BRK';letter-spacing:0px;word-spacing:0px;fill:#000000;fill-opacity:1;stroke:none" /><path
         d="m 703.88435,-52.038592 -9.42263,0 0,-5.014474 9.42263,0 0,5.014474"
         id="path4893"
         style="font-style:normal;font-variant:normal;font-weight:normal;font-stretch:normal;font-size:7px;line-height:125%;font-family:'Visitor TT1 BRK';-inkscape-font-specification:'Visitor TT1 BRK';letter-spacing:0px;word-spacing:0px;fill:#000000;fill-opacity:1;stroke:none" /><path
         d="m 639.93753,-52.038592 -9.42276,0 0,-5.014474 9.42276,0 0,5.014474"
         id="path4897"
         style="font-style:normal;font-variant:normal;font-weight:normal;font-stretch:normal;font-size:7px;line-height:125%;font-family:'Visitor TT1 BRK';-inkscape-font-specification:'Visitor TT1 BRK';letter-spacing:0px;word-spacing:0px;fill:#000000;fill-opacity:1;stroke:none" /><path
         d="m 575.99058,-52.038592 -9.42263,0 0,-5.697515 9.42263,0 0,5.697515"
         id="path4901"
         style="font-style:normal;font-variant:normal;font-weight:normal;font-stretch:normal;font-size:7px;line-height:125%;font-family:'Visitor TT1 BRK';-inkscape-font-specification:'Visitor TT1 BRK';letter-spacing:0px;word-spacing:0px;fill:#000000;fill-opacity:1;stroke:none" /></g><g
       id="layer1-1"
       transform="matrix(0,-0.16853629,0.16302224,0,154.88916,209.74304)"
       style="display:inline"><g
         style="font-style:normal;font-variant:normal;font-weight:normal;font-stretch:normal;font-size:160px;line-height:125%;font-family:'5x5 Pixel';-inkscape-font-specification:'5x5 Pixel';letter-spacing:0px;word-spacing:0px;fill:#000000;fill-opacity:1;stroke:none"
         id="text2985"><path
           d="m 346.55287,227.74402 -0.67997,0 -1.0475,0 -3.78571,0 -4.83322,0 0,5.88072 0,5.88072 0,5.88072 0,8.80766 -5.88072,0 -5.88073,0 0,-8.80766 0,-5.88072 0,-5.88072 0,-5.88072 0,-5.88073 0,-5.88072 0,-5.88072 0,-5.88073 0,-5.88072 0,-5.88072 5.18239,0 5.18239,0 5.18238,0 4.83322,0 1.72747,0 0,11.76144 -0.67997,0 -1.0475,0 -3.78571,0 -4.83322,0 0,5.88073 0,5.88072 4.83322,0 3.78571,0 1.0475,0 0.67997,0 z"
           id="path3515" /><path
           d="m 346.55287,227.74402 0,-11.76145 3.60193,0 0.53295,0 4.77808,0 0.0551,0 5.27427,0 0,-5.88072 0,-5.88073 -5.27427,0 -0.0551,0 -4.77808,0 -0.53295,0 -3.60193,0 0,-11.76144 3.78571,0 0.0368,0 5.14563,0 0.4043,0 5.53156,0 5.54993,0 5.54993,0 0,5.88072 0,5.88072 0,5.88073 0,5.88072 0,5.88072 0,5.88073 0,5.88072 0,5.88072 0,5.88072 0,8.77017 -5.88072,0 -5.88072,0 0,-8.77017 0,-5.88072 0,-5.88072 0,-5.88072 -5.27428,0 -0.0551,0 -4.77808,0 -0.53294,0 -3.60195,0 z"
           id="path3140" /><path
           d="m 297.65497,254.18795 0,-8.80209 0,-5.88038 0,-5.88067 0,-5.88034 0,-5.88043 0,-5.88121 0,-5.88096 0,-5.88075 4.70465,0 4.70416,0 4.70465,0 4.70485,0 0,-5.88072 0,-5.88072 -5.48857,0 -5.48888,0 -5.48878,0 -5.48907,0 -5.48803,0 -5.48854,0 -5.48888,0 -5.48891,0 -5.48841,0 0,5.88072 0,5.88072 4.70465,0 4.70417,0 4.70464,0 4.70485,0 0,5.88105 0,5.88038 0,5.88067 0,5.88034 0,5.88043 0,5.88121 0,5.88096 0,8.80179 5.88072,0 5.88073,0"
           id="path2992" /><path
           d="m 177.95779,236.1307 0,-2.25023 0,-4.99145 -3.94718,0 -4.07771,0 0,4.99145 0,2.25023 4.07771,0 3.94718,0"
           id="path3158" /><path
           d="m 195.58049,254.28928 0,-1.73411 0,-5.73346 0,-5.73374 0,-5.73342 0,-5.73351 0,-5.73428 0,-5.73402 0,-5.73381 -5.73379,0 -5.73379,0 0,0 -3.16925,0 -3.16926,0 0,5.73379 0,5.73379 3.16926,0 3.16925,0 0,5.73405 0,5.73352 0,5.73376 0,5.73383 0,5.73413 0,1.73348 5.73379,0 5.73379,0"
           id="path3156" /><path
           d="m 143.75501,224.43592 0,4.83237 0,4.8331 0,4.8326 0,4.83319 0,4.833 0,4.8326 0,0.8329 -5.71663,0 -5.71663,0 0,-0.83237 0,-4.8331 0,-4.8326 0,-4.83319 0,-4.833 0,-4.83261 0,-4.83289 5.71663,0 5.71663,0"
           id="path3185" /><path
           style="font-style:normal;font-variant:normal;font-weight:normal;font-stretch:normal;font-size:160px;line-height:125%;font-family:'5x5 Pixel';-inkscape-font-specification:'5x5 Pixel';letter-spacing:0px;word-spacing:0px;fill:#000000;fill-opacity:1;stroke:none"
           d="m 143.70594,212.39532 0,4.0999 0,4.09991 -5.797,0 -5.79701,0 0,-4.09991 0,-4.0999 5.79701,0 5.797,0"
           id="path3185-1" /><path
           style="font-style:normal;font-variant:normal;font-weight:normal;font-stretch:normal;font-size:160px;line-height:125%;font-family:'5x5 Pixel';-inkscape-font-specification:'5x5 Pixel';letter-spacing:0px;word-spacing:0px;fill:#000000;fill-opacity:1;stroke:none"
           d="m 277.91712,212.29058 0,5.59394 0,5.59394 -5.59394,0 -5.59394,0 0,5.78066 0,5.78015 0,5.78037 0,5.78044 0,5.78076 0,1.78009 -0.29718,0 -5.44536,0 -5.44536,0 -0.29718,0 0,-1.78066 0,-5.78015 0,-5.78037 0,-5.78044 0,-5.78076 0,-5.78009 -5.59395,0 -5.59394,0 0,-5.59394 0,-5.59394 5.59394,0 5.59395,0 0.29718,0 5.44536,0 5.44536,0 0.29718,0 5.59394,0 5.59394,0"
           id="path3156-0" /><path
           style="font-style:normal;font-variant:normal;font-weight:normal;font-stretch:normal;font-size:160px;line-height:125%;font-family:'5x5 Pixel';-inkscape-font-specification:'5x5 Pixel';letter-spacing:0px;word-spacing:0px;fill:#000000;fill-opacity:1;stroke:none"
           d="m 219.09932,254.17231 0,-3.7628 0,-3.7628 2.97064,0 2.97064,0 0,-4.01743 0,-4.01743 -2.97064,0 -2.97064,0 0,-4.61155 0,-4.61156 5.65835,-0.006 5.65832,-0.006 5.65839,-0.006 0.0151,4.95669 0.0151,4.95708 0.0151,4.95717 0.0151,4.95689 0.0151,4.95574 -5.68349,0.006 -5.68347,0.006 -5.68353,0.006 0,0"
           id="path3445" /><path
           style="font-style:normal;font-variant:normal;font-weight:normal;font-stretch:normal;font-size:160px;line-height:125%;font-family:'5x5 Pixel';-inkscape-font-specification:'5x5 Pixel';letter-spacing:0px;word-spacing:0px;fill:#000000;fill-opacity:1;stroke:none"
           d="m 236.07438,212.30195 0.009,5.67721 0.009,5.67722 -5.36138,0.009 -5.36081,0.009 -5.36137,0.009 -5.36159,0.009 0,4.84732 0,0.84732 4.45123,0 0,4.61156 0,4.61155 -4.45123,0 0,4.01743 0,4.01743 4.45123,0 0,3.7628 0,3.76281 -5.18681,0 -5.18679,0 -5.18685,0 0,-5.73412 0,-5.73345 0,-5.73375 0,-5.73342 0,-1.73351 0,-5.73427 0,-5.73403 0,-5.73381 32.53551,-7e-5 4e-5,-3e-5"
           id="path3327-11" /><path
           style="font-style:normal;font-variant:normal;font-weight:normal;font-stretch:normal;font-size:160px;line-height:125%;font-family:'5x5 Pixel';-inkscape-font-specification:'5x5 Pixel';letter-spacing:0px;word-spacing:0px;fill:#000000;fill-opacity:1;stroke:none"
           d="m 152.01258,254.26309 0,-1.73411 0,-5.73346 0,-5.73375 0,-5.73342 0,-5.73351 0,-5.73426 0,-5.73403 0,-5.73382 5.73379,0 5.73379,0 0,0 3.16925,0 3.16926,0 0,5.7338 0,5.73379 -3.16926,0 -3.16925,0 0,5.73404 0,5.73353 0,5.73376 0,5.73382 0,5.73414 0,1.73348 -5.73379,0 -5.73379,0"
           id="path3156-7" /></g></g></g></svg>