<?xml version="1.0" encoding="UTF-8" standalone="no"?>
<!-- Created with Inkscape (http://www.inkscape.org/) -->

<svg
   xmlns:dc="http://purl.org/dc/elements/1.1/"
   xmlns:cc="http://creativecommons.org/ns#"
   xmlns:rdf="http://www.w3.org/1999/02/22-rdf-syntax-ns#"
   xmlns:svg="http://www.w3.org/2000/svg"
   xmlns="http://www.w3.org/2000/svg"
   xmlns:sodipodi="http://sodipodi.sourceforge.net/DTD/sodipodi-0.dtd"
   xmlns:inkscape="http://www.inkscape.org/namespaces/inkscape"
   width="216.44479"
   height="61.829601"
   id="svg2"
   version="1.1"
   inkscape:version="0.48.4 r9939"
   sodipodi:docname="attami_5x5.svg">
  <sodipodi:namedview
     id="base"
     pagecolor="#ffffff"
     bordercolor="#666666"
     borderopacity="1.0"
     inkscape:pageopacity="0.0"
     inkscape:pageshadow="2"
     inkscape:zoom="2.70852"
     inkscape:cx="175.37256"
     inkscape:cy="53.864269"
     inkscape:document-units="px"
     inkscape:current-layer="text2985"
     showgrid="true"
     fit-margin-top="0"
     fit-margin-left="0"
     fit-margin-right="0"
     fit-margin-bottom="0"
     inkscape:window-width="1080"
     inkscape:window-height="1898"
     inkscape:window-x="1912"
     inkscape:window-y="-8"
     inkscape:window-maximized="1"
     showguides="true"
     inkscape:guide-bbox="true">
    <inkscape:grid
       type="xygrid"
       id="grid3539"
       empspacing="5"
       visible="true"
       enabled="true"
       snapvisiblegridlinesonly="true"
       units="in"
       spacingx="0.005in"
       spacingy="0.005in"
       originx="6.5555555e-007in"
       originy="0.051217447in" />
    <sodipodi:guide
       orientation="0,1"
       position="162.00006,0.10957018"
       id="guide3541" />
  </sodipodi:namedview>
  <defs
     id="defs4" />
  <metadata
     id="metadata7">
    <rdf:RDF>
      <cc:Work
         rdf:about="">
        <dc:format>image/svg+xml</dc:format>
        <dc:type
           rdf:resource="http://purl.org/dc/dcmitype/StillImage" />
        <dc:title></dc:title>
      </cc:Work>
    </rdf:RDF>
  </metadata>
  <g
     inkscape:label="Layer 1"
     inkscape:groupmode="layer"
     id="layer1"
     transform="translate(-132.11193,-192.45968)">
    <g
       style="font-size:160px;font-style:normal;font-variant:normal;font-weight:normal;font-stretch:normal;line-height:125%;letter-spacing:0px;word-spacing:0px;fill:#000000;fill-opacity:1;stroke:none;font-family:'5x5 Pixel';-inkscape-font-specification:'5x5 Pixel'"
       id="text2985">
      <path
         d="m 322.55287,227.74402 -0.67997,0 -1.0475,0 -3.78571,0 -4.83322,0 0,5.88072 0,5.88072 0,5.88072 0,8.80766 -5.88072,0 -5.88073,0 0,-8.80766 0,-5.88072 0,-5.88072 0,-5.88072 0,-5.88073 0,-5.88072 0,-5.88072 0,-5.88073 0,-5.88072 0,-5.88072 5.18239,0 5.18239,0 5.18238,0 4.83322,0 1.72747,0 0,11.76144 -0.67997,0 -1.0475,0 -3.78571,0 -4.83322,0 0,5.88073 0,5.88072 4.83322,0 3.78571,0 1.0475,0 0.67997,0 z"
         id="path3515"
         inkscape:connector-curvature="0"
         sodipodi:nodetypes="cccccccccccccccccccccccccccccccccccccc" />
      <path
         d="m 322.55287,227.74402 0,-11.76145 3.60193,0 0.53295,0 4.77808,0 0.0551,0 5.27427,0 0,-5.88072 0,-5.88073 -5.27427,0 -0.0551,0 -4.77808,0 -0.53295,0 -3.60193,0 0,-11.76144 3.78571,0 0.0368,0 5.14563,0 0.4043,0 5.53156,0 5.54993,0 5.54993,0 0,5.88072 0,5.88072 0,5.88073 0,5.88072 0,5.88072 0,5.88073 0,5.88072 0,5.88072 0,5.88072 0,8.77017 -5.88072,0 -5.88072,0 0,-8.77017 0,-5.88072 0,-5.88072 0,-5.88072 -5.27428,0 -0.0551,0 -4.77808,0 -0.53294,0 -3.60195,0 z"
         id="path3140"
         inkscape:connector-curvature="0"
         sodipodi:nodetypes="cccccccccccccccccccccccccccccccccccccccccccc" />
      <path
         d="m 277.65497,254.18795 0,-8.80209 0,-5.88038 0,-5.88067 0,-5.88034 0,-5.88043 0,-5.88121 0,-5.88096 0,-5.88075 4.70465,0 4.70416,0 4.70465,0 4.70485,0 0,-5.88072 0,-5.88072 -5.48857,0 -5.48888,0 -5.48878,0 -5.48907,0 -5.48803,0 -5.48854,0 -5.48888,0 -5.48891,0 -5.48841,0 0,5.88072 0,5.88072 4.70465,0 4.70417,0 4.70464,0 4.70485,0 0,5.88105 0,5.88038 0,5.88067 0,5.88034 0,5.88043 0,5.88121 0,5.88096 0,8.80179 5.88072,0 5.88073,0"
         id="path2992"
         inkscape:connector-curvature="0"
         sodipodi:nodetypes="cccccccccccccccccccccccccccccccccccccccc" />
      <path
         d="m 173.00206,232.87191 0,-4.99144 0,-4.99145 -4.99145,0 -4.99145,0 0,4.99145 0,4.99144 4.99145,0 4.99145,0"
         id="path3158"
         inkscape:connector-curvature="0" />
      <path
         d="m 187.58049,254.28928 0,-5.73411 0,-5.73346 0,-5.73374 0,-5.73342 0,-5.73351 0,-5.73428 0,-5.73402 0,-5.73381 -5.73379,0 -5.73379,0 0,0 -3.16925,0 -3.16926,0 0,5.73379 0,5.73379 3.16926,0 3.16925,0 0,5.73405 0,5.73352 0,5.73376 0,5.73383 0,5.73413 0,5.73348 5.73379,0 5.73379,0"
         id="path3156"
         inkscape:connector-curvature="0" />
      <path
         d="m 143.75501,220.43592 0,4.83237 0,4.8331 0,4.8326 0,4.83319 0,4.833 0,4.8326 0,4.8329 -5.71663,0 -5.71663,0 0,-4.83237 0,-4.8331 0,-4.8326 0,-4.83319 0,-4.833 0,-4.83261 0,-4.83289 5.71663,0 5.71663,0"
         id="path3185"
         inkscape:connector-curvature="0" />
      <path
         style="font-size:160px;font-style:normal;font-variant:normal;font-weight:normal;font-stretch:normal;line-height:125%;letter-spacing:0px;word-spacing:0px;fill:#000000;fill-opacity:1;stroke:none;font-family:'5x5 Pixel';-inkscape-font-specification:'5x5 Pixel'"
         d="m 143.70594,208.39532 0,4.0999 0,4.09991 -5.797,0 -5.79701,0 0,-4.09991 0,-4.0999 5.79701,0 5.797,0"
         id="path3185-1"
         inkscape:connector-curvature="0" />
      <path
         style="font-size:160px;font-style:normal;font-variant:normal;font-weight:normal;font-stretch:normal;line-height:125%;letter-spacing:0px;word-spacing:0px;fill:#000000;fill-opacity:1;stroke:none;font-family:'5x5 Pixel';-inkscape-font-specification:'5x5 Pixel'"
         d="m 261.91712,208.29058 0,5.59394 0,5.59394 -5.59394,0 -5.59394,0 0,5.78066 0,5.78015 0,5.78037 0,5.78044 0,5.78076 0,5.78009 -0.29718,0 -5.44536,0 -5.44536,0 -0.29718,0 0,-5.78066 0,-5.78015 0,-5.78037 0,-5.78044 0,-5.78076 0,-5.78009 -5.59395,0 -5.59394,0 0,-5.59394 0,-5.59394 5.59394,0 5.59395,0 0.29718,0 5.44536,0 5.44536,0 0.29718,0 5.59394,0 5.59394,0"
         id="path3156-0"
         inkscape:connector-curvature="0" />
      <path
         style="font-size:160px;font-style:normal;font-variant:normal;font-weight:normal;font-stretch:normal;line-height:125%;letter-spacing:0px;word-spacing:0px;fill:#000000;fill-opacity:1;stroke:none;font-family:'5x5 Pixel';-inkscape-font-specification:'5x5 Pixel'"
         d="m 207.09932,254.17231 0,-3.7628 0,-3.7628 2.97064,0 2.97064,0 0,-4.01743 0,-4.01743 -2.97064,0 -2.97064,0 0,-4.61155 0,-4.61156 5.65835,-0.006 5.65832,-0.006 5.65839,-0.006 0.0151,4.95669 0.0151,4.95708 0.0151,4.95717 0.0151,4.95689 0.0151,4.95574 -5.68349,0.006 -5.68347,0.006 -5.68353,0.006 0,0"
         id="path3445"
         inkscape:connector-curvature="0" />
      <path
         style="font-size:160px;font-style:normal;font-variant:normal;font-weight:normal;font-stretch:normal;line-height:125%;letter-spacing:0px;word-spacing:0px;fill:#000000;fill-opacity:1;stroke:none;font-family:'5x5 Pixel';-inkscape-font-specification:'5x5 Pixel'"
         d="m 224.07438,208.30195 0.009,5.67721 0.009,5.67722 -5.36138,0.009 -5.36081,0.009 -5.36137,0.009 -5.36159,0.009 0,4.84732 0,4.84732 4.45123,0 0,4.61156 0,4.61155 -4.45123,0 0,4.01743 0,4.01743 4.45123,0 0,3.7628 0,3.76281 -5.18681,0 -5.18679,0 -5.18685,0 0,-5.73412 0,-5.73345 0,-5.73375 0,-5.73342 0,-5.73351 0,-5.73427 0,-5.73403 0,-5.73381 32.53551,-7e-5 4e-5,-3e-5"
         id="path3327-11"
         inkscape:connector-curvature="0"
         sodipodi:nodetypes="ccccccccccccccccccccccccccccccc" />
      <path
         style="font-size:160px;font-style:normal;font-variant:normal;font-weight:normal;font-stretch:normal;line-height:125%;letter-spacing:0px;word-spacing:0px;fill:#000000;fill-opacity:1;stroke:none;font-family:'5x5 Pixel';-inkscape-font-specification:'5x5 Pixel'"
         d="m 148.01258,254.26309 0,-5.73411 0,-5.73346 0,-5.73375 0,-5.73342 0,-5.73351 0,-5.73426 0,-5.73403 0,-5.73382 5.73379,0 5.73379,0 0,0 3.16925,0 3.16926,0 0,5.7338 0,5.73379 -3.16926,0 -3.16925,0 0,5.73404 0,5.73353 0,5.73376 0,5.73382 0,5.73414 0,5.73348 -5.73379,0 -5.73379,0"
         id="path3156-7"
         inkscape:connector-curvature="0" />
    </g>
  </g>
</svg>
