<?xml version="1.0" encoding="UTF-8" standalone="no"?>
<!-- Created with Inkscape (http://www.inkscape.org/) -->

<svg
   xmlns:dc="http://purl.org/dc/elements/1.1/"
   xmlns:cc="http://creativecommons.org/ns#"
   xmlns:rdf="http://www.w3.org/1999/02/22-rdf-syntax-ns#"
   xmlns:svg="http://www.w3.org/2000/svg"
   xmlns="http://www.w3.org/2000/svg"
   xmlns:sodipodi="http://sodipodi.sourceforge.net/DTD/sodipodi-0.dtd"
   xmlns:inkscape="http://www.inkscape.org/namespaces/inkscape"
   width="75.599998"
   height="85.650002"
   id="svg2"
   version="1.1"
   inkscape:version="0.48.4 r9939"
   sodipodi:docname="ATtami-V00-stencil.svg">
  <defs
     id="defs4">
    <clipPath
       id="clipPath3025"
       clipPathUnits="userSpaceOnUse">
      <path
         id="path3027"
         clip-rule="evenodd"
         d="m 4355,2895 1207,0 0,1209 -1207,0 0,-1209 z"
         inkscape:connector-curvature="0" />
    </clipPath>
    <clipPath
       id="clipPath3019"
       clipPathUnits="userSpaceOnUse">
      <path
         id="path3021"
         clip-rule="evenodd"
         d="m 402,402 9113,0 0,6196 -9113,0 0,-6196 z"
         inkscape:connector-curvature="0" />
    </clipPath>
    <clipPath
       id="clipPath3009"
       clipPathUnits="userSpaceOnUse">
      <path
         id="path3011"
         clip-rule="evenodd"
         d="m 402,402 9113,0 0,6196 -9113,0 0,-6196 z"
         inkscape:connector-curvature="0" />
    </clipPath>
    <clipPath
       id="clipPath3231"
       clipPathUnits="userSpaceOnUse">
      <path
         id="path3233"
         clip-rule="evenodd"
         d="m 6413,4346 1207,0 0,1224 -1207,0 0,-1224 z"
         inkscape:connector-curvature="0" />
    </clipPath>
    <clipPath
       id="clipPath3225"
       clipPathUnits="userSpaceOnUse">
      <path
         id="path3227"
         clip-rule="evenodd"
         d="m 402,402 13229,0 0,9113 -13229,0 0,-9113 z"
         inkscape:connector-curvature="0" />
    </clipPath>
    <clipPath
       id="clipPath3215"
       clipPathUnits="userSpaceOnUse">
      <path
         id="path3217"
         clip-rule="evenodd"
         d="m 402,402 13229,0 0,9113 -13229,0 0,-9113 z"
         inkscape:connector-curvature="0" />
    </clipPath>
    <clipPath
       id="clipPath3428"
       clipPathUnits="userSpaceOnUse">
      <path
         id="path3430"
         clip-rule="evenodd"
         d="m 6413,4346 1207,0 0,1224 -1207,0 0,-1224 z"
         inkscape:connector-curvature="0" />
    </clipPath>
    <clipPath
       id="clipPath3422"
       clipPathUnits="userSpaceOnUse">
      <path
         id="path3424"
         clip-rule="evenodd"
         d="m 402,402 13229,0 0,9113 -13229,0 0,-9113 z"
         inkscape:connector-curvature="0" />
    </clipPath>
    <clipPath
       id="clipPath3412"
       clipPathUnits="userSpaceOnUse">
      <path
         id="path3414"
         clip-rule="evenodd"
         d="m 402,402 13229,0 0,9113 -13229,0 0,-9113 z"
         inkscape:connector-curvature="0" />
    </clipPath>
  </defs>
  <sodipodi:namedview
     id="base"
     pagecolor="#ffffff"
     bordercolor="#666666"
     borderopacity="1.0"
     inkscape:pageopacity="0.0"
     inkscape:pageshadow="2"
     inkscape:zoom="11.2"
     inkscape:cx="45.761844"
     inkscape:cy="54.036969"
     inkscape:document-units="px"
     inkscape:current-layer="g3398"
     showgrid="false"
     fit-margin-top="5"
     fit-margin-left="5"
     fit-margin-right="5"
     fit-margin-bottom="5"
     inkscape:window-width="1341"
     inkscape:window-height="962"
     inkscape:window-x="50"
     inkscape:window-y="50"
     inkscape:window-maximized="0" />
  <metadata
     id="metadata7">
    <rdf:RDF>
      <cc:Work
         rdf:about="">
        <dc:format>image/svg+xml</dc:format>
        <dc:type
           rdf:resource="http://purl.org/dc/dcmitype/StillImage" />
        <dc:title></dc:title>
      </cc:Work>
    </rdf:RDF>
  </metadata>
  <g
     inkscape:label="Layer 1"
     inkscape:groupmode="layer"
     id="layer1"
     transform="translate(-318.53131,-486.02562)">
    <g
       transform="matrix(1.25,0,0,-1.25,-175.71869,902.40062)"
       inkscape:label="ATTAMI-V0.00-CREAM"
       id="g3396">
      <g
         transform="matrix(0.06,0,0,-0.06,0,595)"
         id="g3398">
        <g
           id="g3400"
           style="stroke-width:1.33333333;stroke-miterlimit:4;stroke-dasharray:none">
          <g
             id="g3402"
             style="stroke-width:1.33333333;stroke-miterlimit:4;stroke-dasharray:none" />
        </g>
        <g
           id="g3404"
           style="stroke-width:1.33333333;stroke-miterlimit:4;stroke-dasharray:none">
          <g
             id="g3406"
             style="stroke-width:1.33333333;stroke-miterlimit:4;stroke-dasharray:none" />
        </g>
        <g
           id="g3408"
           style="stroke-width:1.33333333;stroke-miterlimit:4;stroke-dasharray:none">
          <g
             clip-path="url(#clipPath3412)"
             id="g3410"
             style="stroke-width:1.33333333;stroke-miterlimit:4;stroke-dasharray:none">
            <g
               id="g3416"
               style="stroke-width:1.33333333;stroke-miterlimit:4;stroke-dasharray:none" />
          </g>
        </g>
        <path
           id="path3436"
           style="fill:none;stroke:#000000;stroke-width:1.33333333;stroke-miterlimit:4;stroke-opacity:1;stroke-dasharray:none"
           d="m 7018,4738 56,0 0,38 -56,0 0,-38 z"
           inkscape:connector-curvature="0" />
        <path
           id="path3438"
           style="fill:none;stroke:#000000;stroke-width:1.33333333;stroke-miterlimit:4;stroke-opacity:1;stroke-dasharray:none"
           d="m 7018,4823 56,0 0,38 -56,0 0,-38 z"
           inkscape:connector-curvature="0" />
        <path
           id="path3440"
           style="fill:none;stroke:#000000;stroke-width:1.33333333;stroke-miterlimit:4;stroke-opacity:1;stroke-dasharray:none"
           d="m 6731,4732 56,0 0,38 -56,0 0,-38 z"
           inkscape:connector-curvature="0" />
        <path
           id="path3442"
           style="fill:none;stroke:#000000;stroke-width:1.33333333;stroke-miterlimit:4;stroke-opacity:1;stroke-dasharray:none"
           d="m 6731,4817 56,0 0,38 -56,0 0,-38 z"
           inkscape:connector-curvature="0" />
        <path
           id="path3444"
           style="fill:none;stroke:#000000;stroke-width:1.33333333;stroke-miterlimit:4;stroke-opacity:1;stroke-dasharray:none"
           d="m 7114,4823 56,0 0,38 -56,0 0,-38 z"
           inkscape:connector-curvature="0" />
        <path
           id="path3446"
           style="fill:none;stroke:#000000;stroke-width:1.33333333;stroke-miterlimit:4;stroke-opacity:1;stroke-dasharray:none"
           d="m 7114,4738 56,0 0,38 -56,0 0,-38 z"
           inkscape:connector-curvature="0" />
        <path
           id="path3448"
           style="fill:none;stroke:#000000;stroke-width:1.33333333;stroke-miterlimit:4;stroke-opacity:1;stroke-dasharray:none"
           d="m 7237,4794 50,0 0,104 -50,0 0,-104 z"
           inkscape:connector-curvature="0" />
        <path
           id="path3450"
           style="fill:none;stroke:#000000;stroke-width:1.33333333;stroke-miterlimit:4;stroke-opacity:1;stroke-dasharray:none"
           d="m 7237,4590 50,0 0,104 -50,0 0,-104 z"
           inkscape:connector-curvature="0" />
        <path
           id="path3452"
           style="fill:none;stroke:#000000;stroke-width:1.33333333;stroke-miterlimit:4;stroke-opacity:1;stroke-dasharray:none"
           d="m 6744,5213 38,0 0,56 -38,0 0,-56 z"
           inkscape:connector-curvature="0" />
        <path
           id="path3454"
           style="fill:none;stroke:#000000;stroke-width:1.33333333;stroke-miterlimit:4;stroke-opacity:1;stroke-dasharray:none"
           d="m 6829,5213 38,0 0,56 -38,0 0,-56 z"
           inkscape:connector-curvature="0" />
        <path
           id="path3456"
           style="fill:none;stroke:#000000;stroke-width:1.33333333;stroke-miterlimit:4;stroke-opacity:1;stroke-dasharray:none"
           d="m 6819,4821 56,0 0,56 -56,0 0,-56 z"
           inkscape:connector-curvature="0" />
        <path
           id="path3458"
           style="fill:none;stroke:#000000;stroke-width:1.33333333;stroke-miterlimit:4;stroke-opacity:1;stroke-dasharray:none"
           d="m 6819,4722 56,0 0,56 -56,0 0,-56 z"
           inkscape:connector-curvature="0" />
        <path
           id="path3460"
           style="fill:none;stroke:#000000;stroke-width:1.33333333;stroke-miterlimit:4;stroke-opacity:1;stroke-dasharray:none"
           d="m 6916,4826 56,0 0,56 -56,0 0,-56 z"
           inkscape:connector-curvature="0" />
        <path
           id="path3462"
           style="fill:none;stroke:#000000;stroke-width:1.33333333;stroke-miterlimit:4;stroke-opacity:1;stroke-dasharray:none"
           d="m 6916,4727 56,0 0,56 -56,0 0,-56 z"
           inkscape:connector-curvature="0" />
        <path
           id="path3464"
           style="fill:none;stroke:#000000;stroke-width:1.33333333;stroke-miterlimit:4;stroke-opacity:1;stroke-dasharray:none"
           d="m 7241,5307 38,0 0,56 -38,0 0,-56 z"
           inkscape:connector-curvature="0" />
        <path
           id="path3466"
           style="fill:none;stroke:#000000;stroke-width:1.33333333;stroke-miterlimit:4;stroke-opacity:1;stroke-dasharray:none"
           d="m 7325,5307 38,0 0,56 -38,0 0,-56 z"
           inkscape:connector-curvature="0" />
        <path
           id="path3468"
           style="fill:none;stroke:#000000;stroke-width:1.33333333;stroke-miterlimit:4;stroke-opacity:1;stroke-dasharray:none"
           d="m 7458,4673 56,0 0,56 -56,0 0,-56 z"
           inkscape:connector-curvature="0" />
        <path
           id="path3470"
           style="fill:none;stroke:#000000;stroke-width:1.33333333;stroke-miterlimit:4;stroke-opacity:1;stroke-dasharray:none"
           d="m 7359,4673 56,0 0,56 -56,0 0,-56 z"
           inkscape:connector-curvature="0" />
        <path
           id="path3472"
           style="fill:none;stroke:#000000;stroke-width:1.33333333;stroke-miterlimit:4;stroke-opacity:1;stroke-dasharray:none"
           d="m 7337,4792 56,0 0,38 -56,0 0,-38 z"
           inkscape:connector-curvature="0" />
        <path
           id="path3474"
           style="fill:none;stroke:#000000;stroke-width:1.33333333;stroke-miterlimit:4;stroke-opacity:1;stroke-dasharray:none"
           d="m 7337,4877 56,0 0,38 -56,0 0,-38 z"
           inkscape:connector-curvature="0" />
        <path
           id="path3476"
           style="fill:none;stroke:#000000;stroke-width:1.33333333;stroke-miterlimit:4;stroke-opacity:1;stroke-dasharray:none"
           d="m 6806,5361 108,0 0,76 -108,0 0,-76 z"
           inkscape:connector-curvature="0" />
        <path
           id="path3478"
           style="fill:none;stroke:#000000;stroke-width:1.33333333;stroke-miterlimit:4;stroke-opacity:1;stroke-dasharray:none"
           d="m 7103,5361 108,0 0,76 -108,0 0,-76 z"
           inkscape:connector-curvature="0" />
        <path
           id="path3480"
           style="fill:none;stroke:#000000;stroke-width:1.33333333;stroke-miterlimit:4;stroke-opacity:1;stroke-dasharray:none"
           d="m 7060,4561 18,0 0,108 -18,0 0,-108 z"
           inkscape:connector-curvature="0" />
        <path
           id="path3482"
           style="fill:none;stroke:#000000;stroke-width:1.33333333;stroke-miterlimit:4;stroke-opacity:1;stroke-dasharray:none"
           d="m 7029,4561 18,0 0,108 -18,0 0,-108 z"
           inkscape:connector-curvature="0" />
        <path
           id="path3484"
           style="fill:none;stroke:#000000;stroke-width:1.33333333;stroke-miterlimit:4;stroke-opacity:1;stroke-dasharray:none"
           d="m 6999,4561 18,0 0,108 -18,0 0,-108 z"
           inkscape:connector-curvature="0" />
        <path
           id="path3486"
           style="fill:none;stroke:#000000;stroke-width:1.33333333;stroke-miterlimit:4;stroke-opacity:1;stroke-dasharray:none"
           d="m 6937,4561 18,0 0,108 -18,0 0,-108 z"
           inkscape:connector-curvature="0" />
        <path
           id="path3488"
           style="fill:none;stroke:#000000;stroke-width:1.33333333;stroke-miterlimit:4;stroke-opacity:1;stroke-dasharray:none"
           d="m 7149,4435 90,0 0,90 -90,0 0,-90 z"
           inkscape:connector-curvature="0" />
        <path
           id="path3490"
           style="fill:none;stroke:#000000;stroke-width:1.33333333;stroke-miterlimit:4;stroke-opacity:1;stroke-dasharray:none"
           d="m 6777,4435 90,0 0,90 -90,0 0,-90 z"
           inkscape:connector-curvature="0" />
        <path
           id="path3492"
           style="fill:none;stroke:#000000;stroke-width:1.33333333;stroke-miterlimit:4;stroke-opacity:1;stroke-dasharray:none"
           d="m 7019,4435 90,0 0,90 -90,0 0,-90 z"
           inkscape:connector-curvature="0" />
        <path
           id="path3494"
           style="fill:none;stroke:#000000;stroke-width:1.33333333;stroke-miterlimit:4;stroke-opacity:1;stroke-dasharray:none"
           d="m 6906,4435 90,0 0,90 -90,0 0,-90 z"
           inkscape:connector-curvature="0" />
        <path
           id="path3496"
           style="fill:none;stroke:#000000;stroke-width:1.33333333;stroke-miterlimit:4;stroke-opacity:1;stroke-dasharray:none"
           d="m 6968,4561 18,0 0,108 -18,0 0,-108 z"
           inkscape:connector-curvature="0" />
        <path
           id="path3498"
           style="fill:none;stroke:#000000;stroke-width:1.33333333;stroke-miterlimit:4;stroke-opacity:1;stroke-dasharray:none"
           d="m 7010,5146 74,0 0,26 -74,0 0,-26 z"
           inkscape:connector-curvature="0" />
        <path
           id="path3500"
           style="fill:none;stroke:#000000;stroke-width:1.33333333;stroke-miterlimit:4;stroke-opacity:1;stroke-dasharray:none"
           d="m 7010,5086 74,0 0,26 -74,0 0,-26 z"
           inkscape:connector-curvature="0" />
        <path
           id="path3502"
           style="fill:none;stroke:#000000;stroke-width:1.33333333;stroke-miterlimit:4;stroke-opacity:1;stroke-dasharray:none"
           d="m 7010,5026 74,0 0,26 -74,0 0,-26 z"
           inkscape:connector-curvature="0" />
        <path
           id="path3504"
           style="fill:none;stroke:#000000;stroke-width:1.33333333;stroke-miterlimit:4;stroke-opacity:1;stroke-dasharray:none"
           d="m 7010,4966 74,0 0,26 -74,0 0,-26 z"
           inkscape:connector-curvature="0" />
        <path
           id="path3506"
           style="fill:none;stroke:#000000;stroke-width:1.33333333;stroke-miterlimit:4;stroke-opacity:1;stroke-dasharray:none"
           d="m 6660,4966 74,0 0,26 -74,0 0,-26 z"
           inkscape:connector-curvature="0" />
        <path
           id="path3508"
           style="fill:none;stroke:#000000;stroke-width:1.33333333;stroke-miterlimit:4;stroke-opacity:1;stroke-dasharray:none"
           d="m 6660,5026 74,0 0,26 -74,0 0,-26 z"
           inkscape:connector-curvature="0" />
        <path
           id="path3510"
           style="fill:none;stroke:#000000;stroke-width:1.33333333;stroke-miterlimit:4;stroke-opacity:1;stroke-dasharray:none"
           d="m 6660,5086 74,0 0,26 -74,0 0,-26 z"
           inkscape:connector-curvature="0" />
        <path
           id="path3512"
           style="fill:none;stroke:#000000;stroke-width:1.33333333;stroke-miterlimit:4;stroke-opacity:1;stroke-dasharray:none"
           d="m 6660,5146 74,0 0,26 -74,0 0,-26 z"
           inkscape:connector-curvature="0" />
        <path
           id="path3514"
           style="fill:none;stroke:#000000;stroke-width:1.33333333;stroke-miterlimit:4;stroke-opacity:1;stroke-dasharray:none"
           d="m 7137,4978 94,0 0,70 -94,0 0,-70 z"
           inkscape:connector-curvature="0" />
        <path
           id="path3516"
           style="fill:none;stroke:#000000;stroke-width:1.33333333;stroke-miterlimit:4;stroke-opacity:1;stroke-dasharray:none"
           d="m 7137,5086 94,0 0,70 -94,0 0,-70 z"
           inkscape:connector-curvature="0" />
        <path
           id="path3518"
           style="fill:none;stroke:#000000;stroke-width:1.33333333;stroke-miterlimit:4;stroke-opacity:1;stroke-dasharray:none"
           d="m 7137,5195 94,0 0,70 -94,0 0,-70 z"
           inkscape:connector-curvature="0" />
        <path
           id="path3520"
           style="fill:none;stroke:#000000;stroke-width:1.33333333;stroke-miterlimit:4;stroke-opacity:1;stroke-dasharray:none"
           d="m 7434,5031 94,0 0,180 -94,0 0,-180 z"
           inkscape:connector-curvature="0" />
      </g>
    </g>
  </g>
</svg>
