<?xml version="1.0" encoding="UTF-8"?>
<svg xmlns="http://www.w3.org/2000/svg" xmlns:xlink="http://www.w3.org/1999/xlink" width="81pt" height="81pt" viewBox="0 0 81 81" version="1.1">
<g id="surface1">
<path style="fill:none;stroke-width:1;stroke-linecap:round;stroke-linejoin:round;stroke:rgb(0%,0%,0%);stroke-opacity:1;stroke-miterlimit:10;" d="M 215.136733 411.546572 L 538.605483 411.546572 " transform="matrix(0.25,0,0,0.25,-53.639652,-21.777268)"/>
<path style="fill:none;stroke-width:1;stroke-linecap:round;stroke-linejoin:round;stroke:rgb(0%,0%,0%);stroke-opacity:1;stroke-miterlimit:10;" d="M 538.605483 411.546572 L 538.605483 87.624697 " transform="matrix(0.25,0,0,0.25,-53.639652,-21.777268)"/>
<path style="fill:none;stroke-width:1;stroke-linecap:round;stroke-linejoin:round;stroke:rgb(0%,0%,0%);stroke-opacity:1;stroke-miterlimit:10;" d="M 538.605483 87.624697 L 215.136733 87.624697 " transform="matrix(0.25,0,0,0.25,-53.639652,-21.777268)"/>
<path style="fill:none;stroke-width:1;stroke-linecap:round;stroke-linejoin:round;stroke:rgb(0%,0%,0%);stroke-opacity:1;stroke-miterlimit:10;" d="M 215.136733 87.624697 L 215.136733 411.546572 " transform="matrix(0.25,0,0,0.25,-53.639652,-21.777268)"/>
<path style="fill-rule:nonzero;fill:rgb(0%,0%,0%);fill-opacity:1;stroke-width:1;stroke-linecap:butt;stroke-linejoin:miter;stroke:rgb(0%,0%,0%);stroke-opacity:1;stroke-miterlimit:4;" d="M 372.902358 303.671572 L 404.246108 303.671572 L 404.246108 312.374697 L 372.902358 312.374697 Z M 372.902358 303.671572 " transform="matrix(0.25,0,0,0.25,-53.639652,-21.777268)"/>
<path style="fill-rule:nonzero;fill:rgb(0%,0%,0%);fill-opacity:1;stroke-width:1;stroke-linecap:butt;stroke-linejoin:miter;stroke:rgb(0%,0%,0%);stroke-opacity:1;stroke-miterlimit:4;" d="M 372.902358 285.671572 L 404.246108 285.671572 L 404.246108 294.374697 L 372.902358 294.374697 Z M 372.902358 285.671572 " transform="matrix(0.25,0,0,0.25,-53.639652,-21.777268)"/>
<path style="fill-rule:nonzero;fill:rgb(0%,0%,0%);fill-opacity:1;stroke-width:1;stroke-linecap:butt;stroke-linejoin:miter;stroke:rgb(0%,0%,0%);stroke-opacity:1;stroke-miterlimit:4;" d="M 372.902358 267.671572 L 404.246108 267.671572 L 404.246108 276.374697 L 372.902358 276.374697 Z M 372.902358 267.671572 " transform="matrix(0.25,0,0,0.25,-53.639652,-21.777268)"/>
<path style="fill-rule:nonzero;fill:rgb(0%,0%,0%);fill-opacity:1;stroke-width:1;stroke-linecap:butt;stroke-linejoin:miter;stroke:rgb(0%,0%,0%);stroke-opacity:1;stroke-miterlimit:4;" d="M 372.902358 249.671572 L 404.246108 249.671572 L 404.246108 258.374697 L 372.902358 258.374697 Z M 372.902358 249.671572 " transform="matrix(0.25,0,0,0.25,-53.639652,-21.777268)"/>
<path style="fill-rule:nonzero;fill:rgb(0%,0%,0%);fill-opacity:1;stroke-width:1;stroke-linecap:butt;stroke-linejoin:miter;stroke:rgb(0%,0%,0%);stroke-opacity:1;stroke-miterlimit:4;" d="M 277.496108 249.671572 L 308.855483 249.671572 L 308.855483 258.374697 L 277.496108 258.374697 Z M 277.496108 249.671572 " transform="matrix(0.25,0,0,0.25,-53.639652,-21.777268)"/>
<path style="fill-rule:nonzero;fill:rgb(0%,0%,0%);fill-opacity:1;stroke-width:1;stroke-linecap:butt;stroke-linejoin:miter;stroke:rgb(0%,0%,0%);stroke-opacity:1;stroke-miterlimit:4;" d="M 277.496108 267.671572 L 308.855483 267.671572 L 308.855483 276.374697 L 277.496108 276.374697 Z M 277.496108 267.671572 " transform="matrix(0.25,0,0,0.25,-53.639652,-21.777268)"/>
<path style="fill-rule:nonzero;fill:rgb(0%,0%,0%);fill-opacity:1;stroke-width:1;stroke-linecap:butt;stroke-linejoin:miter;stroke:rgb(0%,0%,0%);stroke-opacity:1;stroke-miterlimit:4;" d="M 277.496108 285.671572 L 308.855483 285.671572 L 308.855483 294.374697 L 277.496108 294.374697 Z M 277.496108 285.671572 " transform="matrix(0.25,0,0,0.25,-53.639652,-21.777268)"/>
<path style="fill-rule:nonzero;fill:rgb(0%,0%,0%);fill-opacity:1;stroke-width:1;stroke-linecap:butt;stroke-linejoin:miter;stroke:rgb(0%,0%,0%);stroke-opacity:1;stroke-miterlimit:4;" d="M 277.496108 303.671572 L 308.855483 303.671572 L 308.855483 312.374697 L 277.496108 312.374697 Z M 277.496108 303.671572 " transform="matrix(0.25,0,0,0.25,-53.639652,-21.777268)"/>
<path style="fill-rule:nonzero;fill:rgb(0%,0%,0%);fill-opacity:1;stroke-width:1;stroke-linecap:butt;stroke-linejoin:miter;stroke:rgb(0%,0%,0%);stroke-opacity:1;stroke-miterlimit:4;" d="M 372.371108 189.905947 L 389.324233 189.905947 L 389.324233 201.296572 L 372.371108 201.296572 Z M 372.371108 189.905947 " transform="matrix(0.25,0,0,0.25,-53.639652,-21.777268)"/>
<path style="fill-rule:nonzero;fill:rgb(0%,0%,0%);fill-opacity:1;stroke-width:1;stroke-linecap:butt;stroke-linejoin:miter;stroke:rgb(0%,0%,0%);stroke-opacity:1;stroke-miterlimit:4;" d="M 372.371108 215.405947 L 389.324233 215.405947 L 389.324233 226.796572 L 372.371108 226.796572 Z M 372.371108 215.405947 " transform="matrix(0.25,0,0,0.25,-53.639652,-21.777268)"/>
<path style="fill-rule:nonzero;fill:rgb(0%,0%,0%);fill-opacity:1;stroke-width:1;stroke-linecap:butt;stroke-linejoin:miter;stroke:rgb(0%,0%,0%);stroke-opacity:1;stroke-miterlimit:4;" d="M 286.042983 188.093447 L 302.996108 188.093447 L 302.996108 199.499697 L 286.042983 199.499697 Z M 286.042983 188.093447 " transform="matrix(0.25,0,0,0.25,-53.639652,-21.777268)"/>
<path style="fill-rule:nonzero;fill:rgb(0%,0%,0%);fill-opacity:1;stroke-width:1;stroke-linecap:butt;stroke-linejoin:miter;stroke:rgb(0%,0%,0%);stroke-opacity:1;stroke-miterlimit:4;" d="M 286.042983 213.593447 L 302.996108 213.593447 L 302.996108 224.999697 L 286.042983 224.999697 Z M 286.042983 213.593447 " transform="matrix(0.25,0,0,0.25,-53.639652,-21.777268)"/>
<path style="fill-rule:nonzero;fill:rgb(0%,0%,0%);fill-opacity:1;stroke-width:1;stroke-linecap:butt;stroke-linejoin:miter;stroke:rgb(0%,0%,0%);stroke-opacity:1;stroke-miterlimit:4;" d="M 401.167983 215.405947 L 418.121108 215.405947 L 418.121108 226.796572 L 401.167983 226.796572 Z M 401.167983 215.405947 " transform="matrix(0.25,0,0,0.25,-53.639652,-21.777268)"/>
<path style="fill-rule:nonzero;fill:rgb(0%,0%,0%);fill-opacity:1;stroke-width:1;stroke-linecap:butt;stroke-linejoin:miter;stroke:rgb(0%,0%,0%);stroke-opacity:1;stroke-miterlimit:4;" d="M 401.167983 189.905947 L 418.121108 189.905947 L 418.121108 201.296572 L 401.167983 201.296572 Z M 401.167983 189.905947 " transform="matrix(0.25,0,0,0.25,-53.639652,-21.777268)"/>
<path style="fill-rule:nonzero;fill:rgb(0%,0%,0%);fill-opacity:1;stroke-width:1;stroke-linecap:butt;stroke-linejoin:miter;stroke:rgb(0%,0%,0%);stroke-opacity:1;stroke-miterlimit:4;" d="M 436.277358 208.718447 L 451.417983 208.718447 L 451.417983 239.624697 L 436.277358 239.624697 Z M 436.277358 208.718447 " transform="matrix(0.25,0,0,0.25,-53.639652,-21.777268)"/>
<path style="fill-rule:nonzero;fill:rgb(0%,0%,0%);fill-opacity:1;stroke-width:1;stroke-linecap:butt;stroke-linejoin:miter;stroke:rgb(0%,0%,0%);stroke-opacity:1;stroke-miterlimit:4;" d="M 436.277358 147.530947 L 451.417983 147.530947 L 451.417983 178.421572 L 436.277358 178.421572 Z M 436.277358 147.530947 " transform="matrix(0.25,0,0,0.25,-53.639652,-21.777268)"/>
<path style="fill-rule:nonzero;fill:rgb(0%,0%,0%);fill-opacity:1;stroke-width:1;stroke-linecap:butt;stroke-linejoin:miter;stroke:rgb(0%,0%,0%);stroke-opacity:1;stroke-miterlimit:4;" d="M 307.355483 324.530947 L 318.746108 324.530947 L 318.746108 341.468447 L 307.355483 341.468447 Z M 307.355483 324.530947 " transform="matrix(0.25,0,0,0.25,-53.639652,-21.777268)"/>
<path style="fill-rule:nonzero;fill:rgb(0%,0%,0%);fill-opacity:1;stroke-width:1;stroke-linecap:butt;stroke-linejoin:miter;stroke:rgb(0%,0%,0%);stroke-opacity:1;stroke-miterlimit:4;" d="M 281.855483 324.530947 L 293.246108 324.530947 L 293.246108 341.468447 L 281.855483 341.468447 Z M 281.855483 324.530947 " transform="matrix(0.25,0,0,0.25,-53.639652,-21.777268)"/>
<path style="fill-rule:nonzero;fill:rgb(0%,0%,0%);fill-opacity:1;stroke-width:1;stroke-linecap:butt;stroke-linejoin:miter;stroke:rgb(0%,0%,0%);stroke-opacity:1;stroke-miterlimit:4;" d="M 316.949233 214.718447 L 333.902358 214.718447 L 333.902358 231.671572 L 316.949233 231.671572 Z M 316.949233 214.718447 " transform="matrix(0.25,0,0,0.25,-53.639652,-21.777268)"/>
<path style="fill-rule:nonzero;fill:rgb(0%,0%,0%);fill-opacity:1;stroke-width:1;stroke-linecap:butt;stroke-linejoin:miter;stroke:rgb(0%,0%,0%);stroke-opacity:1;stroke-miterlimit:4;" d="M 316.949233 185.030947 L 333.902358 185.030947 L 333.902358 201.968447 L 316.949233 201.968447 Z M 316.949233 185.030947 " transform="matrix(0.25,0,0,0.25,-53.639652,-21.777268)"/>
<path style="fill-rule:nonzero;fill:rgb(0%,0%,0%);fill-opacity:1;stroke-width:1;stroke-linecap:butt;stroke-linejoin:miter;stroke:rgb(0%,0%,0%);stroke-opacity:1;stroke-miterlimit:4;" d="M 343.574233 215.093447 L 360.527358 215.093447 L 360.527358 232.046572 L 343.574233 232.046572 Z M 343.574233 215.093447 " transform="matrix(0.25,0,0,0.25,-53.639652,-21.777268)"/>
<path style="fill-rule:nonzero;fill:rgb(0%,0%,0%);fill-opacity:1;stroke-width:1;stroke-linecap:butt;stroke-linejoin:miter;stroke:rgb(0%,0%,0%);stroke-opacity:1;stroke-miterlimit:4;" d="M 343.574233 185.327822 L 360.527358 185.327822 L 360.527358 202.280947 L 343.574233 202.280947 Z M 343.574233 185.327822 " transform="matrix(0.25,0,0,0.25,-53.639652,-21.777268)"/>
<path style="fill-rule:nonzero;fill:rgb(0%,0%,0%);fill-opacity:1;stroke-width:1;stroke-linecap:butt;stroke-linejoin:miter;stroke:rgb(0%,0%,0%);stroke-opacity:1;stroke-miterlimit:4;" d="M 460.355483 245.780947 L 471.746108 245.780947 L 471.746108 262.718447 L 460.355483 262.718447 Z M 460.355483 245.780947 " transform="matrix(0.25,0,0,0.25,-53.639652,-21.777268)"/>
<path style="fill-rule:nonzero;fill:rgb(0%,0%,0%);fill-opacity:1;stroke-width:1;stroke-linecap:butt;stroke-linejoin:miter;stroke:rgb(0%,0%,0%);stroke-opacity:1;stroke-miterlimit:4;" d="M 434.855483 245.780947 L 446.246108 245.780947 L 446.246108 262.718447 L 434.855483 262.718447 Z M 434.855483 245.780947 " transform="matrix(0.25,0,0,0.25,-53.639652,-21.777268)"/>
<path style="fill-rule:nonzero;fill:rgb(0%,0%,0%);fill-opacity:1;stroke-width:1;stroke-linecap:butt;stroke-linejoin:miter;stroke:rgb(0%,0%,0%);stroke-opacity:1;stroke-miterlimit:4;" d="M 486.292983 169.952822 L 503.246108 169.952822 L 503.246108 186.905947 L 486.292983 186.905947 Z M 486.292983 169.952822 " transform="matrix(0.25,0,0,0.25,-53.639652,-21.777268)"/>
<path style="fill-rule:nonzero;fill:rgb(0%,0%,0%);fill-opacity:1;stroke-width:1;stroke-linecap:butt;stroke-linejoin:miter;stroke:rgb(0%,0%,0%);stroke-opacity:1;stroke-miterlimit:4;" d="M 516.074233 169.952822 L 533.027358 169.952822 L 533.027358 186.905947 L 516.074233 186.905947 Z M 516.074233 169.952822 " transform="matrix(0.25,0,0,0.25,-53.639652,-21.777268)"/>
<path style="fill-rule:nonzero;fill:rgb(0%,0%,0%);fill-opacity:1;stroke-width:1;stroke-linecap:butt;stroke-linejoin:miter;stroke:rgb(0%,0%,0%);stroke-opacity:1;stroke-miterlimit:4;" d="M 464.621108 200.843447 L 481.574233 200.843447 L 481.574233 212.249697 L 464.621108 212.249697 Z M 464.621108 200.843447 " transform="matrix(0.25,0,0,0.25,-53.639652,-21.777268)"/>
<path style="fill-rule:nonzero;fill:rgb(0%,0%,0%);fill-opacity:1;stroke-width:1;stroke-linecap:butt;stroke-linejoin:miter;stroke:rgb(0%,0%,0%);stroke-opacity:1;stroke-miterlimit:4;" d="M 464.621108 226.343447 L 481.574233 226.343447 L 481.574233 237.749697 L 464.621108 237.749697 Z M 464.621108 226.343447 " transform="matrix(0.25,0,0,0.25,-53.639652,-21.777268)"/>
<path style="fill-rule:nonzero;fill:rgb(0%,0%,0%);fill-opacity:1;stroke-width:1;stroke-linecap:butt;stroke-linejoin:miter;stroke:rgb(0%,0%,0%);stroke-opacity:1;stroke-miterlimit:4;" d="M 457.355483 300.374697 L 474.292983 300.374697 L 474.292983 308.171572 L 457.355483 308.171572 Z M 457.355483 300.374697 " transform="matrix(0.25,0,0,0.25,-53.639652,-21.777268)"/>
<path style="fill-rule:nonzero;fill:rgb(0%,0%,0%);fill-opacity:1;stroke-width:1;stroke-linecap:butt;stroke-linejoin:miter;stroke:rgb(0%,0%,0%);stroke-opacity:1;stroke-miterlimit:4;" d="M 457.355483 286.874697 L 474.292983 286.874697 L 474.292983 294.671572 L 457.355483 294.671572 Z M 457.355483 286.874697 " transform="matrix(0.25,0,0,0.25,-53.639652,-21.777268)"/>
<path style="fill-rule:nonzero;fill:rgb(0%,0%,0%);fill-opacity:1;stroke-width:1;stroke-linecap:butt;stroke-linejoin:miter;stroke:rgb(0%,0%,0%);stroke-opacity:1;stroke-miterlimit:4;" d="M 457.355483 273.452822 L 474.292983 273.452822 L 474.292983 281.249697 L 457.355483 281.249697 Z M 457.355483 273.452822 " transform="matrix(0.25,0,0,0.25,-53.639652,-21.777268)"/>
<path style="fill-rule:nonzero;fill:rgb(0%,0%,0%);fill-opacity:1;stroke-width:1;stroke-linecap:butt;stroke-linejoin:miter;stroke:rgb(0%,0%,0%);stroke-opacity:1;stroke-miterlimit:4;" d="M 420.527358 273.452822 L 437.480483 273.452822 L 437.480483 281.249697 L 420.527358 281.249697 Z M 420.527358 273.452822 " transform="matrix(0.25,0,0,0.25,-53.639652,-21.777268)"/>
<path style="fill-rule:nonzero;fill:rgb(0%,0%,0%);fill-opacity:1;stroke-width:1;stroke-linecap:butt;stroke-linejoin:miter;stroke:rgb(0%,0%,0%);stroke-opacity:1;stroke-miterlimit:4;" d="M 420.527358 300.374697 L 437.480483 300.374697 L 437.480483 308.171572 L 420.527358 308.171572 Z M 420.527358 300.374697 " transform="matrix(0.25,0,0,0.25,-53.639652,-21.777268)"/>
<path style="fill-rule:nonzero;fill:rgb(0%,0%,0%);fill-opacity:1;stroke-width:1;stroke-linecap:butt;stroke-linejoin:miter;stroke:rgb(0%,0%,0%);stroke-opacity:1;stroke-miterlimit:4;" d="M 402.371108 374.780947 L 434.917983 374.780947 L 434.917983 397.421572 L 402.371108 397.421572 Z M 402.371108 374.780947 " transform="matrix(0.25,0,0,0.25,-53.639652,-21.777268)"/>
<path style="fill-rule:nonzero;fill:rgb(0%,0%,0%);fill-opacity:1;stroke-width:1;stroke-linecap:butt;stroke-linejoin:miter;stroke:rgb(0%,0%,0%);stroke-opacity:1;stroke-miterlimit:4;" d="M 313.121108 374.780947 L 345.667983 374.780947 L 345.667983 397.421572 L 313.121108 397.421572 Z M 313.121108 374.780947 " transform="matrix(0.25,0,0,0.25,-53.639652,-21.777268)"/>
<path style="fill-rule:nonzero;fill:rgb(0%,0%,0%);fill-opacity:1;stroke-width:1;stroke-linecap:butt;stroke-linejoin:miter;stroke:rgb(0%,0%,0%);stroke-opacity:1;stroke-miterlimit:4;" d="M 384.980483 139.796572 L 390.667983 139.796572 L 390.667983 166.202822 L 384.980483 166.202822 Z M 384.980483 139.796572 " transform="matrix(0.25,0,0,0.25,-53.639652,-21.777268)"/>
<path style="fill-rule:nonzero;fill:rgb(0%,0%,0%);fill-opacity:1;stroke-width:1;stroke-linecap:butt;stroke-linejoin:miter;stroke:rgb(0%,0%,0%);stroke-opacity:1;stroke-miterlimit:4;" d="M 375.746108 139.796572 L 381.449233 139.796572 L 381.449233 166.202822 L 375.746108 166.202822 Z M 375.746108 139.796572 " transform="matrix(0.25,0,0,0.25,-53.639652,-21.777268)"/>
<path style="fill-rule:nonzero;fill:rgb(0%,0%,0%);fill-opacity:1;stroke-width:1;stroke-linecap:butt;stroke-linejoin:miter;stroke:rgb(0%,0%,0%);stroke-opacity:1;stroke-miterlimit:4;" d="M 366.527358 139.796572 L 372.230483 139.796572 L 372.230483 166.202822 L 366.527358 166.202822 Z M 366.527358 139.796572 " transform="matrix(0.25,0,0,0.25,-53.639652,-21.777268)"/>
<path style="fill-rule:nonzero;fill:rgb(0%,0%,0%);fill-opacity:1;stroke-width:1;stroke-linecap:butt;stroke-linejoin:miter;stroke:rgb(0%,0%,0%);stroke-opacity:1;stroke-miterlimit:4;" d="M 357.292983 139.796572 L 362.996108 139.796572 L 362.996108 166.202822 L 357.292983 166.202822 Z M 357.292983 139.796572 " transform="matrix(0.25,0,0,0.25,-53.639652,-21.777268)"/>
<path style="fill-rule:nonzero;fill:rgb(0%,0%,0%);fill-opacity:1;stroke-width:1;stroke-linecap:butt;stroke-linejoin:miter;stroke:rgb(0%,0%,0%);stroke-opacity:1;stroke-miterlimit:4;" d="M 348.152358 139.796572 L 353.855483 139.796572 L 353.855483 166.202822 L 348.152358 166.202822 Z M 348.152358 139.796572 " transform="matrix(0.25,0,0,0.25,-53.639652,-21.777268)"/>
<path style="fill-rule:nonzero;fill:rgb(0%,0%,0%);fill-opacity:1;stroke-width:1;stroke-linecap:butt;stroke-linejoin:miter;stroke:rgb(0%,0%,0%);stroke-opacity:1;stroke-miterlimit:4;" d="M 411.902358 98.843447 L 438.746108 98.843447 L 438.746108 125.702822 L 411.902358 125.702822 Z M 411.902358 98.843447 " transform="matrix(0.25,0,0,0.25,-53.639652,-21.777268)"/>
<path style="fill-rule:nonzero;fill:rgb(0%,0%,0%);fill-opacity:1;stroke-width:1;stroke-linecap:butt;stroke-linejoin:miter;stroke:rgb(0%,0%,0%);stroke-opacity:1;stroke-miterlimit:4;" d="M 299.996108 98.843447 L 326.855483 98.843447 L 326.855483 125.702822 L 299.996108 125.702822 Z M 299.996108 98.843447 " transform="matrix(0.25,0,0,0.25,-53.639652,-21.777268)"/>
<path style="fill-rule:nonzero;fill:rgb(0%,0%,0%);fill-opacity:1;stroke-width:1;stroke-linecap:butt;stroke-linejoin:miter;stroke:rgb(0%,0%,0%);stroke-opacity:1;stroke-miterlimit:4;" d="M 388.792983 332.093447 L 419.699233 332.093447 L 419.699233 347.249697 L 388.792983 347.249697 Z M 388.792983 332.093447 " transform="matrix(0.25,0,0,0.25,-53.639652,-21.777268)"/>
<path style="fill-rule:nonzero;fill:rgb(0%,0%,0%);fill-opacity:1;stroke-width:1;stroke-linecap:butt;stroke-linejoin:miter;stroke:rgb(0%,0%,0%);stroke-opacity:1;stroke-miterlimit:4;" d="M 449.996108 332.093447 L 480.902358 332.093447 L 480.902358 347.249697 L 449.996108 347.249697 Z M 449.996108 332.093447 " transform="matrix(0.25,0,0,0.25,-53.639652,-21.777268)"/>
<path style="fill-rule:evenodd;fill:rgb(0%,0%,0%);fill-opacity:1;stroke-width:1;stroke-linecap:butt;stroke-linejoin:miter;stroke:rgb(0%,0%,0%);stroke-opacity:1;stroke-miterlimit:4;" d="M 533.027358 213.749697 C 533.027358 220.296572 527.714858 225.593447 521.167983 225.593447 C 514.636733 225.593447 509.324233 220.296572 509.324233 213.749697 C 509.324233 207.202822 514.636733 201.905947 521.167983 201.905947 C 527.714858 201.905947 533.027358 207.202822 533.027358 213.749697 Z M 533.027358 213.749697 " transform="matrix(0.25,0,0,0.25,-53.639652,-21.777268)"/>
<path style="fill-rule:evenodd;fill:rgb(0%,0%,0%);fill-opacity:1;stroke-width:1;stroke-linecap:butt;stroke-linejoin:miter;stroke:rgb(0%,0%,0%);stroke-opacity:1;stroke-miterlimit:4;" d="M 533.027358 249.749697 C 533.027358 256.296572 527.714858 261.593447 521.167983 261.593447 C 514.636733 261.593447 509.324233 256.296572 509.324233 249.749697 C 509.324233 243.202822 514.636733 237.905947 521.167983 237.905947 C 527.714858 237.905947 533.027358 243.202822 533.027358 249.749697 Z M 533.027358 249.749697 " transform="matrix(0.25,0,0,0.25,-53.639652,-21.777268)"/>
<path style="fill-rule:evenodd;fill:rgb(0%,0%,0%);fill-opacity:1;stroke-width:1;stroke-linecap:butt;stroke-linejoin:miter;stroke:rgb(0%,0%,0%);stroke-opacity:1;stroke-miterlimit:4;" d="M 533.027358 357.671572 C 533.027358 364.218447 527.714858 369.530947 521.167983 369.530947 C 514.636733 369.530947 509.324233 364.218447 509.324233 357.671572 C 509.324233 351.124697 514.636733 345.827822 521.167983 345.827822 C 527.714858 345.827822 533.027358 351.124697 533.027358 357.671572 Z M 533.027358 357.671572 " transform="matrix(0.25,0,0,0.25,-53.639652,-21.777268)"/>
<path style="fill-rule:evenodd;fill:rgb(0%,0%,0%);fill-opacity:1;stroke-width:1;stroke-linecap:butt;stroke-linejoin:miter;stroke:rgb(0%,0%,0%);stroke-opacity:1;stroke-miterlimit:4;" d="M 533.027358 393.671572 C 533.027358 400.218447 527.714858 405.530947 521.167983 405.530947 C 514.636733 405.530947 509.324233 400.218447 509.324233 393.671572 C 509.324233 387.124697 514.636733 381.827822 521.167983 381.827822 C 527.714858 381.827822 533.027358 387.124697 533.027358 393.671572 Z M 533.027358 393.671572 " transform="matrix(0.25,0,0,0.25,-53.639652,-21.777268)"/>
<path style="fill-rule:evenodd;fill:rgb(0%,0%,0%);fill-opacity:1;stroke-width:1;stroke-linecap:butt;stroke-linejoin:miter;stroke:rgb(0%,0%,0%);stroke-opacity:1;stroke-miterlimit:4;" d="M 245.167983 177.749697 C 245.167983 184.296572 239.871108 189.593447 233.324233 189.593447 C 226.777358 189.593447 221.480483 184.296572 221.480483 177.749697 C 221.480483 171.202822 226.777358 165.905947 233.324233 165.905947 C 239.871108 165.905947 245.167983 171.202822 245.167983 177.749697 Z M 245.167983 177.749697 " transform="matrix(0.25,0,0,0.25,-53.639652,-21.777268)"/>
<path style="fill-rule:evenodd;fill:rgb(0%,0%,0%);fill-opacity:1;stroke-width:1;stroke-linecap:butt;stroke-linejoin:miter;stroke:rgb(0%,0%,0%);stroke-opacity:1;stroke-miterlimit:4;" d="M 245.167983 213.749697 C 245.167983 220.296572 239.871108 225.593447 233.324233 225.593447 C 226.777358 225.593447 221.480483 220.296572 221.480483 213.749697 C 221.480483 207.202822 226.777358 201.905947 233.324233 201.905947 C 239.871108 201.905947 245.167983 207.202822 245.167983 213.749697 Z M 245.167983 213.749697 " transform="matrix(0.25,0,0,0.25,-53.639652,-21.777268)"/>
<path style="fill-rule:evenodd;fill:rgb(0%,0%,0%);fill-opacity:1;stroke-width:1;stroke-linecap:butt;stroke-linejoin:miter;stroke:rgb(0%,0%,0%);stroke-opacity:1;stroke-miterlimit:4;" d="M 245.167983 249.749697 C 245.167983 256.296572 239.871108 261.593447 233.324233 261.593447 C 226.777358 261.593447 221.480483 256.296572 221.480483 249.749697 C 221.480483 243.202822 226.777358 237.905947 233.324233 237.905947 C 239.871108 237.905947 245.167983 243.202822 245.167983 249.749697 Z M 245.167983 249.749697 " transform="matrix(0.25,0,0,0.25,-53.639652,-21.777268)"/>
<path style="fill-rule:evenodd;fill:rgb(0%,0%,0%);fill-opacity:1;stroke-width:1;stroke-linecap:butt;stroke-linejoin:miter;stroke:rgb(0%,0%,0%);stroke-opacity:1;stroke-miterlimit:4;" d="M 245.167983 285.749697 C 245.167983 292.296572 239.871108 297.593447 233.324233 297.593447 C 226.777358 297.593447 221.480483 292.296572 221.480483 285.749697 C 221.480483 279.202822 226.777358 273.905947 233.324233 273.905947 C 239.871108 273.905947 245.167983 279.202822 245.167983 285.749697 Z M 245.167983 285.749697 " transform="matrix(0.25,0,0,0.25,-53.639652,-21.777268)"/>
<path style="fill-rule:evenodd;fill:rgb(0%,0%,0%);fill-opacity:1;stroke-width:1;stroke-linecap:butt;stroke-linejoin:miter;stroke:rgb(0%,0%,0%);stroke-opacity:1;stroke-miterlimit:4;" d="M 245.167983 321.671572 C 245.167983 328.218447 239.871108 333.530947 233.324233 333.530947 C 226.777358 333.530947 221.480483 328.218447 221.480483 321.671572 C 221.480483 315.124697 226.777358 309.827822 233.324233 309.827822 C 239.871108 309.827822 245.167983 315.124697 245.167983 321.671572 Z M 245.167983 321.671572 " transform="matrix(0.25,0,0,0.25,-53.639652,-21.777268)"/>
<path style="fill-rule:evenodd;fill:rgb(0%,0%,0%);fill-opacity:1;stroke-width:1;stroke-linecap:butt;stroke-linejoin:miter;stroke:rgb(0%,0%,0%);stroke-opacity:1;stroke-miterlimit:4;" d="M 245.167983 357.671572 C 245.167983 364.218447 239.871108 369.530947 233.324233 369.530947 C 226.777358 369.530947 221.480483 364.218447 221.480483 357.671572 C 221.480483 351.124697 226.777358 345.827822 233.324233 345.827822 C 239.871108 345.827822 245.167983 351.124697 245.167983 357.671572 Z M 245.167983 357.671572 " transform="matrix(0.25,0,0,0.25,-53.639652,-21.777268)"/>
<path style="fill-rule:evenodd;fill:rgb(0%,0%,0%);fill-opacity:1;stroke-width:1;stroke-linecap:butt;stroke-linejoin:miter;stroke:rgb(0%,0%,0%);stroke-opacity:1;stroke-miterlimit:4;" d="M 245.167983 393.671572 C 245.167983 400.218447 239.871108 405.530947 233.324233 405.530947 C 226.777358 405.530947 221.480483 400.218447 221.480483 393.671572 C 221.480483 387.124697 226.777358 381.827822 233.324233 381.827822 C 239.871108 381.827822 245.167983 387.124697 245.167983 393.671572 Z M 245.167983 393.671572 " transform="matrix(0.25,0,0,0.25,-53.639652,-21.777268)"/>
<path style="fill-rule:evenodd;fill:rgb(0%,0%,0%);fill-opacity:1;stroke-width:1;stroke-linecap:butt;stroke-linejoin:miter;stroke:rgb(0%,0%,0%);stroke-opacity:1;stroke-miterlimit:4;" d="M 477.667983 378.593447 C 477.667983 385.562197 472.027358 391.202822 465.074233 391.202822 C 458.121108 391.202822 452.480483 385.562197 452.480483 378.593447 C 452.480483 371.640322 458.121108 365.999697 465.074233 365.999697 C 472.027358 365.999697 477.667983 371.640322 477.667983 378.593447 Z M 477.667983 378.593447 " transform="matrix(0.25,0,0,0.25,-53.639652,-21.777268)"/>
<path style="fill-rule:evenodd;fill:rgb(0%,0%,0%);fill-opacity:1;stroke-width:1;stroke-linecap:butt;stroke-linejoin:miter;stroke:rgb(0%,0%,0%);stroke-opacity:1;stroke-miterlimit:4;" d="M 284.402358 171.296572 C 284.402358 178.265322 278.761733 183.905947 271.792983 183.905947 C 264.839858 183.905947 259.199233 178.265322 259.199233 171.296572 C 259.199233 164.343447 264.839858 158.702822 271.792983 158.702822 C 278.761733 158.702822 284.402358 164.343447 284.402358 171.296572 Z M 284.402358 171.296572 " transform="matrix(0.25,0,0,0.25,-53.639652,-21.777268)"/>
<path style="fill-rule:evenodd;fill:rgb(0%,0%,0%);fill-opacity:1;stroke-width:1;stroke-linecap:butt;stroke-linejoin:miter;stroke:rgb(0%,0%,0%);stroke-opacity:1;stroke-miterlimit:4;" d="M 453.746108 300.905947 C 453.746108 304.421572 450.902358 307.280947 447.371108 307.280947 C 443.855483 307.280947 440.996108 304.421572 440.996108 300.905947 C 440.996108 297.374697 443.855483 294.530947 447.371108 294.530947 C 450.902358 294.530947 453.746108 297.374697 453.746108 300.905947 Z M 453.746108 300.905947 " transform="matrix(0.25,0,0,0.25,-53.639652,-21.777268)"/>
<path style="fill-rule:evenodd;fill:rgb(0%,0%,0%);fill-opacity:1;stroke-width:1;stroke-linecap:butt;stroke-linejoin:miter;stroke:rgb(0%,0%,0%);stroke-opacity:1;stroke-miterlimit:4;" d="M 453.605483 281.093447 C 453.605483 284.624697 450.746108 287.468447 447.230483 287.468447 C 443.699233 287.468447 440.855483 284.624697 440.855483 281.093447 C 440.855483 277.577822 443.699233 274.718447 447.230483 274.718447 C 450.746108 274.718447 453.605483 277.577822 453.605483 281.093447 Z M 453.605483 281.093447 " transform="matrix(0.25,0,0,0.25,-53.639652,-21.777268)"/>
<path style="fill-rule:evenodd;fill:rgb(0%,0%,0%);fill-opacity:1;stroke-width:1;stroke-linecap:butt;stroke-linejoin:miter;stroke:rgb(0%,0%,0%);stroke-opacity:1;stroke-miterlimit:4;" d="M 406.574233 238.124697 C 406.574233 241.640322 403.714858 244.499697 400.199233 244.499697 C 396.683608 244.499697 393.824233 241.640322 393.824233 238.124697 C 393.824233 234.609072 396.683608 231.749697 400.199233 231.749697 C 403.714858 231.749697 406.574233 234.609072 406.574233 238.124697 Z M 406.574233 238.124697 " transform="matrix(0.25,0,0,0.25,-53.639652,-21.777268)"/>
<path style="fill-rule:evenodd;fill:rgb(0%,0%,0%);fill-opacity:1;stroke-width:1;stroke-linecap:butt;stroke-linejoin:miter;stroke:rgb(0%,0%,0%);stroke-opacity:1;stroke-miterlimit:4;" d="M 296.855483 353.327822 C 296.855483 356.843447 293.996108 359.702822 290.480483 359.702822 C 286.949233 359.702822 284.105483 356.843447 284.105483 353.327822 C 284.105483 349.796572 286.949233 346.952822 290.480483 346.952822 C 293.996108 346.952822 296.855483 349.796572 296.855483 353.327822 Z M 296.855483 353.327822 " transform="matrix(0.25,0,0,0.25,-53.639652,-21.777268)"/>
<path style="fill-rule:evenodd;fill:rgb(0%,0%,0%);fill-opacity:1;stroke-width:1;stroke-linecap:butt;stroke-linejoin:miter;stroke:rgb(0%,0%,0%);stroke-opacity:1;stroke-miterlimit:4;" d="M 380.058608 234.718447 C 380.058608 238.249697 377.214858 241.093447 373.683608 241.093447 C 370.167983 241.093447 367.308608 238.249697 367.308608 234.718447 C 367.308608 231.202822 370.167983 228.343447 373.683608 228.343447 C 377.214858 228.343447 380.058608 231.202822 380.058608 234.718447 Z M 380.058608 234.718447 " transform="matrix(0.25,0,0,0.25,-53.639652,-21.777268)"/>
<path style="fill-rule:evenodd;fill:rgb(0%,0%,0%);fill-opacity:1;stroke-width:1;stroke-linecap:butt;stroke-linejoin:miter;stroke:rgb(0%,0%,0%);stroke-opacity:1;stroke-miterlimit:4;" d="M 335.027358 334.280947 C 335.027358 337.796572 332.167983 340.655947 328.652358 340.655947 C 325.136733 340.655947 322.277358 337.796572 322.277358 334.280947 C 322.277358 330.749697 325.136733 327.905947 328.652358 327.905947 C 332.167983 327.905947 335.027358 330.749697 335.027358 334.280947 Z M 335.027358 334.280947 " transform="matrix(0.25,0,0,0.25,-53.639652,-21.777268)"/>
<path style="fill-rule:evenodd;fill:rgb(0%,0%,0%);fill-opacity:1;stroke-width:1;stroke-linecap:butt;stroke-linejoin:miter;stroke:rgb(0%,0%,0%);stroke-opacity:1;stroke-miterlimit:4;" d="M 426.824233 321.671572 C 426.824233 325.202822 423.964858 328.046572 420.449233 328.046572 C 416.933608 328.046572 414.074233 325.202822 414.074233 321.671572 C 414.074233 318.155947 416.933608 315.296572 420.449233 315.296572 C 423.964858 315.296572 426.824233 318.155947 426.824233 321.671572 Z M 426.824233 321.671572 " transform="matrix(0.25,0,0,0.25,-53.639652,-21.777268)"/>
<path style="fill-rule:evenodd;fill:rgb(0%,0%,0%);fill-opacity:1;stroke-width:1;stroke-linecap:butt;stroke-linejoin:miter;stroke:rgb(0%,0%,0%);stroke-opacity:1;stroke-miterlimit:4;" d="M 477.230483 175.952822 C 477.230483 179.468447 474.371108 182.327822 470.855483 182.327822 C 467.324233 182.327822 464.480483 179.468447 464.480483 175.952822 C 464.480483 172.421572 467.324233 169.577822 470.855483 169.577822 C 474.371108 169.577822 477.230483 172.421572 477.230483 175.952822 Z M 477.230483 175.952822 " transform="matrix(0.25,0,0,0.25,-53.639652,-21.777268)"/>
<path style="fill:none;stroke-width:1;stroke-linecap:butt;stroke-linejoin:miter;stroke:rgb(0%,0%,0%);stroke-opacity:1;stroke-miterlimit:4;" d="M 538.792983 411.671572 L 538.792983 87.749697 " transform="matrix(0.25,0,0,0.25,-53.639652,-21.777268)"/>
<path style="fill:none;stroke-width:1;stroke-linecap:butt;stroke-linejoin:miter;stroke:rgb(0%,0%,0%);stroke-opacity:1;stroke-miterlimit:4;" d="M 215.324233 87.749697 L 215.324233 411.671572 " transform="matrix(0.25,0,0,0.25,-53.639652,-21.777268)"/>
<path style="fill:none;stroke-width:5;stroke-linecap:round;stroke-linejoin:round;stroke:rgb(0%,0%,0%);stroke-opacity:0.482353;stroke-miterlimit:4;" d="M 332.417983 236.530947 L 334.152358 239.452822 L 336.027358 242.312197 L 338.121108 244.937197 L 340.449233 247.484072 L 342.917983 249.812197 L 345.621108 251.905947 L 348.402358 253.859072 L 351.324233 255.577822 L 354.402358 257.015322 " transform="matrix(0.25,0,0,0.25,-53.639652,-21.777268)"/>
<path style="fill:none;stroke-width:5;stroke-linecap:round;stroke-linejoin:round;stroke:rgb(0%,0%,0%);stroke-opacity:0.482353;stroke-miterlimit:4;" d="M 354.402358 257.015322 L 358.667983 257.609072 L 362.949233 257.905947 L 367.292983 257.905947 L 371.574233 257.609072 L 375.839858 257.077822 L 380.121108 256.265322 L 384.246108 255.140322 L 388.371108 253.780947 " transform="matrix(0.25,0,0,0.25,-53.639652,-21.777268)"/>
<path style="fill:none;stroke-width:5;stroke-linecap:round;stroke-linejoin:round;stroke:rgb(0%,0%,0%);stroke-opacity:0.482353;stroke-miterlimit:4;" d="M 342.839858 280.109072 L 377.042983 289.109072 " transform="matrix(0.25,0,0,0.25,-53.639652,-21.777268)"/>
<path style="fill:none;stroke-width:5;stroke-linecap:round;stroke-linejoin:round;stroke:rgb(0%,0%,0%);stroke-opacity:0.482353;stroke-miterlimit:4;" d="M 294.324233 219.062197 L 329.042983 254.609072 " transform="matrix(0.25,0,0,0.25,-53.639652,-21.777268)"/>
<path style="fill:none;stroke-width:5;stroke-linecap:round;stroke-linejoin:round;stroke:rgb(0%,0%,0%);stroke-opacity:0.482353;stroke-miterlimit:4;" d="M 329.042983 254.609072 L 330.917983 257.077822 L 332.949233 259.327822 L 335.199233 261.359072 L 337.667983 263.234072 L 340.292983 264.812197 L 342.996108 266.155947 L 345.917983 267.202822 L 348.839858 268.030947 L 351.839858 268.562197 " transform="matrix(0.25,0,0,0.25,-53.639652,-21.777268)"/>
<path style="fill:none;stroke-width:5;stroke-linecap:round;stroke-linejoin:round;stroke:rgb(0%,0%,0%);stroke-opacity:0.482353;stroke-miterlimit:4;" d="M 329.042983 254.609072 L 323.042983 280.109072 " transform="matrix(0.25,0,0,0.25,-53.639652,-21.777268)"/>
<path style="fill:none;stroke-width:5;stroke-linecap:round;stroke-linejoin:round;stroke:rgb(0%,0%,0%);stroke-opacity:0.482353;stroke-miterlimit:4;" d="M 323.042983 280.109072 L 322.667983 282.437197 L 322.527358 284.827822 L 322.589858 287.312197 L 322.964858 289.702822 L 323.574233 292.030947 L 324.464858 294.280947 L 325.527358 296.452822 L 326.871108 298.405947 L 328.449233 300.280947 L 330.167983 302.015322 L 332.042983 303.437197 " transform="matrix(0.25,0,0,0.25,-53.639652,-21.777268)"/>
<path style="fill:none;stroke-width:5;stroke-linecap:round;stroke-linejoin:round;stroke:rgb(0%,0%,0%);stroke-opacity:0.482353;stroke-miterlimit:4;" d="M 344.652358 341.234072 L 345.464858 338.312197 L 346.074233 335.312197 L 346.371108 332.312197 L 346.371108 329.234072 L 346.074233 326.234072 L 345.464858 323.234072 L 344.652358 320.234072 L 343.589858 317.390322 L 342.246108 314.687197 L 340.589858 312.062197 L 338.792983 309.655947 L 336.777358 307.405947 L 334.527358 305.312197 L 332.042983 303.437197 " transform="matrix(0.25,0,0,0.25,-53.639652,-21.777268)"/>
<path style="fill:none;stroke-width:5;stroke-linecap:round;stroke-linejoin:round;stroke:rgb(0%,0%,0%);stroke-opacity:0.482353;stroke-miterlimit:4;" d="M 351.839858 268.562197 L 359.121108 269.687197 L 366.402358 270.515322 L 373.667983 271.187197 L 381.027358 271.562197 L 388.371108 271.780947 " transform="matrix(0.25,0,0,0.25,-53.639652,-21.777268)"/>
<path style="fill:none;stroke-width:5;stroke-linecap:round;stroke-linejoin:round;stroke:rgb(0%,0%,0%);stroke-opacity:0.482353;stroke-miterlimit:4;" d="M 351.839858 193.562197 L 380.652358 195.359072 " transform="matrix(0.25,0,0,0.25,-53.639652,-21.777268)"/>
<path style="fill:none;stroke-width:5;stroke-linecap:round;stroke-linejoin:round;stroke:rgb(0%,0%,0%);stroke-opacity:0.482353;stroke-miterlimit:4;" d="M 380.652358 195.359072 L 409.449233 195.359072 " transform="matrix(0.25,0,0,0.25,-53.639652,-21.777268)"/>
<path style="fill:none;stroke-width:5;stroke-linecap:round;stroke-linejoin:round;stroke:rgb(0%,0%,0%);stroke-opacity:0.482353;stroke-miterlimit:4;" d="M 378.839858 149.984072 L 378.839858 188.155947 " transform="matrix(0.25,0,0,0.25,-53.639652,-21.777268)"/>
<path style="fill:none;stroke-width:5;stroke-linecap:round;stroke-linejoin:round;stroke:rgb(0%,0%,0%);stroke-opacity:0.482353;stroke-miterlimit:4;" d="M 378.839858 188.155947 L 380.652358 195.359072 " transform="matrix(0.25,0,0,0.25,-53.639652,-21.777268)"/>
<path style="fill:none;stroke-width:5;stroke-linecap:round;stroke-linejoin:round;stroke:rgb(0%,0%,0%);stroke-opacity:0.482353;stroke-miterlimit:4;" d="M 325.214858 222.952822 L 351.839858 223.327822 " transform="matrix(0.25,0,0,0.25,-53.639652,-21.777268)"/>
<path style="fill:none;stroke-width:5;stroke-linecap:round;stroke-linejoin:round;stroke:rgb(0%,0%,0%);stroke-opacity:0.482353;stroke-miterlimit:4;" d="M 289.964858 154.109072 L 348.464858 154.109072 " transform="matrix(0.25,0,0,0.25,-53.639652,-21.777268)"/>
<path style="fill:none;stroke-width:5;stroke-linecap:round;stroke-linejoin:round;stroke:rgb(0%,0%,0%);stroke-opacity:0.482353;stroke-miterlimit:4;" d="M 273.621108 170.452822 L 289.964858 154.109072 " transform="matrix(0.25,0,0,0.25,-53.639652,-21.777268)"/>
<path style="fill:none;stroke-width:5;stroke-linecap:round;stroke-linejoin:round;stroke:rgb(0%,0%,0%);stroke-opacity:0.482353;stroke-miterlimit:4;" d="M 233.121108 213.515322 L 283.527358 253.109072 " transform="matrix(0.25,0,0,0.25,-53.639652,-21.777268)"/>
<path style="fill:none;stroke-width:5;stroke-linecap:round;stroke-linejoin:round;stroke:rgb(0%,0%,0%);stroke-opacity:0.482353;stroke-miterlimit:4;" d="M 233.121108 285.515322 L 292.964858 289.780947 " transform="matrix(0.25,0,0,0.25,-53.639652,-21.777268)"/>
<path style="fill:none;stroke-width:5;stroke-linecap:round;stroke-linejoin:round;stroke:rgb(0%,0%,0%);stroke-opacity:0.482353;stroke-miterlimit:4;" d="M 333.839858 353.827822 L 335.949233 352.640322 L 337.902358 351.202822 L 339.699233 349.484072 L 341.277358 347.687197 L 342.621108 345.655947 L 343.746108 343.484072 L 344.652358 341.234072 " transform="matrix(0.25,0,0,0.25,-53.639652,-21.777268)"/>
<path style="fill:none;stroke-width:5;stroke-linecap:round;stroke-linejoin:round;stroke:rgb(0%,0%,0%);stroke-opacity:0.482353;stroke-miterlimit:4;" d="M 333.839858 353.827822 L 329.574233 356.155947 L 325.371108 358.562197 L 321.246108 361.030947 " transform="matrix(0.25,0,0,0.25,-53.639652,-21.777268)"/>
<path style="fill:none;stroke-width:5;stroke-linecap:round;stroke-linejoin:round;stroke:rgb(0%,0%,0%);stroke-opacity:0.482353;stroke-miterlimit:4;" d="M 283.527358 368.234072 L 287.042983 368.765322 L 290.574233 369.140322 L 294.167983 369.140322 L 297.777358 368.984072 L 301.292983 368.530947 L 304.824233 367.859072 L 308.277358 366.952822 L 311.652358 365.827822 L 315.027358 364.484072 L 318.167983 362.827822 L 321.246108 361.030947 " transform="matrix(0.25,0,0,0.25,-53.639652,-21.777268)"/>
<path style="fill:none;stroke-width:5;stroke-linecap:round;stroke-linejoin:round;stroke:rgb(0%,0%,0%);stroke-opacity:0.482353;stroke-miterlimit:4;" d="M 233.121108 357.437197 L 258.246108 363.140322 L 283.527358 368.234072 " transform="matrix(0.25,0,0,0.25,-53.639652,-21.777268)"/>
<path style="fill:none;stroke-width:5;stroke-linecap:round;stroke-linejoin:round;stroke:rgb(0%,0%,0%);stroke-opacity:0.482353;stroke-miterlimit:4;" d="M 388.371108 307.780947 L 315.839858 393.437197 " transform="matrix(0.25,0,0,0.25,-53.639652,-21.777268)"/>
<path style="fill:none;stroke-width:5;stroke-linecap:round;stroke-linejoin:round;stroke:rgb(0%,0%,0%);stroke-opacity:0.482353;stroke-miterlimit:4;" d="M 465.839858 254.015322 L 480.464858 254.015322 " transform="matrix(0.25,0,0,0.25,-53.639652,-21.777268)"/>
<path style="fill:none;stroke-width:5;stroke-linecap:round;stroke-linejoin:round;stroke:rgb(0%,0%,0%);stroke-opacity:0.482353;stroke-miterlimit:4;" d="M 480.464858 254.015322 L 520.964858 213.515322 " transform="matrix(0.25,0,0,0.25,-53.639652,-21.777268)"/>
<path style="fill:none;stroke-width:5;stroke-linecap:round;stroke-linejoin:round;stroke:rgb(0%,0%,0%);stroke-opacity:0.482353;stroke-miterlimit:4;" d="M 465.621108 277.109072 L 483.246108 277.109072 " transform="matrix(0.25,0,0,0.25,-53.639652,-21.777268)"/>
<path style="fill:none;stroke-width:5;stroke-linecap:round;stroke-linejoin:round;stroke:rgb(0%,0%,0%);stroke-opacity:0.482353;stroke-miterlimit:4;" d="M 483.246108 277.109072 L 483.246108 303.437197 " transform="matrix(0.25,0,0,0.25,-53.639652,-21.777268)"/>
<path style="fill:none;stroke-width:5;stroke-linecap:round;stroke-linejoin:round;stroke:rgb(0%,0%,0%);stroke-opacity:0.482353;stroke-miterlimit:4;" d="M 483.246108 303.437197 L 465.621108 303.437197 " transform="matrix(0.25,0,0,0.25,-53.639652,-21.777268)"/>
<path style="fill:none;stroke-width:5;stroke-linecap:round;stroke-linejoin:round;stroke:rgb(0%,0%,0%);stroke-opacity:0.482353;stroke-miterlimit:4;" d="M 294.324233 193.562197 L 325.214858 193.265322 " transform="matrix(0.25,0,0,0.25,-53.639652,-21.777268)"/>
<path style="fill:none;stroke-width:5;stroke-linecap:round;stroke-linejoin:round;stroke:rgb(0%,0%,0%);stroke-opacity:0.482353;stroke-miterlimit:4;" d="M 369.246108 149.984072 L 369.246108 177.202822 " transform="matrix(0.25,0,0,0.25,-53.639652,-21.777268)"/>
<path style="fill:none;stroke-width:5;stroke-linecap:round;stroke-linejoin:round;stroke:rgb(0%,0%,0%);stroke-opacity:0.482353;stroke-miterlimit:4;" d="M 369.246108 177.202822 L 337.746108 177.202822 " transform="matrix(0.25,0,0,0.25,-53.639652,-21.777268)"/>
<path style="fill:none;stroke-width:5;stroke-linecap:round;stroke-linejoin:round;stroke:rgb(0%,0%,0%);stroke-opacity:0.482353;stroke-miterlimit:4;" d="M 337.746108 177.202822 C 328.917983 178.499697 321.621108 180.671572 323.636733 188.155947 " transform="matrix(0.25,0,0,0.25,-53.639652,-21.777268)"/>
<path style="fill:none;stroke-width:5;stroke-linecap:round;stroke-linejoin:round;stroke:rgb(0%,0%,0%);stroke-opacity:0.482353;stroke-miterlimit:4;" d="M 442.214858 223.937197 L 413.042983 251.312197 " transform="matrix(0.25,0,0,0.25,-53.639652,-21.777268)"/>
<path style="fill:none;stroke-width:5;stroke-linecap:round;stroke-linejoin:round;stroke:rgb(0%,0%,0%);stroke-opacity:0.482353;stroke-miterlimit:4;" d="M 413.042983 251.312197 L 413.042983 290.015322 " transform="matrix(0.25,0,0,0.25,-53.639652,-21.777268)"/>
<path style="fill:none;stroke-width:5;stroke-linecap:round;stroke-linejoin:round;stroke:rgb(0%,0%,0%);stroke-opacity:0.482353;stroke-miterlimit:4;" d="M 472.902358 231.812197 L 443.652358 223.937197 " transform="matrix(0.25,0,0,0.25,-53.639652,-21.777268)"/>
<path style="fill:none;stroke-width:5;stroke-linecap:round;stroke-linejoin:round;stroke:rgb(0%,0%,0%);stroke-opacity:0.482353;stroke-miterlimit:4;" d="M 409.449233 220.859072 L 443.652358 223.937197 " transform="matrix(0.25,0,0,0.25,-53.639652,-21.777268)"/>
<path style="fill:none;stroke-width:5;stroke-linecap:round;stroke-linejoin:round;stroke:rgb(0%,0%,0%);stroke-opacity:0.482353;stroke-miterlimit:4;" d="M 296.121108 308.827822 L 314.121108 308.827822 " transform="matrix(0.25,0,0,0.25,-53.639652,-21.777268)"/>
<path style="fill:none;stroke-width:5;stroke-linecap:round;stroke-linejoin:round;stroke:rgb(0%,0%,0%);stroke-opacity:0.482353;stroke-miterlimit:4;" d="M 314.121108 308.827822 L 314.121108 328.640322 " transform="matrix(0.25,0,0,0.25,-53.639652,-21.777268)"/>
<path style="fill:none;stroke-width:5;stroke-linecap:round;stroke-linejoin:round;stroke:rgb(0%,0%,0%);stroke-opacity:0.482353;stroke-miterlimit:4;" d="M 312.839858 332.765322 L 328.449233 334.030947 " transform="matrix(0.25,0,0,0.25,-53.639652,-21.777268)"/>
<path style="fill:none;stroke-width:5;stroke-linecap:round;stroke-linejoin:round;stroke:rgb(0%,0%,0%);stroke-opacity:0.482353;stroke-miterlimit:4;" d="M 420.199233 321.577822 L 428.792983 304.030947 " transform="matrix(0.25,0,0,0.25,-53.639652,-21.777268)"/>
<path style="fill:none;stroke-width:5;stroke-linecap:round;stroke-linejoin:round;stroke:rgb(0%,0%,0%);stroke-opacity:0.482353;stroke-miterlimit:4;" d="M 520.964858 357.437197 L 486.839858 317.827822 " transform="matrix(0.25,0,0,0.25,-53.639652,-21.777268)"/>
<path style="fill:none;stroke-width:5;stroke-linecap:round;stroke-linejoin:round;stroke:rgb(0%,0%,0%);stroke-opacity:0.482353;stroke-miterlimit:4;" d="M 486.839858 317.827822 L 420.417983 321.577822 " transform="matrix(0.25,0,0,0.25,-53.639652,-21.777268)"/>
<path style="fill:none;stroke-width:5;stroke-linecap:round;stroke-linejoin:round;stroke:rgb(0%,0%,0%);stroke-opacity:0.482353;stroke-miterlimit:4;" d="M 233.121108 249.515322 L 283.527358 271.109072 " transform="matrix(0.25,0,0,0.25,-53.639652,-21.777268)"/>
<path style="fill:none;stroke-width:5;stroke-linecap:round;stroke-linejoin:round;stroke:rgb(0%,0%,0%);stroke-opacity:0.482353;stroke-miterlimit:4;" d="M 472.902358 206.312197 L 501.246108 195.515322 " transform="matrix(0.25,0,0,0.25,-53.639652,-21.777268)"/>
<path style="fill:none;stroke-width:5;stroke-linecap:round;stroke-linejoin:round;stroke:rgb(0%,0%,0%);stroke-opacity:0.482353;stroke-miterlimit:4;" d="M 501.246108 195.515322 L 524.339858 178.187197 " transform="matrix(0.25,0,0,0.25,-53.639652,-21.777268)"/>
<path style="fill:none;stroke-width:5;stroke-linecap:round;stroke-linejoin:round;stroke:rgb(0%,0%,0%);stroke-opacity:0.482353;stroke-miterlimit:4;" d="M 387.621108 152.765322 L 387.464858 168.515322 " transform="matrix(0.25,0,0,0.25,-53.639652,-21.777268)"/>
<path style="fill:none;stroke-width:5;stroke-linecap:round;stroke-linejoin:round;stroke:rgb(0%,0%,0%);stroke-opacity:0.482353;stroke-miterlimit:4;" d="M 387.464858 168.515322 L 390.402358 170.234072 L 393.402358 171.734072 L 396.464858 173.015322 L 399.699233 173.984072 L 402.996108 174.734072 L 406.292983 175.265322 L 409.667983 175.405947 L 413.042983 175.327822 L 416.339858 175.030947 L 419.652358 174.359072 L 422.871108 173.530947 L 426.089858 172.327822 L 429.089858 170.984072 L 432.027358 169.327822 L 434.871108 167.452822 L 437.496108 165.359072 L 439.964858 163.109072 L 442.214858 160.562197 " transform="matrix(0.25,0,0,0.25,-53.639652,-21.777268)"/>
<path style="fill:none;stroke-width:5;stroke-linecap:round;stroke-linejoin:round;stroke:rgb(0%,0%,0%);stroke-opacity:0.482353;stroke-miterlimit:4;" d="M 465.246108 378.359072 L 465.246108 339.437197 " transform="matrix(0.25,0,0,0.25,-53.639652,-21.777268)"/>
<path style="fill:none;stroke-width:5;stroke-linecap:round;stroke-linejoin:round;stroke:rgb(0%,0%,0%);stroke-opacity:0.482353;stroke-miterlimit:4;" d="M 381.058608 222.421572 C 383.902358 232.515322 378.699233 232.124697 375.136733 233.874697 " transform="matrix(0.25,0,0,0.25,-53.639652,-21.777268)"/>
<path style="fill-rule:evenodd;fill:rgb(0%,0%,0%);fill-opacity:1;stroke-width:1;stroke-linecap:butt;stroke-linejoin:miter;stroke:rgb(0%,0%,0%);stroke-opacity:1;stroke-miterlimit:4;" d="M 349.105483 281.609072 C 349.105483 285.140322 346.261733 287.984072 342.730483 287.984072 C 339.214858 287.984072 336.355483 285.140322 336.355483 281.609072 C 336.355483 278.093447 339.214858 275.234072 342.730483 275.234072 C 346.261733 275.234072 349.105483 278.093447 349.105483 281.609072 Z M 349.105483 281.609072 " transform="matrix(0.25,0,0,0.25,-53.639652,-21.777268)"/>
</g>
</svg>
