<?xml version="1.0" encoding="UTF-8" standalone="no"?>
<!-- Created with Inkscape (http://www.inkscape.org/) -->

<svg
   xmlns:dc="http://purl.org/dc/elements/1.1/"
   xmlns:cc="http://creativecommons.org/ns#"
   xmlns:rdf="http://www.w3.org/1999/02/22-rdf-syntax-ns#"
   xmlns:svg="http://www.w3.org/2000/svg"
   xmlns="http://www.w3.org/2000/svg"
   xmlns:sodipodi="http://sodipodi.sourceforge.net/DTD/sodipodi-0.dtd"
   xmlns:inkscape="http://www.inkscape.org/namespaces/inkscape"
   sodipodi:docname="New document 1"
   inkscape:version="0.48.4 r9939"
   version="1.1"
   id="svg2"
   height="100"
   width="196.10028">
  <sodipodi:namedview
     id="base"
     pagecolor="#ffffff"
     bordercolor="#666666"
     borderopacity="1.0"
     inkscape:pageopacity="0.0"
     inkscape:pageshadow="2"
     inkscape:zoom="4.1509375"
     inkscape:cx="98.05014"
     inkscape:cy="50"
     inkscape:document-units="px"
     inkscape:current-layer="layer1"
     showgrid="false"
     fit-margin-top="0"
     fit-margin-left="0"
     fit-margin-right="0"
     fit-margin-bottom="0"
     inkscape:window-width="944"
     inkscape:window-height="1122"
     inkscape:window-x="960"
     inkscape:window-y="0"
     inkscape:window-maximized="0" />
  <defs
     id="defs4" />
  <metadata
     id="metadata7">
    <rdf:RDF>
      <cc:Work
         rdf:about="">
        <dc:format>image/svg+xml</dc:format>
        <dc:type
           rdf:resource="http://purl.org/dc/dcmitype/StillImage" />
        <dc:title></dc:title>
      </cc:Work>
    </rdf:RDF>
  </metadata>
  <g
     inkscape:label="Layer 1"
     inkscape:groupmode="layer"
     id="layer1"
     transform="translate(-23,-611.86218)">
    <path
       style="fill:#000000"
       d="m 115.73492,706.75524 c -3.81601,-1.07501 -7.81858,-0.55163 -11.67115,-0.74345 -4.552182,-1.57106 -8.940949,-3.94996 -13.778518,-4.31714 -4.528325,-1.3025 -9.143443,-2.29154 -13.563653,-4.01385 -5.205838,-1.81409 -9.538119,-5.47249 -14.760598,-7.26042 -3.305414,-2.76007 -5.668325,-6.70998 -9.784491,-8.28093 -3.073179,-1.65136 -5.91354,-3.95546 -8.45646,-6.27345 -1.986329,-3.32689 -5.72413,-5.11192 -7.324749,-8.74346 -1.959385,-3.1198 -2.391291,-6.95816 -4.297839,-10.14791 -2.064301,-2.69796 0.453614,-3.51216 2.210988,-5.0353 1.619114,-2.00815 2.750499,-3.86059 2.018209,-6.53936 6.514025,-2.48258 13.78902,-4.38829 20.610869,-6.604 8.034664,-2.48897 16.08303,-4.94028 24.025084,-7.71477 0.482035,-4.22788 1.304968,-8.40097 2.088818,-12.58033 24.81287,3.62981 50.14364,3.83155 74.95198,0.0624 2.99384,-1.08421 1.56489,3.4186 2.30124,5.16082 0.28443,2.48466 0.51431,4.97596 0.86645,7.45239 10.85048,3.55787 21.96312,6.46331 32.88387,9.87432 4.12584,1.21845 8.22066,2.53806 12.32872,3.81446 0.0646,3.3411 2.61225,5.84216 3.95688,8.70604 -2.32526,4.7704 -4.0777,9.8865 -6.60306,14.50929 -3.06806,3.42237 -5.61981,7.41815 -9.57248,9.83747 -3.37851,3.36704 -8.39646,4.45659 -11.25589,8.42156 -2.60541,3.7048 -7.26102,4.44471 -10.80809,6.94162 -2.1263,1.31506 -3.66922,3.53125 -6.40761,3.58349 -5.04841,1.3628 -9.9044,3.75526 -15.10604,4.38058 -3.76973,-0.1068 -7.48032,2.23014 -11.19218,3.21328 -3.77144,1.91314 -8.12158,0.23312 -11.99196,1.91346 -3.8893,0.13202 -7.77892,0.2554 -11.66834,0.38322 m 9.04316,-1.51413 c 2.68662,-2.24955 -2.79399,-1.6899 -4.18239,-1.77077 -1.5437,-0.049 -6.45758,-0.48921 -4.92046,1.6945 2.73213,0.91521 6.15185,-0.081 9.10285,0.0763 z m -10.39812,-0.0265 c -0.7117,-0.99929 -0.71165,0.99931 0,0 z m -3.43137,-0.37114 c 4.05554,-0.52281 1.61905,-2.54909 -1.21332,-1.95834 -1.38618,0.75079 -6.39152,-0.9338 -5.01523,1.18668 1.928,1.29511 4.05661,0.87447 6.22855,0.77166 z m 23.696,0.17913 c -1.38631,-0.20543 -0.98536,0.31357 0,0 z m -31.12814,-1.60481 c -1.23851,-2.06176 -3.908129,-2.91493 -5.914373,-4.05395 -2.262923,-0.46886 -4.590083,-0.52501 -6.82341,-0.98886 0.221109,3.08133 3.151797,1.98306 5.16366,3.11989 2.474306,0.94302 4.958863,1.86098 7.365213,2.97021 0.0696,-0.34908 0.13929,-0.69834 0.20891,-1.04729 z m 0.47556,-0.21943 c -0.26386,1.19309 0.12928,1.68235 0,0 z m 28.69743,1.13227 c 5.83007,-1.34423 11.80365,-2.49209 17.20576,-5.14764 0.59454,-2.41997 -4.21836,-0.20988 -5.73895,0.31126 -2.28569,0.44491 -4.13619,2.01607 -5.99773,3.00345 -3.56721,-0.0351 -7.13736,-0.29281 -10.67327,0.3532 -0.95525,2.79338 3.85486,1.11023 5.20419,1.47973 z m -11.97243,-1.26539 c -1.07094,-0.10296 -2.95371,0.19503 0,0 z m -3.69081,-0.91469 c -0.86769,-0.63556 -1.02666,0.25348 0,0 z m 4.52066,0.11026 c -0.74861,-0.28717 -0.54796,0.43148 0,0 z m -12.06962,-0.6904 c 1.96701,0.43093 5.92919,-3.2284 2.14847,-2.98778 -2.24074,0.11758 -5.19221,0.0218 -5.93953,2.67824 -1.17396,-4.25696 -0.76261,2.155 2.09856,0.60637 0.56417,-0.0989 1.12833,-0.19789 1.6925,-0.29683 z m 9.081,0.30159 c -0.66014,-0.97883 -0.27967,0.98741 0,0 z m -1.53503,-1.11421 c 3.52898,1.10589 7.50527,-0.30855 10.90824,0.42209 0.60354,-2.35276 -2.46118,-2.9766 -4.64297,-2.02905 -2.72236,0.40941 -5.52388,0.17228 -8.25176,-0.10292 -1.72129,3.80889 -1.39653,2.25417 1.98649,1.70988 z m 20.02305,0.22997 c 2.77893,-1.05863 -0.67377,-3.42611 -2.63509,-2.67362 -1.52706,-0.12788 -6.46114,-1.08419 -5.0436,1.18644 2.01204,2.01725 5.10872,1.03023 7.67869,1.48718 z m -33.17163,-2.80657 c -2.15533,-0.89808 -4.075049,-2.33256 -6.147007,-3.42659 0.675202,2.50159 3.790657,2.42128 4.091307,5.0528 2.49777,3.07877 1.86671,0.57082 2.0557,-1.62621 z m 0.39094,1.53203 c -0.26291,0.96953 0.15963,1.17606 0,0 z m -14.260841,0.76921 c -0.542825,-0.51795 -0.632677,0.95011 0,0 z m 48.523701,-0.76391 c -0.346,0.77023 0.20927,1.35007 0,0 z m -32.59328,0.15139 c -0.54904,0.28776 0.30637,1.06882 0,0 z m 34.78349,-0.64397 c 2.73986,-0.98953 5.45265,-2.05591 8.22274,-2.95965 -2.87543,-0.34503 -5.74921,-0.67748 -8.38476,0.8013 -2.24974,0.32275 -2.65244,3.40542 0.16202,2.15835 z m 10.09778,-0.008 c -0.68486,0.29383 -0.048,0.9414 0,0 z M 88.474667,698.4101 c 0.546855,-2.11664 -4.642207,-1.82803 -5.135635,-0.49847 -0.986247,2.21537 3.708101,0.50559 5.065997,1.71384 0.02321,-0.40512 0.04643,-0.81025 0.06964,-1.21537 z m 67.671483,0.12002 c 2.25934,-0.81732 5.17846,-0.90396 7.0267,-2.17657 0.57536,-3.55006 -2.8942,1.24091 -4.67076,0.0172 -1.96025,-0.16038 -5.28958,0.3359 -5.48933,2.59401 1.04446,-0.14489 2.08893,-0.28978 3.13339,-0.43466 z m -74.068527,-0.78723 c -2.604091,-3.8728 -8.064436,-4.13569 -11.090142,-7.59661 -2.545693,2.13479 0.772861,3.98415 2.531258,5.17324 2.615246,0.44215 4.866957,2.02086 7.166513,3.01114 0.507318,-0.18671 1.633898,0.41019 1.392371,-0.58777 z m 26.527697,0.6033 c -0.99608,-0.21867 -1.21817,0.2713 0,0 z m -18.180792,-0.20531 c -0.553877,-0.54466 -1.164432,-0.0567 0,0 z m 32.488822,-0.1083 c -2.276,-0.20645 -4.57987,-0.62943 -6.86208,-0.38146 2.0914,0.86445 4.62278,0.16707 6.86208,0.38146 z m 1.56941,-0.24349 c -0.99612,-0.21867 -1.21813,0.27131 0,0 z m 10.43458,0.0144 c -0.74861,-0.28717 -0.54796,0.43148 0,0 z m -41.423929,-1.51008 c 0.625555,-3.28231 -4.899277,-2.55928 -1.470232,-0.32373 0.519475,0.62236 0.737251,0.59585 1.470232,0.32373 z m 3.67863,1.16565 c 0.461025,-3.15246 -4.112014,-3.39112 -1.391751,-0.99758 0.267698,0.11167 1.57734,1.48351 1.391751,0.99758 z m 12.591459,-0.0153 c -0.12564,-2.67283 2.1294,-4.6199 2.50091,-7.27814 3.98955,-11.91165 6.03944,-24.59694 5.39283,-37.16253 -0.6521,-3.85087 -0.85941,-7.85735 -3.3423,-11.06776 -1.02793,-1.44877 -2.45724,-5.99579 -4.41349,-3.55204 -2.90018,3.43966 -5.58514,7.08102 -6.89392,11.45171 -4.185079,11.36989 -4.352779,23.7598 -3.55379,35.71847 0.169913,2.39254 0.76932,4.88847 -0.06044,7.10702 0.980589,4.14594 2.128229,-0.3316 2.132919,-2.35892 0.76136,-3.52955 0.45519,-7.19804 1.29375,-10.71424 1.12926,5.06468 -0.72369,10.27397 -0.76096,15.26515 1.08244,4.013 3.54019,-4.00708 3.20601,-0.9039 0.0492,4.15988 0.12374,2.85524 1.00402,-0.49672 0.80019,-4.48164 1.61511,-8.95801 3.00168,-13.30742 -0.13694,5.75078 -1.92898,11.34256 -2.5868,17.06128 1.00462,0.65711 1.9779,0.38602 3.07956,0.23804 m -2.34732,-0.83468 c 1.04934,-4.24263 1.26685,-8.88022 3.18565,-12.80016 0.29029,3.8905 -1.63275,8.0443 -2.14042,12.05335 0.13077,0.72022 -0.61189,0.56511 -1.04523,0.74681 z m 0.74738,-1.47509 c -0.54904,0.28776 0.30637,1.06882 0,0 z m 0.5571,-2.78551 c -0.54904,0.28776 0.30637,1.06882 0,0 z m 0.27855,-1.39276 c -0.54906,0.28779 0.30643,1.06881 0,0 z m 0.55711,-2.78552 c -0.54903,0.28778 0.30636,1.06881 0,0 z m -4.36236,-4.33496 c 0.8184,-5.69943 1.36568,-11.44953 2.69332,-17.06128 -0.20314,5.92299 -0.96984,11.77232 -2.29431,17.54875 l -0.25285,-0.30891 -0.14616,-0.17856 z m 0.74394,-2.22311 c -0.346,0.77023 0.20927,1.35007 0,0 z m 0.27855,-1.94986 c -0.346,0.77023 0.20927,1.35007 0,0 z m 0.27855,-1.94986 c -0.346,0.77023 0.20927,1.35007 0,0 z m 0.27855,-1.94986 c -0.346,0.77023 0.20927,1.35007 0,0 z m 0.2758,-1.79848 c -0.54906,0.28781 0.30643,1.06882 0,0 z m 0.27275,-1.68871 c -0.35771,0.81064 0.21457,1.02161 0,0 z m 0.28609,-2.64624 c -0.26291,0.96953 0.15963,1.17606 0,0 z m 0.27957,-1.94456 c -0.346,0.77024 0.20927,1.35004 0,0 z m 6.42236,29.56738 c -5.59468,-1.25863 -0.69279,0.47594 0,0 z m 33.00856,0.25676 c -1.19714,-0.19313 -0.64234,0.34823 0,0 z m -26.45856,-0.29015 c -1.94307,-0.15385 -1.40943,0.23953 0,0 z m 2.91516,0.0278 c -0.74863,-0.28715 -0.54798,0.43147 0,0 z m 12.3317,-0.22481 c -0.77841,-6.11078 -2.24454,-12.15024 -3.02712,-18.23017 -0.009,-3.24394 1.11443,2.96392 1.6312,4.10812 0.72771,4.55129 1.68641,9.05805 2.6533,13.56323 0.008,-1.40568 -0.66555,-6.71528 -0.0747,-5.58777 1.31355,1.55328 0.17773,6.69572 3.08884,4.18024 1.34328,-0.94206 5.90032,-2.03655 3.45097,-4.04289 -2.18331,-1.58785 -0.35355,-4.71145 -0.64099,-7.02483 0.7687,-12.32513 0.23864,-25.09702 -4.35334,-36.68528 -1.95651,-3.50523 -3.45011,-7.37348 -6.91448,-9.69622 -1.87021,-2.03106 -2.23163,3.37241 -3.44473,4.57928 -1.74962,3.4948 -1.91296,7.57315 -2.47099,11.38092 -0.37926,12.9229 3.04405,25.59644 7.51025,37.61943 -0.54148,-3.30332 -1.77752,-6.68497 -1.89508,-9.94048 0.75467,1.07633 1.75549,4.38678 2.09701,6.46233 0.20024,2.38546 1.25444,4.9815 0.93563,7.23896 -2.84833,2.81152 -1.43537,1.69225 1.45426,2.07513 z m 4.62115,-4.5803 c -0.83275,-5.16297 -1.80557,-10.39849 -1.22292,-15.63942 0.94055,5.16222 1.296,10.41064 1.68814,15.63787 l -0.3992,0.002 -0.066,2.8e-4 0,-4.5e-4 z m 0.026,-2.87828 c -0.54904,0.28776 0.30637,1.06882 0,0 z m -0.2758,-1.82269 c -0.346,0.77024 0.20927,1.35004 0,0 z m -0.28712,-2.37299 c -0.35768,0.81066 0.21456,1.02161 0,0 z m -0.26602,-2.22517 c -0.26386,1.19309 0.12928,1.68235 0,0 z m -0.2716,-4.73862 c -0.20661,1.79295 0.10373,3.82861 0,0 z m -3.26802,3.03651 c -0.80624,-5.49766 -1.53771,-11.00543 -2.22842,-16.51871 1.63363,-0.9407 0.94088,4.22439 1.6413,5.73296 0.5278,3.47993 0.94561,6.97535 1.42277,10.46241 -0.29689,0.14932 -0.37785,0.72701 -0.83565,0.32334 z m 0.19201,-2.89723 c -0.26291,0.96953 0.15963,1.17606 0,0 z m -0.28609,-1.81059 c -0.35771,0.81064 0.21457,1.02163 0,0 z m -0.26999,-2.08384 c -0.346,0.77023 0.20927,1.35007 0,0 z m -0.27856,-1.6713 c -0.346,0.77022 0.20927,1.35006 0,0 z m -0.27855,-2.22842 c -0.346,0.77023 0.20927,1.35007 0,0 z m -0.2871,-1.81588 c -0.35771,0.81064 0.21457,1.02163 0,0 z m -0.27,-2.08384 c -0.346,0.77023 0.20927,1.35007 0,0 z m -0.27855,-1.94986 c -0.346,0.77023 0.20927,1.35007 0,0 z m -9.66379,31.7248 c 1.38708,-4.87504 -1.03504,-9.67661 -1.29542,-14.56703 -0.92307,-6.27834 -1.61619,-12.58746 -2.21737,-18.90402 -1.93251,3.77849 -1.36664,8.3119 -2.27365,12.40786 -1.02318,6.93729 -2.02324,13.89625 -3.62384,20.72588 3.11056,0.35438 6.28019,0.18602 9.41028,0.33731 z m 11.6109,-0.37564 c -0.54904,0.28776 0.30637,1.06882 0,0 z m -50.683557,0.16248 c -0.748611,-0.28716 -0.547963,0.43148 0,0 z m 54.707077,-0.31917 c -0.4704,0.0184 -0.61286,0.88523 0,0 z m -51.078946,-1.39276 c 0.282326,-3.45469 -3.64234,-1.51336 -3.764141,0.78312 1.339495,-0.056 4.616883,1.94207 3.764141,-0.78312 z m 60.873426,1.04457 c -1.01892,-1.64718 0.24441,1.7621 0,0 z m 4.79394,-0.47917 c 3.65048,-0.18995 3.65402,-1.29871 0.44445,-2.80361 -1.26389,-0.31161 -6.07065,0.16454 -5.02128,1.97577 0.25131,3.20504 2.34307,0.66084 4.57683,0.82784 z m -39.9086,-1.60996 c 1.40479,-7.48796 2.63527,-15.00962 3.49253,-22.58135 -1.98665,7.87079 -3.8725,15.7885 -6.81043,23.37325 0.73522,2.58465 2.01553,-0.21642 3.3179,-0.7919 z m 14.10683,1.80292 c 2.43485,-0.65817 5.38102,-0.49307 3.17115,-3.57785 -3.75437,-10.26505 -6.74001,-20.78649 -10.32922,-31.10505 1.00913,11.66649 2.14446,23.37885 5.00707,34.7602 0.717,-0.0258 1.434,-0.0515 2.151,-0.0773 z m 27.25837,0.39647 c -0.74861,-0.28717 -0.54796,0.43148 0,0 z m -41.23846,-0.71959 c -0.54904,0.28776 0.30637,1.06882 0,0 z m 22.56543,-0.42993 c -0.346,0.77022 0.20927,1.35006 0,0 z m 29.86614,0.219 c 4.21282,-3.70565 9.5851,-5.74032 14.1422,-8.99898 1.16564,-1.24847 1.86514,-5.89163 3.35247,-4.94177 1.63426,0.27833 4.44195,-1.14803 5.92409,-2.5194 1.82399,-2.00369 4.67731,-2.96844 6.18998,-5.11648 0.63971,-2.99621 -3.39458,-0.18756 -4.38985,0.86615 -3.8511,3.71514 -9.23489,5.49443 -12.3712,10.01029 -1.66588,2.59509 -5.88384,2.50724 -7.25036,5.09513 -0.0984,0.74646 -3.36424,-0.56741 -4.36092,2.06156 -0.89085,2.19239 -6.33755,1.09849 -4.40687,3.32999 0.92339,1.30971 2.0136,1.11407 3.17046,0.21351 z m -84.824833,-0.85619 c 0.624204,-3.65854 -2.852133,-1.94042 -1.736414,0.87435 0.578806,-0.29145 1.157602,-0.58293 1.736414,-0.87435 z m 53.284593,0.23196 c -0.54904,0.28781 0.30642,1.06879 0,0 z m -31.20357,-0.57452 c -0.35771,0.81064 0.21457,1.02163 0,0 z m 1.67131,0 c -0.35771,0.81064 0.21457,1.02163 0,0 z m 8.91945,0.0174 c -0.54903,0.28778 0.30636,1.06881 0,0 z m 32.32481,0.44104 c -0.74861,-0.28717 -0.54796,0.43148 0,0 z m 14.80561,-1.40241 c 2.7081,-0.45069 1.32192,-5.81808 -0.51389,-2.65919 -2.51817,0.42443 -3.3424,3.82911 -0.90572,3.85096 0.54094,-0.28131 0.93613,-0.82045 1.41961,-1.19177 z m -82.557774,0.73554 c -0.207812,-2.40851 -1.384538,-4.08015 -3.81048,-4.64344 -1.823261,-1.66832 -6.185996,-1.07333 -3.245264,1.54827 1.703673,2.12759 4.609312,2.31838 7.055744,3.09517 z m 57.435674,-0.76121 c -0.346,0.77023 0.20927,1.35007 0,0 z m -1.67986,-0.14457 c -0.35771,0.81064 0.21457,1.02163 0,0 z m -38.624594,-0.3157 c -1.916636,-2.14607 -5.700956,0.43026 -1.765871,0.94244 0.905429,-0.19169 2.18068,0.61722 1.765871,-0.94244 z m 4.368554,0.33311 c -0.54906,0.28779 0.30643,1.06881 0,0 z m 32.58473,-0.57452 c -0.35771,0.81064 0.21457,1.02163 0,0 z m 14.73039,-0.41782 c 0.61569,-3.2298 -3.69421,2.56157 -0.23797,0.20831 l 0.23797,-0.20831 z m -57.533256,0.24515 c -2.399627,-1.62219 -5.010346,-0.62902 -0.97493,0.10102 0.408416,0.0131 1.156124,0.93443 0.97493,-0.10102 z m -3.418058,0.074 c -0.748614,-0.28716 -0.547964,0.43148 0,0 z m 37.591634,-0.44104 c -0.54904,0.28776 0.30637,1.06882 0,0 z m 41.41155,-0.19325 c 1.20748,-1.01376 5.19075,-4.20872 3.16086,-4.80619 -1.2581,1.9516 -5.09585,1.6099 -4.62751,4.15558 0.15679,1.51163 0.14383,1.7291 1.46665,0.65061 z m -65.08568,-0.51524 c -0.346,0.77023 0.20927,1.35007 0,0 z m 14.20337,0.42994 c -0.54906,0.28779 0.30643,1.06881 0,0 z m 21.16992,0 c -0.54904,0.28776 0.30637,1.06882 0,0 z m 17.08202,-0.33889 c 3.32605,-1.90524 -5.17831,0.2542 -2.82642,0.46354 0.9501,0.0183 1.88493,-0.33489 2.82642,-0.46354 z m -84.85653,-0.3485 c -1.012327,-2.61524 -3.618967,-0.40119 -5.376327,-2.64331 -1.764898,-2.47198 -4.5473,-4.1401 -6.253111,-6.68715 -0.841802,1.84185 1.455622,4.50368 2.313895,6.23378 2.960448,1.28405 5.864555,4.87454 9.315543,3.09668 z m 17.166398,0.27927 c -1.001396,-1.09311 -5.842599,-2.76034 -5.427468,-1.29053 0.651216,1.28772 4.929362,1.83863 5.427468,1.29053 z m 47.265492,0.12957 c -0.54904,0.28776 0.30637,1.06882 0,0 z m 10.87634,0.44104 c -0.74861,-0.28717 -0.54796,0.43148 0,0 z m 10.17294,-0.0162 c -1.19714,-0.19313 -0.64234,0.34823 0,0 z m -19.37797,-0.7034 c -0.54904,0.28776 0.30637,1.06882 0,0 z m 9.20503,0.16249 c -0.74861,-0.28717 -0.54796,0.43148 0,0 z m -48.467968,-0.27855 c -0.748614,-0.28716 -0.547964,0.43148 0,0 z m 1.984387,-2.61723 c -0.658843,-10.9908 -1.043927,-21.998 -1.125481,-33.00836 -2.007062,11.60942 -4.597156,23.21261 -4.732301,35.0388 1.73125,-0.25817 6.280712,1.72036 5.950105,-0.85666 -0.03077,-0.39126 -0.06156,-0.78253 -0.09232,-1.17378 z m 62.715311,1.53188 c 1.29032,-3.33168 -5.3467,1.2931 -0.48559,0.0482 l 0.39725,-0.0394 0.0883,-0.009 z m -69.637952,-0.90514 c 0.591869,-10.52583 2.599212,-20.8897 4.342894,-31.26741 -4.935642,9.90087 -8.50817,20.47781 -14.08503,30.06077 2.923254,1.2454 6.091157,1.81375 9.115161,2.78033 0.208992,-0.52456 0.417983,-1.04913 0.626975,-1.57369 z m 43.925392,0.5624 c -0.346,0.77023 0.20927,1.35007 0,0 z m -43.447562,-1.39805 c -0.226816,1.072 0.104234,2.92136 0,0 z m 55.233122,1.85613 c 3.63059,1.14791 2.82239,-2.23144 2.56692,-4.68914 -0.63192,-9.21051 -2.52083,-18.27365 -3.98324,-27.37584 -1.46832,6.48875 -0.56405,13.22864 -1.22513,19.82587 -0.0468,4.14394 -0.74607,8.29382 -0.4633,12.42722 1.03487,-0.0627 2.07011,-0.12515 3.10475,-0.18811 z m -44.93421,-1.29903 c -0.26291,0.96953 0.15963,1.17606 0,0 z m 5.28494,0.41783 c -0.35768,0.81066 0.21456,1.02161 0,0 z m 42.91814,-3.05473 c -0.20152,2.83332 0.10605,2.99959 -3.1e-4,0 l 3.1e-4,0 z m 3.62441,3.49201 c 0.87703,-2.17425 3.12082,-0.23534 5.13523,-1.74128 2.7595,-0.79195 -0.93005,-3.80811 -1.20092,-5.6452 -4.20886,-8.52152 -7.85427,-17.29899 -11.56572,-26.04149 1.81175,11.2629 4.15423,22.51187 4.40439,33.95234 1.08152,-0.13935 2.15344,-0.33534 3.22702,-0.52437 z m -28.9938,-0.71584 c -0.35771,0.81064 0.21457,1.02163 0,0 z m -8.35654,-0.27855 c -0.35771,0.81064 0.21457,1.02163 0,0 z m 26.74094,-0.27855 c -0.35771,0.81064 0.21457,1.02163 0,0 z m -63.257804,0.28317 c -1.850656,-2.92937 -4.57511,1.19024 0,0 z m 54.901264,-0.84027 c -0.35771,0.81064 0.21457,1.02163 0,0 z m 31.70967,0.62674 c -1.04064,-0.24349 -0.85075,0.63891 0,0 z m -96.165686,-1.4624 c 2.119784,-3.10321 -2.520102,-1.00292 -2.574546,0.95556 1.557291,0.76715 1.729804,0.41814 2.574546,-0.95556 z m 28.252863,0.42313 c -0.346033,0.77021 0.209313,1.35009 0,0 z m 64.120043,0.7866 c 4.80914,0.60909 -2.03517,-1.79298 0,-4e-5 l 0,4e-5 z M 76.711647,687.1609 c -0.996339,-0.15983 -0.533156,1.00745 0,0 z m 31.173343,-0.10445 c -0.54904,0.28776 0.30637,1.06882 0,0 z m 16.98584,-0.29596 c -0.35771,0.81064 0.21457,1.02161 0,0 z m 41.04115,0.80012 c -0.67696,-0.82026 -0.80274,-0.36647 0,0 z m -63.31672,-1.21265 c -0.346,0.77024 0.20927,1.35004 0,0 z m 14.48193,0.42994 c -0.54904,0.28776 0.30637,1.06882 0,0 z m 16.15599,0 c -0.54904,0.28776 0.30637,1.06882 0,0 z m 49.27014,-0.29597 c 3.90809,-3.82776 -3.38967,2.94834 0,0 z M 68.322477,684.93184 c -2.112125,0.75525 -2.972694,3.65398 0,0 z m -0.321367,1.89832 c -0.60107,-1.01343 -1.155773,1.01514 0,0 z m 99.10358,-1.11366 c -1.7824,-0.25712 0.32124,1.85904 0,0 z m 8.05425,0.89177 c -0.3904,-4.06496 -4.78244,1.14743 -1.36653,0.11918 0.45551,-0.0397 0.91102,-0.0794 1.36653,-0.11918 z m -102.441961,-0.0251 c 0.01532,-0.92567 -1.722548,-0.61073 0,0 z m 4.942242,-5.31777 c 0.536492,-1.24409 2.102014,-6.62817 2.615124,-4.2957 -1.396033,2.88631 0.352958,4.91771 1.631615,1.15468 5.188501,-8.36664 9.536984,-17.3675 12.410133,-26.79046 1.081043,-3.78516 1.907002,-7.59579 1.338032,-11.54567 0.411334,-2.25417 -0.588079,-5.67386 -3.014525,-3.05552 -3.890758,2.81573 -7.590605,5.83017 -10.40475,9.76648 -7.162471,8.9521 -11.606749,19.71295 -15.408169,30.44237 -2.861005,0.18234 -2.870894,4.74456 -0.408981,3.70227 0.341187,-1.84304 2.521613,-5.19172 3.269129,-5.35868 0.698916,1.00919 -0.58381,3.4677 -1.81271,5.4836 -2.689123,3.62767 4.269557,-0.41787 3.353244,1.12128 -0.739944,3.64271 4.096707,1.70655 3.557675,2.07567 -0.773016,4.4295 1.331772,-0.24085 2.346644,-1.8067 0.175848,-0.29787 0.351686,-0.59575 0.527539,-0.89362 z m 3.851638,-12.65302 c 2.546953,-6.98969 5.140273,-14.01601 8.824624,-20.50088 -2.096402,7.22619 -5.45349,14.01198 -8.476435,20.8861 l -0.267683,-0.29615 -0.08051,-0.0891 z m -1.114206,-9.52009 c 4.551832,-5.64214 7.760761,-12.16257 11.22044,-18.49243 -1.919588,6.66098 -5.442473,12.76126 -10.077481,17.89996 -0.40084,0.35303 -0.481155,1.08135 -1.142959,0.59247 z m 2.993415,23.21141 c 2.95431,-6.02482 5.791611,-12.10807 8.344958,-18.31476 -4.152152,7.35585 -8.460682,14.64918 -13.559245,21.39635 2.375854,2.50679 3.623691,0.37887 4.620982,-2.03709 0.197769,-0.34817 0.395537,-0.69633 0.593305,-1.0445 z m 51.508622,3.34262 c -0.35771,0.81064 0.21457,1.02163 0,0 z m -26.73515,0.0174 c -0.54904,0.28776 0.30637,1.06882 0,0 z m 54.8162,-0.003 c 2.72189,-1.08647 -1.40297,-3.62477 -1.90892,-5.41503 -3.79902,-5.33472 -6.91595,-11.09651 -10.19882,-16.74947 3.32015,7.71199 6.63022,15.44463 10.74054,22.77712 0.45573,-0.20421 0.91148,-0.4084 1.3672,-0.61262 z M 64.666633,685.0895 c 1.789005,-2.58642 -0.755429,-3.27878 -2.319218,-5.17886 -1.664057,-2.70266 -3.901972,-3.20481 -2.317684,0.51624 0.07005,2.77495 3.02419,3.769 4.674897,5.56791 -0.01266,-0.30176 -0.02535,-0.60354 -0.03799,-0.90529 z m 59.925647,0 c -0.35771,0.81064 0.21457,1.02163 0,0 z m 52.56305,-0.47396 c -2.80012,-3.90327 -0.80713,2.3054 -0.019,0.23 l 0.019,-0.23 z m -84.85963,-0.7757 c -0.26505,1.4633 0.145147,1.75908 0,0 z m 25.05424,0.97111 c -0.35772,0.81062 0.21458,1.02163 0,0 z m 51.33291,0.097 c -0.50025,-1.995 -1.7502,-6.31368 0.42606,-2.52428 -0.11176,1.31809 4.66544,0.40949 3.22822,-1.05896 -1.67527,-3.09644 -0.78013,-3.97356 0.8034,-0.53667 1.91907,2.65455 3.53241,-1.08192 1.25836,-2.82512 -0.66236,-1.59412 -3.38629,-4.61552 -1.40157,-5.12448 2.60171,2.65861 2.42786,3.05422 1.16396,-0.67074 -4.01355,-11.45573 -9.78722,-22.44451 -18.19507,-31.29442 -2.48546,-2.23575 -5.57292,-3.78875 -8.29738,-5.75345 -1.74008,4.60026 -1.41761,9.61817 0.18659,14.21161 2.2629,8.81882 6.35322,17.08784 10.80511,24.98982 1.98377,3.7379 4.68085,6.98526 7.2832,10.29777 -0.42641,-2.99898 -2.44183,-5.89075 -3.26282,-8.93216 -1.49822,-4.32964 1.16972,0.31549 1.78164,2.08402 1.23392,2.59727 2.46509,5.19586 3.69795,7.79364 0.17412,-0.21886 0.34823,-0.43772 0.52235,-0.65658 z m -8.61368,-19.0228 c -2.61859,-6.78643 -5.6117,-13.41842 -8.27061,-20.18735 4.18796,6.11204 6.4117,13.2448 9.09949,20.08555 -0.27629,0.0339 -0.55259,0.0679 -0.82888,0.1018 z m -0.40105,-10.91011 c -3.94266,-4.99735 -6.55049,-10.9106 -9.35503,-16.59383 1.5126,0.30415 2.48831,3.72528 3.65495,5.31786 2.21407,4.53517 5.07384,8.70012 8.04422,12.76698 -0.78138,-0.497 -1.56276,-0.99401 -2.34414,-1.49101 z m 1.78703,1.12401 c -0.76987,-0.91897 -2.85487,-2.47772 0,0 z m -17.63528,27.73696 c -0.26291,0.96954 0.15962,1.17606 0,0 z m -77.387546,-0.31285 c -1.304979,1.09424 -1.027911,1.97231 -0.114706,0.20347 l 0.114706,-0.20347 z m 68.193616,0.74809 c -0.54904,0.28776 0.30637,1.06882 0,0 z m 45.7173,-1.27089 c 0.55135,-1.23347 3.23048,-6.77471 0.54085,-4.11647 -0.92364,1.71548 -4.61738,2.96868 -3.1453,4.89173 0.77237,1.87495 1.6485,-0.36693 2.60445,-0.77526 z m -77.47045,0 c -0.26291,0.96953 0.15963,1.17606 0,0 z m 14.7557,0.13928 c -0.35771,0.81064 0.21457,1.02161 0,0 z m 6.68524,0 c -0.35771,0.81064 0.21457,1.02161 0,0 z m 25.91739,-1.11421 c -0.25282,1.31474 0.13524,1.73229 0,0 z m 34.53409,1.13162 c -0.54904,0.28776 0.30637,1.06882 0,0 z m -86.070694,-1.2709 c -0.262912,0.96953 0.159625,1.17606 0,0 z m -42.584231,-0.33691 c 1.422471,-2.11306 -3.21289,-2.84312 -4.208679,-4.57442 -2.175938,-1.29266 -4.092299,-4.31081 -6.822655,-3.87534 -0.835419,2.81601 2.240264,3.60632 3.826359,5.26577 1.833136,1.72642 4.154782,2.73502 6.299686,4.00332 0.30176,-0.27311 0.60354,-0.54623 0.905289,-0.81933 z m 36.456098,-0.49874 c -0.262913,0.96953 0.159626,1.17606 0,0 z m 25.340657,0.41783 c -0.35771,0.81064 0.21457,1.02163 0,0 z m 6.13669,-0.13398 c -0.346,0.77023 0.20927,1.35007 0,0 z m 10.0251,0.15139 c -0.54904,0.28776 0.30637,1.06882 0,0 z m -66.764099,-0.3315 c -0.676961,-0.82025 -0.80273,-0.36645 0,0 z m 35.566329,-0.78271 c -0.54904,0.28776 0.30637,1.06882 0,0 z m 30.91922,-0.27855 c -0.54904,0.28776 0.30637,1.06882 0,0 z m 16.15874,-0.42994 c -0.346,0.77023 0.20927,1.35007 0,0 z m 33.17399,-0.98023 c -0.58866,1.33901 0.37363,1.95027 0,0 z m -64.93742,0.83566 c -0.35771,0.81064 0.21457,1.02161 0,0 z m 25.9207,-0.9711 c -0.26522,1.46389 0.14547,1.75835 0,0 z m 34.63037,0.46249 c 1.54111,-3.14718 -4.32521,-1.75634 -2.10542,0.67084 1.00647,0.46955 1.45307,0.15083 2.10542,-0.67084 z m -85.891726,-0.18777 c -0.262913,0.96953 0.159626,1.17606 0,0 z m 30.911686,0.13927 c -0.35768,0.81066 0.21456,1.02161 0,0 z m -65.834589,-0.13927 c 1.024449,-2.48227 -0.840863,-4.46701 -2.985097,-5.41516 -1.779589,-0.31809 -4.05675,-4.47157 -5.216634,-2.28195 -1.996311,2.29431 2.323097,3.3699 3.50607,5.04632 1.431233,1.24398 2.697478,2.49614 4.695661,2.65079 z m 5.309683,-1.52189 c 1.170514,-2.73227 -4.630285,-3.00854 -1.444894,0.22651 0.868805,1.55098 1.030396,1.38295 1.444894,-0.22651 z m 55.240986,0.41298 c -0.346,0.77023 0.20927,1.35007 0,0 z m 62.23804,0.5518 c -0.54893,-0.0116 -0.74954,0.70824 0,0 z m -31.04027,-0.83035 c -0.346,0.77024 0.20927,1.35004 0,0 z m 26.02634,0.5518 c -0.54893,-0.0116 -0.74954,0.70824 0,0 z m 10.48558,-0.29044 c 1.71304,-1.2243 4.79745,-2.30357 4.3983,-4.84634 -2.35153,0.5644 -4.37982,2.39401 -6.79168,3.11731 -1.55946,1.25026 1.06417,3.38908 2.39338,1.72903 z m -87.765406,-0.81846 c -0.346038,0.77022 0.209319,1.35006 0,0 z m 25.069646,0 c -0.346,0.77024 0.20927,1.35004 0,0 z m 57.59636,-0.27888 c 2.37235,-5.67924 -3.9017,1.60991 0,0 z m -62.33276,-1.11918 c -0.26291,0.96953 0.15963,1.17606 0,0 z m 30.64169,0.005 c -0.346,0.77023 0.20927,1.35007 0,0 z m 28.77633,0.48217 c 0.27811,-0.78629 -1.52927,0.81491 0,0 z M 67.490717,671.83521 c 2.884826,-7.86789 6.199672,-15.56696 9.40803,-23.30588 -4.98137,6.11169 -9.228761,12.83749 -13.045529,19.719 -0.307902,2.00469 -4.09789,5.1548 -1.165278,6.09353 2.328623,1.7094 4.303037,1.22219 4.551238,-1.81641 l 0.136685,-0.37507 0.114854,-0.31517 z m 25.91234,3.09218 c -0.346041,0.77022 0.209318,1.35007 0,0 z m 29.805013,-0.55711 c -0.34597,0.77025 0.20925,1.35005 0,0 z m 55.71558,-0.35349 c 3.63073,-0.38289 1.33138,-3.65299 0.30362,-5.54308 -4.24103,-7.75499 -9.43459,-14.94165 -14.2981,-22.31207 3.93205,9.71987 8.08092,19.35615 11.6276,29.22734 0.73061,-0.56379 1.53825,-0.97464 2.36688,-1.37219 z m -80.344822,-2.84301 c 0.06545,-1.39075 -0.502523,-6.37647 -0.497064,-5.21408 0.193321,1.71969 -0.378058,3.65127 0.497064,5.21408 z m -55.039247,2.79078 c -0.549012,0.28776 0.306334,1.06884 0,0 z m 14.388971,-0.81104 c -1.956352,-1.66155 -3.86466,-3.3866 -6.070341,-4.71862 -0.259492,1.81342 3.73368,2.8934 5.176019,4.41331 1.147316,0.77741 3.213805,2.27834 1.078512,0.47189 l -0.18419,-0.16658 z m 61.100228,0.0973 c -0.26291,0.96953 0.15963,1.17606 0,0 z m 30.08459,0.28385 c -0.346,0.77024 0.20927,1.35004 0,0 z m -21.6415,-0.0285 c -1.51803,-2.71941 0.11404,2.2556 0,0 z m -33.790262,-0.52859 c -0.346038,0.7702 0.209319,1.35007 0,0 z m 24.001362,0.3395 c -0.8594,0.97282 -0.2234,0.2431 0,0 z m 67.84012,-0.56819 c 1.8974,-1.46785 3.79481,-2.9357 5.69221,-4.40355 -2.00608,-0.47591 -3.96577,2.37766 -5.73985,3.49284 -1.49119,1.40398 -3.93981,2.49804 0.0476,0.91071 z m 6.62844,0.098 c -0.80183,0.41278 0.43473,1.06581 0,0 z m -69.21803,-0.84634 c -0.26386,1.19309 0.12928,1.68235 0,0 z m -62.189747,-0.14358 c 4.051375,-8.45743 9.806278,-15.90878 14.450437,-24.02532 -7.07926,6.75292 -14.20204,13.47382 -21.839312,19.59911 1.9784,2.19718 4.469741,3.83221 6.707513,5.74513 0.227121,-0.43964 0.454241,-0.87928 0.681362,-1.31892 z m 88.091067,0.006 c -0.346,0.77022 0.20927,1.35006 0,0 z M 44.533163,671.664 c 1.7344,-1.76537 -2.746453,-2.62503 -3.401371,-4.57494 -2.625153,-1.69417 -1.57577,3.91105 0.48633,4.27587 1.195646,0.65854 1.840932,1.91895 2.915041,0.29907 z m 139.675487,-0.21965 c 1.45352,-1.52522 4.50461,-3.14304 4.82448,-4.77468 -7.66326,-5.83062 -14.39469,-12.7538 -21.63012,-19.06268 -0.86978,-0.37498 2.40922,3.72341 3.21015,5.14987 4.43916,6.30748 7.9874,13.1727 12.11151,19.66786 0.49466,-0.32679 0.98932,-0.65358 1.48398,-0.98037 z M 49.326551,668.70552 c -1.277597,-1.58586 -4.353551,-3.88953 -5.141309,-0.55735 1.543404,0.51163 2.584604,5.1657 4.211222,2.54197 0.310029,-0.66154 0.620058,-1.32308 0.930087,-1.98462 z m 69.973269,2.73469 c -0.35771,0.81064 0.21457,1.02163 0,0 z m 80.18909,0.36672 c -0.54281,-0.83141 -0.6835,0.49363 0,0 z M 93.951626,671.16166 c -0.357709,0.81064 0.214571,1.02163 0,0 z m 100.715104,0.27855 c 2.6392,-2.74709 -3.55615,-4.02749 -1.36298,-0.59056 0.14844,1.20989 0.39052,0.91613 1.36298,0.59056 z m -72.01176,-1.94661 c -0.26388,1.19307 0.12929,1.68235 0,0 z m 25.90131,0.41988 c -0.346,0.77024 0.20927,1.35004 0,0 z m 52.24192,-0.0319 c 0.47098,-1.63049 4.86258,-4.53834 1.99821,-5.22166 -2.18239,0.59732 -3.36732,3.44862 -5.1501,4.94895 -0.69875,2.08908 2.20786,0.11713 3.15189,0.27271 z m -106.562221,-0.0953 c -0.54902,0.28776 0.306346,1.06882 0,0 z m 24.791091,0 c -0.54904,0.28776 0.30637,1.06882 0,0 z m 0.55986,-0.42993 c -0.34598,0.77026 0.20923,1.35001 0,0 z m -64.538447,0.66999 c -0.769866,-0.91898 -2.854879,-2.4777 0,0 z m 93.220697,-1.65023 c -0.35771,0.81064 0.21457,1.02163 0,0 z m 49.15722,0.40731 c -1.23168,0.0516 -0.40436,0.64848 0,0 z m -52.96287,-0.49338 c -0.83488,-1.30659 -0.4251,1.68613 0,0 z m -92.722135,-0.33175 c -0.548927,-0.0116 -0.749548,0.70823 0,0 z m 37.011824,-0.22536 c 1.943019,-3.40019 -1.175583,0.86713 2e-6,0 l -2e-6,0 z m 5.761312,0.10349 c -0.549022,0.28775 0.306347,1.06882 0,0 z m 27.861889,-0.84982 c -0.26388,1.19305 0.12926,1.68239 0,0 z m -79.305653,1.07543 c -0.676964,-0.82025 -0.802725,-0.36645 0,0 z m 7.195114,-0.9423 c -0.04105,-2.59901 0.230869,-5.00307 3.100681,-5.78885 8.25608,-4.69611 15.132519,-11.44628 21.651141,-18.27644 2.615154,-2.53674 4.514523,-5.67287 6.744819,-8.53189 -2.413264,-1.25288 -4.678878,-0.55528 -6.899783,0.73294 -11.322243,4.96105 -21.555834,12.16193 -31.027165,20.03511 -2.580982,0.17525 -1.871739,5.33778 0.05833,4.22291 1.40275,-1.35097 6.017013,-4.08763 2.594153,-0.93722 -2.596209,2.31825 -2.090777,4.12711 0.703745,1.30085 1.016416,-0.50702 6.136893,-2.34958 2.932774,-0.10011 -0.744459,1.67382 -5.433835,3.52027 -2.722656,4.72332 0.144811,0.84338 4.069165,5.36684 2.863957,2.61938 z m 5.246856,-14.73712 c 5.332393,-5.10013 11.802036,-8.81919 17.362191,-13.67248 3.862808,-2.37533 0.283054,0.76757 -1.290721,2.1645 -4.703436,4.12793 -9.802079,7.94333 -15.180673,11.11523 -0.296932,0.13091 -0.593865,0.26183 -0.890797,0.39275 z m 17.398576,-12.83658 c -0.470405,0.0184 -0.61287,0.88522 0,0 z m -6.442217,6.92166 c 3.59951,-3.13765 7.055032,-6.45788 10.914947,-9.27969 -2.109308,3.31911 -5.191675,5.58859 -8.491684,7.6233 -0.807754,0.55213 -1.615509,1.10426 -2.423263,1.65639 z m 6.545961,-4.76288 c 1.190295,-1.77766 -1.697799,1.64745 0,0 z m 46.850423,25.42312 c -0.346,0.77023 0.20927,1.35007 0,0 z m 78.93862,-0.41634 c 1.36889,-1.71269 3.63294,-3.6194 0.52372,-4.74654 -1.08394,1.73569 -3.82694,2.55559 -4.16975,4.81283 1.54554,1.41862 2.02216,1.09319 3.64603,-0.0663 z m -73.10622,-0.007 c -0.93119,-8.1385 -1.14067,-16.48173 1.07311,-24.4429 -2.29256,3.2964 -3.20776,7.38266 -4.62051,11.09392 -0.42806,3.67776 1.60092,7.18648 2.58639,10.68508 0.32034,0.88796 0.64067,1.77593 0.96101,2.6639 z m 28.12265,0.11898 c -1.06211,-1.98179 -1.12124,-0.63859 0,0 z m -10.00818,-0.39754 c -0.35768,0.81066 0.21456,1.02161 0,0 z m 4.17828,0 c -0.35771,0.81064 0.21457,1.02163 0,0 z m 44.25842,0.65033 c 4.73336,-2.41208 -3.68504,-1.23433 0,0 z M 39.393547,666.00493 c -1.153609,-1.22186 -0.821571,-2.8431 -1.577348,-5.2859 -0.446019,-1.9545 -1.919651,-6.66683 -1.59119,-2.11908 0.418579,2.26229 -1.233531,5.69774 1.706723,6.53137 0.487273,0.2912 0.974538,0.58243 1.461815,0.87361 z m 4.652151,-0.30087 c 3.559922,-2.1892 -4.434527,-0.78804 -1.510161,0.87412 0.466865,1.08098 1.017394,-0.65303 1.510161,-0.87412 z m 50.741582,0.44367 c -0.357707,0.81065 0.214569,1.02162 0,0 z m -34.877621,-5.50655 c 3.417689,-3.0021 6.773082,-6.07559 10.041331,-9.23995 -6.104364,4.65596 -12.416762,9.04862 -19.08078,12.86035 1.096147,3.38219 3.036688,1.82449 4.861897,-0.063 1.392517,-1.1858 2.785035,-2.3716 4.177552,-3.5574 z m 39.061696,4.96686 c -0.549019,0.28775 0.306348,1.06882 0,0 z m 21.230425,-0.99234 c -0.48084,-1.64293 0.0691,3.19616 -4e-5,0 l 4e-5,0 z m 70.60752,0.36677 c 1.79522,-2.1412 -2.88315,-2.84955 -4.07026,-4.28324 -4.65882,-2.81732 -9.01035,-6.0949 -13.44465,-9.24509 5.31765,5.0539 10.69217,10.06425 16.55797,14.48468 0.31898,-0.31878 0.63796,-0.63757 0.95694,-0.95635 z m -71.29975,-3.63975 c 1.02421,-3.78433 0.73243,-7.83648 -0.0599,-11.60146 -0.76597,-1.69153 -2.53149,-6.83798 -1.52811,-2.30935 1.19103,5.56976 0.89387,11.31422 0.8092,16.97488 0.25962,-1.02136 0.51923,-2.04271 0.77885,-3.06407 z m 2.58434,3.27828 c -0.346,0.77024 0.20927,1.35004 0,0 z m 25.62399,0.42994 c -0.54904,0.28776 0.30637,1.06882 0,0 z m -52.646246,-0.27856 c -0.549017,0.28778 0.306345,1.06883 0,0 z m 49.019276,-0.57451 c -0.35771,0.81064 0.21457,1.02163 0,0 z M 43.535458,663.0295 c -2.287813,-1.59832 -3.490646,3.22753 -0.259008,0.19542 l 0.259008,-0.19542 z m 0.370964,1.36497 c -0.663882,-0.96662 -1.124389,0.21118 0,0 z m 151.810588,-0.82661 c 3.54571,-1.47949 0.12466,-2.90617 -1.3044,-4.60366 -1.13306,-1.31573 -5.14938,-4.9545 -1.40146,-2.33764 -1.36445,-1.53521 0.40075,-1.43487 2.57135,0.74276 1.53016,1.82734 5.24591,3.8085 2.12006,0.45811 -1.30503,-1.29966 -4.6388,-5.33727 -1.06122,-2.65631 1.47793,1.33052 3.96733,5.00695 4.42332,1.07686 0.9968,-2.50175 -3.43771,-0.19105 -4.24901,-3.01231 -7.74115,-6.62829 -16.75817,-11.53375 -25.88972,-15.95891 5.20965,4.25247 11.0427,7.70695 15.794,12.50607 -7.39422,-4.39845 -13.86502,-10.08699 -20.80793,-15.1125 2.67759,3.13412 6.29792,5.33943 8.95912,8.40757 1.8293,2.50227 -2.91432,-1.85542 -4.03863,-2.43575 -1.86197,-2.02904 -4.93025,-3.34069 -5.54723,-6.1897 -1.7634,-0.88497 -6.59358,-2.76546 -3.70508,0.54055 4.84645,7.74556 12.03728,13.70605 18.78886,19.76362 4.1277,3.96795 9.62396,6.14263 14.16413,9.43649 0.39461,-0.20842 0.78923,-0.41683 1.18384,-0.62525 z m -52.17741,0.0903 c -0.54904,0.28781 0.30642,1.06879 0,0 z m 3.89392,-0.29596 c -0.35768,0.81066 0.21456,1.02161 0,0 z m 58.29101,-1.81985 c 1.35283,-3.5634 -2.05924,-0.42617 -2.39533,1.38305 0.006,1.72453 2.44725,0.388 2.39533,-1.38305 z m -110.380147,1.26274 c -0.357707,0.81065 0.214569,1.02162 0,0 z m -37.196301,0.13928 c -0.54893,-0.0116 -0.74955,0.70824 0,0 z m 41.077076,-3.41226 c 1.211112,-5.11289 2.338492,-10.25555 4.979942,-14.85999 0.37615,-1.47974 3.77682,-6.30253 0.78226,-3.22994 -2.27852,2.53445 -4.56935,5.33961 -6.05791,8.4102 -1.125809,4.24478 -0.258243,8.68878 -0.245462,13.02235 0.18039,-1.11421 0.36078,-2.22841 0.54117,-3.34262 z m 86.464002,3.79456 c -0.67696,-0.82026 -0.80274,-0.36647 0,0 z m -41.51504,-6.70136 c -0.1957,-3.57564 0.34873,-7.43541 -2.2619,-10.31397 -1.42785,-2.65923 -3.65067,-4.92237 -6.04618,-6.68067 3.65837,5.59031 6.05267,11.88855 7.18523,18.46954 0.43951,1.44403 1.16953,7.30623 1.04806,3.05735 0.0249,-1.51075 0.0499,-3.0215 0.0748,-4.53225 z m 0.49337,3.11572 c -0.20661,1.79295 0.10373,3.82861 0,0 z m -102.529979,1.22902 c -1.918919,-3.14059 -2.916452,-6.77481 -3.941396,-10.27989 -2.736984,0.49935 -2.561789,3.74937 -0.407904,5.00491 0.738548,2.41016 1.045542,4.97464 2.211599,7.23193 0.793297,-0.56984 1.491915,-1.2254 2.137701,-1.95695 z m -0.145419,1.13867 c -0.548929,-0.0116 -0.749549,0.70823 0,0 z m 79.822228,-0.83566 c -0.26291,0.96953 0.15963,1.17606 0,0 z m 3.89799,0.71379 c -0.54904,0.28776 0.30637,1.06882 0,0 z m 21.44846,0 c -0.54904,0.28781 0.30642,1.06879 0,0 z m -100.329557,-0.2263 c 1.190291,-1.77766 -1.697796,1.64745 0,0 z m 155.268897,0.16769 c -0.90814,-2.8354 -3.63919,-0.42392 0,0 z M 46.170365,661.55163 c -0.548928,-0.0116 -0.74955,0.70824 0,0 z m 137.847485,0.39136 c -0.76629,-0.91088 -1.81051,-1.49012 -0.40105,-0.2944 l 0.3218,0.23623 0.0793,0.0582 z M 48.95588,660.71598 c -0.470404,0.0184 -0.612872,0.88521 0,0 z m 97.92634,-0.12187 c -0.54904,0.28776 0.30637,1.06882 0,0 z M 95.901486,660.0196 c -0.357707,0.81065 0.214569,1.02162 0,0 z m -51.680982,0.13927 c -0.548927,-0.0116 -0.74955,0.70824 0,0 z m 159.778866,-3.83008 c 1.42046,-4.01801 -1.36976,-2.00956 -1.78705,0.74862 -2.35749,2.33443 1.55686,4.98228 1.38441,1.05288 0.13422,-0.6005 0.26841,-1.20102 0.40264,-1.8015 z m -85.51433,-0.20891 c -0.19645,1.62307 0.044,5.98982 0,0 z m -69.564691,2.99443 c 1.793097,-1.97176 -0.587925,0.18146 -1.084215,0.97493 0.361405,-0.32498 0.72281,-0.64995 1.084215,-0.97493 z m 72.697691,-0.48747 c -0.45156,-3.8433 -0.0426,4.40996 0,0 z m 0.4731,0.85307 c -0.54904,0.28776 0.30637,1.06882 0,0 z m 59.6983,0.51861 c -0.76988,-0.91898 -2.85488,-2.47772 0,0 z M 34.347401,659.20135 c -0.549009,0.28775 0.306332,1.06882 0,0 z m 162.205269,0.51323 c -0.7663,-0.91088 -1.81052,-1.49014 -0.40105,-0.29441 l 0.3218,0.23623 0.0793,0.0582 z m -49.9548,-1.08774 c -0.35771,0.81064 0.21457,1.02163 0,0 z m -50.41203,0.0174 c -0.549022,0.28775 0.306347,1.06882 0,0 z m 29.26332,-3.62924 c -0.20154,2.83332 0.10604,2.99959 -3.2e-4,0 l 3.2e-4,0 z m -51.057877,2.04005 c -1.172726,1.16462 -0.711543,1.73473 0,0 z m 20.481538,0.66649 c -0.955728,1.3924 -0.222027,0.24341 0,0 z m 99.451429,0.87883 c -0.76629,-0.91089 -1.81051,-1.49014 -0.40104,-0.29441 l 0.32179,0.23624 0.0793,0.0582 z m 5.29248,-0.009 c -0.67696,-0.82025 -0.80272,-0.36644 0,0 z m 6.23848,-0.41996 c 1.78269,-0.9483 3.96554,-3.37801 2.66023,-5.45741 -1.51584,1.57626 -4.10373,2.99986 -2.66023,5.45741 z m -61.2014,-0.64132 c -0.54903,0.28779 0.30637,1.06883 0,0 z m 50.78465,0.52217 c -1.74794,-1.8762 -2.11803,-1.73786 -0.0684,-0.0564 l 0.0684,0.0564 z M 34.403543,656.47805 c -0.475554,-4.44649 -2.986383,0.74282 -0.668566,1.04637 0.222855,-0.34879 0.445711,-0.69758 0.668566,-1.04637 z m 134.438627,0.56407 c -0.524,-1.25729 -0.70627,1.12052 0,0 z m -73.519219,-2.79286 c 1.324316,-3.12164 2.462272,-6.27899 2.083633,-9.72687 -0.01442,-3.94206 -0.277001,-2.21823 -0.693869,0.73034 -0.522039,4.09623 -1.837017,7.99665 -3.092658,11.91172 0.567632,-0.97173 1.13526,-1.94347 1.702894,-2.91519 z m 1.141441,2.72368 c -0.549022,0.28775 0.306347,1.06882 0,0 z m 82.539528,0.50416 c -0.67697,-0.82025 -0.80274,-0.36645 0,0 z M 65.633442,656.32879 c 1.793092,-1.97176 -0.587927,0.18146 -1.084215,0.97493 0.361405,-0.32498 0.72281,-0.64995 1.084215,-0.97493 z m 79.031588,-1.88022 c -0.24921,1.72701 0.16065,2.54642 0,0 z m 53.00184,2.48944 c -1.74794,-1.87621 -2.11803,-1.73787 -0.0684,-0.0564 l 0.0684,0.0564 z m -49.87762,-3.44505 c -1.08845,-3.59371 -2.0374,-7.21844 -2.49483,-10.95247 -1.03673,4.06033 0.41895,8.12516 2.35946,11.68594 1.8153,4.11365 0.83482,1.65825 0.13537,-0.73347 z m 44.58514,3.14849 c -0.67695,-0.82026 -0.80273,-0.36646 0,0 z m -46.32782,-0.78271 c -0.54904,0.28776 0.30637,1.06882 0,0 z m -49.303627,-0.27856 c -0.549017,0.28778 0.306345,1.06883 0,0 z m 96.745657,0.50417 c -0.67696,-0.82026 -0.80274,-0.36647 0,0 z M 64.349681,654.63594 c -1.457411,0.75925 -0.0519,0.27797 0,0 z m 115.211339,0.30009 c -1.36426,-1.36727 -0.52414,0.28041 0,0 z M 41.671816,653.65932 c -2.003845,-3.30183 -2.244049,-1.54914 -1.192171,1.22906 0.118415,0.93173 0.990374,-1.11127 1.192171,-1.22906 z m 104.090394,0.5107 c -0.35768,0.81066 0.21456,1.02161 0,0 z m 30.45619,0.82066 c -1.30767,-1.43717 -3.76574,-3.40478 0,0 z M 42.270643,654.30929 c -0.548926,-0.0116 -0.749549,0.70824 0,0 z m 54.753604,-0.5518 c -0.346041,0.77022 0.209318,1.35007 0,0 z m -51.56167,-1.31491 c 5.530273,-4.70282 11.717914,-8.59087 17.180669,-13.34763 1.485166,-1.49167 -3.699217,1.26417 -4.958152,1.64323 -5.990417,2.6658 -12.122801,5.18309 -17.395491,9.15217 1.366772,2.01029 2.540594,4.75937 5.167267,2.55444 l 0.0057,-0.002 z m 52.401299,0.0594 c -0.26368,1.19193 0.128825,1.68359 0,0 z m 23.563574,1.08569 c 0.0865,-1.47638 -0.7989,-0.40688 0,0 z m 24.05621,-0.81039 c -0.35771,0.81064 0.21457,1.02163 0,0 z m 56.02729,-2.40267 c 2.21949,-2.0891 -2.8472,-2.82264 -4.1469,-4.0726 -6.31756,-3.60234 -13.18359,-6.07776 -19.96034,-8.66082 7.31697,5.25466 14.87016,10.20506 21.7952,15.98578 0.69825,-1.13496 1.53046,-2.17537 2.31204,-3.25236 z m 3.67681,2.92424 c -0.67695,-0.82026 -0.80273,-0.36646 0,0 z m 1.50597,-1.47681 c 0.61534,-3.93765 -3.72328,-1.65497 -1.39485,0.80628 1.00013,1.2235 0.89385,-0.0226 1.39485,-0.80628 z M 66.226077,652.638 c -0.54893,-0.0116 -0.74955,0.70824 0,0 z m 136.458733,-0.9272 c 0.77876,-3.78438 -2.02046,3.40551 0,0 z m -27.26653,-0.187 c -0.4704,0.0183 -0.61286,0.88521 0,0 z m -96.747415,-2.33063 c 2.932253,-4.30265 6.559917,-8.03289 10.267231,-11.66659 -2.518505,1.22748 -5.312098,2.11712 -6.636253,4.81144 -1.466037,2.20338 -3.950988,3.94356 -3.630978,6.85515 z M 122.8209,646.7646 c 2.30365,-3.32788 4.33517,-6.85207 6.87845,-10.00708 -4.78302,-0.12056 -9.56574,-0.26627 -14.35086,-0.20846 -2.18316,2.39798 0.42883,4.25257 1.80124,6.24764 1.92959,2.64307 3.10212,5.86252 4.0225,8.98494 0.42722,-1.71186 1.07923,-3.35029 1.64867,-5.01726 m 22.30602,4.53582 c 0.009,-0.89918 -0.83493,0.86859 0,0 z m 20.24931,-1.0301 c -1.41748,-3.41973 -2.99293,-7.07557 -5.58607,-9.68173 -1.11144,-0.42356 -6.07752,-4.34286 -4.36299,-2.20357 2.93225,3.54282 6.16767,6.82836 8.76848,10.64267 0.39353,0.41421 0.78705,0.82842 1.18058,1.24263 z m -96.364638,-0.13928 c -0.470406,0.0183 -0.61287,0.88521 0,0 z m 104.699848,0.10374 c -0.67696,-0.82025 -0.80272,-0.36644 0,0 z m -2.97372,-0.52157 c -0.37099,-1.26877 -2.46977,-1.59825 0,0 z M 38.134661,648.65736 c -0.706258,-1.47415 0.328105,1.78227 0,0 z m 3.28672,-1.01093 c 3.845842,-2.25063 7.909229,-4.09589 11.857537,-6.13292 -5.095844,1.34928 -10.107154,2.98471 -15.158239,4.4872 0.81778,1.51771 1.482094,3.91604 3.300702,1.64572 z m 36.838033,-4.52749 c 1.251484,-2.22766 3.221391,-4.11444 3.808568,-6.65731 -3.342404,4.47333 -7.063848,8.62922 -11.002786,12.58228 2.43787,-1.92709 4.816742,-3.92429 7.194218,-5.92497 z m 124.421386,5.72285 c -0.67695,-0.82026 -0.80273,-0.36646 0,0 z M 73.340035,648.26283 c -0.264726,-0.93149 -0.579725,0.74872 0,0 z m 96.996915,-1.06938 c -3.46936,-3.34445 -6.53393,-7.05454 -9.64042,-10.7291 0.9701,5.17802 5.97372,7.77984 9.55518,11.05337 l 0.0852,-0.32427 4e-5,0 z m 34.40974,1.01726 c -0.85343,-0.56884 -0.40595,1.33232 0,0 z m 1.22719,-0.0198 c -0.7972,-1.14538 -0.48718,1.14306 0,0 z M 74.922653,647.00124 c -1.112392,0.57066 -0.462815,1.56613 0,0 z m 128.747117,-0.0319 c 1.884,-2.63581 -3.15131,-2.04943 -4.64497,-3.08828 -3.3887,-0.99298 -6.76903,-2.01555 -10.18466,-2.91337 4.75785,2.31011 9.66557,4.41525 14.04488,7.40303 0.26158,-0.46713 0.52317,-0.93425 0.78475,-1.40138 z m -31.62964,1.05119 c -0.76986,-0.91897 -2.85487,-2.4777 0,0 z m -3.30867,-0.4395 c -1.38032,-2.26345 -1.17735,0.1013 0,0 z m 36.36803,-0.91477 c -0.54906,0.28781 0.30643,1.06882 0,0 z M 102.93683,641.7499 c 2.29527,-1.85849 5.12118,-3.17289 7.08083,-5.3755 -4.55568,-0.46656 -9.12841,-0.74439 -13.685048,-1.20404 1.32428,3.84448 1.880921,7.94987 2.448465,11.96001 1.181994,-1.94718 2.733173,-3.61269 4.155753,-5.38047 z m 41.47801,-1.71664 c 0.39009,-2.04391 2.82263,-5.79204 -1.01445,-4.41695 -3.5899,0.28975 -7.17345,0.65997 -10.76934,0.87141 4.64326,2.2182 8.50557,5.84069 11.1361,10.25359 0.0866,-2.24907 0.37281,-4.47631 0.64769,-6.70805 z m -0.0454,4.66573 c -0.35771,0.81064 0.21457,1.02163 0,0 z m 25.16371,0.82255 c -2.34069,-2.45818 -2.68705,-2.32818 -0.0615,-0.0535 l 0.0615,0.0535 z m 14.60461,-2.44559 c -1.42582,-1.11841 -0.2043,1.09543 0,0 z M 60.747748,642.16496 c 1.172051,-1.3902 -1.622287,0.20168 0,0 z m 24.419833,-0.11216 c -0.470406,0.0183 -0.61287,0.88523 0,0 z m 11.575362,-0.12186 c -0.549022,0.28775 0.306347,1.06882 0,0 z m 19.308327,-0.0529 c -0.46406,-0.77835 -1.13872,-0.34232 0,0 z m 65.49515,-0.3823 c -0.54893,-0.0116 -0.74956,0.70824 0,0 z m -94.864814,-0.97493 c 3.738205,-4.01511 -3.175002,3.159 0,0 z m 10.064089,-0.13397 c -0.346041,0.77022 0.209321,1.35006 0,0 z M 161.873,640.869 c -0.68182,-0.63605 -0.7387,0.18449 0,0 z M 58.986285,639.53532 c -1.231679,0.0516 -0.404371,0.64848 0,0 z m 27.289452,-2.08327 c 2.283848,-0.86125 4.57153,-1.71257 6.836142,-2.62369 -3.041812,-0.49343 -6.083623,-0.98686 -9.125435,-1.48029 -0.420802,1.5304 -2.384278,5.80351 0.272881,5.21371 0.672137,-0.36991 1.344275,-0.73982 2.016412,-1.10973 z m 97.881383,2.02415 c -0.68177,-0.63601 -0.73874,0.18446 0,0 z m -23.94259,-0.90529 c -0.79119,-1.60655 -0.63266,-5.8833 -3.11929,-5.1495 -1.33925,0.55393 -7.23984,0.78638 -4.96845,1.84616 2.77818,1.44201 5.80482,2.45361 8.40888,4.19497 -0.10705,-0.29721 -0.21409,-0.59442 -0.32114,-0.89163 z m 11.8256,0.24302 c -0.67697,-0.82025 -0.80271,-0.36646 0,0 z m -3.62117,-0.8212 c -0.76987,-0.91897 -2.85487,-2.47772 0,0 z m 7.24234,-0.0195 c -3.07778,-1.91668 -4.22028,-1.98542 -0.41222,-0.18791 l 0.36324,0.16558 0.049,0.0223 z m -53.83008,-2.04437 c -2.88126,-0.10582 -3.54947,0.1908 0,0 z m 4.32138,0.009 c -1.94312,-0.15385 -1.40939,0.23953 0,0 z m 7.92908,-0.25076 c -0.74861,-0.28717 -0.54796,0.43148 0,0 z m -60.790043,-0.66453 c -0.542831,-0.51792 -0.632677,0.9501 0,0 z m 61.004763,-0.0103 c 8.5303,-0.7818 17.10677,-1.66696 25.43167,-3.74395 -0.26127,-3.88601 -0.72582,-7.75287 -1.11977,-11.62662 -20.79214,3.30199 -42.02722,3.60808 -62.967719,1.6396 -4.032647,-0.478 -8.08078,-0.83639 -12.092504,-1.47598 -0.400003,3.92761 -0.76019,7.86103 -1.262201,11.77695 16.635356,3.04567 33.579004,4.24578 50.475974,3.47082 0.51145,-0.0134 1.02363,-0.0275 1.53455,-0.0404 m 14.42034,-0.73269 c -0.99612,-0.21867 -1.21813,0.27131 0,0 z m -37.19193,-12.54412 c -1.3863,-0.20542 -0.98537,0.31357 0,0 z m 19.64318,0.009 c -0.99615,-0.21867 -1.21809,0.27131 0,0 z m -25.49856,-0.26413 c -0.74863,-0.28715 -0.54798,0.43147 0,0 z m 30.91922,0 c -0.74861,-0.28717 -0.54796,0.43148 0,0 z"
       id="path2991"
       inkscape:connector-curvature="0" />
  </g>
</svg>
