<?xml version="1.0" encoding="UTF-8" standalone="no"?>
<!-- Created with Inkscape (http://www.inkscape.org/) -->

<svg
   xmlns:dc="http://purl.org/dc/elements/1.1/"
   xmlns:cc="http://creativecommons.org/ns#"
   xmlns:rdf="http://www.w3.org/1999/02/22-rdf-syntax-ns#"
   xmlns:svg="http://www.w3.org/2000/svg"
   xmlns="http://www.w3.org/2000/svg"
   xmlns:sodipodi="http://sodipodi.sourceforge.net/DTD/sodipodi-0.dtd"
   xmlns:inkscape="http://www.inkscape.org/namespaces/inkscape"
   width="210mm"
   height="297mm"
   viewBox="0 0 744.09448819 1052.3622047"
   id="svg5459"
   version="1.1"
   inkscape:version="0.91 r13725"
   sodipodi:docname="drawing-attami.svg">
  <defs
     id="defs5461" />
  <sodipodi:namedview
     id="base"
     pagecolor="#ffffff"
     bordercolor="#666666"
     borderopacity="1.0"
     inkscape:pageopacity="0.0"
     inkscape:pageshadow="2"
     inkscape:zoom="1.6093592"
     inkscape:cx="210.04447"
     inkscape:cy="921.1256"
     inkscape:document-units="px"
     inkscape:current-layer="layer1"
     showgrid="false"
     inkscape:window-width="1366"
     inkscape:window-height="768"
     inkscape:window-x="0"
     inkscape:window-y="0"
     inkscape:window-maximized="0" />
  <metadata
     id="metadata5464">
    <rdf:RDF>
      <cc:Work
         rdf:about="">
        <dc:format>image/svg+xml</dc:format>
        <dc:type
           rdf:resource="http://purl.org/dc/dcmitype/StillImage" />
        <dc:title></dc:title>
      </cc:Work>
    </rdf:RDF>
  </metadata>
  <g
     inkscape:label="Layer 1"
     inkscape:groupmode="layer"
     id="layer1">
    <g
       transform="matrix(1.0852248,0,0,1.0852248,-2.2592554,-102.83055)"
       style="display:inline"
       id="g5351">
      <path
         style="fill:#000000;fill-opacity:1;stroke:none;stroke-opacity:1"
         d="m 128.18318,281.86446 0.53448,-100.4708 -8.71187,0.98089 -1.60595,99.67357 c 5.17857,0.18162 8.28605,0.30505 9.78334,-0.18366 z"
         id="path3765"
         inkscape:connector-curvature="0"
         sodipodi:nodetypes="ccccc" />
      <path
         sodipodi:nodetypes="ccccc"
         inkscape:connector-curvature="0"
         id="path3769"
         style="font-style:normal;font-variant:normal;font-weight:normal;font-stretch:normal;font-size:7px;line-height:125%;font-family:'Visitor TT1 BRK';-inkscape-font-specification:'Visitor TT1 BRK';letter-spacing:0px;word-spacing:0px;fill:#000000;fill-opacity:1;stroke:none;stroke-opacity:1"
         d="m 145.20231,282.11517 8.11541,0 0,-4.3188 -8.11541,0 z" />
      <path
         style="font-style:normal;font-variant:normal;font-weight:normal;font-stretch:normal;font-size:7px;line-height:125%;font-family:'Visitor TT1 BRK';-inkscape-font-specification:'Visitor TT1 BRK';letter-spacing:0px;word-spacing:0px;fill:#000000;fill-opacity:1;stroke:none;stroke-opacity:1"
         d="m 160.78123,219.35735 0,2.09376 -4.28125,0 0,60.65624 8.125,0 0,-25.09375 24.34375,0 0,25.09375 8.09375,0 0,-60.65624 -4.875,0 0,-2.09376 -31.40625,0 z m 3.84375,12.53125 24.34375,0 0,12.56251 -24.34375,0 0,-12.56251 z"
         id="path3771"
         inkscape:connector-curvature="0" />
      <path
         sodipodi:nodetypes="ccccc"
         inkscape:connector-curvature="0"
         id="path3773"
         style="font-style:normal;font-variant:normal;font-weight:normal;font-stretch:normal;font-size:7px;line-height:125%;font-family:'Visitor TT1 BRK';-inkscape-font-specification:'Visitor TT1 BRK';letter-spacing:0px;word-spacing:0px;fill:#000000;fill-opacity:1;stroke:none;stroke-opacity:1"
         d="m 200.27765,282.11517 8.11553,0 0,-4.3188 -8.11553,0 z" />
      <path
         style="font-style:normal;font-variant:normal;font-weight:normal;font-stretch:normal;font-size:7px;line-height:125%;font-family:'Visitor TT1 BRK';-inkscape-font-specification:'Visitor TT1 BRK';letter-spacing:0px;word-spacing:0px;fill:#000000;fill-opacity:1;stroke:none;stroke-opacity:1"
         d="m 219.68514,244.45273 8.11541,0 0,3.72641 8.11297,0 0,-3.72641 -8.11297,0 0,-12.55558 -8.11541,0 0,-12.5554 -8.11553,0 0,62.77342 8.11553,0 z"
         id="path5458"
         inkscape:connector-curvature="0" />
      <path
         style="font-style:normal;font-variant:normal;font-weight:normal;font-stretch:normal;font-size:7px;line-height:125%;font-family:'Visitor TT1 BRK';-inkscape-font-specification:'Visitor TT1 BRK';letter-spacing:0px;word-spacing:0px;fill:#000000;fill-opacity:1;stroke:none;stroke-opacity:1"
         d="m 244.02893,282.11517 8.11542,0 0,-62.77342 -8.11542,0 0,12.5554 -8.11541,0 0,12.55558 8.11541,0 z"
         id="path3775"
         inkscape:connector-curvature="0" />
      <path
         sodipodi:nodetypes="ccccc"
         inkscape:connector-curvature="0"
         id="path3777"
         style="font-style:normal;font-variant:normal;font-weight:normal;font-stretch:normal;font-size:7px;line-height:125%;font-family:'Visitor TT1 BRK';-inkscape-font-specification:'Visitor TT1 BRK';letter-spacing:0px;word-spacing:0px;fill:#000000;fill-opacity:1;stroke:none;stroke-opacity:1"
         d="m 255.35311,282.11517 8.11542,0 0,-4.90709 -8.11542,0 z" />
      <path
         sodipodi:nodetypes="ccccccccccccc"
         inkscape:connector-curvature="0"
         id="path3779"
         style="font-style:normal;font-variant:normal;font-weight:normal;font-stretch:normal;font-size:7px;line-height:125%;font-family:'Visitor TT1 BRK';-inkscape-font-specification:'Visitor TT1 BRK';letter-spacing:0px;word-spacing:0px;fill:#000000;fill-opacity:1;stroke:none;stroke-opacity:1"
         d="m 267.8637,226.01385 8.91914,0 0,51.19423 -8.91914,0 0,4.90709 25.95114,0 0,-4.90709 -8.91903,0 0,-51.19423 8.91903,0 0,-6.6721 -25.95114,0 z" />
      <path
         style="font-style:normal;font-weight:normal;font-size:40px;line-height:125%;font-family:Sans;letter-spacing:0px;word-spacing:0px;fill:#000000;fill-opacity:1;stroke:none;stroke-opacity:1"
         d="m 224.24098,234.40827 14.31361,0 0,10.03262 -14.31361,0 z"
         id="rect3781"
         inkscape:connector-curvature="0" />
      <path
         inkscape:connector-curvature="0"
         id="rect3803"
         d="m 88.571356,188.73782 6.5953,1.35087 -1.549225,5.75091 -6.5953,-1.35088 z"
         style="fill:#000000;fill-opacity:1;fill-rule:evenodd;stroke:none;stroke-opacity:1" />
      <path
         style="fill:#000000;fill-opacity:1;stroke:none;stroke-opacity:1"
         d="m 79.096735,195.51179 212.128575,-6.79135 -0.56635,-5.36452 -215.34365,1.69379 c -0.798162,5.28997 2.70698,9.00044 3.781425,10.46208 z"
         id="path3833"
         inkscape:connector-curvature="0"
         sodipodi:nodetypes="ccccc" />
      <g
         id="g5721"
         transform="translate(-10.714952,0)">
        <path
           style="fill:#000000;fill-opacity:1;fill-rule:evenodd;stroke:none;stroke-opacity:1"
           d="m 146.12724,151.79107 6.5953,1.35088 -1.54923,5.7509 -6.59529,-1.35088 z"
           id="rect3839"
           inkscape:connector-curvature="0" />
        <path
           style="fill:#000000;fill-opacity:1;fill-rule:evenodd;stroke:none;stroke-opacity:1"
           d="m 171.35762,187.29996 6.5953,1.35088 -1.54923,5.7509 -6.5953,-1.35088 z"
           id="rect3847"
           inkscape:connector-curvature="0" />
        <path
           style="fill:#000000;fill-opacity:1;fill-rule:evenodd;stroke:none;stroke-opacity:1"
           d="m 174.85446,200.15264 6.5953,1.35088 1.54923,-5.7509 -6.5953,-1.35088 z"
           id="rect3851"
           inkscape:connector-curvature="0" />
        <path
           style="fill:#000000;fill-opacity:1;fill-rule:evenodd;stroke:none;stroke-opacity:1"
           d="m 161.26546,173.09641 6.59531,1.35087 -1.54923,5.75091 -6.5953,-1.35088 z"
           id="rect3855"
           inkscape:connector-curvature="0" />
        <path
           style="fill:#000000;fill-opacity:1;fill-rule:evenodd;stroke:none;stroke-opacity:1"
           d="m 156.21939,165.99463 6.5953,1.35087 -1.54923,5.75091 -6.59529,-1.35088 z"
           id="rect3859"
           inkscape:connector-curvature="0" />
        <path
           style="fill:#000000;fill-opacity:1;fill-rule:evenodd;stroke:none;stroke-opacity:1"
           d="m 166.31154,180.19818 6.5953,1.35088 -1.54923,5.75091 -6.5953,-1.35088 z"
           id="rect3863"
           inkscape:connector-curvature="0" />
        <path
           style="fill:#000000;fill-opacity:1;fill-rule:evenodd;stroke:none;stroke-opacity:1"
           d="m 184.94661,214.3562 6.5953,1.35088 1.54923,-5.7509 -6.5953,-1.35088 z"
           id="rect3867"
           inkscape:connector-curvature="0" />
        <path
           style="fill:#000000;fill-opacity:1;fill-rule:evenodd;stroke:none;stroke-opacity:1"
           d="m 181.44976,201.50352 6.5953,1.35087 -1.54922,5.75091 -6.5953,-1.35088 z"
           id="rect3871"
           inkscape:connector-curvature="0" />
        <path
           style="display:inline;fill:#000000;fill-opacity:1;fill-rule:evenodd;stroke:none;stroke-opacity:1"
           d="m 151.16108,159.00522 6.5953,1.35087 -1.54923,5.75091 -6.59529,-1.35088 z"
           id="rect3859-3"
           inkscape:connector-curvature="0" />
      </g>
      <g
         id="g5745"
         transform="translate(2.6806704,0)">
        <path
           style="fill:#000000;fill-opacity:1;fill-rule:evenodd;stroke:none;stroke-opacity:1"
           d="m 199.75684,158.04071 6.59531,1.35088 -1.54923,5.7509 -6.5953,-1.35088 z"
           id="rect3877"
           inkscape:connector-curvature="0" />
        <path
           style="fill:#000000;fill-opacity:1;fill-rule:evenodd;stroke:none;stroke-opacity:1"
           d="m 219.94114,186.44782 6.5953,1.35087 -1.54923,5.75091 -6.59529,-1.35088 z"
           id="rect3881"
           inkscape:connector-curvature="0" />
        <path
           style="fill:#000000;fill-opacity:1;fill-rule:evenodd;stroke:none;stroke-opacity:1"
           d="m 223.43799,199.3005 6.5953,1.35088 1.54923,-5.7509 -6.59531,-1.35088 z"
           id="rect3885"
           inkscape:connector-curvature="0" />
        <path
           style="fill:#000000;fill-opacity:1;fill-rule:evenodd;stroke:none;stroke-opacity:1"
           d="m 209.84899,172.24427 6.5953,1.35087 -1.54923,5.75091 -6.59529,-1.35088 z"
           id="rect3889"
           inkscape:connector-curvature="0" />
        <path
           style="fill:#000000;fill-opacity:1;fill-rule:evenodd;stroke:none;stroke-opacity:1"
           d="m 204.80292,165.14248 6.5953,1.35088 -1.54923,5.75091 -6.5953,-1.35088 z"
           id="rect3893"
           inkscape:connector-curvature="0" />
        <path
           style="fill:#000000;fill-opacity:1;fill-rule:evenodd;stroke:none;stroke-opacity:1"
           d="m 214.89506,179.34604 6.5953,1.35088 -1.54922,5.7509 -6.5953,-1.35087 z"
           id="rect3897"
           inkscape:connector-curvature="0" />
        <path
           style="fill:#000000;fill-opacity:1;fill-rule:evenodd;stroke:none;stroke-opacity:1"
           d="m 230.03329,200.65138 6.5953,1.35087 -1.54923,5.75091 -6.5953,-1.35088 z"
           id="rect3901"
           inkscape:connector-curvature="0" />
      </g>
      <g
         id="g5754"
         transform="translate(5.3564453e-6,0)">
        <path
           style="fill:#000000;fill-opacity:1;fill-rule:evenodd;stroke:none;stroke-opacity:1"
           d="m 274.50881,187.88568 6.5953,1.35088 -1.54923,5.7509 -6.59529,-1.35087 z"
           id="rect3907"
           inkscape:connector-curvature="0" />
        <path
           style="fill:#000000;fill-opacity:1;fill-rule:evenodd;stroke:none;stroke-opacity:1"
           d="m 278.00566,200.73836 6.5953,1.35088 1.54923,-5.7509 -6.59531,-1.35088 z"
           id="rect3911"
           inkscape:connector-curvature="0" />
        <path
           style="fill:#000000;fill-opacity:1;fill-rule:evenodd;stroke:none;stroke-opacity:1"
           d="m 264.41666,173.68212 6.5953,1.35088 -1.54923,5.75091 -6.59529,-1.35088 z"
           id="rect3915"
           inkscape:connector-curvature="0" />
        <path
           style="fill:#000000;fill-opacity:1;fill-rule:evenodd;stroke:none;stroke-opacity:1"
           d="m 259.37059,166.58035 6.5953,1.35087 -1.54923,5.75091 -6.5953,-1.35088 z"
           id="rect3919"
           inkscape:connector-curvature="0" />
        <path
           style="fill:#000000;fill-opacity:1;fill-rule:evenodd;stroke:none;stroke-opacity:1"
           d="m 269.46273,180.78391 6.5953,1.35087 -1.54922,5.75091 -6.5953,-1.35088 z"
           id="rect3923"
           inkscape:connector-curvature="0" />
      </g>
      <path
         inkscape:connector-curvature="0"
         id="path4905"
         d="m 224.24098,234.40827 14.31361,0 0,10.03262 -14.31361,0 z"
         style="font-style:normal;font-weight:normal;font-size:40px;line-height:125%;font-family:Sans;letter-spacing:0px;word-spacing:0px;fill:#000000;fill-opacity:1;stroke:none;stroke-opacity:1" />
      <g
         id="g5732">
        <path
           style="fill:#000000;fill-opacity:1;fill-rule:evenodd;stroke:none;stroke-opacity:1"
           d="m 58.294908,146.12716 6.5953,1.35087 -1.549225,5.7509 -6.5953,-1.35087 z"
           id="rect3791"
           inkscape:connector-curvature="0" />
        <path
           style="fill:#000000;fill-opacity:1;fill-rule:evenodd;stroke:none;stroke-opacity:1"
           d="m 63.340983,153.22893 6.5953,1.35088 -1.549225,5.7509 -6.5953,-1.35087 z"
           id="rect3795"
           inkscape:connector-curvature="0" />
        <path
           style="fill:#000000;fill-opacity:1;fill-rule:evenodd;stroke:none;stroke-opacity:1"
           d="m 68.387057,160.33071 6.5953,1.35087 -1.549225,5.75091 -6.5953,-1.35088 z"
           id="rect3799"
           inkscape:connector-curvature="0" />
        <path
           style="fill:#000000;fill-opacity:1;fill-rule:evenodd;stroke:none;stroke-opacity:1"
           d="m 92.068205,201.5905 6.595299,1.35088 1.549226,-5.75091 -6.595299,-1.35087 z"
           id="rect3807"
           inkscape:connector-curvature="0" />
        <path
           style="fill:#000000;fill-opacity:1;fill-rule:evenodd;stroke:none;stroke-opacity:1"
           d="m 78.479207,174.53426 6.5953,1.35088 -1.549225,5.75091 -6.5953,-1.35088 z"
           id="rect3811"
           inkscape:connector-curvature="0" />
        <path
           style="fill:#000000;fill-opacity:1;fill-rule:evenodd;stroke:none;stroke-opacity:1"
           d="m 73.433132,167.43248 6.5953,1.35088 -1.549225,5.7509 -6.5953,-1.35087 z"
           id="rect3815"
           inkscape:connector-curvature="0" />
        <path
           style="fill:#000000;fill-opacity:1;fill-rule:evenodd;stroke:none;stroke-opacity:1"
           d="m 83.525282,181.63604 6.5953,1.35088 -1.549225,5.7509 -6.5953,-1.35087 z"
           id="rect3819"
           inkscape:connector-curvature="0" />
        <path
           style="fill:#000000;fill-opacity:1;fill-rule:evenodd;stroke:none;stroke-opacity:1"
           d="m 108.75566,217.14493 6.5953,1.35087 -1.54923,5.75091 -6.5953,-1.35088 z"
           id="rect3823"
           inkscape:connector-curvature="0" />
        <path
           style="fill:#000000;fill-opacity:1;fill-rule:evenodd;stroke:none;stroke-opacity:1"
           d="m 102.16035,215.79405 6.59531,1.35089 1.54922,-5.75091 -6.5953,-1.35087 z"
           id="rect3827"
           inkscape:connector-curvature="0" />
        <path
           style="fill:#000000;fill-opacity:1;fill-rule:evenodd;stroke:none;stroke-opacity:1"
           d="m 98.663504,202.94137 6.595306,1.35088 -1.54923,5.75091 -6.595299,-1.35088 z"
           id="rect3831"
           inkscape:connector-curvature="0" />
        <path
           id="path4923"
           d="m 88.571356,188.73782 6.5953,1.35087 -1.549225,5.75091 -6.5953,-1.35088 z"
           style="fill:#000000;fill-opacity:1;fill-rule:evenodd;stroke:none;stroke-opacity:1"
           inkscape:connector-curvature="0" />
      </g>
    </g>
  </g>
</svg>
