G75*
%MOIN*%
%OFA0B0*%
%FSLAX25Y25*%
%IPPOS*%
%LPD*%
%AMOC8*
5,1,8,0,0,1.08239X$1,22.5*
%
%ADD10C,0.00000*%
%ADD11R,0.05124X0.03550*%
%ADD12R,0.04600X0.09000*%
%ADD13R,0.03550X0.05124*%
%ADD14R,0.05124X0.05124*%
%ADD15R,0.05124X0.02565*%
%ADD16C,0.13455*%
%ADD17R,0.09455X0.06699*%
%ADD18R,0.01975X0.09455*%
%ADD19R,0.07880X0.07880*%
%ADD20C,0.02762*%
%ADD21C,0.07000*%
%ADD22R,0.09000X0.04600*%
%ADD23C,0.07400*%
%ADD24R,0.06500X0.02500*%
%ADD25R,0.06306X0.03550*%
%ADD26R,0.12211X0.12211*%
D10*
X0007800Y0007420D02*
X0007800Y0097421D01*
X0097681Y0097421D01*
X0097681Y0007420D01*
X0007800Y0007420D01*
X0041555Y0081555D02*
X0041557Y0081624D01*
X0041563Y0081692D01*
X0041573Y0081760D01*
X0041587Y0081827D01*
X0041605Y0081894D01*
X0041626Y0081959D01*
X0041652Y0082023D01*
X0041681Y0082085D01*
X0041713Y0082145D01*
X0041749Y0082204D01*
X0041789Y0082260D01*
X0041831Y0082314D01*
X0041877Y0082365D01*
X0041926Y0082414D01*
X0041977Y0082460D01*
X0042031Y0082502D01*
X0042087Y0082542D01*
X0042145Y0082578D01*
X0042206Y0082610D01*
X0042268Y0082639D01*
X0042332Y0082665D01*
X0042397Y0082686D01*
X0042464Y0082704D01*
X0042531Y0082718D01*
X0042599Y0082728D01*
X0042667Y0082734D01*
X0042736Y0082736D01*
X0042805Y0082734D01*
X0042873Y0082728D01*
X0042941Y0082718D01*
X0043008Y0082704D01*
X0043075Y0082686D01*
X0043140Y0082665D01*
X0043204Y0082639D01*
X0043266Y0082610D01*
X0043326Y0082578D01*
X0043385Y0082542D01*
X0043441Y0082502D01*
X0043495Y0082460D01*
X0043546Y0082414D01*
X0043595Y0082365D01*
X0043641Y0082314D01*
X0043683Y0082260D01*
X0043723Y0082204D01*
X0043759Y0082145D01*
X0043791Y0082085D01*
X0043820Y0082023D01*
X0043846Y0081959D01*
X0043867Y0081894D01*
X0043885Y0081827D01*
X0043899Y0081760D01*
X0043909Y0081692D01*
X0043915Y0081624D01*
X0043917Y0081555D01*
X0043915Y0081486D01*
X0043909Y0081418D01*
X0043899Y0081350D01*
X0043885Y0081283D01*
X0043867Y0081216D01*
X0043846Y0081151D01*
X0043820Y0081087D01*
X0043791Y0081025D01*
X0043759Y0080964D01*
X0043723Y0080906D01*
X0043683Y0080850D01*
X0043641Y0080796D01*
X0043595Y0080745D01*
X0043546Y0080696D01*
X0043495Y0080650D01*
X0043441Y0080608D01*
X0043385Y0080568D01*
X0043327Y0080532D01*
X0043266Y0080500D01*
X0043204Y0080471D01*
X0043140Y0080445D01*
X0043075Y0080424D01*
X0043008Y0080406D01*
X0042941Y0080392D01*
X0042873Y0080382D01*
X0042805Y0080376D01*
X0042736Y0080374D01*
X0042667Y0080376D01*
X0042599Y0080382D01*
X0042531Y0080392D01*
X0042464Y0080406D01*
X0042397Y0080424D01*
X0042332Y0080445D01*
X0042268Y0080471D01*
X0042206Y0080500D01*
X0042145Y0080532D01*
X0042087Y0080568D01*
X0042031Y0080608D01*
X0041977Y0080650D01*
X0041926Y0080696D01*
X0041877Y0080745D01*
X0041831Y0080796D01*
X0041789Y0080850D01*
X0041749Y0080906D01*
X0041713Y0080964D01*
X0041681Y0081025D01*
X0041652Y0081087D01*
X0041626Y0081151D01*
X0041605Y0081216D01*
X0041587Y0081283D01*
X0041573Y0081350D01*
X0041563Y0081418D01*
X0041557Y0081486D01*
X0041555Y0081555D01*
X0057303Y0081555D02*
X0057305Y0081624D01*
X0057311Y0081692D01*
X0057321Y0081760D01*
X0057335Y0081827D01*
X0057353Y0081894D01*
X0057374Y0081959D01*
X0057400Y0082023D01*
X0057429Y0082085D01*
X0057461Y0082145D01*
X0057497Y0082204D01*
X0057537Y0082260D01*
X0057579Y0082314D01*
X0057625Y0082365D01*
X0057674Y0082414D01*
X0057725Y0082460D01*
X0057779Y0082502D01*
X0057835Y0082542D01*
X0057893Y0082578D01*
X0057954Y0082610D01*
X0058016Y0082639D01*
X0058080Y0082665D01*
X0058145Y0082686D01*
X0058212Y0082704D01*
X0058279Y0082718D01*
X0058347Y0082728D01*
X0058415Y0082734D01*
X0058484Y0082736D01*
X0058553Y0082734D01*
X0058621Y0082728D01*
X0058689Y0082718D01*
X0058756Y0082704D01*
X0058823Y0082686D01*
X0058888Y0082665D01*
X0058952Y0082639D01*
X0059014Y0082610D01*
X0059074Y0082578D01*
X0059133Y0082542D01*
X0059189Y0082502D01*
X0059243Y0082460D01*
X0059294Y0082414D01*
X0059343Y0082365D01*
X0059389Y0082314D01*
X0059431Y0082260D01*
X0059471Y0082204D01*
X0059507Y0082145D01*
X0059539Y0082085D01*
X0059568Y0082023D01*
X0059594Y0081959D01*
X0059615Y0081894D01*
X0059633Y0081827D01*
X0059647Y0081760D01*
X0059657Y0081692D01*
X0059663Y0081624D01*
X0059665Y0081555D01*
X0059663Y0081486D01*
X0059657Y0081418D01*
X0059647Y0081350D01*
X0059633Y0081283D01*
X0059615Y0081216D01*
X0059594Y0081151D01*
X0059568Y0081087D01*
X0059539Y0081025D01*
X0059507Y0080964D01*
X0059471Y0080906D01*
X0059431Y0080850D01*
X0059389Y0080796D01*
X0059343Y0080745D01*
X0059294Y0080696D01*
X0059243Y0080650D01*
X0059189Y0080608D01*
X0059133Y0080568D01*
X0059075Y0080532D01*
X0059014Y0080500D01*
X0058952Y0080471D01*
X0058888Y0080445D01*
X0058823Y0080424D01*
X0058756Y0080406D01*
X0058689Y0080392D01*
X0058621Y0080382D01*
X0058553Y0080376D01*
X0058484Y0080374D01*
X0058415Y0080376D01*
X0058347Y0080382D01*
X0058279Y0080392D01*
X0058212Y0080406D01*
X0058145Y0080424D01*
X0058080Y0080445D01*
X0058016Y0080471D01*
X0057954Y0080500D01*
X0057893Y0080532D01*
X0057835Y0080568D01*
X0057779Y0080608D01*
X0057725Y0080650D01*
X0057674Y0080696D01*
X0057625Y0080745D01*
X0057579Y0080796D01*
X0057537Y0080850D01*
X0057497Y0080906D01*
X0057461Y0080964D01*
X0057429Y0081025D01*
X0057400Y0081087D01*
X0057374Y0081151D01*
X0057353Y0081216D01*
X0057335Y0081283D01*
X0057321Y0081350D01*
X0057311Y0081418D01*
X0057305Y0081486D01*
X0057303Y0081555D01*
D11*
X0053800Y0067463D03*
X0053800Y0060377D03*
X0061800Y0060377D03*
X0061800Y0067463D03*
X0081430Y0064413D03*
X0081430Y0057327D03*
X0029800Y0060877D03*
X0029800Y0067963D03*
D12*
X0071810Y0060030D03*
X0071810Y0077030D03*
D13*
X0070380Y0050656D03*
X0077467Y0050656D03*
X0037233Y0027060D03*
X0030147Y0027060D03*
D14*
X0045300Y0059386D03*
X0037200Y0059786D03*
X0037200Y0068054D03*
X0045300Y0067654D03*
X0084572Y0072708D03*
X0092839Y0072708D03*
D15*
X0071919Y0043250D03*
X0071919Y0039510D03*
X0071919Y0035770D03*
X0061682Y0035770D03*
X0061682Y0043250D03*
D16*
X0087800Y0087420D03*
X0017800Y0087420D03*
D17*
X0039498Y0014520D03*
X0064302Y0014520D03*
D18*
X0055728Y0079291D03*
X0053169Y0079291D03*
X0050610Y0079291D03*
X0048051Y0079291D03*
X0045492Y0079291D03*
D19*
X0045886Y0090610D03*
X0055334Y0090610D03*
X0066161Y0090610D03*
X0035059Y0090610D03*
D20*
X0042736Y0081555D03*
X0058484Y0081555D03*
D21*
X0092800Y0062420D03*
X0092800Y0052420D03*
X0092800Y0022420D03*
X0092800Y0012420D03*
X0012800Y0012420D03*
X0012800Y0022420D03*
X0012800Y0032420D03*
X0012800Y0042420D03*
X0012800Y0052420D03*
X0012800Y0062420D03*
X0012800Y0072420D03*
D22*
X0058300Y0025920D03*
X0075300Y0025920D03*
D23*
X0077200Y0016620D03*
X0023500Y0074220D03*
D24*
X0024700Y0048920D03*
X0024700Y0043920D03*
X0024700Y0038920D03*
X0024700Y0033920D03*
X0053900Y0033920D03*
X0053900Y0038920D03*
X0053900Y0043920D03*
X0053900Y0048920D03*
D25*
X0079910Y0044326D03*
X0079910Y0038420D03*
X0079910Y0032514D03*
D26*
X0090934Y0038420D03*
M02*
