G75*
%MOIN*%
%OFA0B0*%
%FSLAX25Y25*%
%IPPOS*%
%LPD*%
%AMOC8*
5,1,8,0,0,1.08239X$1,22.5*
%
%ADD10C,0.00000*%
D10*
X0007800Y0008726D02*
X0007800Y0098727D01*
X0097681Y0098727D01*
X0097681Y0008726D01*
X0007800Y0008726D01*
X0041555Y0082861D02*
X0041557Y0082930D01*
X0041563Y0082998D01*
X0041573Y0083066D01*
X0041587Y0083133D01*
X0041605Y0083200D01*
X0041626Y0083265D01*
X0041652Y0083329D01*
X0041681Y0083391D01*
X0041713Y0083451D01*
X0041749Y0083510D01*
X0041789Y0083566D01*
X0041831Y0083620D01*
X0041877Y0083671D01*
X0041926Y0083720D01*
X0041977Y0083766D01*
X0042031Y0083808D01*
X0042087Y0083848D01*
X0042145Y0083884D01*
X0042206Y0083916D01*
X0042268Y0083945D01*
X0042332Y0083971D01*
X0042397Y0083992D01*
X0042464Y0084010D01*
X0042531Y0084024D01*
X0042599Y0084034D01*
X0042667Y0084040D01*
X0042736Y0084042D01*
X0042805Y0084040D01*
X0042873Y0084034D01*
X0042941Y0084024D01*
X0043008Y0084010D01*
X0043075Y0083992D01*
X0043140Y0083971D01*
X0043204Y0083945D01*
X0043266Y0083916D01*
X0043326Y0083884D01*
X0043385Y0083848D01*
X0043441Y0083808D01*
X0043495Y0083766D01*
X0043546Y0083720D01*
X0043595Y0083671D01*
X0043641Y0083620D01*
X0043683Y0083566D01*
X0043723Y0083510D01*
X0043759Y0083451D01*
X0043791Y0083391D01*
X0043820Y0083329D01*
X0043846Y0083265D01*
X0043867Y0083200D01*
X0043885Y0083133D01*
X0043899Y0083066D01*
X0043909Y0082998D01*
X0043915Y0082930D01*
X0043917Y0082861D01*
X0043915Y0082792D01*
X0043909Y0082724D01*
X0043899Y0082656D01*
X0043885Y0082589D01*
X0043867Y0082522D01*
X0043846Y0082457D01*
X0043820Y0082393D01*
X0043791Y0082331D01*
X0043759Y0082270D01*
X0043723Y0082212D01*
X0043683Y0082156D01*
X0043641Y0082102D01*
X0043595Y0082051D01*
X0043546Y0082002D01*
X0043495Y0081956D01*
X0043441Y0081914D01*
X0043385Y0081874D01*
X0043327Y0081838D01*
X0043266Y0081806D01*
X0043204Y0081777D01*
X0043140Y0081751D01*
X0043075Y0081730D01*
X0043008Y0081712D01*
X0042941Y0081698D01*
X0042873Y0081688D01*
X0042805Y0081682D01*
X0042736Y0081680D01*
X0042667Y0081682D01*
X0042599Y0081688D01*
X0042531Y0081698D01*
X0042464Y0081712D01*
X0042397Y0081730D01*
X0042332Y0081751D01*
X0042268Y0081777D01*
X0042206Y0081806D01*
X0042145Y0081838D01*
X0042087Y0081874D01*
X0042031Y0081914D01*
X0041977Y0081956D01*
X0041926Y0082002D01*
X0041877Y0082051D01*
X0041831Y0082102D01*
X0041789Y0082156D01*
X0041749Y0082212D01*
X0041713Y0082270D01*
X0041681Y0082331D01*
X0041652Y0082393D01*
X0041626Y0082457D01*
X0041605Y0082522D01*
X0041587Y0082589D01*
X0041573Y0082656D01*
X0041563Y0082724D01*
X0041557Y0082792D01*
X0041555Y0082861D01*
X0057303Y0082861D02*
X0057305Y0082930D01*
X0057311Y0082998D01*
X0057321Y0083066D01*
X0057335Y0083133D01*
X0057353Y0083200D01*
X0057374Y0083265D01*
X0057400Y0083329D01*
X0057429Y0083391D01*
X0057461Y0083451D01*
X0057497Y0083510D01*
X0057537Y0083566D01*
X0057579Y0083620D01*
X0057625Y0083671D01*
X0057674Y0083720D01*
X0057725Y0083766D01*
X0057779Y0083808D01*
X0057835Y0083848D01*
X0057893Y0083884D01*
X0057954Y0083916D01*
X0058016Y0083945D01*
X0058080Y0083971D01*
X0058145Y0083992D01*
X0058212Y0084010D01*
X0058279Y0084024D01*
X0058347Y0084034D01*
X0058415Y0084040D01*
X0058484Y0084042D01*
X0058553Y0084040D01*
X0058621Y0084034D01*
X0058689Y0084024D01*
X0058756Y0084010D01*
X0058823Y0083992D01*
X0058888Y0083971D01*
X0058952Y0083945D01*
X0059014Y0083916D01*
X0059074Y0083884D01*
X0059133Y0083848D01*
X0059189Y0083808D01*
X0059243Y0083766D01*
X0059294Y0083720D01*
X0059343Y0083671D01*
X0059389Y0083620D01*
X0059431Y0083566D01*
X0059471Y0083510D01*
X0059507Y0083451D01*
X0059539Y0083391D01*
X0059568Y0083329D01*
X0059594Y0083265D01*
X0059615Y0083200D01*
X0059633Y0083133D01*
X0059647Y0083066D01*
X0059657Y0082998D01*
X0059663Y0082930D01*
X0059665Y0082861D01*
X0059663Y0082792D01*
X0059657Y0082724D01*
X0059647Y0082656D01*
X0059633Y0082589D01*
X0059615Y0082522D01*
X0059594Y0082457D01*
X0059568Y0082393D01*
X0059539Y0082331D01*
X0059507Y0082270D01*
X0059471Y0082212D01*
X0059431Y0082156D01*
X0059389Y0082102D01*
X0059343Y0082051D01*
X0059294Y0082002D01*
X0059243Y0081956D01*
X0059189Y0081914D01*
X0059133Y0081874D01*
X0059075Y0081838D01*
X0059014Y0081806D01*
X0058952Y0081777D01*
X0058888Y0081751D01*
X0058823Y0081730D01*
X0058756Y0081712D01*
X0058689Y0081698D01*
X0058621Y0081688D01*
X0058553Y0081682D01*
X0058484Y0081680D01*
X0058415Y0081682D01*
X0058347Y0081688D01*
X0058279Y0081698D01*
X0058212Y0081712D01*
X0058145Y0081730D01*
X0058080Y0081751D01*
X0058016Y0081777D01*
X0057954Y0081806D01*
X0057893Y0081838D01*
X0057835Y0081874D01*
X0057779Y0081914D01*
X0057725Y0081956D01*
X0057674Y0082002D01*
X0057625Y0082051D01*
X0057579Y0082102D01*
X0057537Y0082156D01*
X0057497Y0082212D01*
X0057461Y0082270D01*
X0057429Y0082331D01*
X0057400Y0082393D01*
X0057374Y0082457D01*
X0057353Y0082522D01*
X0057335Y0082589D01*
X0057321Y0082656D01*
X0057311Y0082724D01*
X0057305Y0082792D01*
X0057303Y0082861D01*
M02*
