G75*
%MOIN*%
%OFA0B0*%
%FSLAX25Y25*%
%IPPOS*%
%LPD*%
%AMOC8*
5,1,8,0,0,1.08239X$1,22.5*
%
%ADD10C,0.00000*%
%ADD11C,0.00300*%
%ADD12C,0.00500*%
%ADD13C,0.01000*%
%ADD14C,0.00600*%
%ADD15R,0.03937X0.00787*%
%ADD16C,0.00800*%
%ADD17C,0.00400*%
%ADD18R,0.07300X0.12600*%
%ADD19R,0.07300X0.03400*%
D10*
X0007800Y0008726D02*
X0007800Y0098727D01*
X0097681Y0098727D01*
X0097681Y0008726D01*
X0007800Y0008726D01*
X0035256Y0079908D02*
X0035256Y0098412D01*
X0041555Y0082861D02*
X0041557Y0082930D01*
X0041563Y0082998D01*
X0041573Y0083066D01*
X0041587Y0083133D01*
X0041605Y0083200D01*
X0041626Y0083265D01*
X0041652Y0083329D01*
X0041681Y0083391D01*
X0041713Y0083451D01*
X0041749Y0083510D01*
X0041789Y0083566D01*
X0041831Y0083620D01*
X0041877Y0083671D01*
X0041926Y0083720D01*
X0041977Y0083766D01*
X0042031Y0083808D01*
X0042087Y0083848D01*
X0042145Y0083884D01*
X0042206Y0083916D01*
X0042268Y0083945D01*
X0042332Y0083971D01*
X0042397Y0083992D01*
X0042464Y0084010D01*
X0042531Y0084024D01*
X0042599Y0084034D01*
X0042667Y0084040D01*
X0042736Y0084042D01*
X0042805Y0084040D01*
X0042873Y0084034D01*
X0042941Y0084024D01*
X0043008Y0084010D01*
X0043075Y0083992D01*
X0043140Y0083971D01*
X0043204Y0083945D01*
X0043266Y0083916D01*
X0043326Y0083884D01*
X0043385Y0083848D01*
X0043441Y0083808D01*
X0043495Y0083766D01*
X0043546Y0083720D01*
X0043595Y0083671D01*
X0043641Y0083620D01*
X0043683Y0083566D01*
X0043723Y0083510D01*
X0043759Y0083451D01*
X0043791Y0083391D01*
X0043820Y0083329D01*
X0043846Y0083265D01*
X0043867Y0083200D01*
X0043885Y0083133D01*
X0043899Y0083066D01*
X0043909Y0082998D01*
X0043915Y0082930D01*
X0043917Y0082861D01*
X0043915Y0082792D01*
X0043909Y0082724D01*
X0043899Y0082656D01*
X0043885Y0082589D01*
X0043867Y0082522D01*
X0043846Y0082457D01*
X0043820Y0082393D01*
X0043791Y0082331D01*
X0043759Y0082270D01*
X0043723Y0082212D01*
X0043683Y0082156D01*
X0043641Y0082102D01*
X0043595Y0082051D01*
X0043546Y0082002D01*
X0043495Y0081956D01*
X0043441Y0081914D01*
X0043385Y0081874D01*
X0043327Y0081838D01*
X0043266Y0081806D01*
X0043204Y0081777D01*
X0043140Y0081751D01*
X0043075Y0081730D01*
X0043008Y0081712D01*
X0042941Y0081698D01*
X0042873Y0081688D01*
X0042805Y0081682D01*
X0042736Y0081680D01*
X0042667Y0081682D01*
X0042599Y0081688D01*
X0042531Y0081698D01*
X0042464Y0081712D01*
X0042397Y0081730D01*
X0042332Y0081751D01*
X0042268Y0081777D01*
X0042206Y0081806D01*
X0042145Y0081838D01*
X0042087Y0081874D01*
X0042031Y0081914D01*
X0041977Y0081956D01*
X0041926Y0082002D01*
X0041877Y0082051D01*
X0041831Y0082102D01*
X0041789Y0082156D01*
X0041749Y0082212D01*
X0041713Y0082270D01*
X0041681Y0082331D01*
X0041652Y0082393D01*
X0041626Y0082457D01*
X0041605Y0082522D01*
X0041587Y0082589D01*
X0041573Y0082656D01*
X0041563Y0082724D01*
X0041557Y0082792D01*
X0041555Y0082861D01*
X0035256Y0079908D02*
X0065964Y0079908D01*
X0065964Y0098412D01*
X0057303Y0082861D02*
X0057305Y0082930D01*
X0057311Y0082998D01*
X0057321Y0083066D01*
X0057335Y0083133D01*
X0057353Y0083200D01*
X0057374Y0083265D01*
X0057400Y0083329D01*
X0057429Y0083391D01*
X0057461Y0083451D01*
X0057497Y0083510D01*
X0057537Y0083566D01*
X0057579Y0083620D01*
X0057625Y0083671D01*
X0057674Y0083720D01*
X0057725Y0083766D01*
X0057779Y0083808D01*
X0057835Y0083848D01*
X0057893Y0083884D01*
X0057954Y0083916D01*
X0058016Y0083945D01*
X0058080Y0083971D01*
X0058145Y0083992D01*
X0058212Y0084010D01*
X0058279Y0084024D01*
X0058347Y0084034D01*
X0058415Y0084040D01*
X0058484Y0084042D01*
X0058553Y0084040D01*
X0058621Y0084034D01*
X0058689Y0084024D01*
X0058756Y0084010D01*
X0058823Y0083992D01*
X0058888Y0083971D01*
X0058952Y0083945D01*
X0059014Y0083916D01*
X0059074Y0083884D01*
X0059133Y0083848D01*
X0059189Y0083808D01*
X0059243Y0083766D01*
X0059294Y0083720D01*
X0059343Y0083671D01*
X0059389Y0083620D01*
X0059431Y0083566D01*
X0059471Y0083510D01*
X0059507Y0083451D01*
X0059539Y0083391D01*
X0059568Y0083329D01*
X0059594Y0083265D01*
X0059615Y0083200D01*
X0059633Y0083133D01*
X0059647Y0083066D01*
X0059657Y0082998D01*
X0059663Y0082930D01*
X0059665Y0082861D01*
X0059663Y0082792D01*
X0059657Y0082724D01*
X0059647Y0082656D01*
X0059633Y0082589D01*
X0059615Y0082522D01*
X0059594Y0082457D01*
X0059568Y0082393D01*
X0059539Y0082331D01*
X0059507Y0082270D01*
X0059471Y0082212D01*
X0059431Y0082156D01*
X0059389Y0082102D01*
X0059343Y0082051D01*
X0059294Y0082002D01*
X0059243Y0081956D01*
X0059189Y0081914D01*
X0059133Y0081874D01*
X0059075Y0081838D01*
X0059014Y0081806D01*
X0058952Y0081777D01*
X0058888Y0081751D01*
X0058823Y0081730D01*
X0058756Y0081712D01*
X0058689Y0081698D01*
X0058621Y0081688D01*
X0058553Y0081682D01*
X0058484Y0081680D01*
X0058415Y0081682D01*
X0058347Y0081688D01*
X0058279Y0081698D01*
X0058212Y0081712D01*
X0058145Y0081730D01*
X0058080Y0081751D01*
X0058016Y0081777D01*
X0057954Y0081806D01*
X0057893Y0081838D01*
X0057835Y0081874D01*
X0057779Y0081914D01*
X0057725Y0081956D01*
X0057674Y0082002D01*
X0057625Y0082051D01*
X0057579Y0082102D01*
X0057537Y0082156D01*
X0057497Y0082212D01*
X0057461Y0082270D01*
X0057429Y0082331D01*
X0057400Y0082393D01*
X0057374Y0082457D01*
X0057353Y0082522D01*
X0057335Y0082589D01*
X0057321Y0082656D01*
X0057311Y0082724D01*
X0057305Y0082792D01*
X0057303Y0082861D01*
D11*
X0059400Y0073978D02*
X0060851Y0073978D01*
X0061335Y0073495D01*
X0061335Y0072527D01*
X0060851Y0072043D01*
X0059400Y0072043D01*
X0059400Y0071076D02*
X0059400Y0073978D01*
X0060367Y0072043D02*
X0061335Y0071076D01*
X0062347Y0071076D02*
X0064281Y0071076D01*
X0063314Y0071076D02*
X0063314Y0073978D01*
X0062347Y0073011D01*
X0056081Y0072811D02*
X0055598Y0072327D01*
X0056081Y0071843D01*
X0056081Y0071360D01*
X0055598Y0070876D01*
X0054630Y0070876D01*
X0054147Y0071360D01*
X0053135Y0070876D02*
X0052167Y0071843D01*
X0052651Y0071843D02*
X0051200Y0071843D01*
X0051200Y0070876D02*
X0051200Y0073778D01*
X0052651Y0073778D01*
X0053135Y0073295D01*
X0053135Y0072327D01*
X0052651Y0071843D01*
X0054147Y0073295D02*
X0054630Y0073778D01*
X0055598Y0073778D01*
X0056081Y0073295D01*
X0056081Y0072811D01*
X0055598Y0072327D02*
X0055114Y0072327D01*
X0047838Y0071976D02*
X0045903Y0071976D01*
X0047838Y0073911D01*
X0047838Y0074395D01*
X0047355Y0074878D01*
X0046387Y0074878D01*
X0045903Y0074395D01*
X0044892Y0074395D02*
X0044408Y0074878D01*
X0042957Y0074878D01*
X0042957Y0071976D01*
X0044408Y0071976D01*
X0044892Y0072460D01*
X0044892Y0074395D01*
X0040131Y0072876D02*
X0038197Y0072876D01*
X0039164Y0072876D02*
X0039164Y0075778D01*
X0038197Y0074811D01*
X0037185Y0075295D02*
X0037185Y0073360D01*
X0036701Y0072876D01*
X0035250Y0072876D01*
X0035250Y0075778D01*
X0036701Y0075778D01*
X0037185Y0075295D01*
X0032538Y0073477D02*
X0030603Y0073477D01*
X0032055Y0074928D01*
X0032055Y0072026D01*
X0029592Y0072026D02*
X0028624Y0072993D01*
X0029108Y0072993D02*
X0027657Y0072993D01*
X0027657Y0072026D02*
X0027657Y0074928D01*
X0029108Y0074928D01*
X0029592Y0074445D01*
X0029592Y0073477D01*
X0029108Y0072993D01*
X0020498Y0062653D02*
X0020724Y0061810D01*
X0020107Y0060741D01*
X0019264Y0060515D01*
X0018360Y0063887D01*
X0020498Y0062653D01*
X0018360Y0063887D02*
X0017517Y0063661D01*
X0016900Y0062592D01*
X0017126Y0061749D01*
X0019264Y0060515D01*
X0018657Y0059463D02*
X0018122Y0059772D01*
X0017279Y0059546D01*
X0016353Y0057942D01*
X0017957Y0057017D02*
X0014750Y0058868D01*
X0015675Y0060472D01*
X0016519Y0060698D01*
X0017053Y0060389D01*
X0017279Y0059546D01*
X0018657Y0059463D02*
X0018882Y0058620D01*
X0017957Y0057017D01*
X0017137Y0053467D02*
X0020344Y0051615D01*
X0019727Y0050546D02*
X0020961Y0052684D01*
X0017589Y0051781D02*
X0017137Y0053467D01*
X0016447Y0051038D02*
X0016982Y0050729D01*
X0017208Y0049886D01*
X0016282Y0048282D01*
X0017885Y0047357D02*
X0014678Y0049208D01*
X0015604Y0050812D01*
X0016447Y0051038D01*
X0017208Y0049886D02*
X0018051Y0050112D01*
X0018585Y0049803D01*
X0018811Y0048960D01*
X0017885Y0047357D01*
X0018345Y0044010D02*
X0017502Y0043784D01*
X0016884Y0042715D01*
X0017110Y0041872D01*
X0016503Y0040820D02*
X0015660Y0040594D01*
X0014734Y0038991D01*
X0017941Y0037139D01*
X0018867Y0038743D01*
X0018641Y0039586D01*
X0018107Y0039894D01*
X0017264Y0039668D01*
X0016338Y0038065D01*
X0017264Y0039668D02*
X0017038Y0040512D01*
X0016503Y0040820D01*
X0019783Y0040329D02*
X0018879Y0043701D01*
X0018345Y0044010D01*
X0021017Y0042467D02*
X0019783Y0040329D01*
X0018688Y0034555D02*
X0017845Y0034329D01*
X0017228Y0033260D01*
X0017453Y0032417D01*
X0016846Y0031365D02*
X0017381Y0031057D01*
X0017607Y0030213D01*
X0016681Y0028610D01*
X0018284Y0027684D02*
X0019210Y0029288D01*
X0018984Y0030131D01*
X0018450Y0030439D01*
X0017607Y0030213D01*
X0016846Y0031365D02*
X0016003Y0031139D01*
X0015077Y0029536D01*
X0018284Y0027684D01*
X0018269Y0025463D02*
X0018947Y0022934D01*
X0020181Y0025072D01*
X0018269Y0025463D02*
X0021476Y0023611D01*
X0019409Y0021265D02*
X0019635Y0020422D01*
X0018709Y0018818D01*
X0015502Y0020670D01*
X0016428Y0022273D01*
X0017271Y0022499D01*
X0017805Y0022191D01*
X0018031Y0021348D01*
X0017105Y0019744D01*
X0018031Y0021348D02*
X0018874Y0021573D01*
X0019409Y0021265D01*
X0019319Y0017094D02*
X0018085Y0014956D01*
X0019689Y0014031D01*
X0019771Y0015408D01*
X0020080Y0015943D01*
X0020923Y0016169D01*
X0021992Y0015551D01*
X0022218Y0014708D01*
X0021601Y0013639D01*
X0020758Y0013413D01*
X0020150Y0012362D02*
X0020376Y0011519D01*
X0019450Y0009915D01*
X0016243Y0011767D01*
X0017169Y0013370D01*
X0018012Y0013596D01*
X0018547Y0013288D01*
X0018773Y0012444D01*
X0017847Y0010841D01*
X0018773Y0012444D02*
X0019616Y0012670D01*
X0020150Y0012362D01*
X0024911Y0025973D02*
X0026846Y0025973D01*
X0027330Y0026457D01*
X0027330Y0027424D01*
X0026846Y0027908D01*
X0027330Y0028919D02*
X0025395Y0030854D01*
X0024911Y0030854D01*
X0024428Y0030371D01*
X0024428Y0029403D01*
X0024911Y0028919D01*
X0024911Y0027908D02*
X0024428Y0027424D01*
X0024428Y0026457D01*
X0024911Y0025973D01*
X0027330Y0028919D02*
X0027330Y0030854D01*
X0021052Y0032477D02*
X0020435Y0031408D01*
X0019591Y0031182D01*
X0019140Y0032869D02*
X0019448Y0033403D01*
X0020291Y0033629D01*
X0020826Y0033320D01*
X0021052Y0032477D01*
X0019448Y0033403D02*
X0019222Y0034246D01*
X0018688Y0034555D01*
X0045414Y0034624D02*
X0048550Y0034624D01*
X0048550Y0036192D02*
X0045414Y0033056D01*
X0046982Y0033056D02*
X0046982Y0036192D01*
X0045414Y0036192D02*
X0048550Y0033056D01*
X0065434Y0022773D02*
X0068336Y0022773D01*
X0068336Y0021806D02*
X0068336Y0023741D01*
X0066401Y0021806D02*
X0065434Y0022773D01*
X0065918Y0020794D02*
X0065434Y0020311D01*
X0065434Y0019343D01*
X0065918Y0018859D01*
X0067853Y0018859D01*
X0068336Y0019343D01*
X0068336Y0020311D01*
X0067853Y0020794D01*
X0082361Y0022109D02*
X0084107Y0022109D01*
X0085853Y0023854D01*
X0086275Y0022559D02*
X0084529Y0020814D01*
X0084529Y0019941D01*
X0085402Y0019068D01*
X0086275Y0019068D01*
X0087134Y0018209D02*
X0087134Y0017336D01*
X0088006Y0016463D01*
X0088879Y0016463D01*
X0087134Y0018209D02*
X0088879Y0019955D01*
X0089752Y0019955D01*
X0090625Y0019082D01*
X0090625Y0018209D01*
X0088021Y0020814D02*
X0088021Y0021686D01*
X0087148Y0022559D01*
X0086275Y0022559D01*
X0084107Y0025600D02*
X0082361Y0023854D01*
X0082361Y0022109D01*
X0085418Y0059031D02*
X0085418Y0060733D01*
X0085986Y0061300D01*
X0086553Y0061300D01*
X0087120Y0060733D01*
X0087120Y0059031D01*
X0088821Y0059031D02*
X0085418Y0059031D01*
X0087120Y0060733D02*
X0087687Y0061300D01*
X0088254Y0061300D01*
X0088821Y0060733D01*
X0088821Y0059031D01*
X0088821Y0062438D02*
X0086553Y0062438D01*
X0085418Y0063572D01*
X0086553Y0064707D01*
X0088821Y0064707D01*
X0087120Y0064707D02*
X0087120Y0062438D01*
X0085418Y0065845D02*
X0085418Y0068114D01*
X0085418Y0066979D02*
X0088821Y0066979D01*
X0083512Y0066526D02*
X0081577Y0066526D01*
X0083512Y0068461D01*
X0083512Y0068945D01*
X0083028Y0069428D01*
X0082060Y0069428D01*
X0081577Y0068945D01*
X0080565Y0068945D02*
X0080565Y0067977D01*
X0080081Y0067493D01*
X0078630Y0067493D01*
X0078630Y0066526D02*
X0078630Y0069428D01*
X0080081Y0069428D01*
X0080565Y0068945D01*
X0079597Y0067493D02*
X0080565Y0066526D01*
X0080856Y0077164D02*
X0082307Y0077164D01*
X0082791Y0077648D01*
X0082791Y0079583D01*
X0082307Y0080067D01*
X0080856Y0080067D01*
X0080856Y0077164D01*
X0083802Y0078616D02*
X0085737Y0078616D01*
X0085253Y0080067D02*
X0085253Y0077164D01*
X0083802Y0078616D02*
X0085253Y0080067D01*
D12*
X0087494Y0074938D02*
X0087494Y0071938D01*
X0076810Y0078836D02*
X0075310Y0078836D01*
X0068310Y0078836D02*
X0066810Y0078836D01*
X0066810Y0060836D02*
X0068310Y0060836D01*
X0075310Y0060836D02*
X0076810Y0060836D01*
X0083750Y0053296D02*
X0086250Y0053296D01*
X0086250Y0055296D01*
X0086250Y0053296D02*
X0088750Y0053296D01*
X0087750Y0052096D02*
X0084750Y0052096D01*
X0085744Y0050882D02*
X0086744Y0050882D01*
X0080556Y0041130D02*
X0079055Y0041130D01*
X0078304Y0040379D01*
X0076703Y0041130D02*
X0076703Y0037377D01*
X0075952Y0036626D01*
X0074451Y0036626D01*
X0073700Y0037377D01*
X0073700Y0041130D01*
X0078304Y0036626D02*
X0081306Y0039629D01*
X0081306Y0040379D01*
X0080556Y0041130D01*
X0081306Y0036626D02*
X0078304Y0036626D01*
X0062511Y0021031D02*
X0062511Y0019457D01*
X0062511Y0021031D02*
X0062509Y0021093D01*
X0062503Y0021154D01*
X0062494Y0021215D01*
X0062480Y0021276D01*
X0062463Y0021335D01*
X0062442Y0021393D01*
X0062417Y0021450D01*
X0062389Y0021505D01*
X0062358Y0021558D01*
X0062323Y0021609D01*
X0062285Y0021658D01*
X0062244Y0021705D01*
X0062201Y0021748D01*
X0062154Y0021789D01*
X0062105Y0021827D01*
X0062054Y0021862D01*
X0062001Y0021893D01*
X0061946Y0021921D01*
X0061889Y0021946D01*
X0061831Y0021967D01*
X0061772Y0021984D01*
X0061711Y0021998D01*
X0061650Y0022007D01*
X0061589Y0022013D01*
X0061527Y0022015D01*
X0061527Y0022016D02*
X0039873Y0022016D01*
X0039873Y0022015D02*
X0039811Y0022013D01*
X0039750Y0022007D01*
X0039689Y0021998D01*
X0039628Y0021984D01*
X0039569Y0021967D01*
X0039511Y0021946D01*
X0039454Y0021921D01*
X0039399Y0021893D01*
X0039346Y0021862D01*
X0039295Y0021827D01*
X0039246Y0021789D01*
X0039199Y0021748D01*
X0039156Y0021705D01*
X0039115Y0021658D01*
X0039077Y0021609D01*
X0039042Y0021558D01*
X0039011Y0021505D01*
X0038983Y0021450D01*
X0038958Y0021393D01*
X0038937Y0021335D01*
X0038920Y0021276D01*
X0038906Y0021215D01*
X0038897Y0021154D01*
X0038891Y0021093D01*
X0038889Y0021031D01*
X0038889Y0019457D01*
X0044794Y0018079D02*
X0044794Y0012173D01*
X0056606Y0012173D01*
X0056606Y0018079D01*
X0044794Y0018079D01*
X0038889Y0010795D02*
X0038889Y0009220D01*
X0038891Y0009158D01*
X0038897Y0009097D01*
X0038906Y0009036D01*
X0038920Y0008975D01*
X0038937Y0008916D01*
X0038958Y0008858D01*
X0038983Y0008801D01*
X0039011Y0008746D01*
X0039042Y0008693D01*
X0039077Y0008642D01*
X0039115Y0008593D01*
X0039156Y0008546D01*
X0039199Y0008503D01*
X0039246Y0008462D01*
X0039295Y0008424D01*
X0039346Y0008389D01*
X0039399Y0008358D01*
X0039454Y0008330D01*
X0039511Y0008305D01*
X0039569Y0008284D01*
X0039628Y0008267D01*
X0039689Y0008253D01*
X0039750Y0008244D01*
X0039811Y0008238D01*
X0039873Y0008236D01*
X0061133Y0008236D01*
X0062511Y0009220D02*
X0062511Y0010795D01*
X0062511Y0009220D02*
X0062498Y0009154D01*
X0062481Y0009089D01*
X0062461Y0009025D01*
X0062437Y0008962D01*
X0062410Y0008901D01*
X0062379Y0008841D01*
X0062346Y0008783D01*
X0062308Y0008727D01*
X0062268Y0008674D01*
X0062225Y0008622D01*
X0062179Y0008573D01*
X0062130Y0008527D01*
X0062079Y0008484D01*
X0062026Y0008443D01*
X0061970Y0008405D01*
X0061912Y0008371D01*
X0061853Y0008340D01*
X0061792Y0008313D01*
X0061729Y0008288D01*
X0061665Y0008268D01*
X0061600Y0008251D01*
X0061534Y0008238D01*
X0061468Y0008228D01*
X0061401Y0008222D01*
X0061334Y0008220D01*
X0061267Y0008222D01*
X0061200Y0008227D01*
X0061133Y0008236D01*
X0082324Y0013739D02*
X0084824Y0013739D01*
X0084824Y0016739D01*
X0084824Y0013739D02*
X0087324Y0013739D01*
X0086324Y0012539D02*
X0083324Y0012539D01*
X0084318Y0011325D02*
X0085318Y0011325D01*
X0046800Y0063726D02*
X0043800Y0063726D01*
X0038700Y0064126D02*
X0035700Y0064126D01*
X0022180Y0073946D02*
X0019680Y0073946D01*
X0019680Y0076946D01*
X0019680Y0073946D02*
X0017180Y0073946D01*
X0018180Y0072746D02*
X0021180Y0072746D01*
X0020174Y0071532D02*
X0019174Y0071532D01*
D13*
X0016800Y0078726D02*
X0008800Y0078726D01*
X0032893Y0098215D02*
X0068327Y0098215D01*
D14*
X0069578Y0086431D02*
X0070879Y0086431D01*
X0071312Y0085997D01*
X0071312Y0084263D01*
X0070879Y0083829D01*
X0069578Y0083829D01*
X0069578Y0086431D01*
X0072524Y0085997D02*
X0072958Y0086431D01*
X0073825Y0086431D01*
X0074259Y0085997D01*
X0074259Y0085564D01*
X0073825Y0085130D01*
X0074259Y0084696D01*
X0074259Y0084263D01*
X0073825Y0083829D01*
X0072958Y0083829D01*
X0072524Y0084263D01*
X0073392Y0085130D02*
X0073825Y0085130D01*
X0076710Y0078861D02*
X0076710Y0060861D01*
X0078068Y0061857D02*
X0078068Y0059495D01*
X0082792Y0059495D02*
X0082792Y0061857D01*
X0080448Y0051239D02*
X0077936Y0051239D01*
X0070700Y0051228D01*
X0070700Y0025424D01*
X0079354Y0025413D01*
X0080456Y0025413D01*
X0080456Y0031239D01*
X0084700Y0031239D01*
X0084700Y0031330D01*
X0084708Y0045413D01*
X0084700Y0045413D02*
X0080456Y0045413D01*
X0080448Y0051239D01*
X0066710Y0060861D02*
X0066710Y0078861D01*
X0064162Y0066407D02*
X0064162Y0064045D01*
X0059438Y0064045D02*
X0059438Y0066407D01*
X0056162Y0066407D02*
X0056162Y0064045D01*
X0051438Y0064045D02*
X0051438Y0066407D01*
X0049900Y0053226D02*
X0028700Y0053226D01*
X0028700Y0052226D01*
X0028700Y0048226D02*
X0028700Y0047226D01*
X0031300Y0044026D02*
X0033700Y0044526D01*
X0034400Y0046326D02*
X0033100Y0048326D01*
X0034500Y0049726D01*
X0036400Y0048326D01*
X0038300Y0049226D02*
X0038700Y0051426D01*
X0040700Y0051426D01*
X0041100Y0049226D01*
X0043100Y0048426D02*
X0044900Y0049726D01*
X0046300Y0048326D01*
X0045100Y0046526D01*
X0045500Y0045726D01*
X0042100Y0044326D01*
X0042100Y0041926D02*
X0045500Y0040426D01*
X0045100Y0039726D01*
X0046300Y0037926D01*
X0044900Y0036526D01*
X0043100Y0037726D01*
X0041100Y0036926D02*
X0040700Y0034726D01*
X0038700Y0034726D01*
X0038300Y0037026D01*
X0036400Y0037826D02*
X0034500Y0036526D01*
X0033100Y0037926D01*
X0034400Y0039826D01*
X0033700Y0041626D02*
X0031300Y0042126D01*
X0031300Y0044026D01*
X0028700Y0043226D02*
X0028700Y0042226D01*
X0028700Y0038226D02*
X0028700Y0037226D01*
X0028700Y0033226D02*
X0028700Y0032226D01*
X0038100Y0032226D01*
X0040500Y0032226D01*
X0049900Y0032226D01*
X0049900Y0033226D01*
X0049900Y0037226D02*
X0049900Y0038226D01*
X0049900Y0042226D02*
X0049900Y0043226D01*
X0049900Y0047226D02*
X0049900Y0048226D01*
X0049900Y0052226D02*
X0049900Y0053226D01*
X0038292Y0049244D02*
X0038149Y0049204D01*
X0038007Y0049161D01*
X0037866Y0049114D01*
X0037727Y0049063D01*
X0037589Y0049009D01*
X0037452Y0048952D01*
X0037316Y0048891D01*
X0037183Y0048827D01*
X0037050Y0048760D01*
X0036920Y0048690D01*
X0036791Y0048616D01*
X0036664Y0048539D01*
X0036539Y0048459D01*
X0036416Y0048376D01*
X0042100Y0044326D02*
X0042053Y0044418D01*
X0042002Y0044508D01*
X0041948Y0044596D01*
X0041891Y0044682D01*
X0041831Y0044765D01*
X0041767Y0044847D01*
X0041700Y0044925D01*
X0041631Y0045002D01*
X0041559Y0045075D01*
X0041483Y0045146D01*
X0041406Y0045214D01*
X0041325Y0045279D01*
X0041243Y0045341D01*
X0041158Y0045399D01*
X0041071Y0045455D01*
X0040982Y0045507D01*
X0040891Y0045555D01*
X0040798Y0045601D01*
X0040704Y0045642D01*
X0040608Y0045680D01*
X0040510Y0045715D01*
X0040412Y0045745D01*
X0040312Y0045772D01*
X0040212Y0045796D01*
X0040110Y0045815D01*
X0040008Y0045830D01*
X0039906Y0045842D01*
X0039803Y0045850D01*
X0039700Y0045854D01*
X0039596Y0045853D01*
X0039493Y0045849D01*
X0039390Y0045842D01*
X0039288Y0045830D01*
X0039186Y0045814D01*
X0039084Y0045795D01*
X0038984Y0045771D01*
X0038884Y0045744D01*
X0038786Y0045714D01*
X0038689Y0045679D01*
X0038593Y0045641D01*
X0038498Y0045599D01*
X0038406Y0045554D01*
X0038315Y0045505D01*
X0038226Y0045453D01*
X0038139Y0045397D01*
X0038054Y0045338D01*
X0037971Y0045276D01*
X0037891Y0045211D01*
X0037814Y0045143D01*
X0037739Y0045072D01*
X0037666Y0044999D01*
X0037597Y0044922D01*
X0037530Y0044843D01*
X0037467Y0044762D01*
X0037407Y0044678D01*
X0037350Y0044592D01*
X0037296Y0044504D01*
X0037245Y0044414D01*
X0037198Y0044322D01*
X0037155Y0044229D01*
X0037115Y0044134D01*
X0037079Y0044037D01*
X0037046Y0043939D01*
X0037017Y0043840D01*
X0036992Y0043740D01*
X0036971Y0043639D01*
X0036953Y0043537D01*
X0036940Y0043435D01*
X0036930Y0043332D01*
X0036924Y0043229D01*
X0036922Y0043126D01*
X0036924Y0043023D01*
X0036930Y0042920D01*
X0036940Y0042817D01*
X0036953Y0042715D01*
X0036971Y0042613D01*
X0036992Y0042512D01*
X0037017Y0042412D01*
X0037046Y0042313D01*
X0037079Y0042215D01*
X0037115Y0042118D01*
X0037155Y0042023D01*
X0037198Y0041930D01*
X0037245Y0041838D01*
X0037296Y0041748D01*
X0037350Y0041660D01*
X0037407Y0041574D01*
X0037467Y0041490D01*
X0037530Y0041409D01*
X0037597Y0041330D01*
X0037666Y0041253D01*
X0037739Y0041180D01*
X0037814Y0041109D01*
X0037891Y0041041D01*
X0037971Y0040976D01*
X0038054Y0040914D01*
X0038139Y0040855D01*
X0038226Y0040799D01*
X0038315Y0040747D01*
X0038406Y0040698D01*
X0038498Y0040653D01*
X0038593Y0040611D01*
X0038689Y0040573D01*
X0038786Y0040538D01*
X0038884Y0040508D01*
X0038984Y0040481D01*
X0039084Y0040457D01*
X0039186Y0040438D01*
X0039288Y0040422D01*
X0039390Y0040410D01*
X0039493Y0040403D01*
X0039596Y0040399D01*
X0039700Y0040398D01*
X0039803Y0040402D01*
X0039906Y0040410D01*
X0040008Y0040422D01*
X0040110Y0040437D01*
X0040212Y0040456D01*
X0040312Y0040480D01*
X0040412Y0040507D01*
X0040510Y0040537D01*
X0040608Y0040572D01*
X0040704Y0040610D01*
X0040798Y0040651D01*
X0040891Y0040697D01*
X0040982Y0040745D01*
X0041071Y0040797D01*
X0041158Y0040853D01*
X0041243Y0040911D01*
X0041325Y0040973D01*
X0041406Y0041038D01*
X0041483Y0041106D01*
X0041559Y0041177D01*
X0041631Y0041250D01*
X0041700Y0041327D01*
X0041767Y0041405D01*
X0041831Y0041487D01*
X0041891Y0041570D01*
X0041948Y0041656D01*
X0042002Y0041744D01*
X0042053Y0041834D01*
X0042100Y0041926D01*
X0034442Y0039850D02*
X0034369Y0039977D01*
X0034298Y0040106D01*
X0034230Y0040236D01*
X0034166Y0040368D01*
X0034104Y0040502D01*
X0034046Y0040637D01*
X0033991Y0040773D01*
X0033939Y0040911D01*
X0033890Y0041049D01*
X0033845Y0041189D01*
X0033802Y0041330D01*
X0033764Y0041472D01*
X0033728Y0041614D01*
X0041260Y0036952D02*
X0041406Y0036993D01*
X0041551Y0037037D01*
X0041694Y0037084D01*
X0041837Y0037136D01*
X0041978Y0037190D01*
X0042118Y0037249D01*
X0042257Y0037310D01*
X0042394Y0037375D01*
X0042529Y0037444D01*
X0042662Y0037515D01*
X0042794Y0037590D01*
X0042924Y0037669D01*
X0043052Y0037750D01*
X0038278Y0037008D02*
X0038126Y0037049D01*
X0037974Y0037093D01*
X0037823Y0037141D01*
X0037674Y0037192D01*
X0037526Y0037248D01*
X0037380Y0037307D01*
X0037235Y0037370D01*
X0037091Y0037436D01*
X0036950Y0037506D01*
X0036810Y0037579D01*
X0036672Y0037656D01*
X0036536Y0037737D01*
X0036402Y0037821D01*
X0041092Y0049216D02*
X0041242Y0049182D01*
X0041391Y0049145D01*
X0041539Y0049103D01*
X0041686Y0049059D01*
X0041832Y0049010D01*
X0041977Y0048958D01*
X0042120Y0048903D01*
X0042262Y0048844D01*
X0042403Y0048781D01*
X0042542Y0048715D01*
X0042679Y0048646D01*
X0042814Y0048573D01*
X0042948Y0048497D01*
X0043080Y0048418D01*
X0034400Y0046318D02*
X0034326Y0046189D01*
X0034254Y0046058D01*
X0034186Y0045925D01*
X0034121Y0045791D01*
X0034060Y0045656D01*
X0034001Y0045519D01*
X0033946Y0045380D01*
X0033894Y0045241D01*
X0033846Y0045100D01*
X0033801Y0044958D01*
X0033759Y0044815D01*
X0033721Y0044671D01*
X0033686Y0044526D01*
X0038100Y0032226D02*
X0038102Y0032295D01*
X0038108Y0032363D01*
X0038118Y0032431D01*
X0038131Y0032498D01*
X0038149Y0032564D01*
X0038170Y0032629D01*
X0038195Y0032693D01*
X0038223Y0032755D01*
X0038255Y0032816D01*
X0038290Y0032875D01*
X0038329Y0032931D01*
X0038371Y0032986D01*
X0038416Y0033037D01*
X0038464Y0033087D01*
X0038514Y0033133D01*
X0038567Y0033176D01*
X0038623Y0033217D01*
X0038680Y0033254D01*
X0038740Y0033287D01*
X0038802Y0033318D01*
X0038865Y0033344D01*
X0038929Y0033367D01*
X0038995Y0033387D01*
X0039062Y0033402D01*
X0039129Y0033414D01*
X0039197Y0033422D01*
X0039266Y0033426D01*
X0039334Y0033426D01*
X0039403Y0033422D01*
X0039471Y0033414D01*
X0039538Y0033402D01*
X0039605Y0033387D01*
X0039671Y0033367D01*
X0039735Y0033344D01*
X0039798Y0033318D01*
X0039860Y0033287D01*
X0039920Y0033254D01*
X0039977Y0033217D01*
X0040033Y0033176D01*
X0040086Y0033133D01*
X0040136Y0033087D01*
X0040184Y0033037D01*
X0040229Y0032986D01*
X0040271Y0032931D01*
X0040310Y0032875D01*
X0040345Y0032816D01*
X0040377Y0032755D01*
X0040405Y0032693D01*
X0040430Y0032629D01*
X0040451Y0032564D01*
X0040469Y0032498D01*
X0040482Y0032431D01*
X0040492Y0032363D01*
X0040498Y0032295D01*
X0040500Y0032226D01*
X0040498Y0032295D01*
X0040492Y0032363D01*
X0040482Y0032431D01*
X0040469Y0032498D01*
X0040451Y0032564D01*
X0040430Y0032629D01*
X0040405Y0032693D01*
X0040377Y0032755D01*
X0040345Y0032816D01*
X0040310Y0032875D01*
X0040271Y0032931D01*
X0040229Y0032986D01*
X0040184Y0033037D01*
X0040136Y0033087D01*
X0040086Y0033133D01*
X0040033Y0033176D01*
X0039977Y0033217D01*
X0039920Y0033254D01*
X0039860Y0033287D01*
X0039798Y0033318D01*
X0039735Y0033344D01*
X0039671Y0033367D01*
X0039605Y0033387D01*
X0039538Y0033402D01*
X0039471Y0033414D01*
X0039403Y0033422D01*
X0039334Y0033426D01*
X0039266Y0033426D01*
X0039197Y0033422D01*
X0039129Y0033414D01*
X0039062Y0033402D01*
X0038995Y0033387D01*
X0038929Y0033367D01*
X0038865Y0033344D01*
X0038802Y0033318D01*
X0038740Y0033287D01*
X0038680Y0033254D01*
X0038623Y0033217D01*
X0038567Y0033176D01*
X0038514Y0033133D01*
X0038464Y0033087D01*
X0038416Y0033037D01*
X0038371Y0032986D01*
X0038329Y0032931D01*
X0038290Y0032875D01*
X0038255Y0032816D01*
X0038223Y0032755D01*
X0038195Y0032693D01*
X0038170Y0032629D01*
X0038149Y0032564D01*
X0038131Y0032498D01*
X0038118Y0032431D01*
X0038108Y0032363D01*
X0038102Y0032295D01*
X0038100Y0032226D01*
X0034871Y0030728D02*
X0032509Y0030728D01*
X0032509Y0026004D02*
X0034871Y0026004D01*
X0032162Y0064545D02*
X0032162Y0066907D01*
X0027438Y0066907D02*
X0027438Y0064545D01*
X0073995Y0022852D02*
X0076358Y0022852D01*
X0076358Y0018127D02*
X0073995Y0018127D01*
D15*
X0071810Y0067258D03*
D16*
X0080910Y0088726D02*
X0080912Y0088895D01*
X0080918Y0089064D01*
X0080929Y0089233D01*
X0080943Y0089401D01*
X0080962Y0089569D01*
X0080985Y0089737D01*
X0081011Y0089904D01*
X0081042Y0090070D01*
X0081077Y0090236D01*
X0081116Y0090400D01*
X0081160Y0090564D01*
X0081207Y0090726D01*
X0081258Y0090887D01*
X0081313Y0091047D01*
X0081372Y0091206D01*
X0081434Y0091363D01*
X0081501Y0091518D01*
X0081572Y0091672D01*
X0081646Y0091824D01*
X0081724Y0091974D01*
X0081805Y0092122D01*
X0081890Y0092268D01*
X0081979Y0092412D01*
X0082071Y0092554D01*
X0082167Y0092693D01*
X0082266Y0092830D01*
X0082368Y0092965D01*
X0082474Y0093097D01*
X0082583Y0093226D01*
X0082695Y0093353D01*
X0082810Y0093477D01*
X0082928Y0093598D01*
X0083049Y0093716D01*
X0083173Y0093831D01*
X0083300Y0093943D01*
X0083429Y0094052D01*
X0083561Y0094158D01*
X0083696Y0094260D01*
X0083833Y0094359D01*
X0083972Y0094455D01*
X0084114Y0094547D01*
X0084258Y0094636D01*
X0084404Y0094721D01*
X0084552Y0094802D01*
X0084702Y0094880D01*
X0084854Y0094954D01*
X0085008Y0095025D01*
X0085163Y0095092D01*
X0085320Y0095154D01*
X0085479Y0095213D01*
X0085639Y0095268D01*
X0085800Y0095319D01*
X0085962Y0095366D01*
X0086126Y0095410D01*
X0086290Y0095449D01*
X0086456Y0095484D01*
X0086622Y0095515D01*
X0086789Y0095541D01*
X0086957Y0095564D01*
X0087125Y0095583D01*
X0087293Y0095597D01*
X0087462Y0095608D01*
X0087631Y0095614D01*
X0087800Y0095616D01*
X0087969Y0095614D01*
X0088138Y0095608D01*
X0088307Y0095597D01*
X0088475Y0095583D01*
X0088643Y0095564D01*
X0088811Y0095541D01*
X0088978Y0095515D01*
X0089144Y0095484D01*
X0089310Y0095449D01*
X0089474Y0095410D01*
X0089638Y0095366D01*
X0089800Y0095319D01*
X0089961Y0095268D01*
X0090121Y0095213D01*
X0090280Y0095154D01*
X0090437Y0095092D01*
X0090592Y0095025D01*
X0090746Y0094954D01*
X0090898Y0094880D01*
X0091048Y0094802D01*
X0091196Y0094721D01*
X0091342Y0094636D01*
X0091486Y0094547D01*
X0091628Y0094455D01*
X0091767Y0094359D01*
X0091904Y0094260D01*
X0092039Y0094158D01*
X0092171Y0094052D01*
X0092300Y0093943D01*
X0092427Y0093831D01*
X0092551Y0093716D01*
X0092672Y0093598D01*
X0092790Y0093477D01*
X0092905Y0093353D01*
X0093017Y0093226D01*
X0093126Y0093097D01*
X0093232Y0092965D01*
X0093334Y0092830D01*
X0093433Y0092693D01*
X0093529Y0092554D01*
X0093621Y0092412D01*
X0093710Y0092268D01*
X0093795Y0092122D01*
X0093876Y0091974D01*
X0093954Y0091824D01*
X0094028Y0091672D01*
X0094099Y0091518D01*
X0094166Y0091363D01*
X0094228Y0091206D01*
X0094287Y0091047D01*
X0094342Y0090887D01*
X0094393Y0090726D01*
X0094440Y0090564D01*
X0094484Y0090400D01*
X0094523Y0090236D01*
X0094558Y0090070D01*
X0094589Y0089904D01*
X0094615Y0089737D01*
X0094638Y0089569D01*
X0094657Y0089401D01*
X0094671Y0089233D01*
X0094682Y0089064D01*
X0094688Y0088895D01*
X0094690Y0088726D01*
X0094688Y0088557D01*
X0094682Y0088388D01*
X0094671Y0088219D01*
X0094657Y0088051D01*
X0094638Y0087883D01*
X0094615Y0087715D01*
X0094589Y0087548D01*
X0094558Y0087382D01*
X0094523Y0087216D01*
X0094484Y0087052D01*
X0094440Y0086888D01*
X0094393Y0086726D01*
X0094342Y0086565D01*
X0094287Y0086405D01*
X0094228Y0086246D01*
X0094166Y0086089D01*
X0094099Y0085934D01*
X0094028Y0085780D01*
X0093954Y0085628D01*
X0093876Y0085478D01*
X0093795Y0085330D01*
X0093710Y0085184D01*
X0093621Y0085040D01*
X0093529Y0084898D01*
X0093433Y0084759D01*
X0093334Y0084622D01*
X0093232Y0084487D01*
X0093126Y0084355D01*
X0093017Y0084226D01*
X0092905Y0084099D01*
X0092790Y0083975D01*
X0092672Y0083854D01*
X0092551Y0083736D01*
X0092427Y0083621D01*
X0092300Y0083509D01*
X0092171Y0083400D01*
X0092039Y0083294D01*
X0091904Y0083192D01*
X0091767Y0083093D01*
X0091628Y0082997D01*
X0091486Y0082905D01*
X0091342Y0082816D01*
X0091196Y0082731D01*
X0091048Y0082650D01*
X0090898Y0082572D01*
X0090746Y0082498D01*
X0090592Y0082427D01*
X0090437Y0082360D01*
X0090280Y0082298D01*
X0090121Y0082239D01*
X0089961Y0082184D01*
X0089800Y0082133D01*
X0089638Y0082086D01*
X0089474Y0082042D01*
X0089310Y0082003D01*
X0089144Y0081968D01*
X0088978Y0081937D01*
X0088811Y0081911D01*
X0088643Y0081888D01*
X0088475Y0081869D01*
X0088307Y0081855D01*
X0088138Y0081844D01*
X0087969Y0081838D01*
X0087800Y0081836D01*
X0087631Y0081838D01*
X0087462Y0081844D01*
X0087293Y0081855D01*
X0087125Y0081869D01*
X0086957Y0081888D01*
X0086789Y0081911D01*
X0086622Y0081937D01*
X0086456Y0081968D01*
X0086290Y0082003D01*
X0086126Y0082042D01*
X0085962Y0082086D01*
X0085800Y0082133D01*
X0085639Y0082184D01*
X0085479Y0082239D01*
X0085320Y0082298D01*
X0085163Y0082360D01*
X0085008Y0082427D01*
X0084854Y0082498D01*
X0084702Y0082572D01*
X0084552Y0082650D01*
X0084404Y0082731D01*
X0084258Y0082816D01*
X0084114Y0082905D01*
X0083972Y0082997D01*
X0083833Y0083093D01*
X0083696Y0083192D01*
X0083561Y0083294D01*
X0083429Y0083400D01*
X0083300Y0083509D01*
X0083173Y0083621D01*
X0083049Y0083736D01*
X0082928Y0083854D01*
X0082810Y0083975D01*
X0082695Y0084099D01*
X0082583Y0084226D01*
X0082474Y0084355D01*
X0082368Y0084487D01*
X0082266Y0084622D01*
X0082167Y0084759D01*
X0082071Y0084898D01*
X0081979Y0085040D01*
X0081890Y0085184D01*
X0081805Y0085330D01*
X0081724Y0085478D01*
X0081646Y0085628D01*
X0081572Y0085780D01*
X0081501Y0085934D01*
X0081434Y0086089D01*
X0081372Y0086246D01*
X0081313Y0086405D01*
X0081258Y0086565D01*
X0081207Y0086726D01*
X0081160Y0086888D01*
X0081116Y0087052D01*
X0081077Y0087216D01*
X0081042Y0087382D01*
X0081011Y0087548D01*
X0080985Y0087715D01*
X0080962Y0087883D01*
X0080943Y0088051D01*
X0080929Y0088219D01*
X0080918Y0088388D01*
X0080912Y0088557D01*
X0080910Y0088726D01*
X0010910Y0088726D02*
X0010912Y0088895D01*
X0010918Y0089064D01*
X0010929Y0089233D01*
X0010943Y0089401D01*
X0010962Y0089569D01*
X0010985Y0089737D01*
X0011011Y0089904D01*
X0011042Y0090070D01*
X0011077Y0090236D01*
X0011116Y0090400D01*
X0011160Y0090564D01*
X0011207Y0090726D01*
X0011258Y0090887D01*
X0011313Y0091047D01*
X0011372Y0091206D01*
X0011434Y0091363D01*
X0011501Y0091518D01*
X0011572Y0091672D01*
X0011646Y0091824D01*
X0011724Y0091974D01*
X0011805Y0092122D01*
X0011890Y0092268D01*
X0011979Y0092412D01*
X0012071Y0092554D01*
X0012167Y0092693D01*
X0012266Y0092830D01*
X0012368Y0092965D01*
X0012474Y0093097D01*
X0012583Y0093226D01*
X0012695Y0093353D01*
X0012810Y0093477D01*
X0012928Y0093598D01*
X0013049Y0093716D01*
X0013173Y0093831D01*
X0013300Y0093943D01*
X0013429Y0094052D01*
X0013561Y0094158D01*
X0013696Y0094260D01*
X0013833Y0094359D01*
X0013972Y0094455D01*
X0014114Y0094547D01*
X0014258Y0094636D01*
X0014404Y0094721D01*
X0014552Y0094802D01*
X0014702Y0094880D01*
X0014854Y0094954D01*
X0015008Y0095025D01*
X0015163Y0095092D01*
X0015320Y0095154D01*
X0015479Y0095213D01*
X0015639Y0095268D01*
X0015800Y0095319D01*
X0015962Y0095366D01*
X0016126Y0095410D01*
X0016290Y0095449D01*
X0016456Y0095484D01*
X0016622Y0095515D01*
X0016789Y0095541D01*
X0016957Y0095564D01*
X0017125Y0095583D01*
X0017293Y0095597D01*
X0017462Y0095608D01*
X0017631Y0095614D01*
X0017800Y0095616D01*
X0017969Y0095614D01*
X0018138Y0095608D01*
X0018307Y0095597D01*
X0018475Y0095583D01*
X0018643Y0095564D01*
X0018811Y0095541D01*
X0018978Y0095515D01*
X0019144Y0095484D01*
X0019310Y0095449D01*
X0019474Y0095410D01*
X0019638Y0095366D01*
X0019800Y0095319D01*
X0019961Y0095268D01*
X0020121Y0095213D01*
X0020280Y0095154D01*
X0020437Y0095092D01*
X0020592Y0095025D01*
X0020746Y0094954D01*
X0020898Y0094880D01*
X0021048Y0094802D01*
X0021196Y0094721D01*
X0021342Y0094636D01*
X0021486Y0094547D01*
X0021628Y0094455D01*
X0021767Y0094359D01*
X0021904Y0094260D01*
X0022039Y0094158D01*
X0022171Y0094052D01*
X0022300Y0093943D01*
X0022427Y0093831D01*
X0022551Y0093716D01*
X0022672Y0093598D01*
X0022790Y0093477D01*
X0022905Y0093353D01*
X0023017Y0093226D01*
X0023126Y0093097D01*
X0023232Y0092965D01*
X0023334Y0092830D01*
X0023433Y0092693D01*
X0023529Y0092554D01*
X0023621Y0092412D01*
X0023710Y0092268D01*
X0023795Y0092122D01*
X0023876Y0091974D01*
X0023954Y0091824D01*
X0024028Y0091672D01*
X0024099Y0091518D01*
X0024166Y0091363D01*
X0024228Y0091206D01*
X0024287Y0091047D01*
X0024342Y0090887D01*
X0024393Y0090726D01*
X0024440Y0090564D01*
X0024484Y0090400D01*
X0024523Y0090236D01*
X0024558Y0090070D01*
X0024589Y0089904D01*
X0024615Y0089737D01*
X0024638Y0089569D01*
X0024657Y0089401D01*
X0024671Y0089233D01*
X0024682Y0089064D01*
X0024688Y0088895D01*
X0024690Y0088726D01*
X0024688Y0088557D01*
X0024682Y0088388D01*
X0024671Y0088219D01*
X0024657Y0088051D01*
X0024638Y0087883D01*
X0024615Y0087715D01*
X0024589Y0087548D01*
X0024558Y0087382D01*
X0024523Y0087216D01*
X0024484Y0087052D01*
X0024440Y0086888D01*
X0024393Y0086726D01*
X0024342Y0086565D01*
X0024287Y0086405D01*
X0024228Y0086246D01*
X0024166Y0086089D01*
X0024099Y0085934D01*
X0024028Y0085780D01*
X0023954Y0085628D01*
X0023876Y0085478D01*
X0023795Y0085330D01*
X0023710Y0085184D01*
X0023621Y0085040D01*
X0023529Y0084898D01*
X0023433Y0084759D01*
X0023334Y0084622D01*
X0023232Y0084487D01*
X0023126Y0084355D01*
X0023017Y0084226D01*
X0022905Y0084099D01*
X0022790Y0083975D01*
X0022672Y0083854D01*
X0022551Y0083736D01*
X0022427Y0083621D01*
X0022300Y0083509D01*
X0022171Y0083400D01*
X0022039Y0083294D01*
X0021904Y0083192D01*
X0021767Y0083093D01*
X0021628Y0082997D01*
X0021486Y0082905D01*
X0021342Y0082816D01*
X0021196Y0082731D01*
X0021048Y0082650D01*
X0020898Y0082572D01*
X0020746Y0082498D01*
X0020592Y0082427D01*
X0020437Y0082360D01*
X0020280Y0082298D01*
X0020121Y0082239D01*
X0019961Y0082184D01*
X0019800Y0082133D01*
X0019638Y0082086D01*
X0019474Y0082042D01*
X0019310Y0082003D01*
X0019144Y0081968D01*
X0018978Y0081937D01*
X0018811Y0081911D01*
X0018643Y0081888D01*
X0018475Y0081869D01*
X0018307Y0081855D01*
X0018138Y0081844D01*
X0017969Y0081838D01*
X0017800Y0081836D01*
X0017631Y0081838D01*
X0017462Y0081844D01*
X0017293Y0081855D01*
X0017125Y0081869D01*
X0016957Y0081888D01*
X0016789Y0081911D01*
X0016622Y0081937D01*
X0016456Y0081968D01*
X0016290Y0082003D01*
X0016126Y0082042D01*
X0015962Y0082086D01*
X0015800Y0082133D01*
X0015639Y0082184D01*
X0015479Y0082239D01*
X0015320Y0082298D01*
X0015163Y0082360D01*
X0015008Y0082427D01*
X0014854Y0082498D01*
X0014702Y0082572D01*
X0014552Y0082650D01*
X0014404Y0082731D01*
X0014258Y0082816D01*
X0014114Y0082905D01*
X0013972Y0082997D01*
X0013833Y0083093D01*
X0013696Y0083192D01*
X0013561Y0083294D01*
X0013429Y0083400D01*
X0013300Y0083509D01*
X0013173Y0083621D01*
X0013049Y0083736D01*
X0012928Y0083854D01*
X0012810Y0083975D01*
X0012695Y0084099D01*
X0012583Y0084226D01*
X0012474Y0084355D01*
X0012368Y0084487D01*
X0012266Y0084622D01*
X0012167Y0084759D01*
X0012071Y0084898D01*
X0011979Y0085040D01*
X0011890Y0085184D01*
X0011805Y0085330D01*
X0011724Y0085478D01*
X0011646Y0085628D01*
X0011572Y0085780D01*
X0011501Y0085934D01*
X0011434Y0086089D01*
X0011372Y0086246D01*
X0011313Y0086405D01*
X0011258Y0086565D01*
X0011207Y0086726D01*
X0011160Y0086888D01*
X0011116Y0087052D01*
X0011077Y0087216D01*
X0011042Y0087382D01*
X0011011Y0087548D01*
X0010985Y0087715D01*
X0010962Y0087883D01*
X0010943Y0088051D01*
X0010929Y0088219D01*
X0010918Y0088388D01*
X0010912Y0088557D01*
X0010910Y0088726D01*
D17*
X0024300Y0058329D02*
X0024300Y0055326D01*
X0024901Y0054726D01*
X0026102Y0054726D01*
X0026702Y0055326D01*
X0026702Y0058329D01*
X0027983Y0057128D02*
X0029184Y0058329D01*
X0029184Y0054726D01*
X0027983Y0054726D02*
X0030385Y0054726D01*
D18*
X0088450Y0038326D03*
D19*
X0066950Y0038326D03*
X0066950Y0029226D03*
X0066950Y0047426D03*
M02*
