G75*
%MOIN*%
%OFA0B0*%
%FSLAX25Y25*%
%IPPOS*%
%LPD*%
%AMOC8*
5,1,8,0,0,1.08239X$1,22.5*
%
%ADD10C,0.00000*%
%ADD11C,0.00300*%
%ADD12C,0.00500*%
%ADD13C,0.01000*%
%ADD14C,0.00600*%
%ADD15R,0.03937X0.00787*%
%ADD16C,0.00800*%
%ADD17R,0.00787X0.03937*%
%ADD18C,0.00400*%
%ADD19C,0.00700*%
D10*
X0007800Y0007420D02*
X0007800Y0097421D01*
X0097681Y0097421D01*
X0097681Y0007420D01*
X0007800Y0007420D01*
X0035256Y0078602D02*
X0035256Y0097106D01*
X0041555Y0081555D02*
X0041557Y0081624D01*
X0041563Y0081692D01*
X0041573Y0081760D01*
X0041587Y0081827D01*
X0041605Y0081894D01*
X0041626Y0081959D01*
X0041652Y0082023D01*
X0041681Y0082085D01*
X0041713Y0082145D01*
X0041749Y0082204D01*
X0041789Y0082260D01*
X0041831Y0082314D01*
X0041877Y0082365D01*
X0041926Y0082414D01*
X0041977Y0082460D01*
X0042031Y0082502D01*
X0042087Y0082542D01*
X0042145Y0082578D01*
X0042206Y0082610D01*
X0042268Y0082639D01*
X0042332Y0082665D01*
X0042397Y0082686D01*
X0042464Y0082704D01*
X0042531Y0082718D01*
X0042599Y0082728D01*
X0042667Y0082734D01*
X0042736Y0082736D01*
X0042805Y0082734D01*
X0042873Y0082728D01*
X0042941Y0082718D01*
X0043008Y0082704D01*
X0043075Y0082686D01*
X0043140Y0082665D01*
X0043204Y0082639D01*
X0043266Y0082610D01*
X0043326Y0082578D01*
X0043385Y0082542D01*
X0043441Y0082502D01*
X0043495Y0082460D01*
X0043546Y0082414D01*
X0043595Y0082365D01*
X0043641Y0082314D01*
X0043683Y0082260D01*
X0043723Y0082204D01*
X0043759Y0082145D01*
X0043791Y0082085D01*
X0043820Y0082023D01*
X0043846Y0081959D01*
X0043867Y0081894D01*
X0043885Y0081827D01*
X0043899Y0081760D01*
X0043909Y0081692D01*
X0043915Y0081624D01*
X0043917Y0081555D01*
X0043915Y0081486D01*
X0043909Y0081418D01*
X0043899Y0081350D01*
X0043885Y0081283D01*
X0043867Y0081216D01*
X0043846Y0081151D01*
X0043820Y0081087D01*
X0043791Y0081025D01*
X0043759Y0080964D01*
X0043723Y0080906D01*
X0043683Y0080850D01*
X0043641Y0080796D01*
X0043595Y0080745D01*
X0043546Y0080696D01*
X0043495Y0080650D01*
X0043441Y0080608D01*
X0043385Y0080568D01*
X0043327Y0080532D01*
X0043266Y0080500D01*
X0043204Y0080471D01*
X0043140Y0080445D01*
X0043075Y0080424D01*
X0043008Y0080406D01*
X0042941Y0080392D01*
X0042873Y0080382D01*
X0042805Y0080376D01*
X0042736Y0080374D01*
X0042667Y0080376D01*
X0042599Y0080382D01*
X0042531Y0080392D01*
X0042464Y0080406D01*
X0042397Y0080424D01*
X0042332Y0080445D01*
X0042268Y0080471D01*
X0042206Y0080500D01*
X0042145Y0080532D01*
X0042087Y0080568D01*
X0042031Y0080608D01*
X0041977Y0080650D01*
X0041926Y0080696D01*
X0041877Y0080745D01*
X0041831Y0080796D01*
X0041789Y0080850D01*
X0041749Y0080906D01*
X0041713Y0080964D01*
X0041681Y0081025D01*
X0041652Y0081087D01*
X0041626Y0081151D01*
X0041605Y0081216D01*
X0041587Y0081283D01*
X0041573Y0081350D01*
X0041563Y0081418D01*
X0041557Y0081486D01*
X0041555Y0081555D01*
X0035256Y0078602D02*
X0065964Y0078602D01*
X0065964Y0097106D01*
X0057303Y0081555D02*
X0057305Y0081624D01*
X0057311Y0081692D01*
X0057321Y0081760D01*
X0057335Y0081827D01*
X0057353Y0081894D01*
X0057374Y0081959D01*
X0057400Y0082023D01*
X0057429Y0082085D01*
X0057461Y0082145D01*
X0057497Y0082204D01*
X0057537Y0082260D01*
X0057579Y0082314D01*
X0057625Y0082365D01*
X0057674Y0082414D01*
X0057725Y0082460D01*
X0057779Y0082502D01*
X0057835Y0082542D01*
X0057893Y0082578D01*
X0057954Y0082610D01*
X0058016Y0082639D01*
X0058080Y0082665D01*
X0058145Y0082686D01*
X0058212Y0082704D01*
X0058279Y0082718D01*
X0058347Y0082728D01*
X0058415Y0082734D01*
X0058484Y0082736D01*
X0058553Y0082734D01*
X0058621Y0082728D01*
X0058689Y0082718D01*
X0058756Y0082704D01*
X0058823Y0082686D01*
X0058888Y0082665D01*
X0058952Y0082639D01*
X0059014Y0082610D01*
X0059074Y0082578D01*
X0059133Y0082542D01*
X0059189Y0082502D01*
X0059243Y0082460D01*
X0059294Y0082414D01*
X0059343Y0082365D01*
X0059389Y0082314D01*
X0059431Y0082260D01*
X0059471Y0082204D01*
X0059507Y0082145D01*
X0059539Y0082085D01*
X0059568Y0082023D01*
X0059594Y0081959D01*
X0059615Y0081894D01*
X0059633Y0081827D01*
X0059647Y0081760D01*
X0059657Y0081692D01*
X0059663Y0081624D01*
X0059665Y0081555D01*
X0059663Y0081486D01*
X0059657Y0081418D01*
X0059647Y0081350D01*
X0059633Y0081283D01*
X0059615Y0081216D01*
X0059594Y0081151D01*
X0059568Y0081087D01*
X0059539Y0081025D01*
X0059507Y0080964D01*
X0059471Y0080906D01*
X0059431Y0080850D01*
X0059389Y0080796D01*
X0059343Y0080745D01*
X0059294Y0080696D01*
X0059243Y0080650D01*
X0059189Y0080608D01*
X0059133Y0080568D01*
X0059075Y0080532D01*
X0059014Y0080500D01*
X0058952Y0080471D01*
X0058888Y0080445D01*
X0058823Y0080424D01*
X0058756Y0080406D01*
X0058689Y0080392D01*
X0058621Y0080382D01*
X0058553Y0080376D01*
X0058484Y0080374D01*
X0058415Y0080376D01*
X0058347Y0080382D01*
X0058279Y0080392D01*
X0058212Y0080406D01*
X0058145Y0080424D01*
X0058080Y0080445D01*
X0058016Y0080471D01*
X0057954Y0080500D01*
X0057893Y0080532D01*
X0057835Y0080568D01*
X0057779Y0080608D01*
X0057725Y0080650D01*
X0057674Y0080696D01*
X0057625Y0080745D01*
X0057579Y0080796D01*
X0057537Y0080850D01*
X0057497Y0080906D01*
X0057461Y0080964D01*
X0057429Y0081025D01*
X0057400Y0081087D01*
X0057374Y0081151D01*
X0057353Y0081216D01*
X0057335Y0081283D01*
X0057321Y0081350D01*
X0057311Y0081418D01*
X0057305Y0081486D01*
X0057303Y0081555D01*
D11*
X0059400Y0072672D02*
X0060851Y0072672D01*
X0061335Y0072189D01*
X0061335Y0071221D01*
X0060851Y0070737D01*
X0059400Y0070737D01*
X0059400Y0069770D02*
X0059400Y0072672D01*
X0060367Y0070737D02*
X0061335Y0069770D01*
X0062347Y0069770D02*
X0064281Y0069770D01*
X0063314Y0069770D02*
X0063314Y0072672D01*
X0062347Y0071705D01*
X0056081Y0071505D02*
X0055598Y0071021D01*
X0056081Y0070537D01*
X0056081Y0070054D01*
X0055598Y0069570D01*
X0054630Y0069570D01*
X0054147Y0070054D01*
X0053135Y0069570D02*
X0052167Y0070537D01*
X0052651Y0070537D02*
X0053135Y0071021D01*
X0053135Y0071989D01*
X0052651Y0072472D01*
X0051200Y0072472D01*
X0051200Y0069570D01*
X0051200Y0070537D02*
X0052651Y0070537D01*
X0054147Y0071989D02*
X0054630Y0072472D01*
X0055598Y0072472D01*
X0056081Y0071989D01*
X0056081Y0071505D01*
X0055598Y0071021D02*
X0055114Y0071021D01*
X0047838Y0070670D02*
X0045903Y0070670D01*
X0047838Y0072605D01*
X0047838Y0073089D01*
X0047355Y0073572D01*
X0046387Y0073572D01*
X0045903Y0073089D01*
X0044892Y0073089D02*
X0044408Y0073572D01*
X0042957Y0073572D01*
X0042957Y0070670D01*
X0044408Y0070670D01*
X0044892Y0071154D01*
X0044892Y0073089D01*
X0039638Y0070870D02*
X0037703Y0070870D01*
X0038671Y0070870D02*
X0038671Y0073772D01*
X0037703Y0072805D01*
X0036692Y0073289D02*
X0036692Y0071354D01*
X0036208Y0070870D01*
X0034757Y0070870D01*
X0034757Y0073772D01*
X0036208Y0073772D01*
X0036692Y0073289D01*
X0032731Y0071671D02*
X0030797Y0071671D01*
X0032248Y0073122D01*
X0032248Y0070220D01*
X0029785Y0070220D02*
X0028817Y0071187D01*
X0029301Y0071187D02*
X0027850Y0071187D01*
X0027850Y0070220D02*
X0027850Y0073122D01*
X0029301Y0073122D01*
X0029785Y0072639D01*
X0029785Y0071671D01*
X0029301Y0071187D01*
X0020498Y0061347D02*
X0020724Y0060504D01*
X0020107Y0059435D01*
X0019264Y0059209D01*
X0018360Y0062581D01*
X0020498Y0061347D01*
X0018360Y0062581D02*
X0017517Y0062355D01*
X0016900Y0061286D01*
X0017126Y0060443D01*
X0019264Y0059209D01*
X0018657Y0058157D02*
X0018122Y0058466D01*
X0017279Y0058240D01*
X0016353Y0056636D01*
X0017957Y0055711D02*
X0014750Y0057562D01*
X0015675Y0059166D01*
X0016519Y0059392D01*
X0017053Y0059083D01*
X0017279Y0058240D01*
X0018657Y0058157D02*
X0018882Y0057314D01*
X0017957Y0055711D01*
X0017137Y0052161D02*
X0020344Y0050309D01*
X0019727Y0049240D02*
X0020961Y0051378D01*
X0017589Y0050475D02*
X0017137Y0052161D01*
X0016447Y0049732D02*
X0015604Y0049506D01*
X0014678Y0047902D01*
X0017885Y0046051D01*
X0018811Y0047654D01*
X0018585Y0048497D01*
X0018051Y0048806D01*
X0017208Y0048580D01*
X0016282Y0046976D01*
X0017208Y0048580D02*
X0016982Y0049423D01*
X0016447Y0049732D01*
X0018345Y0042704D02*
X0017502Y0042478D01*
X0016884Y0041409D01*
X0017110Y0040566D01*
X0016503Y0039514D02*
X0015660Y0039288D01*
X0014734Y0037685D01*
X0017941Y0035833D01*
X0018867Y0037437D01*
X0018641Y0038280D01*
X0018107Y0038588D01*
X0017264Y0038362D01*
X0016338Y0036759D01*
X0017264Y0038362D02*
X0017038Y0039206D01*
X0016503Y0039514D01*
X0019783Y0039023D02*
X0018879Y0042395D01*
X0018345Y0042704D01*
X0021017Y0041161D02*
X0019783Y0039023D01*
X0018688Y0033249D02*
X0017845Y0033023D01*
X0017228Y0031954D01*
X0017453Y0031111D01*
X0016846Y0030059D02*
X0017381Y0029751D01*
X0017607Y0028907D01*
X0016681Y0027304D01*
X0018284Y0026378D02*
X0019210Y0027982D01*
X0018984Y0028825D01*
X0018450Y0029133D01*
X0017607Y0028907D01*
X0016846Y0030059D02*
X0016003Y0029833D01*
X0015077Y0028230D01*
X0018284Y0026378D01*
X0018269Y0024157D02*
X0018947Y0021628D01*
X0020181Y0023766D01*
X0018269Y0024157D02*
X0021476Y0022305D01*
X0019409Y0019959D02*
X0019635Y0019116D01*
X0018709Y0017512D01*
X0015502Y0019364D01*
X0016428Y0020967D01*
X0017271Y0021193D01*
X0017805Y0020885D01*
X0018031Y0020042D01*
X0017105Y0018438D01*
X0018031Y0020042D02*
X0018874Y0020267D01*
X0019409Y0019959D01*
X0019319Y0015788D02*
X0018085Y0013650D01*
X0019689Y0012725D01*
X0019771Y0014102D01*
X0020080Y0014637D01*
X0020923Y0014863D01*
X0021992Y0014245D01*
X0022218Y0013402D01*
X0021601Y0012333D01*
X0020758Y0012107D01*
X0020150Y0011056D02*
X0020376Y0010213D01*
X0019450Y0008609D01*
X0016243Y0010461D01*
X0017169Y0012064D01*
X0018012Y0012290D01*
X0018547Y0011982D01*
X0018773Y0011138D01*
X0017847Y0009535D01*
X0018773Y0011138D02*
X0019616Y0011364D01*
X0020150Y0011056D01*
X0024751Y0024580D02*
X0026686Y0024580D01*
X0027170Y0025064D01*
X0027170Y0026031D01*
X0026686Y0026515D01*
X0027170Y0027527D02*
X0025235Y0029461D01*
X0024751Y0029461D01*
X0024268Y0028978D01*
X0024268Y0028010D01*
X0024751Y0027527D01*
X0024751Y0026515D02*
X0024268Y0026031D01*
X0024268Y0025064D01*
X0024751Y0024580D01*
X0027170Y0027527D02*
X0027170Y0029461D01*
X0021052Y0031171D02*
X0020435Y0030102D01*
X0019591Y0029876D01*
X0019140Y0031563D02*
X0019448Y0032097D01*
X0020291Y0032323D01*
X0020826Y0032014D01*
X0021052Y0031171D01*
X0019448Y0032097D02*
X0019222Y0032940D01*
X0018688Y0033249D01*
X0045414Y0033318D02*
X0048550Y0033318D01*
X0048550Y0034886D02*
X0045414Y0031750D01*
X0046982Y0031750D02*
X0046982Y0034886D01*
X0045414Y0034886D02*
X0048550Y0031750D01*
X0057467Y0038854D02*
X0057951Y0038370D01*
X0058918Y0038370D01*
X0059402Y0038854D01*
X0059402Y0041272D01*
X0060413Y0040305D02*
X0061381Y0041272D01*
X0061381Y0038370D01*
X0062348Y0038370D02*
X0060413Y0038370D01*
X0057467Y0038854D02*
X0057467Y0041272D01*
X0063057Y0049056D02*
X0064025Y0049056D01*
X0064509Y0049540D01*
X0065520Y0049056D02*
X0067455Y0049056D01*
X0066488Y0049056D02*
X0066488Y0051959D01*
X0065520Y0050991D01*
X0064509Y0051475D02*
X0064025Y0051959D01*
X0063057Y0051959D01*
X0062574Y0051475D01*
X0062574Y0049540D01*
X0063057Y0049056D01*
X0079130Y0066720D02*
X0079130Y0069622D01*
X0080581Y0069622D01*
X0081065Y0069139D01*
X0081065Y0068171D01*
X0080581Y0067687D01*
X0079130Y0067687D01*
X0080097Y0067687D02*
X0081065Y0066720D01*
X0082077Y0066720D02*
X0084012Y0068655D01*
X0084012Y0069139D01*
X0083528Y0069622D01*
X0082560Y0069622D01*
X0082077Y0069139D01*
X0082077Y0066720D02*
X0084012Y0066720D01*
X0084418Y0066308D02*
X0084418Y0064039D01*
X0084418Y0065173D02*
X0087821Y0065173D01*
X0087821Y0062901D02*
X0085553Y0062901D01*
X0084418Y0061766D01*
X0085553Y0060632D01*
X0087821Y0060632D01*
X0087254Y0059494D02*
X0086687Y0059494D01*
X0086120Y0058927D01*
X0086120Y0057225D01*
X0087821Y0057225D02*
X0084418Y0057225D01*
X0084418Y0058927D01*
X0084986Y0059494D01*
X0085553Y0059494D01*
X0086120Y0058927D01*
X0087254Y0059494D02*
X0087821Y0058927D01*
X0087821Y0057225D01*
X0086120Y0060632D02*
X0086120Y0062901D01*
X0090856Y0076858D02*
X0092307Y0076858D01*
X0092791Y0077342D01*
X0092791Y0079277D01*
X0092307Y0079761D01*
X0090856Y0079761D01*
X0090856Y0076858D01*
X0093802Y0078310D02*
X0095737Y0078310D01*
X0095253Y0079761D02*
X0093802Y0078310D01*
X0095253Y0076858D02*
X0095253Y0079761D01*
X0087843Y0028151D02*
X0086970Y0028151D01*
X0086097Y0027278D01*
X0086097Y0026405D01*
X0087843Y0024659D01*
X0088716Y0024659D01*
X0089589Y0025532D01*
X0089589Y0026405D01*
X0086984Y0023801D02*
X0086984Y0022928D01*
X0086112Y0022055D01*
X0085239Y0022055D01*
X0083493Y0023801D01*
X0083493Y0024674D01*
X0084366Y0025546D01*
X0085239Y0025546D01*
X0082198Y0023378D02*
X0083944Y0021633D01*
X0083944Y0019887D01*
X0082198Y0019887D01*
X0080452Y0021633D01*
D12*
X0075800Y0020920D02*
X0075800Y0022420D01*
X0075800Y0029420D02*
X0075800Y0030920D01*
X0063711Y0020426D02*
X0063711Y0018851D01*
X0063711Y0020426D02*
X0063709Y0020488D01*
X0063703Y0020549D01*
X0063694Y0020610D01*
X0063680Y0020671D01*
X0063663Y0020730D01*
X0063642Y0020788D01*
X0063617Y0020845D01*
X0063589Y0020900D01*
X0063558Y0020953D01*
X0063523Y0021004D01*
X0063485Y0021053D01*
X0063444Y0021100D01*
X0063401Y0021143D01*
X0063354Y0021184D01*
X0063305Y0021222D01*
X0063254Y0021257D01*
X0063201Y0021288D01*
X0063146Y0021316D01*
X0063089Y0021341D01*
X0063031Y0021362D01*
X0062972Y0021379D01*
X0062911Y0021393D01*
X0062850Y0021402D01*
X0062789Y0021408D01*
X0062727Y0021410D01*
X0041467Y0021410D01*
X0041400Y0021419D01*
X0041333Y0021424D01*
X0041266Y0021426D01*
X0041199Y0021424D01*
X0041132Y0021418D01*
X0041066Y0021408D01*
X0041000Y0021395D01*
X0040935Y0021378D01*
X0040871Y0021358D01*
X0040808Y0021333D01*
X0040747Y0021306D01*
X0040688Y0021275D01*
X0040630Y0021241D01*
X0040574Y0021203D01*
X0040521Y0021162D01*
X0040470Y0021119D01*
X0040421Y0021073D01*
X0040375Y0021024D01*
X0040332Y0020972D01*
X0040292Y0020919D01*
X0040254Y0020863D01*
X0040221Y0020805D01*
X0040190Y0020745D01*
X0040163Y0020684D01*
X0040139Y0020621D01*
X0040119Y0020557D01*
X0040102Y0020492D01*
X0040089Y0020426D01*
X0040089Y0018851D01*
X0045994Y0017473D02*
X0045994Y0011567D01*
X0057806Y0011567D01*
X0057806Y0017473D01*
X0045994Y0017473D01*
X0040089Y0010189D02*
X0040089Y0008614D01*
X0040091Y0008552D01*
X0040097Y0008491D01*
X0040106Y0008430D01*
X0040120Y0008369D01*
X0040137Y0008310D01*
X0040158Y0008252D01*
X0040183Y0008195D01*
X0040211Y0008140D01*
X0040242Y0008087D01*
X0040277Y0008036D01*
X0040315Y0007987D01*
X0040356Y0007940D01*
X0040399Y0007897D01*
X0040446Y0007856D01*
X0040495Y0007818D01*
X0040546Y0007783D01*
X0040599Y0007752D01*
X0040654Y0007724D01*
X0040711Y0007699D01*
X0040769Y0007678D01*
X0040828Y0007661D01*
X0040889Y0007647D01*
X0040950Y0007638D01*
X0041011Y0007632D01*
X0041073Y0007630D01*
X0062727Y0007630D01*
X0062789Y0007632D01*
X0062850Y0007638D01*
X0062911Y0007647D01*
X0062972Y0007661D01*
X0063031Y0007678D01*
X0063089Y0007699D01*
X0063146Y0007724D01*
X0063201Y0007752D01*
X0063254Y0007783D01*
X0063305Y0007818D01*
X0063354Y0007856D01*
X0063401Y0007897D01*
X0063444Y0007940D01*
X0063485Y0007987D01*
X0063523Y0008036D01*
X0063558Y0008087D01*
X0063589Y0008140D01*
X0063617Y0008195D01*
X0063642Y0008252D01*
X0063663Y0008310D01*
X0063680Y0008369D01*
X0063694Y0008430D01*
X0063703Y0008491D01*
X0063709Y0008552D01*
X0063711Y0008614D01*
X0063711Y0010189D01*
X0057800Y0020920D02*
X0057800Y0022420D01*
X0057800Y0029420D02*
X0057800Y0030920D01*
X0082324Y0012433D02*
X0084824Y0012433D01*
X0084824Y0015433D01*
X0084824Y0012433D02*
X0087324Y0012433D01*
X0086324Y0011233D02*
X0083324Y0011233D01*
X0084318Y0010019D02*
X0085318Y0010019D01*
X0085744Y0049576D02*
X0086744Y0049576D01*
X0087750Y0050790D02*
X0084750Y0050790D01*
X0083750Y0051990D02*
X0086250Y0051990D01*
X0086250Y0053990D01*
X0086250Y0051990D02*
X0088750Y0051990D01*
X0076810Y0059530D02*
X0075310Y0059530D01*
X0068310Y0059530D02*
X0066810Y0059530D01*
X0066810Y0077530D02*
X0068310Y0077530D01*
X0075310Y0077530D02*
X0076810Y0077530D01*
X0087606Y0074208D02*
X0087606Y0071208D01*
X0046800Y0062420D02*
X0043800Y0062420D01*
X0038700Y0062820D02*
X0035700Y0062820D01*
X0021180Y0069640D02*
X0018680Y0069640D01*
X0018680Y0072640D01*
X0018680Y0069640D02*
X0016180Y0069640D01*
X0017180Y0068440D02*
X0020180Y0068440D01*
X0019174Y0067226D02*
X0018174Y0067226D01*
D13*
X0016800Y0077420D02*
X0008800Y0077420D01*
X0032893Y0096909D02*
X0068327Y0096909D01*
D14*
X0069578Y0085125D02*
X0070879Y0085125D01*
X0071312Y0084691D01*
X0071312Y0082957D01*
X0070879Y0082523D01*
X0069578Y0082523D01*
X0069578Y0085125D01*
X0072524Y0084691D02*
X0072958Y0085125D01*
X0073825Y0085125D01*
X0074259Y0084691D01*
X0074259Y0084258D01*
X0073825Y0083824D01*
X0074259Y0083390D01*
X0074259Y0082957D01*
X0073825Y0082523D01*
X0072958Y0082523D01*
X0072524Y0082957D01*
X0073392Y0083824D02*
X0073825Y0083824D01*
X0076710Y0077555D02*
X0076710Y0059555D01*
X0079068Y0059689D02*
X0079068Y0062051D01*
X0083792Y0062051D02*
X0083792Y0059689D01*
X0075105Y0053019D02*
X0072742Y0053019D01*
X0072742Y0048294D02*
X0075105Y0048294D01*
X0066710Y0059555D02*
X0066710Y0077555D01*
X0064162Y0065101D02*
X0064162Y0062739D01*
X0059438Y0062739D02*
X0059438Y0065101D01*
X0056162Y0065101D02*
X0056162Y0062739D01*
X0051438Y0062739D02*
X0051438Y0065101D01*
X0049900Y0051920D02*
X0028700Y0051920D01*
X0028700Y0050920D01*
X0028700Y0046920D02*
X0028700Y0045920D01*
X0031300Y0042720D02*
X0033700Y0043220D01*
X0034400Y0045020D02*
X0033100Y0047020D01*
X0034500Y0048420D01*
X0036400Y0047020D01*
X0038300Y0047920D02*
X0038700Y0050120D01*
X0040700Y0050120D01*
X0041100Y0047920D01*
X0043100Y0047120D02*
X0044900Y0048420D01*
X0046300Y0047020D01*
X0045100Y0045220D01*
X0045500Y0044420D01*
X0042100Y0043020D01*
X0042100Y0040620D02*
X0045500Y0039120D01*
X0045100Y0038420D01*
X0046300Y0036620D01*
X0044900Y0035220D01*
X0043100Y0036420D01*
X0041100Y0035620D02*
X0040700Y0033420D01*
X0038700Y0033420D01*
X0038300Y0035720D01*
X0036400Y0036520D02*
X0034500Y0035220D01*
X0033100Y0036620D01*
X0034400Y0038520D01*
X0033700Y0040320D02*
X0031300Y0040820D01*
X0031300Y0042720D01*
X0028700Y0041920D02*
X0028700Y0040920D01*
X0028700Y0036920D02*
X0028700Y0035920D01*
X0028700Y0031920D02*
X0028700Y0030920D01*
X0038100Y0030920D01*
X0040500Y0030920D01*
X0049900Y0030920D01*
X0049900Y0031920D01*
X0049900Y0035920D02*
X0049900Y0036920D01*
X0049900Y0040920D02*
X0049900Y0041920D01*
X0049900Y0045920D02*
X0049900Y0046920D01*
X0049900Y0050920D02*
X0049900Y0051920D01*
X0038292Y0047938D02*
X0038149Y0047898D01*
X0038007Y0047855D01*
X0037866Y0047808D01*
X0037727Y0047757D01*
X0037589Y0047703D01*
X0037452Y0047646D01*
X0037316Y0047585D01*
X0037183Y0047521D01*
X0037050Y0047454D01*
X0036920Y0047384D01*
X0036791Y0047310D01*
X0036664Y0047233D01*
X0036539Y0047153D01*
X0036416Y0047070D01*
X0042100Y0043020D02*
X0042053Y0043112D01*
X0042002Y0043202D01*
X0041948Y0043290D01*
X0041891Y0043376D01*
X0041831Y0043459D01*
X0041767Y0043541D01*
X0041700Y0043619D01*
X0041631Y0043696D01*
X0041559Y0043769D01*
X0041483Y0043840D01*
X0041406Y0043908D01*
X0041325Y0043973D01*
X0041243Y0044035D01*
X0041158Y0044093D01*
X0041071Y0044149D01*
X0040982Y0044201D01*
X0040891Y0044249D01*
X0040798Y0044295D01*
X0040704Y0044336D01*
X0040608Y0044374D01*
X0040510Y0044409D01*
X0040412Y0044439D01*
X0040312Y0044466D01*
X0040212Y0044490D01*
X0040110Y0044509D01*
X0040008Y0044524D01*
X0039906Y0044536D01*
X0039803Y0044544D01*
X0039700Y0044548D01*
X0039596Y0044547D01*
X0039493Y0044543D01*
X0039390Y0044536D01*
X0039288Y0044524D01*
X0039186Y0044508D01*
X0039084Y0044489D01*
X0038984Y0044465D01*
X0038884Y0044438D01*
X0038786Y0044408D01*
X0038689Y0044373D01*
X0038593Y0044335D01*
X0038498Y0044293D01*
X0038406Y0044248D01*
X0038315Y0044199D01*
X0038226Y0044147D01*
X0038139Y0044091D01*
X0038054Y0044032D01*
X0037971Y0043970D01*
X0037891Y0043905D01*
X0037814Y0043837D01*
X0037739Y0043766D01*
X0037666Y0043693D01*
X0037597Y0043616D01*
X0037530Y0043537D01*
X0037467Y0043456D01*
X0037407Y0043372D01*
X0037350Y0043286D01*
X0037296Y0043198D01*
X0037245Y0043108D01*
X0037198Y0043016D01*
X0037155Y0042923D01*
X0037115Y0042828D01*
X0037079Y0042731D01*
X0037046Y0042633D01*
X0037017Y0042534D01*
X0036992Y0042434D01*
X0036971Y0042333D01*
X0036953Y0042231D01*
X0036940Y0042129D01*
X0036930Y0042026D01*
X0036924Y0041923D01*
X0036922Y0041820D01*
X0036924Y0041717D01*
X0036930Y0041614D01*
X0036940Y0041511D01*
X0036953Y0041409D01*
X0036971Y0041307D01*
X0036992Y0041206D01*
X0037017Y0041106D01*
X0037046Y0041007D01*
X0037079Y0040909D01*
X0037115Y0040812D01*
X0037155Y0040717D01*
X0037198Y0040624D01*
X0037245Y0040532D01*
X0037296Y0040442D01*
X0037350Y0040354D01*
X0037407Y0040268D01*
X0037467Y0040184D01*
X0037530Y0040103D01*
X0037597Y0040024D01*
X0037666Y0039947D01*
X0037739Y0039874D01*
X0037814Y0039803D01*
X0037891Y0039735D01*
X0037971Y0039670D01*
X0038054Y0039608D01*
X0038139Y0039549D01*
X0038226Y0039493D01*
X0038315Y0039441D01*
X0038406Y0039392D01*
X0038498Y0039347D01*
X0038593Y0039305D01*
X0038689Y0039267D01*
X0038786Y0039232D01*
X0038884Y0039202D01*
X0038984Y0039175D01*
X0039084Y0039151D01*
X0039186Y0039132D01*
X0039288Y0039116D01*
X0039390Y0039104D01*
X0039493Y0039097D01*
X0039596Y0039093D01*
X0039700Y0039092D01*
X0039803Y0039096D01*
X0039906Y0039104D01*
X0040008Y0039116D01*
X0040110Y0039131D01*
X0040212Y0039150D01*
X0040312Y0039174D01*
X0040412Y0039201D01*
X0040510Y0039231D01*
X0040608Y0039266D01*
X0040704Y0039304D01*
X0040798Y0039345D01*
X0040891Y0039391D01*
X0040982Y0039439D01*
X0041071Y0039491D01*
X0041158Y0039547D01*
X0041243Y0039605D01*
X0041325Y0039667D01*
X0041406Y0039732D01*
X0041483Y0039800D01*
X0041559Y0039871D01*
X0041631Y0039944D01*
X0041700Y0040021D01*
X0041767Y0040099D01*
X0041831Y0040181D01*
X0041891Y0040264D01*
X0041948Y0040350D01*
X0042002Y0040438D01*
X0042053Y0040528D01*
X0042100Y0040620D01*
X0034442Y0038544D02*
X0034369Y0038671D01*
X0034298Y0038800D01*
X0034230Y0038930D01*
X0034166Y0039062D01*
X0034104Y0039196D01*
X0034046Y0039331D01*
X0033991Y0039467D01*
X0033939Y0039605D01*
X0033890Y0039743D01*
X0033845Y0039883D01*
X0033802Y0040024D01*
X0033764Y0040166D01*
X0033728Y0040308D01*
X0041260Y0035646D02*
X0041406Y0035687D01*
X0041551Y0035731D01*
X0041694Y0035778D01*
X0041837Y0035830D01*
X0041978Y0035884D01*
X0042118Y0035943D01*
X0042257Y0036004D01*
X0042394Y0036069D01*
X0042529Y0036138D01*
X0042662Y0036209D01*
X0042794Y0036284D01*
X0042924Y0036363D01*
X0043052Y0036444D01*
X0038278Y0035702D02*
X0038126Y0035743D01*
X0037974Y0035787D01*
X0037823Y0035835D01*
X0037674Y0035886D01*
X0037526Y0035942D01*
X0037380Y0036001D01*
X0037235Y0036064D01*
X0037091Y0036130D01*
X0036950Y0036200D01*
X0036810Y0036273D01*
X0036672Y0036350D01*
X0036536Y0036431D01*
X0036402Y0036515D01*
X0041092Y0047910D02*
X0041242Y0047876D01*
X0041391Y0047839D01*
X0041539Y0047797D01*
X0041686Y0047753D01*
X0041832Y0047704D01*
X0041977Y0047652D01*
X0042120Y0047597D01*
X0042262Y0047538D01*
X0042403Y0047475D01*
X0042542Y0047409D01*
X0042679Y0047340D01*
X0042814Y0047267D01*
X0042948Y0047191D01*
X0043080Y0047112D01*
X0034400Y0045012D02*
X0034326Y0044883D01*
X0034254Y0044752D01*
X0034186Y0044619D01*
X0034121Y0044485D01*
X0034060Y0044350D01*
X0034001Y0044213D01*
X0033946Y0044074D01*
X0033894Y0043935D01*
X0033846Y0043794D01*
X0033801Y0043652D01*
X0033759Y0043509D01*
X0033721Y0043365D01*
X0033686Y0043220D01*
X0038100Y0030920D02*
X0038102Y0030989D01*
X0038108Y0031057D01*
X0038118Y0031125D01*
X0038131Y0031192D01*
X0038149Y0031258D01*
X0038170Y0031323D01*
X0038195Y0031387D01*
X0038223Y0031449D01*
X0038255Y0031510D01*
X0038290Y0031569D01*
X0038329Y0031625D01*
X0038371Y0031680D01*
X0038416Y0031731D01*
X0038464Y0031781D01*
X0038514Y0031827D01*
X0038567Y0031870D01*
X0038623Y0031911D01*
X0038680Y0031948D01*
X0038740Y0031981D01*
X0038802Y0032012D01*
X0038865Y0032038D01*
X0038929Y0032061D01*
X0038995Y0032081D01*
X0039062Y0032096D01*
X0039129Y0032108D01*
X0039197Y0032116D01*
X0039266Y0032120D01*
X0039334Y0032120D01*
X0039403Y0032116D01*
X0039471Y0032108D01*
X0039538Y0032096D01*
X0039605Y0032081D01*
X0039671Y0032061D01*
X0039735Y0032038D01*
X0039798Y0032012D01*
X0039860Y0031981D01*
X0039920Y0031948D01*
X0039977Y0031911D01*
X0040033Y0031870D01*
X0040086Y0031827D01*
X0040136Y0031781D01*
X0040184Y0031731D01*
X0040229Y0031680D01*
X0040271Y0031625D01*
X0040310Y0031569D01*
X0040345Y0031510D01*
X0040377Y0031449D01*
X0040405Y0031387D01*
X0040430Y0031323D01*
X0040451Y0031258D01*
X0040469Y0031192D01*
X0040482Y0031125D01*
X0040492Y0031057D01*
X0040498Y0030989D01*
X0040500Y0030920D01*
X0040498Y0030989D01*
X0040492Y0031057D01*
X0040482Y0031125D01*
X0040469Y0031192D01*
X0040451Y0031258D01*
X0040430Y0031323D01*
X0040405Y0031387D01*
X0040377Y0031449D01*
X0040345Y0031510D01*
X0040310Y0031569D01*
X0040271Y0031625D01*
X0040229Y0031680D01*
X0040184Y0031731D01*
X0040136Y0031781D01*
X0040086Y0031827D01*
X0040033Y0031870D01*
X0039977Y0031911D01*
X0039920Y0031948D01*
X0039860Y0031981D01*
X0039798Y0032012D01*
X0039735Y0032038D01*
X0039671Y0032061D01*
X0039605Y0032081D01*
X0039538Y0032096D01*
X0039471Y0032108D01*
X0039403Y0032116D01*
X0039334Y0032120D01*
X0039266Y0032120D01*
X0039197Y0032116D01*
X0039129Y0032108D01*
X0039062Y0032096D01*
X0038995Y0032081D01*
X0038929Y0032061D01*
X0038865Y0032038D01*
X0038802Y0032012D01*
X0038740Y0031981D01*
X0038680Y0031948D01*
X0038623Y0031911D01*
X0038567Y0031870D01*
X0038514Y0031827D01*
X0038464Y0031781D01*
X0038416Y0031731D01*
X0038371Y0031680D01*
X0038329Y0031625D01*
X0038290Y0031569D01*
X0038255Y0031510D01*
X0038223Y0031449D01*
X0038195Y0031387D01*
X0038170Y0031323D01*
X0038149Y0031258D01*
X0038131Y0031192D01*
X0038118Y0031125D01*
X0038108Y0031057D01*
X0038102Y0030989D01*
X0038100Y0030920D01*
X0034871Y0029422D02*
X0032509Y0029422D01*
X0032509Y0024698D02*
X0034871Y0024698D01*
X0049961Y0024690D02*
X0049961Y0023389D01*
X0052563Y0023389D01*
X0052563Y0024690D01*
X0052129Y0025124D01*
X0050394Y0025124D01*
X0049961Y0024690D01*
X0049961Y0026336D02*
X0051262Y0026336D01*
X0050828Y0027203D01*
X0050828Y0027637D01*
X0051262Y0028071D01*
X0052129Y0028071D01*
X0052563Y0027637D01*
X0052563Y0026770D01*
X0052129Y0026336D01*
X0049961Y0026336D02*
X0049961Y0028071D01*
X0057825Y0031020D02*
X0075825Y0031020D01*
X0075825Y0021020D02*
X0057825Y0021020D01*
X0032162Y0063239D02*
X0032162Y0065601D01*
X0027438Y0065601D02*
X0027438Y0063239D01*
D15*
X0071810Y0065952D03*
D16*
X0068491Y0045110D02*
X0065109Y0045110D01*
X0063609Y0040567D02*
X0063609Y0038453D01*
X0065109Y0033910D02*
X0068491Y0033910D01*
X0080910Y0087420D02*
X0080912Y0087589D01*
X0080918Y0087758D01*
X0080929Y0087927D01*
X0080943Y0088095D01*
X0080962Y0088263D01*
X0080985Y0088431D01*
X0081011Y0088598D01*
X0081042Y0088764D01*
X0081077Y0088930D01*
X0081116Y0089094D01*
X0081160Y0089258D01*
X0081207Y0089420D01*
X0081258Y0089581D01*
X0081313Y0089741D01*
X0081372Y0089900D01*
X0081434Y0090057D01*
X0081501Y0090212D01*
X0081572Y0090366D01*
X0081646Y0090518D01*
X0081724Y0090668D01*
X0081805Y0090816D01*
X0081890Y0090962D01*
X0081979Y0091106D01*
X0082071Y0091248D01*
X0082167Y0091387D01*
X0082266Y0091524D01*
X0082368Y0091659D01*
X0082474Y0091791D01*
X0082583Y0091920D01*
X0082695Y0092047D01*
X0082810Y0092171D01*
X0082928Y0092292D01*
X0083049Y0092410D01*
X0083173Y0092525D01*
X0083300Y0092637D01*
X0083429Y0092746D01*
X0083561Y0092852D01*
X0083696Y0092954D01*
X0083833Y0093053D01*
X0083972Y0093149D01*
X0084114Y0093241D01*
X0084258Y0093330D01*
X0084404Y0093415D01*
X0084552Y0093496D01*
X0084702Y0093574D01*
X0084854Y0093648D01*
X0085008Y0093719D01*
X0085163Y0093786D01*
X0085320Y0093848D01*
X0085479Y0093907D01*
X0085639Y0093962D01*
X0085800Y0094013D01*
X0085962Y0094060D01*
X0086126Y0094104D01*
X0086290Y0094143D01*
X0086456Y0094178D01*
X0086622Y0094209D01*
X0086789Y0094235D01*
X0086957Y0094258D01*
X0087125Y0094277D01*
X0087293Y0094291D01*
X0087462Y0094302D01*
X0087631Y0094308D01*
X0087800Y0094310D01*
X0087969Y0094308D01*
X0088138Y0094302D01*
X0088307Y0094291D01*
X0088475Y0094277D01*
X0088643Y0094258D01*
X0088811Y0094235D01*
X0088978Y0094209D01*
X0089144Y0094178D01*
X0089310Y0094143D01*
X0089474Y0094104D01*
X0089638Y0094060D01*
X0089800Y0094013D01*
X0089961Y0093962D01*
X0090121Y0093907D01*
X0090280Y0093848D01*
X0090437Y0093786D01*
X0090592Y0093719D01*
X0090746Y0093648D01*
X0090898Y0093574D01*
X0091048Y0093496D01*
X0091196Y0093415D01*
X0091342Y0093330D01*
X0091486Y0093241D01*
X0091628Y0093149D01*
X0091767Y0093053D01*
X0091904Y0092954D01*
X0092039Y0092852D01*
X0092171Y0092746D01*
X0092300Y0092637D01*
X0092427Y0092525D01*
X0092551Y0092410D01*
X0092672Y0092292D01*
X0092790Y0092171D01*
X0092905Y0092047D01*
X0093017Y0091920D01*
X0093126Y0091791D01*
X0093232Y0091659D01*
X0093334Y0091524D01*
X0093433Y0091387D01*
X0093529Y0091248D01*
X0093621Y0091106D01*
X0093710Y0090962D01*
X0093795Y0090816D01*
X0093876Y0090668D01*
X0093954Y0090518D01*
X0094028Y0090366D01*
X0094099Y0090212D01*
X0094166Y0090057D01*
X0094228Y0089900D01*
X0094287Y0089741D01*
X0094342Y0089581D01*
X0094393Y0089420D01*
X0094440Y0089258D01*
X0094484Y0089094D01*
X0094523Y0088930D01*
X0094558Y0088764D01*
X0094589Y0088598D01*
X0094615Y0088431D01*
X0094638Y0088263D01*
X0094657Y0088095D01*
X0094671Y0087927D01*
X0094682Y0087758D01*
X0094688Y0087589D01*
X0094690Y0087420D01*
X0094688Y0087251D01*
X0094682Y0087082D01*
X0094671Y0086913D01*
X0094657Y0086745D01*
X0094638Y0086577D01*
X0094615Y0086409D01*
X0094589Y0086242D01*
X0094558Y0086076D01*
X0094523Y0085910D01*
X0094484Y0085746D01*
X0094440Y0085582D01*
X0094393Y0085420D01*
X0094342Y0085259D01*
X0094287Y0085099D01*
X0094228Y0084940D01*
X0094166Y0084783D01*
X0094099Y0084628D01*
X0094028Y0084474D01*
X0093954Y0084322D01*
X0093876Y0084172D01*
X0093795Y0084024D01*
X0093710Y0083878D01*
X0093621Y0083734D01*
X0093529Y0083592D01*
X0093433Y0083453D01*
X0093334Y0083316D01*
X0093232Y0083181D01*
X0093126Y0083049D01*
X0093017Y0082920D01*
X0092905Y0082793D01*
X0092790Y0082669D01*
X0092672Y0082548D01*
X0092551Y0082430D01*
X0092427Y0082315D01*
X0092300Y0082203D01*
X0092171Y0082094D01*
X0092039Y0081988D01*
X0091904Y0081886D01*
X0091767Y0081787D01*
X0091628Y0081691D01*
X0091486Y0081599D01*
X0091342Y0081510D01*
X0091196Y0081425D01*
X0091048Y0081344D01*
X0090898Y0081266D01*
X0090746Y0081192D01*
X0090592Y0081121D01*
X0090437Y0081054D01*
X0090280Y0080992D01*
X0090121Y0080933D01*
X0089961Y0080878D01*
X0089800Y0080827D01*
X0089638Y0080780D01*
X0089474Y0080736D01*
X0089310Y0080697D01*
X0089144Y0080662D01*
X0088978Y0080631D01*
X0088811Y0080605D01*
X0088643Y0080582D01*
X0088475Y0080563D01*
X0088307Y0080549D01*
X0088138Y0080538D01*
X0087969Y0080532D01*
X0087800Y0080530D01*
X0087631Y0080532D01*
X0087462Y0080538D01*
X0087293Y0080549D01*
X0087125Y0080563D01*
X0086957Y0080582D01*
X0086789Y0080605D01*
X0086622Y0080631D01*
X0086456Y0080662D01*
X0086290Y0080697D01*
X0086126Y0080736D01*
X0085962Y0080780D01*
X0085800Y0080827D01*
X0085639Y0080878D01*
X0085479Y0080933D01*
X0085320Y0080992D01*
X0085163Y0081054D01*
X0085008Y0081121D01*
X0084854Y0081192D01*
X0084702Y0081266D01*
X0084552Y0081344D01*
X0084404Y0081425D01*
X0084258Y0081510D01*
X0084114Y0081599D01*
X0083972Y0081691D01*
X0083833Y0081787D01*
X0083696Y0081886D01*
X0083561Y0081988D01*
X0083429Y0082094D01*
X0083300Y0082203D01*
X0083173Y0082315D01*
X0083049Y0082430D01*
X0082928Y0082548D01*
X0082810Y0082669D01*
X0082695Y0082793D01*
X0082583Y0082920D01*
X0082474Y0083049D01*
X0082368Y0083181D01*
X0082266Y0083316D01*
X0082167Y0083453D01*
X0082071Y0083592D01*
X0081979Y0083734D01*
X0081890Y0083878D01*
X0081805Y0084024D01*
X0081724Y0084172D01*
X0081646Y0084322D01*
X0081572Y0084474D01*
X0081501Y0084628D01*
X0081434Y0084783D01*
X0081372Y0084940D01*
X0081313Y0085099D01*
X0081258Y0085259D01*
X0081207Y0085420D01*
X0081160Y0085582D01*
X0081116Y0085746D01*
X0081077Y0085910D01*
X0081042Y0086076D01*
X0081011Y0086242D01*
X0080985Y0086409D01*
X0080962Y0086577D01*
X0080943Y0086745D01*
X0080929Y0086913D01*
X0080918Y0087082D01*
X0080912Y0087251D01*
X0080910Y0087420D01*
X0010910Y0087420D02*
X0010912Y0087589D01*
X0010918Y0087758D01*
X0010929Y0087927D01*
X0010943Y0088095D01*
X0010962Y0088263D01*
X0010985Y0088431D01*
X0011011Y0088598D01*
X0011042Y0088764D01*
X0011077Y0088930D01*
X0011116Y0089094D01*
X0011160Y0089258D01*
X0011207Y0089420D01*
X0011258Y0089581D01*
X0011313Y0089741D01*
X0011372Y0089900D01*
X0011434Y0090057D01*
X0011501Y0090212D01*
X0011572Y0090366D01*
X0011646Y0090518D01*
X0011724Y0090668D01*
X0011805Y0090816D01*
X0011890Y0090962D01*
X0011979Y0091106D01*
X0012071Y0091248D01*
X0012167Y0091387D01*
X0012266Y0091524D01*
X0012368Y0091659D01*
X0012474Y0091791D01*
X0012583Y0091920D01*
X0012695Y0092047D01*
X0012810Y0092171D01*
X0012928Y0092292D01*
X0013049Y0092410D01*
X0013173Y0092525D01*
X0013300Y0092637D01*
X0013429Y0092746D01*
X0013561Y0092852D01*
X0013696Y0092954D01*
X0013833Y0093053D01*
X0013972Y0093149D01*
X0014114Y0093241D01*
X0014258Y0093330D01*
X0014404Y0093415D01*
X0014552Y0093496D01*
X0014702Y0093574D01*
X0014854Y0093648D01*
X0015008Y0093719D01*
X0015163Y0093786D01*
X0015320Y0093848D01*
X0015479Y0093907D01*
X0015639Y0093962D01*
X0015800Y0094013D01*
X0015962Y0094060D01*
X0016126Y0094104D01*
X0016290Y0094143D01*
X0016456Y0094178D01*
X0016622Y0094209D01*
X0016789Y0094235D01*
X0016957Y0094258D01*
X0017125Y0094277D01*
X0017293Y0094291D01*
X0017462Y0094302D01*
X0017631Y0094308D01*
X0017800Y0094310D01*
X0017969Y0094308D01*
X0018138Y0094302D01*
X0018307Y0094291D01*
X0018475Y0094277D01*
X0018643Y0094258D01*
X0018811Y0094235D01*
X0018978Y0094209D01*
X0019144Y0094178D01*
X0019310Y0094143D01*
X0019474Y0094104D01*
X0019638Y0094060D01*
X0019800Y0094013D01*
X0019961Y0093962D01*
X0020121Y0093907D01*
X0020280Y0093848D01*
X0020437Y0093786D01*
X0020592Y0093719D01*
X0020746Y0093648D01*
X0020898Y0093574D01*
X0021048Y0093496D01*
X0021196Y0093415D01*
X0021342Y0093330D01*
X0021486Y0093241D01*
X0021628Y0093149D01*
X0021767Y0093053D01*
X0021904Y0092954D01*
X0022039Y0092852D01*
X0022171Y0092746D01*
X0022300Y0092637D01*
X0022427Y0092525D01*
X0022551Y0092410D01*
X0022672Y0092292D01*
X0022790Y0092171D01*
X0022905Y0092047D01*
X0023017Y0091920D01*
X0023126Y0091791D01*
X0023232Y0091659D01*
X0023334Y0091524D01*
X0023433Y0091387D01*
X0023529Y0091248D01*
X0023621Y0091106D01*
X0023710Y0090962D01*
X0023795Y0090816D01*
X0023876Y0090668D01*
X0023954Y0090518D01*
X0024028Y0090366D01*
X0024099Y0090212D01*
X0024166Y0090057D01*
X0024228Y0089900D01*
X0024287Y0089741D01*
X0024342Y0089581D01*
X0024393Y0089420D01*
X0024440Y0089258D01*
X0024484Y0089094D01*
X0024523Y0088930D01*
X0024558Y0088764D01*
X0024589Y0088598D01*
X0024615Y0088431D01*
X0024638Y0088263D01*
X0024657Y0088095D01*
X0024671Y0087927D01*
X0024682Y0087758D01*
X0024688Y0087589D01*
X0024690Y0087420D01*
X0024688Y0087251D01*
X0024682Y0087082D01*
X0024671Y0086913D01*
X0024657Y0086745D01*
X0024638Y0086577D01*
X0024615Y0086409D01*
X0024589Y0086242D01*
X0024558Y0086076D01*
X0024523Y0085910D01*
X0024484Y0085746D01*
X0024440Y0085582D01*
X0024393Y0085420D01*
X0024342Y0085259D01*
X0024287Y0085099D01*
X0024228Y0084940D01*
X0024166Y0084783D01*
X0024099Y0084628D01*
X0024028Y0084474D01*
X0023954Y0084322D01*
X0023876Y0084172D01*
X0023795Y0084024D01*
X0023710Y0083878D01*
X0023621Y0083734D01*
X0023529Y0083592D01*
X0023433Y0083453D01*
X0023334Y0083316D01*
X0023232Y0083181D01*
X0023126Y0083049D01*
X0023017Y0082920D01*
X0022905Y0082793D01*
X0022790Y0082669D01*
X0022672Y0082548D01*
X0022551Y0082430D01*
X0022427Y0082315D01*
X0022300Y0082203D01*
X0022171Y0082094D01*
X0022039Y0081988D01*
X0021904Y0081886D01*
X0021767Y0081787D01*
X0021628Y0081691D01*
X0021486Y0081599D01*
X0021342Y0081510D01*
X0021196Y0081425D01*
X0021048Y0081344D01*
X0020898Y0081266D01*
X0020746Y0081192D01*
X0020592Y0081121D01*
X0020437Y0081054D01*
X0020280Y0080992D01*
X0020121Y0080933D01*
X0019961Y0080878D01*
X0019800Y0080827D01*
X0019638Y0080780D01*
X0019474Y0080736D01*
X0019310Y0080697D01*
X0019144Y0080662D01*
X0018978Y0080631D01*
X0018811Y0080605D01*
X0018643Y0080582D01*
X0018475Y0080563D01*
X0018307Y0080549D01*
X0018138Y0080538D01*
X0017969Y0080532D01*
X0017800Y0080530D01*
X0017631Y0080532D01*
X0017462Y0080538D01*
X0017293Y0080549D01*
X0017125Y0080563D01*
X0016957Y0080582D01*
X0016789Y0080605D01*
X0016622Y0080631D01*
X0016456Y0080662D01*
X0016290Y0080697D01*
X0016126Y0080736D01*
X0015962Y0080780D01*
X0015800Y0080827D01*
X0015639Y0080878D01*
X0015479Y0080933D01*
X0015320Y0080992D01*
X0015163Y0081054D01*
X0015008Y0081121D01*
X0014854Y0081192D01*
X0014702Y0081266D01*
X0014552Y0081344D01*
X0014404Y0081425D01*
X0014258Y0081510D01*
X0014114Y0081599D01*
X0013972Y0081691D01*
X0013833Y0081787D01*
X0013696Y0081886D01*
X0013561Y0081988D01*
X0013429Y0082094D01*
X0013300Y0082203D01*
X0013173Y0082315D01*
X0013049Y0082430D01*
X0012928Y0082548D01*
X0012810Y0082669D01*
X0012695Y0082793D01*
X0012583Y0082920D01*
X0012474Y0083049D01*
X0012368Y0083181D01*
X0012266Y0083316D01*
X0012167Y0083453D01*
X0012071Y0083592D01*
X0011979Y0083734D01*
X0011890Y0083878D01*
X0011805Y0084024D01*
X0011724Y0084172D01*
X0011646Y0084322D01*
X0011572Y0084474D01*
X0011501Y0084628D01*
X0011434Y0084783D01*
X0011372Y0084940D01*
X0011313Y0085099D01*
X0011258Y0085259D01*
X0011207Y0085420D01*
X0011160Y0085582D01*
X0011116Y0085746D01*
X0011077Y0085910D01*
X0011042Y0086076D01*
X0011011Y0086242D01*
X0010985Y0086409D01*
X0010962Y0086577D01*
X0010943Y0086745D01*
X0010929Y0086913D01*
X0010918Y0087082D01*
X0010912Y0087251D01*
X0010910Y0087420D01*
D17*
X0064222Y0025920D03*
D18*
X0031385Y0052920D02*
X0028983Y0052920D01*
X0031385Y0055322D01*
X0031385Y0055923D01*
X0030785Y0056523D01*
X0029584Y0056523D01*
X0028983Y0055923D01*
X0027702Y0056523D02*
X0027702Y0053520D01*
X0027102Y0052920D01*
X0025901Y0052920D01*
X0025300Y0053520D01*
X0025300Y0056523D01*
D19*
X0082460Y0047366D02*
X0093140Y0047366D01*
X0093140Y0043788D01*
X0093140Y0033051D02*
X0093140Y0029474D01*
X0082460Y0029474D01*
X0082428Y0034788D02*
X0082428Y0036201D01*
X0082428Y0040694D02*
X0082428Y0042107D01*
M02*
