%
M48
M72
T01C0.02362
T02C0.03937
T03C0.04000
T04C0.09055
%
T01
X39700Y41720
X47300Y43920
X52800Y54420
X66700Y41920
X66700Y36920
X50800Y28420
X55800Y17420
X33800Y52420
X42736Y81555
X58484Y81555
X79300Y72420
T02
X12800Y12420
X12800Y22420
X12800Y32420
X12800Y42420
X12800Y52420
X12800Y62420
X12800Y72420
X92800Y62420
X92800Y52420
X92800Y22420
X92800Y12420
T03
X77200Y16620
X23500Y74220
T04
X17800Y87420
X87800Y87420
M30
