G75*
%MOIN*%
%OFA0B0*%
%FSLAX24Y24*%
%IPPOS*%
%LPD*%
%AMOC8*
5,1,8,0,0,1.08239X$1,22.5*
%
%ADD10R,0.0870X0.0240*%
%ADD11R,0.0472X0.0315*%
%ADD12R,0.0420X0.0860*%
%ADD13R,0.0315X0.0472*%
%ADD14R,0.0472X0.0472*%
%ADD15R,0.0472X0.0217*%
%ADD16R,0.0906X0.0630*%
%ADD17R,0.0157X0.0531*%
%ADD18R,0.0748X0.0748*%
%ADD19R,0.0860X0.0420*%
D10*
X002944Y003623D03*
X002944Y004123D03*
X002944Y004623D03*
X002944Y005123D03*
X005594Y005123D03*
X005594Y004623D03*
X005594Y004123D03*
X005594Y003623D03*
D11*
X007943Y005733D03*
X007943Y006441D03*
X006180Y006188D03*
X006180Y006896D03*
X005380Y006896D03*
X005380Y006188D03*
X002980Y006188D03*
X002980Y006896D03*
D12*
X007131Y007653D03*
X007131Y005953D03*
D13*
X002965Y002856D03*
X003673Y002856D03*
X007038Y005116D03*
X007747Y005116D03*
D14*
X008546Y007223D03*
X009373Y007223D03*
X004580Y006895D03*
X003790Y006905D03*
X003790Y006079D03*
X004580Y006069D03*
D15*
X006718Y004475D03*
X006718Y003727D03*
X007742Y003727D03*
X007742Y004101D03*
X007742Y004475D03*
D16*
X006430Y001452D03*
X003950Y001452D03*
D17*
X004549Y008008D03*
X004805Y008008D03*
X005061Y008008D03*
X005317Y008008D03*
X005573Y008008D03*
D18*
X005533Y009061D03*
X004589Y009061D03*
X003506Y009061D03*
X006616Y009061D03*
D19*
X006030Y002742D03*
X007730Y002742D03*
M02*
