%
M48
M72
T01C0.0236
T02C0.0394
T03C0.0400
T04C0.0866
%
T01
X2447Y3035
X3318Y2464
X4780Y4142
X4218Y5514
X5230Y5692
X7225Y4371
X7228Y3820
X6297Y3232
X7880Y7292
X5848Y8156
X4274Y8156
T02
X1280Y1242
X1280Y2242
X1280Y3242
X1280Y4242
X1280Y5242
X1280Y6242
X1280Y7242
X9280Y6242
X9280Y5242
X9280Y2242
X9280Y1242
T03
X7720Y1662
X2350Y7422
T04
X1780Y8742
X8780Y8742
M30
