G75*
%MOIN*%
%OFA0B0*%
%FSLAX24Y24*%
%IPPOS*%
%LPD*%
%AMOC8*
5,1,8,0,0,1.08239X$1,22.5*
%
%ADD10R,0.0910X0.0280*%
%ADD11R,0.0512X0.0355*%
%ADD12R,0.0460X0.0900*%
%ADD13R,0.0355X0.0512*%
%ADD14R,0.0512X0.0512*%
%ADD15R,0.0512X0.0257*%
%ADD16C,0.1306*%
%ADD17R,0.0946X0.0670*%
%ADD18R,0.0197X0.0571*%
%ADD19R,0.0788X0.0788*%
%ADD20C,0.0276*%
%ADD21C,0.0700*%
%ADD22R,0.0900X0.0460*%
%ADD23C,0.0740*%
D10*
X002944Y003623D03*
X002944Y004123D03*
X002944Y004623D03*
X002944Y005123D03*
X005594Y005123D03*
X005594Y004623D03*
X005594Y004123D03*
X005594Y003623D03*
D11*
X007943Y005733D03*
X007943Y006441D03*
X006180Y006188D03*
X006180Y006896D03*
X005380Y006896D03*
X005380Y006188D03*
X002980Y006188D03*
X002980Y006896D03*
D12*
X007131Y007653D03*
X007131Y005953D03*
D13*
X007038Y005116D03*
X007747Y005116D03*
X003673Y002856D03*
X002965Y002856D03*
D14*
X003790Y006079D03*
X004580Y006069D03*
X004580Y006895D03*
X003790Y006905D03*
X008546Y007223D03*
X009373Y007223D03*
D15*
X007742Y004475D03*
X007742Y004101D03*
X007742Y003727D03*
X006718Y003727D03*
X006718Y004475D03*
D16*
X008780Y008742D03*
X001780Y008742D03*
D17*
X003950Y001452D03*
X006430Y001452D03*
D18*
X005573Y008008D03*
X005317Y008008D03*
X005061Y008008D03*
X004805Y008008D03*
X004549Y008008D03*
D19*
X004589Y009061D03*
X005533Y009061D03*
X006616Y009061D03*
X003506Y009061D03*
D20*
X004274Y008156D03*
X005848Y008156D03*
D21*
X001280Y001242D03*
X001280Y002242D03*
X001280Y003242D03*
X001280Y004242D03*
X001280Y005242D03*
X001280Y006242D03*
X001280Y007242D03*
X009280Y006242D03*
X009280Y005242D03*
X009280Y002242D03*
X009280Y001242D03*
D22*
X007730Y002742D03*
X006030Y002742D03*
D23*
X007720Y001662D03*
X002350Y007422D03*
M02*
