G75*
%MOIN*%
%OFA0B0*%
%FSLAX24Y24*%
%IPPOS*%
%LPD*%
%AMOC8*
5,1,8,0,0,1.08239X$1,22.5*
%
%ADD10C,0.0030*%
%ADD11C,0.0050*%
%ADD12C,0.0040*%
%ADD13R,0.0280X0.0050*%
%ADD14C,0.0100*%
%ADD15R,0.0050X0.0280*%
%ADD16C,0.0060*%
%ADD17C,0.0160*%
%ADD18C,0.0080*%
%ADD19R,0.0394X0.0079*%
%ADD20R,0.0079X0.0079*%
%ADD21C,0.0000*%
%ADD22R,0.0079X0.0394*%
D10*
X001824Y001146D02*
X001917Y001306D01*
X002001Y001329D01*
X002108Y001267D01*
X002131Y001183D01*
X002038Y001023D01*
X002145Y000961D02*
X001824Y001146D01*
X002009Y001465D02*
X002101Y001625D01*
X002185Y001648D01*
X002239Y001617D01*
X002261Y001533D01*
X002169Y001372D01*
X002329Y001280D02*
X002422Y001440D01*
X002399Y001525D01*
X002346Y001555D01*
X002261Y001533D01*
X002460Y001630D02*
X002544Y001652D01*
X002606Y001759D01*
X002583Y001844D01*
X002476Y001905D01*
X002392Y001883D01*
X002361Y001829D01*
X002353Y001691D01*
X002193Y001784D01*
X002316Y001998D01*
X002157Y002073D02*
X002064Y001913D01*
X002171Y001851D02*
X001850Y002036D01*
X001943Y002197D01*
X002027Y002219D01*
X002134Y002158D01*
X002157Y002073D01*
X002355Y002170D02*
X002448Y002331D01*
X002425Y002415D01*
X002372Y002446D01*
X002287Y002423D01*
X002195Y002263D01*
X002287Y002423D02*
X002265Y002507D01*
X002211Y002538D01*
X002127Y002516D01*
X002034Y002355D01*
X002355Y002170D01*
X002379Y002582D02*
X002502Y002796D01*
X002311Y002835D02*
X002379Y002582D01*
X002632Y002650D02*
X002311Y002835D01*
X002128Y002788D02*
X001808Y002973D01*
X001900Y003133D01*
X001985Y003156D01*
X002092Y003094D01*
X002114Y003010D01*
X002022Y002850D01*
X002313Y003107D02*
X002405Y003267D01*
X002383Y003351D01*
X002329Y003382D01*
X002245Y003360D01*
X002152Y003199D01*
X001992Y003292D02*
X002084Y003452D01*
X002169Y003475D01*
X002222Y003444D01*
X002245Y003360D01*
X002443Y003457D02*
X002528Y003479D01*
X002589Y003586D01*
X002567Y003670D01*
X002513Y003701D01*
X002429Y003679D01*
X002398Y003625D01*
X002429Y003679D02*
X002406Y003763D01*
X002353Y003794D01*
X002269Y003771D01*
X002207Y003664D01*
X002230Y003580D01*
X002094Y003783D02*
X001773Y003968D01*
X001866Y004129D01*
X001950Y004151D01*
X002057Y004090D01*
X002080Y004005D01*
X001987Y003845D01*
X002278Y004102D02*
X002371Y004263D01*
X002348Y004347D01*
X002295Y004378D01*
X002211Y004355D01*
X002118Y004195D01*
X002211Y004355D02*
X002188Y004440D01*
X002134Y004470D01*
X002050Y004448D01*
X001958Y004287D01*
X002278Y004102D01*
X002462Y004421D02*
X002372Y004758D01*
X002319Y004789D01*
X002234Y004767D01*
X002173Y004660D01*
X002195Y004576D01*
X002089Y004755D02*
X001768Y004940D01*
X001860Y005101D01*
X001945Y005123D01*
X002052Y005061D01*
X002074Y004977D01*
X001982Y004817D01*
X002112Y005167D02*
X002205Y005327D01*
X002289Y005350D01*
X002343Y005319D01*
X002365Y005234D01*
X002273Y005074D01*
X001952Y005259D01*
X002045Y005420D01*
X002129Y005442D01*
X002182Y005411D01*
X002205Y005327D01*
X002243Y005516D02*
X002198Y005685D01*
X002519Y005500D01*
X002457Y005393D02*
X002580Y005607D01*
X002146Y005821D02*
X001825Y006006D01*
X001918Y006167D01*
X002002Y006189D01*
X002109Y006127D01*
X002131Y006043D01*
X002039Y005883D01*
X002169Y006233D02*
X002262Y006393D01*
X002346Y006416D01*
X002400Y006385D01*
X002422Y006300D01*
X002330Y006140D01*
X002009Y006325D01*
X002102Y006486D01*
X002186Y006508D01*
X002239Y006477D01*
X002262Y006393D01*
X002247Y006613D02*
X002461Y006490D01*
X002370Y006827D01*
X002584Y006704D01*
X002607Y006619D01*
X002545Y006512D01*
X002461Y006490D01*
X002247Y006613D02*
X002224Y006698D01*
X002286Y006805D01*
X002370Y006827D01*
X002815Y007222D02*
X002815Y007512D01*
X002960Y007512D01*
X003008Y007464D01*
X003008Y007367D01*
X002960Y007319D01*
X002815Y007319D01*
X002912Y007319D02*
X003008Y007222D01*
X003110Y007367D02*
X003303Y007367D01*
X003255Y007222D02*
X003255Y007512D01*
X003110Y007367D01*
X003505Y007257D02*
X003650Y007257D01*
X003698Y007305D01*
X003698Y007499D01*
X003650Y007547D01*
X003505Y007547D01*
X003505Y007257D01*
X003800Y007257D02*
X003993Y007257D01*
X003896Y007257D02*
X003896Y007547D01*
X003800Y007450D01*
X004395Y007537D02*
X004395Y007247D01*
X004540Y007247D01*
X004588Y007295D01*
X004588Y007489D01*
X004540Y007537D01*
X004395Y007537D01*
X004690Y007489D02*
X004738Y007537D01*
X004835Y007537D01*
X004883Y007489D01*
X004883Y007440D01*
X004690Y007247D01*
X004883Y007247D01*
X005170Y007207D02*
X005170Y007497D01*
X005315Y007497D01*
X005363Y007449D01*
X005363Y007352D01*
X005315Y007304D01*
X005170Y007304D01*
X005267Y007304D02*
X005363Y007207D01*
X005465Y007255D02*
X005513Y007207D01*
X005610Y007207D01*
X005658Y007255D01*
X005658Y007304D01*
X005610Y007352D01*
X005561Y007352D01*
X005610Y007352D02*
X005658Y007400D01*
X005658Y007449D01*
X005610Y007497D01*
X005513Y007497D01*
X005465Y007449D01*
X006020Y007447D02*
X006020Y007157D01*
X006020Y007254D02*
X006165Y007254D01*
X006213Y007302D01*
X006213Y007399D01*
X006165Y007447D01*
X006020Y007447D01*
X006117Y007254D02*
X006213Y007157D01*
X006315Y007157D02*
X006508Y007157D01*
X006411Y007157D02*
X006411Y007447D01*
X006315Y007350D01*
X007583Y006942D02*
X007583Y006652D01*
X007583Y006749D02*
X007728Y006749D01*
X007776Y006797D01*
X007776Y006894D01*
X007728Y006942D01*
X007583Y006942D01*
X007680Y006749D02*
X007776Y006652D01*
X007878Y006652D02*
X008071Y006845D01*
X008071Y006894D01*
X008023Y006942D01*
X007926Y006942D01*
X007878Y006894D01*
X007878Y006652D02*
X008071Y006652D01*
X008392Y006617D02*
X008732Y006617D01*
X008732Y006390D02*
X008505Y006390D01*
X008392Y006277D01*
X008505Y006163D01*
X008732Y006163D01*
X008675Y006049D02*
X008732Y005993D01*
X008732Y005823D01*
X008392Y005823D01*
X008392Y005993D01*
X008449Y006049D01*
X008505Y006049D01*
X008562Y005993D01*
X008562Y005823D01*
X008562Y005993D02*
X008619Y006049D01*
X008675Y006049D01*
X008562Y006163D02*
X008562Y006390D01*
X008392Y006504D02*
X008392Y006731D01*
X009135Y007568D02*
X009280Y007568D01*
X009329Y007617D01*
X009329Y007810D01*
X009280Y007858D01*
X009135Y007858D01*
X009135Y007568D01*
X009430Y007713D02*
X009623Y007713D01*
X009575Y007568D02*
X009575Y007858D01*
X009430Y007713D01*
X006649Y005246D02*
X006649Y004956D01*
X006552Y004956D02*
X006746Y004956D01*
X006552Y005149D02*
X006649Y005246D01*
X006451Y005198D02*
X006402Y005246D01*
X006306Y005246D01*
X006257Y005198D01*
X006257Y005004D01*
X006306Y004956D01*
X006402Y004956D01*
X006451Y005004D01*
X006443Y004288D02*
X006443Y004046D01*
X006395Y003998D01*
X006298Y003998D01*
X006250Y004046D01*
X006250Y004288D01*
X006545Y004191D02*
X006641Y004288D01*
X006641Y003998D01*
X006545Y003998D02*
X006738Y003998D01*
X008287Y002405D02*
X008199Y002317D01*
X008199Y002230D01*
X008374Y002056D01*
X008461Y002056D01*
X008548Y002143D01*
X008548Y002230D01*
X008634Y002316D02*
X008722Y002316D01*
X008809Y002403D01*
X008809Y002491D01*
X008634Y002665D02*
X008547Y002665D01*
X008460Y002578D01*
X008460Y002491D01*
X008634Y002316D01*
X008374Y002405D02*
X008287Y002405D01*
X008070Y002188D02*
X008244Y002013D01*
X008244Y001839D01*
X008070Y001839D01*
X007895Y002013D01*
X004434Y002755D02*
X004241Y002755D01*
X004434Y002948D01*
X004434Y002997D01*
X004386Y003045D01*
X004289Y003045D01*
X004241Y002997D01*
X004139Y002997D02*
X004091Y003045D01*
X003994Y003045D01*
X003946Y002997D01*
X003946Y002803D01*
X003994Y002755D01*
X004091Y002755D01*
X004139Y002803D01*
X002462Y004421D02*
X002586Y004635D01*
X003177Y005488D02*
X003274Y005488D01*
X003322Y005536D01*
X003322Y005778D01*
X003424Y005730D02*
X003472Y005778D01*
X003569Y005778D01*
X003617Y005730D01*
X003617Y005681D01*
X003424Y005488D01*
X003617Y005488D01*
X003177Y005488D02*
X003129Y005536D01*
X003129Y005778D01*
X001992Y003292D02*
X002313Y003107D01*
X002009Y001465D02*
X002329Y001280D01*
D11*
X004009Y001019D02*
X004009Y000861D01*
X004010Y000844D01*
X004015Y000827D01*
X004022Y000812D01*
X004032Y000798D01*
X004044Y000786D01*
X004058Y000776D01*
X004073Y000769D01*
X004090Y000764D01*
X004107Y000763D01*
X006273Y000763D01*
X006290Y000764D01*
X006307Y000769D01*
X006322Y000776D01*
X006336Y000786D01*
X006348Y000798D01*
X006358Y000812D01*
X006365Y000827D01*
X006370Y000844D01*
X006371Y000861D01*
X006371Y001019D01*
X005781Y001157D02*
X005781Y001747D01*
X004599Y001747D01*
X004599Y001157D01*
X005781Y001157D01*
X006371Y001885D02*
X006371Y002043D01*
X006370Y002060D01*
X006365Y002077D01*
X006358Y002092D01*
X006348Y002106D01*
X006336Y002118D01*
X006322Y002128D01*
X006307Y002135D01*
X006290Y002140D01*
X006273Y002141D01*
X004147Y002141D01*
X004126Y002143D01*
X004105Y002141D01*
X004085Y002135D01*
X004066Y002126D01*
X004049Y002114D01*
X004034Y002099D01*
X004023Y002082D01*
X004014Y002063D01*
X004009Y002043D01*
X004009Y001885D01*
X005980Y002242D02*
X005980Y002392D01*
X005980Y003092D02*
X005980Y003242D01*
X007780Y003242D02*
X007780Y003092D01*
X007780Y002392D02*
X007780Y002242D01*
X008482Y001543D02*
X008482Y001243D01*
X008732Y001243D01*
X008632Y001123D02*
X008332Y001123D01*
X008432Y001002D02*
X008532Y001002D01*
X008482Y001243D02*
X008232Y001243D01*
X008524Y005058D02*
X008624Y005058D01*
X008725Y005179D02*
X008425Y005179D01*
X008325Y005299D02*
X008575Y005299D01*
X008575Y005499D01*
X008575Y005299D02*
X008825Y005299D01*
X007631Y005903D02*
X007481Y005903D01*
X006781Y005903D02*
X006631Y005903D01*
X006631Y007703D02*
X006781Y007703D01*
X007481Y007703D02*
X007631Y007703D01*
X002268Y007064D02*
X002018Y007064D01*
X002018Y007364D01*
X002018Y007064D02*
X001768Y007064D01*
X001868Y006944D02*
X002168Y006944D01*
X002067Y006823D02*
X001967Y006823D01*
D12*
X003939Y002961D02*
X003978Y002905D01*
X004057Y002793D02*
X004213Y002568D01*
X004157Y002529D02*
X004269Y002608D01*
X004042Y002449D02*
X003924Y002617D01*
X003829Y002633D01*
X003812Y002538D01*
X003930Y002370D01*
X003818Y002292D02*
X003661Y002516D01*
X003717Y002555D01*
X003812Y002538D01*
X003624Y002323D02*
X003456Y002205D01*
X003439Y002110D01*
X003535Y002093D01*
X003703Y002211D01*
X003585Y002379D01*
X003490Y002396D01*
X003378Y002317D01*
X003207Y002198D02*
X003095Y002120D01*
X003112Y002215D02*
X003269Y001991D01*
X003364Y001974D01*
X003025Y001736D02*
X002790Y002072D01*
X002678Y001994D02*
X002902Y002151D01*
X002641Y001801D02*
X002798Y001577D01*
X002680Y001745D02*
X002456Y001588D01*
X002417Y001644D02*
X002450Y001835D01*
X002641Y001801D01*
X002417Y001644D02*
X002573Y001420D01*
X004001Y002753D02*
X004057Y002793D01*
D13*
X003790Y006387D03*
X004580Y006377D03*
D14*
X001680Y000842D02*
X000880Y000842D01*
X000880Y006742D01*
X001680Y006742D01*
X001680Y007742D01*
X000880Y007742D01*
X000880Y006742D01*
X001680Y006742D02*
X001680Y000842D01*
X003790Y006412D02*
X003700Y006582D01*
X003880Y006582D01*
X003790Y006412D01*
X003767Y006455D02*
X003813Y006455D01*
X003865Y006554D02*
X003715Y006554D01*
X004490Y006582D02*
X004580Y006412D01*
X004670Y006582D01*
X004490Y006582D01*
X004505Y006554D02*
X004655Y006554D01*
X004603Y006455D02*
X004557Y006455D01*
X003289Y009691D02*
X006833Y009691D01*
X008890Y007262D02*
X009060Y007352D01*
X009060Y007172D01*
X008890Y007262D01*
X008926Y007243D02*
X009060Y007243D01*
X009060Y007342D02*
X009040Y007342D01*
X008980Y006742D02*
X008880Y006642D01*
X008880Y005742D01*
X008880Y004742D01*
X009680Y004742D01*
X009680Y005742D01*
X008880Y005742D01*
X009680Y005742D02*
X009680Y006742D01*
X009280Y006742D01*
X008980Y002742D02*
X009680Y002742D01*
X009680Y001742D01*
X008880Y001742D01*
X008880Y002642D01*
X008980Y002742D01*
X008880Y001742D02*
X008880Y000942D01*
X008980Y000842D01*
X009680Y000842D01*
X009680Y001742D01*
D15*
X008845Y007262D03*
D16*
X008179Y006205D02*
X008179Y005969D01*
X007707Y005969D02*
X007707Y006205D01*
X007621Y005906D02*
X007621Y007706D01*
X007403Y008292D02*
X007316Y008292D01*
X007272Y008336D01*
X007151Y008336D02*
X007151Y008509D01*
X007108Y008553D01*
X006978Y008553D01*
X006978Y008292D01*
X007108Y008292D01*
X007151Y008336D01*
X007272Y008509D02*
X007316Y008553D01*
X007403Y008553D01*
X007446Y008509D01*
X007446Y008466D01*
X007403Y008422D01*
X007446Y008379D01*
X007446Y008336D01*
X007403Y008292D01*
X007403Y008422D02*
X007359Y008422D01*
X006621Y007706D02*
X006621Y005906D01*
X006416Y006424D02*
X006416Y006660D01*
X005944Y006660D02*
X005944Y006424D01*
X005616Y006424D02*
X005616Y006660D01*
X005144Y006660D02*
X005144Y006424D01*
X005274Y005303D02*
X003264Y005303D01*
X003216Y006424D02*
X003216Y006660D01*
X002744Y006660D02*
X002744Y006424D01*
X003264Y003443D02*
X005274Y003443D01*
X005222Y002876D02*
X005222Y002746D01*
X005308Y002789D01*
X005352Y002789D01*
X005395Y002746D01*
X005395Y002659D01*
X005352Y002616D01*
X005265Y002616D01*
X005222Y002659D01*
X005100Y002659D02*
X005057Y002616D01*
X004927Y002616D01*
X004927Y002876D01*
X005057Y002876D01*
X005100Y002833D01*
X005100Y002659D01*
X005222Y002876D02*
X005395Y002876D01*
X005983Y003252D02*
X007783Y003252D01*
X008330Y003442D02*
X008330Y003042D01*
X008332Y003025D01*
X008336Y003008D01*
X008343Y002992D01*
X008353Y002978D01*
X008366Y002965D01*
X008380Y002955D01*
X008396Y002948D01*
X008413Y002944D01*
X008430Y002942D01*
X009530Y002942D01*
X009547Y002944D01*
X009564Y002948D01*
X009580Y002955D01*
X009594Y002965D01*
X009607Y002978D01*
X009617Y002992D01*
X009624Y003008D01*
X009628Y003025D01*
X009630Y003042D01*
X009630Y003442D01*
X009030Y003442D01*
X009030Y003242D01*
X009130Y003642D02*
X008830Y003842D01*
X009630Y004042D01*
X009630Y004192D02*
X009130Y004492D01*
X009130Y004192D02*
X009630Y004592D01*
X008830Y003842D02*
X008530Y004042D01*
X008330Y003642D02*
X009130Y003642D01*
X009630Y003642D01*
X007783Y002252D02*
X005983Y002252D01*
X003437Y002620D02*
X003201Y002620D01*
X003201Y003092D02*
X003437Y003092D01*
X007274Y004879D02*
X007510Y004879D01*
X007510Y005352D02*
X007274Y005352D01*
D17*
X004888Y003412D02*
X004890Y003433D01*
X004896Y003452D01*
X004905Y003471D01*
X004917Y003487D01*
X004933Y003501D01*
X004950Y003512D01*
X004969Y003520D01*
X004990Y003524D01*
X005010Y003524D01*
X005031Y003520D01*
X005050Y003512D01*
X005067Y003501D01*
X005083Y003487D01*
X005095Y003471D01*
X005104Y003452D01*
X005110Y003433D01*
X005112Y003412D01*
X005110Y003391D01*
X005104Y003372D01*
X005095Y003353D01*
X005083Y003337D01*
X005067Y003323D01*
X005050Y003312D01*
X005031Y003304D01*
X005010Y003300D01*
X004990Y003300D01*
X004969Y003304D01*
X004950Y003312D01*
X004933Y003323D01*
X004917Y003337D01*
X004905Y003353D01*
X004896Y003372D01*
X004890Y003391D01*
X004888Y003412D01*
D18*
X004897Y003663D02*
X004899Y003678D01*
X004905Y003691D01*
X004914Y003703D01*
X004925Y003712D01*
X004939Y003718D01*
X004954Y003720D01*
X004969Y003718D01*
X004982Y003712D01*
X004994Y003703D01*
X005003Y003692D01*
X005009Y003678D01*
X005011Y003663D01*
X005009Y003648D01*
X005003Y003635D01*
X004994Y003623D01*
X004983Y003614D01*
X004969Y003608D01*
X004954Y003606D01*
X004939Y003608D01*
X004926Y003614D01*
X004914Y003623D01*
X004905Y003634D01*
X004899Y003648D01*
X004897Y003663D01*
X006782Y002742D02*
X007018Y002585D01*
X007018Y002899D01*
X006782Y002742D01*
X006841Y002742D02*
X006959Y002663D01*
X006959Y002821D01*
X006841Y002742D01*
X006897Y002705D02*
X006959Y002705D01*
X006959Y002783D02*
X006902Y002783D01*
X007061Y003541D02*
X007399Y003541D01*
X006911Y003995D02*
X006911Y004207D01*
X007061Y004661D02*
X007399Y004661D01*
X007131Y006705D02*
X007288Y006941D01*
X006974Y006941D01*
X007131Y006705D01*
X007131Y006764D02*
X007210Y006882D01*
X007052Y006882D01*
X007131Y006764D01*
X007116Y006787D02*
X007146Y006787D01*
X007199Y006865D02*
X007063Y006865D01*
X008091Y008742D02*
X008093Y008794D01*
X008099Y008846D01*
X008109Y008897D01*
X008122Y008947D01*
X008140Y008997D01*
X008161Y009044D01*
X008185Y009090D01*
X008214Y009134D01*
X008245Y009176D01*
X008279Y009215D01*
X008316Y009252D01*
X008356Y009285D01*
X008399Y009316D01*
X008443Y009343D01*
X008489Y009367D01*
X008538Y009387D01*
X008587Y009403D01*
X008638Y009416D01*
X008689Y009425D01*
X008741Y009430D01*
X008793Y009431D01*
X008845Y009428D01*
X008897Y009421D01*
X008948Y009410D01*
X008998Y009396D01*
X009047Y009377D01*
X009094Y009355D01*
X009139Y009330D01*
X009183Y009301D01*
X009224Y009269D01*
X009263Y009234D01*
X009298Y009196D01*
X009331Y009155D01*
X009361Y009113D01*
X009387Y009068D01*
X009410Y009021D01*
X009429Y008972D01*
X009445Y008922D01*
X009457Y008872D01*
X009465Y008820D01*
X009469Y008768D01*
X009469Y008716D01*
X009465Y008664D01*
X009457Y008612D01*
X009445Y008562D01*
X009429Y008512D01*
X009410Y008463D01*
X009387Y008416D01*
X009361Y008371D01*
X009331Y008329D01*
X009298Y008288D01*
X009263Y008250D01*
X009224Y008215D01*
X009183Y008183D01*
X009139Y008154D01*
X009094Y008129D01*
X009047Y008107D01*
X008998Y008088D01*
X008948Y008074D01*
X008897Y008063D01*
X008845Y008056D01*
X008793Y008053D01*
X008741Y008054D01*
X008689Y008059D01*
X008638Y008068D01*
X008587Y008081D01*
X008538Y008097D01*
X008489Y008117D01*
X008443Y008141D01*
X008399Y008168D01*
X008356Y008199D01*
X008316Y008232D01*
X008279Y008269D01*
X008245Y008308D01*
X008214Y008350D01*
X008185Y008394D01*
X008161Y008440D01*
X008140Y008487D01*
X008122Y008537D01*
X008109Y008587D01*
X008099Y008638D01*
X008093Y008690D01*
X008091Y008742D01*
X001091Y008742D02*
X001093Y008794D01*
X001099Y008846D01*
X001109Y008897D01*
X001122Y008947D01*
X001140Y008997D01*
X001161Y009044D01*
X001185Y009090D01*
X001214Y009134D01*
X001245Y009176D01*
X001279Y009215D01*
X001316Y009252D01*
X001356Y009285D01*
X001399Y009316D01*
X001443Y009343D01*
X001489Y009367D01*
X001538Y009387D01*
X001587Y009403D01*
X001638Y009416D01*
X001689Y009425D01*
X001741Y009430D01*
X001793Y009431D01*
X001845Y009428D01*
X001897Y009421D01*
X001948Y009410D01*
X001998Y009396D01*
X002047Y009377D01*
X002094Y009355D01*
X002139Y009330D01*
X002183Y009301D01*
X002224Y009269D01*
X002263Y009234D01*
X002298Y009196D01*
X002331Y009155D01*
X002361Y009113D01*
X002387Y009068D01*
X002410Y009021D01*
X002429Y008972D01*
X002445Y008922D01*
X002457Y008872D01*
X002465Y008820D01*
X002469Y008768D01*
X002469Y008716D01*
X002465Y008664D01*
X002457Y008612D01*
X002445Y008562D01*
X002429Y008512D01*
X002410Y008463D01*
X002387Y008416D01*
X002361Y008371D01*
X002331Y008329D01*
X002298Y008288D01*
X002263Y008250D01*
X002224Y008215D01*
X002183Y008183D01*
X002139Y008154D01*
X002094Y008129D01*
X002047Y008107D01*
X001998Y008088D01*
X001948Y008074D01*
X001897Y008063D01*
X001845Y008056D01*
X001793Y008053D01*
X001741Y008054D01*
X001689Y008059D01*
X001638Y008068D01*
X001587Y008081D01*
X001538Y008097D01*
X001489Y008117D01*
X001443Y008141D01*
X001399Y008168D01*
X001356Y008199D01*
X001316Y008232D01*
X001279Y008269D01*
X001245Y008308D01*
X001214Y008350D01*
X001185Y008394D01*
X001161Y008440D01*
X001140Y008487D01*
X001122Y008537D01*
X001109Y008587D01*
X001099Y008638D01*
X001093Y008690D01*
X001091Y008742D01*
D19*
X007131Y006665D03*
D20*
X008920Y007223D03*
X004580Y006443D03*
X003790Y006453D03*
D21*
X003526Y007860D02*
X003526Y009711D01*
X003526Y007860D02*
X006596Y007860D01*
X006596Y009711D01*
D22*
X006742Y002742D03*
M02*
