G75*
%MOIN*%
%OFA0B0*%
%FSLAX24Y24*%
%IPPOS*%
%LPD*%
%AMOC8*
5,1,8,0,0,1.08239X$1,22.5*
%
%ADD10C,0.0000*%
%ADD11R,0.0870X0.0240*%
%ADD12R,0.0472X0.0315*%
%ADD13R,0.0420X0.0860*%
%ADD14R,0.0315X0.0472*%
%ADD15R,0.0472X0.0472*%
%ADD16R,0.0472X0.0217*%
%ADD17C,0.1266*%
%ADD18R,0.0906X0.0630*%
%ADD19R,0.0157X0.0531*%
%ADD20R,0.0748X0.0748*%
%ADD21C,0.0660*%
%ADD22R,0.0860X0.0420*%
%ADD23C,0.0700*%
%ADD24C,0.0240*%
%ADD25C,0.0120*%
%ADD26C,0.0356*%
%ADD27C,0.0160*%
%ADD28C,0.0100*%
D10*
X000780Y000742D02*
X000780Y009742D01*
X009768Y009742D01*
X009768Y000742D01*
X000780Y000742D01*
X004156Y008156D02*
X004158Y008177D01*
X004164Y008197D01*
X004173Y008217D01*
X004185Y008234D01*
X004200Y008248D01*
X004218Y008260D01*
X004238Y008268D01*
X004258Y008273D01*
X004279Y008274D01*
X004300Y008271D01*
X004320Y008265D01*
X004339Y008254D01*
X004356Y008241D01*
X004369Y008225D01*
X004380Y008207D01*
X004388Y008187D01*
X004392Y008167D01*
X004392Y008145D01*
X004388Y008125D01*
X004380Y008105D01*
X004369Y008087D01*
X004356Y008071D01*
X004339Y008058D01*
X004320Y008047D01*
X004300Y008041D01*
X004279Y008038D01*
X004258Y008039D01*
X004238Y008044D01*
X004218Y008052D01*
X004200Y008064D01*
X004185Y008078D01*
X004173Y008095D01*
X004164Y008115D01*
X004158Y008135D01*
X004156Y008156D01*
X005730Y008156D02*
X005732Y008177D01*
X005738Y008197D01*
X005747Y008217D01*
X005759Y008234D01*
X005774Y008248D01*
X005792Y008260D01*
X005812Y008268D01*
X005832Y008273D01*
X005853Y008274D01*
X005874Y008271D01*
X005894Y008265D01*
X005913Y008254D01*
X005930Y008241D01*
X005943Y008225D01*
X005954Y008207D01*
X005962Y008187D01*
X005966Y008167D01*
X005966Y008145D01*
X005962Y008125D01*
X005954Y008105D01*
X005943Y008087D01*
X005930Y008071D01*
X005913Y008058D01*
X005894Y008047D01*
X005874Y008041D01*
X005853Y008038D01*
X005832Y008039D01*
X005812Y008044D01*
X005792Y008052D01*
X005774Y008064D01*
X005759Y008078D01*
X005747Y008095D01*
X005738Y008115D01*
X005732Y008135D01*
X005730Y008156D01*
D11*
X005594Y005123D03*
X005594Y004623D03*
X005594Y004123D03*
X005594Y003623D03*
X002944Y003623D03*
X002944Y004123D03*
X002944Y004623D03*
X002944Y005123D03*
D12*
X002980Y006188D03*
X002980Y006896D03*
X005380Y006896D03*
X005380Y006188D03*
X006180Y006188D03*
X006180Y006896D03*
X007943Y006441D03*
X007943Y005733D03*
D13*
X007131Y005953D03*
X007131Y007653D03*
D14*
X007038Y005116D03*
X007747Y005116D03*
X003673Y002856D03*
X002965Y002856D03*
D15*
X003790Y006079D03*
X004580Y006069D03*
X004580Y006895D03*
X003790Y006905D03*
X008546Y007223D03*
X009373Y007223D03*
D16*
X007742Y004475D03*
X007742Y004101D03*
X007742Y003727D03*
X006718Y003727D03*
X006718Y004475D03*
D17*
X008780Y008742D03*
X001780Y008742D03*
D18*
X003950Y001452D03*
X006430Y001452D03*
D19*
X005573Y008008D03*
X005317Y008008D03*
X005061Y008008D03*
X004805Y008008D03*
X004549Y008008D03*
D20*
X004589Y009061D03*
X005533Y009061D03*
X006616Y009061D03*
X003506Y009061D03*
D21*
X001280Y007242D03*
X001280Y006242D03*
X001280Y005242D03*
X001280Y004242D03*
X001280Y003242D03*
X001280Y002242D03*
X001280Y001242D03*
X009280Y001242D03*
X009280Y002242D03*
X009280Y005242D03*
X009280Y006242D03*
D22*
X007730Y002742D03*
X006030Y002742D03*
D23*
X007720Y001662D03*
X002350Y007422D03*
D24*
X002980Y006896D02*
X003790Y006905D01*
X004580Y006895D02*
X005380Y006896D01*
X006180Y006896D01*
X006718Y003727D02*
X006297Y003232D01*
X003950Y001452D02*
X003952Y001425D01*
X003950Y001399D01*
X003944Y001373D01*
X003934Y001348D01*
X003921Y001325D01*
X003905Y001303D01*
X003886Y001285D01*
X003865Y001269D01*
X003841Y001256D01*
X003816Y001247D01*
X003790Y001242D01*
D25*
X005380Y006896D02*
X005330Y006946D01*
X005330Y008008D01*
X005317Y008008D01*
X005061Y008008D02*
X005061Y007653D01*
X005060Y007652D01*
D26*
X005230Y005692D03*
X004218Y005514D03*
X004780Y004142D03*
X006297Y003232D03*
X007228Y003820D03*
X007225Y004371D03*
X007880Y007292D03*
X003318Y002464D03*
X002447Y003035D03*
D27*
X002576Y002906D01*
X002965Y002856D01*
X002865Y003544D01*
X002944Y003623D01*
X003218Y003293D02*
X003466Y003293D01*
X003589Y003416D01*
X003589Y003830D01*
X003546Y003873D01*
X003589Y003916D01*
X003589Y004330D01*
X003546Y004373D01*
X003589Y004416D01*
X003589Y004777D01*
X003736Y004566D01*
X003743Y004547D01*
X003761Y004527D01*
X003774Y004504D01*
X003784Y004497D01*
X003791Y004487D01*
X003807Y004476D01*
X003879Y004398D01*
X003886Y004374D01*
X003886Y004374D01*
X003927Y004327D01*
X003950Y003880D01*
X003955Y003554D01*
X003936Y003239D01*
X003900Y003260D01*
X003855Y003272D01*
X003673Y003272D01*
X003492Y003272D01*
X003446Y003260D01*
X003405Y003236D01*
X003372Y003203D01*
X003348Y003162D01*
X003336Y003116D01*
X003336Y002856D01*
X003336Y002596D01*
X003348Y002550D01*
X003372Y002509D01*
X003405Y002476D01*
X003446Y002452D01*
X003492Y002440D01*
X003673Y002440D01*
X003673Y002856D01*
X003336Y002856D01*
X003673Y002856D01*
X003673Y002856D01*
X003673Y002856D01*
X003673Y003272D01*
X003673Y002856D01*
X003673Y002856D01*
X003730Y003092D01*
X003673Y003120D02*
X003673Y003120D01*
X003673Y002961D02*
X003673Y002961D01*
X003673Y002856D02*
X003673Y002440D01*
X003741Y002440D01*
X003707Y002401D01*
X003527Y002296D01*
X003457Y002274D01*
X002957Y002304D01*
X001873Y002431D01*
X001779Y002448D01*
X001738Y002548D01*
X001586Y002700D01*
X001484Y002742D01*
X001586Y002784D01*
X001738Y002936D01*
X001820Y003135D01*
X001820Y003349D01*
X001738Y003548D01*
X001586Y003700D01*
X001484Y003742D01*
X001586Y003784D01*
X001721Y003920D01*
X002340Y003875D01*
X002342Y003873D01*
X002299Y003830D01*
X002299Y003416D01*
X002315Y003400D01*
X002227Y003364D01*
X002118Y003255D01*
X002059Y003112D01*
X002059Y002958D01*
X002118Y002815D01*
X002227Y002706D01*
X002370Y002647D01*
X002444Y002647D01*
X002448Y002645D01*
X002482Y002626D01*
X002501Y002623D01*
X002518Y002616D01*
X002557Y002616D01*
X002597Y002611D01*
X002597Y002533D01*
X002720Y002410D01*
X003209Y002410D01*
X003332Y002533D01*
X003332Y003179D01*
X003218Y003293D01*
X003233Y003278D02*
X003939Y003278D01*
X003948Y003437D02*
X003589Y003437D01*
X003589Y003595D02*
X003954Y003595D01*
X003952Y003754D02*
X003589Y003754D01*
X003585Y003912D02*
X003949Y003912D01*
X003940Y004071D02*
X003589Y004071D01*
X003589Y004229D02*
X003932Y004229D01*
X003882Y004388D02*
X003560Y004388D01*
X003589Y004546D02*
X003744Y004546D01*
X003639Y004705D02*
X003589Y004705D01*
X003996Y004700D02*
X004140Y004542D01*
X004210Y004462D02*
X004240Y003892D01*
X004780Y004142D02*
X005280Y004142D01*
X005594Y004123D01*
X005594Y003623D02*
X003580Y001242D01*
X003790Y001242D01*
X003580Y001242D02*
X001280Y001242D01*
X001764Y002486D02*
X002644Y002486D01*
X002759Y002327D02*
X003580Y002327D01*
X003673Y002486D02*
X003673Y002486D01*
X003673Y002644D02*
X003673Y002644D01*
X003673Y002803D02*
X003673Y002803D01*
X003336Y002803D02*
X003332Y002803D01*
X003490Y001982D02*
X003548Y001997D01*
X003605Y002015D01*
X003661Y002037D01*
X003716Y002063D01*
X003768Y002091D01*
X003819Y002123D01*
X003868Y002158D01*
X003914Y002196D01*
X003958Y002237D01*
X003999Y002281D01*
X004038Y002327D01*
X004073Y002375D01*
X004106Y002426D01*
X004135Y002478D01*
X004161Y002532D01*
X004609Y002010D02*
X007276Y002010D01*
X007245Y001979D02*
X007160Y001773D01*
X007160Y001551D01*
X007245Y001345D01*
X007403Y001187D01*
X007609Y001102D01*
X007831Y001102D01*
X008037Y001187D01*
X008195Y001345D01*
X008280Y001551D01*
X008280Y001773D01*
X008195Y001979D01*
X008037Y002137D01*
X008020Y002144D01*
X008020Y002322D01*
X008247Y002322D01*
X008370Y002445D01*
X008370Y002906D01*
X008475Y002905D01*
X008783Y002454D01*
X008740Y002349D01*
X008740Y002135D01*
X008822Y001936D01*
X008974Y001784D01*
X009117Y001725D01*
X009084Y001715D01*
X009013Y001678D01*
X008948Y001631D01*
X008891Y001574D01*
X008844Y001509D01*
X008807Y001438D01*
X008783Y001361D01*
X008770Y001282D01*
X008770Y001260D01*
X009262Y001260D01*
X009262Y001224D01*
X008770Y001224D01*
X008770Y001202D01*
X008783Y001123D01*
X008807Y001046D01*
X008844Y000975D01*
X008860Y000952D01*
X004515Y000952D01*
X004613Y001050D01*
X004613Y001854D01*
X004539Y001927D01*
X005390Y002933D01*
X005390Y002445D01*
X005513Y002322D01*
X006547Y002322D01*
X006670Y002445D01*
X006670Y002936D01*
X007090Y002928D01*
X007090Y002445D01*
X007213Y002322D01*
X007440Y002322D01*
X007440Y002152D01*
X007403Y002137D01*
X007245Y001979D01*
X007192Y001852D02*
X007042Y001852D01*
X007051Y001836D02*
X007027Y001877D01*
X006993Y001911D01*
X006952Y001935D01*
X006907Y001947D01*
X006508Y001947D01*
X006508Y001529D01*
X007063Y001529D01*
X007063Y001791D01*
X007051Y001836D01*
X007063Y001693D02*
X007160Y001693D01*
X007167Y001535D02*
X007063Y001535D01*
X007063Y001375D02*
X006508Y001375D01*
X006508Y001529D01*
X006353Y001529D01*
X006353Y001375D01*
X005797Y001375D01*
X005797Y001113D01*
X005810Y001068D01*
X005833Y001027D01*
X005867Y000993D01*
X005908Y000969D01*
X005954Y000957D01*
X006353Y000957D01*
X006353Y001375D01*
X006508Y001375D01*
X006508Y000957D01*
X006907Y000957D01*
X006952Y000969D01*
X006993Y000993D01*
X007027Y001027D01*
X007051Y001068D01*
X007063Y001113D01*
X007063Y001375D01*
X007063Y001218D02*
X007373Y001218D01*
X007232Y001376D02*
X006508Y001376D01*
X006353Y001376D02*
X004613Y001376D01*
X004613Y001218D02*
X005797Y001218D01*
X005815Y001059D02*
X004613Y001059D01*
X004613Y001535D02*
X005797Y001535D01*
X005797Y001529D02*
X006353Y001529D01*
X006353Y001947D01*
X005954Y001947D01*
X005908Y001935D01*
X005867Y001911D01*
X005833Y001877D01*
X005810Y001836D01*
X005797Y001791D01*
X005797Y001529D01*
X005797Y001693D02*
X004613Y001693D01*
X004613Y001852D02*
X005818Y001852D01*
X005508Y002327D02*
X004878Y002327D01*
X004744Y002169D02*
X007440Y002169D01*
X007208Y002327D02*
X006552Y002327D01*
X006670Y002486D02*
X007090Y002486D01*
X007090Y002644D02*
X006670Y002644D01*
X006670Y002803D02*
X007090Y002803D01*
X007730Y002742D02*
X007730Y001662D01*
X007720Y001662D01*
X008164Y002010D02*
X008792Y002010D01*
X008907Y001852D02*
X008248Y001852D01*
X008280Y001693D02*
X009042Y001693D01*
X008862Y001535D02*
X008273Y001535D01*
X008208Y001376D02*
X008787Y001376D01*
X008770Y001218D02*
X008067Y001218D01*
X008803Y001059D02*
X007046Y001059D01*
X006508Y001059D02*
X006353Y001059D01*
X006353Y001218D02*
X006508Y001218D01*
X006508Y001535D02*
X006353Y001535D01*
X006353Y001693D02*
X006508Y001693D01*
X006508Y001852D02*
X006353Y001852D01*
X006030Y002742D02*
X006297Y003232D01*
X008630Y003192D01*
X009280Y002242D01*
X008740Y002169D02*
X008020Y002169D01*
X008252Y002327D02*
X008740Y002327D01*
X008762Y002486D02*
X008370Y002486D01*
X008370Y002644D02*
X008654Y002644D01*
X008545Y002803D02*
X008370Y002803D01*
X008923Y003278D02*
X009558Y003278D01*
X009558Y003437D02*
X008795Y003437D01*
X008798Y003435D02*
X008768Y003448D01*
X008740Y003466D01*
X008716Y003471D01*
X008693Y003481D01*
X008659Y003482D01*
X008627Y003488D01*
X008602Y003483D01*
X008147Y003490D01*
X008188Y003532D01*
X008188Y003922D01*
X008155Y003956D01*
X008158Y003969D01*
X008158Y004101D01*
X008158Y004233D01*
X008155Y004246D01*
X008188Y004280D01*
X008188Y004670D01*
X008090Y004768D01*
X008114Y004792D01*
X008114Y004826D01*
X008211Y004826D01*
X008318Y004870D01*
X008777Y005329D01*
X008770Y005282D01*
X008770Y005260D01*
X009262Y005260D01*
X009262Y005224D01*
X009298Y005224D01*
X009298Y004732D01*
X009320Y004732D01*
X009399Y004745D01*
X009476Y004769D01*
X009547Y004806D01*
X009558Y004814D01*
X009558Y002711D01*
X009387Y002782D01*
X009262Y002782D01*
X008888Y003329D01*
X008879Y003352D01*
X008856Y003376D01*
X008837Y003403D01*
X008816Y003417D01*
X008798Y003435D01*
X009031Y003120D02*
X009558Y003120D01*
X009558Y002961D02*
X009139Y002961D01*
X009248Y002803D02*
X009558Y002803D01*
X009558Y003595D02*
X008188Y003595D01*
X008188Y003754D02*
X009558Y003754D01*
X009558Y003912D02*
X008188Y003912D01*
X008158Y004071D02*
X009558Y004071D01*
X009558Y004229D02*
X008158Y004229D01*
X008158Y004101D02*
X007742Y004101D01*
X007742Y004101D01*
X008158Y004101D01*
X008188Y004388D02*
X009558Y004388D01*
X009558Y004546D02*
X008188Y004546D01*
X008154Y004705D02*
X009558Y004705D01*
X009262Y004732D02*
X009262Y005224D01*
X008770Y005224D01*
X008770Y005202D01*
X008783Y005123D01*
X008807Y005046D01*
X008844Y004975D01*
X008891Y004910D01*
X008948Y004853D01*
X009013Y004806D01*
X009084Y004769D01*
X009161Y004745D01*
X009240Y004732D01*
X009262Y004732D01*
X009262Y004863D02*
X009298Y004863D01*
X009298Y005022D02*
X009262Y005022D01*
X009262Y005180D02*
X009298Y005180D01*
X008938Y004863D02*
X008302Y004863D01*
X008470Y005022D02*
X008820Y005022D01*
X008773Y005180D02*
X008628Y005180D01*
X008154Y005116D02*
X009280Y006242D01*
X008730Y006742D02*
X009373Y007223D01*
X008959Y007579D02*
X008869Y007669D01*
X008223Y007669D01*
X008137Y007584D01*
X008100Y007621D01*
X007957Y007680D01*
X007803Y007680D01*
X007660Y007621D01*
X007551Y007512D01*
X007551Y008170D01*
X007428Y008293D01*
X006834Y008293D01*
X006711Y008170D01*
X006711Y007895D01*
X006060Y007778D01*
X005862Y007728D01*
X005862Y007827D01*
X005914Y007827D01*
X006034Y007877D01*
X006127Y007970D01*
X006177Y008090D01*
X006177Y008221D01*
X006127Y008341D01*
X006034Y008434D01*
X005914Y008484D01*
X005783Y008484D01*
X005752Y008471D01*
X005739Y008484D01*
X004639Y008484D01*
X004609Y008454D01*
X004549Y008454D01*
X004447Y008454D01*
X004425Y008448D01*
X004339Y008484D01*
X004208Y008484D01*
X004088Y008434D01*
X003995Y008341D01*
X003945Y008221D01*
X003945Y008090D01*
X003995Y007970D01*
X004088Y007877D01*
X004208Y007827D01*
X004290Y007827D01*
X004290Y007718D01*
X004300Y007684D01*
X004224Y007674D01*
X003872Y007492D01*
X003872Y007492D01*
X003741Y007352D01*
X003467Y007352D01*
X003346Y007230D01*
X003337Y007230D01*
X003303Y007264D01*
X002856Y007264D01*
X002867Y007298D01*
X002880Y007380D01*
X002880Y007402D01*
X002370Y007402D01*
X002370Y007442D01*
X002330Y007442D01*
X002330Y007926D01*
X002490Y008032D01*
X002707Y008358D01*
X002784Y008742D01*
X002707Y009126D01*
X002490Y009452D01*
X002369Y009532D01*
X002980Y009532D01*
X002964Y009505D01*
X002952Y009459D01*
X002952Y009141D01*
X003426Y009141D01*
X003426Y008981D01*
X003586Y008981D01*
X003586Y009141D01*
X004509Y009141D01*
X004509Y008981D01*
X004669Y008981D01*
X004669Y009141D01*
X005143Y009141D01*
X005453Y009141D01*
X005453Y008981D01*
X004669Y008981D01*
X004669Y008507D01*
X004986Y008507D01*
X005032Y008519D01*
X005061Y008536D01*
X005090Y008519D01*
X005136Y008507D01*
X005453Y008507D01*
X005453Y008981D01*
X005613Y008981D01*
X005613Y008507D01*
X005931Y008507D01*
X005977Y008519D01*
X006018Y008543D01*
X006051Y008576D01*
X006075Y008617D01*
X006098Y008576D01*
X006132Y008543D01*
X006173Y008519D01*
X006218Y008507D01*
X006536Y008507D01*
X006536Y008981D01*
X005613Y008981D01*
X005613Y009141D01*
X006087Y009141D01*
X006536Y009141D01*
X006536Y008981D01*
X006696Y008981D01*
X006696Y008507D01*
X007014Y008507D01*
X007060Y008519D01*
X007101Y008543D01*
X007134Y008576D01*
X007158Y008618D01*
X007170Y008663D01*
X007170Y008981D01*
X006696Y008981D01*
X006696Y009141D01*
X007170Y009141D01*
X007170Y009459D01*
X007158Y009505D01*
X007142Y009532D01*
X008191Y009532D01*
X008070Y009452D01*
X007853Y009126D01*
X007776Y008742D01*
X007853Y008358D01*
X008070Y008032D01*
X008396Y007815D01*
X008780Y007738D01*
X009164Y007815D01*
X009490Y008032D01*
X009558Y008135D01*
X009558Y007669D01*
X009050Y007669D01*
X008959Y007579D01*
X009254Y007875D02*
X009558Y007875D01*
X009558Y008033D02*
X009490Y008033D01*
X009558Y007716D02*
X007551Y007716D01*
X007551Y007558D02*
X007597Y007558D01*
X007880Y007292D02*
X008477Y007292D01*
X008546Y007223D01*
X008730Y006742D02*
X007943Y006441D01*
X007943Y005733D02*
X007131Y005953D01*
X006180Y006188D01*
X006459Y005820D02*
X005857Y005820D01*
X005780Y005897D01*
X005703Y005820D01*
X005597Y005820D01*
X005618Y005769D01*
X005618Y005615D01*
X005559Y005472D01*
X005510Y005423D01*
X005594Y005423D01*
X005594Y005123D01*
X005594Y005123D01*
X005594Y005423D01*
X006053Y005423D01*
X006091Y005413D01*
X006116Y005438D01*
X006120Y005440D01*
X006512Y005807D01*
X006459Y005820D01*
X006484Y005814D02*
X005600Y005814D01*
X005618Y005656D02*
X006350Y005656D01*
X006181Y005497D02*
X005569Y005497D01*
X005594Y005339D02*
X005594Y005339D01*
X005594Y005180D02*
X005594Y005180D01*
X005594Y005123D02*
X005594Y005123D01*
X004979Y005123D01*
X004979Y005267D01*
X004991Y005312D01*
X005015Y005354D01*
X005020Y005359D01*
X005010Y005363D01*
X004901Y005472D01*
X004842Y005615D01*
X004842Y005653D01*
X004840Y005652D01*
X004618Y005652D01*
X004618Y006030D01*
X004542Y006030D01*
X004542Y005652D01*
X004320Y005652D01*
X004274Y005665D01*
X004233Y005688D01*
X004200Y005722D01*
X004182Y005752D01*
X004170Y005732D01*
X004137Y005698D01*
X004096Y005675D01*
X004050Y005662D01*
X003828Y005662D01*
X003828Y006040D01*
X003752Y006040D01*
X003752Y005662D01*
X003685Y005662D01*
X003724Y005605D01*
X004201Y004913D01*
X004243Y004897D01*
X004296Y004893D01*
X004311Y004895D01*
X004342Y004905D01*
X004361Y004904D01*
X004379Y004908D01*
X004415Y004901D01*
X004692Y004887D01*
X005009Y004890D01*
X005014Y004895D01*
X004991Y004934D01*
X004979Y004979D01*
X004979Y005123D01*
X005594Y005123D01*
X005230Y005692D02*
X005380Y006188D01*
X004651Y005033D02*
X004587Y005063D01*
X004524Y005097D01*
X004464Y005134D01*
X004406Y005175D01*
X004350Y005219D01*
X004297Y005266D01*
X004247Y005316D01*
X004199Y005368D01*
X004155Y005423D01*
X004113Y005481D01*
X004075Y005541D01*
X004041Y005602D01*
X004040Y005602D02*
X003790Y006079D01*
X004580Y006069D01*
X004542Y006107D02*
X004542Y006031D01*
X004206Y006031D01*
X004206Y006041D01*
X003828Y006041D01*
X003828Y006117D01*
X004164Y006117D01*
X004164Y006107D01*
X004542Y006107D01*
X004542Y005973D02*
X004618Y005973D01*
X004618Y005814D02*
X004542Y005814D01*
X004542Y005656D02*
X004618Y005656D01*
X004891Y005497D02*
X003799Y005497D01*
X003908Y005339D02*
X005006Y005339D01*
X004979Y005180D02*
X004017Y005180D01*
X004127Y005022D02*
X004979Y005022D01*
X004380Y004612D02*
X004340Y004605D01*
X004299Y004602D01*
X004259Y004603D01*
X004218Y004607D01*
X004178Y004614D01*
X004139Y004625D01*
X004101Y004639D01*
X004064Y004656D01*
X004029Y004676D01*
X003996Y004700D01*
X004141Y004542D02*
X004148Y004521D01*
X004160Y004503D01*
X004174Y004486D01*
X004191Y004472D01*
X004210Y004462D01*
X003123Y005453D02*
X002754Y005453D01*
X001820Y006187D01*
X001820Y006349D01*
X001738Y006548D01*
X001586Y006700D01*
X001443Y006759D01*
X001476Y006769D01*
X001547Y006806D01*
X001612Y006853D01*
X001669Y006910D01*
X001716Y006975D01*
X001753Y007046D01*
X001777Y007123D01*
X001790Y007202D01*
X001790Y007224D01*
X001298Y007224D01*
X001298Y007260D01*
X001262Y007260D01*
X001262Y007752D01*
X001240Y007752D01*
X001161Y007739D01*
X001084Y007715D01*
X001013Y007678D01*
X000990Y007662D01*
X000990Y008152D01*
X001070Y008032D01*
X001396Y007815D01*
X001780Y007738D01*
X001951Y007772D01*
X001946Y007767D01*
X001897Y007700D01*
X001859Y007625D01*
X001833Y007546D01*
X001820Y007464D01*
X001820Y007442D01*
X002330Y007442D01*
X002330Y007402D01*
X001820Y007402D01*
X001820Y007380D01*
X001833Y007298D01*
X001859Y007219D01*
X001897Y007144D01*
X001946Y007077D01*
X002005Y007018D01*
X002072Y006969D01*
X002147Y006931D01*
X002226Y006905D01*
X002308Y006892D01*
X002330Y006892D01*
X002330Y007402D01*
X002370Y007402D01*
X002370Y006892D01*
X002392Y006892D01*
X002474Y006905D01*
X002534Y006924D01*
X002534Y006652D01*
X002644Y006542D01*
X002534Y006432D01*
X002534Y006327D01*
X002516Y006260D01*
X002529Y006158D01*
X002534Y006149D01*
X002534Y005943D01*
X002657Y005820D01*
X002877Y005820D01*
X003123Y005453D01*
X003093Y005497D02*
X002698Y005497D01*
X002496Y005656D02*
X002987Y005656D01*
X002881Y005814D02*
X002294Y005814D01*
X002092Y005973D02*
X002534Y005973D01*
X002534Y006131D02*
X001891Y006131D01*
X001820Y006290D02*
X002523Y006290D01*
X002550Y006448D02*
X001779Y006448D01*
X001679Y006607D02*
X002579Y006607D01*
X002534Y006765D02*
X001462Y006765D01*
X001679Y006924D02*
X002169Y006924D01*
X002330Y006924D02*
X002370Y006924D01*
X002531Y006924D02*
X002534Y006924D01*
X002370Y007082D02*
X002330Y007082D01*
X002330Y007241D02*
X002370Y007241D01*
X002370Y007399D02*
X002330Y007399D01*
X002370Y007442D02*
X002370Y007952D01*
X002392Y007952D01*
X002474Y007939D01*
X002553Y007913D01*
X002628Y007875D01*
X002695Y007826D01*
X002754Y007767D01*
X002803Y007700D01*
X002841Y007625D01*
X002867Y007546D01*
X002880Y007464D01*
X002880Y007442D01*
X002370Y007442D01*
X002370Y007558D02*
X002330Y007558D01*
X002330Y007716D02*
X002370Y007716D01*
X002370Y007875D02*
X002330Y007875D01*
X002490Y008033D02*
X003969Y008033D01*
X004095Y007875D02*
X002629Y007875D01*
X002792Y007716D02*
X004291Y007716D01*
X004224Y007674D02*
X004224Y007674D01*
X003998Y007558D02*
X002863Y007558D01*
X002880Y007399D02*
X003785Y007399D01*
X003356Y007241D02*
X003327Y007241D01*
X003945Y008192D02*
X002596Y008192D01*
X002702Y008350D02*
X004004Y008350D01*
X003949Y008519D02*
X003990Y008543D01*
X004024Y008576D01*
X004047Y008617D01*
X004071Y008576D01*
X004104Y008543D01*
X004145Y008519D01*
X004191Y008507D01*
X004509Y008507D01*
X004509Y008981D01*
X004035Y008981D01*
X003586Y008981D01*
X003586Y008507D01*
X003904Y008507D01*
X003949Y008519D01*
X003909Y008509D02*
X004185Y008509D01*
X004509Y008509D02*
X004669Y008509D01*
X004549Y008454D02*
X004549Y008393D01*
X004549Y008454D01*
X004549Y008393D02*
X004549Y008393D01*
X004509Y008667D02*
X004669Y008667D01*
X004669Y008826D02*
X004509Y008826D01*
X004509Y008984D02*
X003586Y008984D01*
X003586Y008826D02*
X003426Y008826D01*
X003426Y008981D02*
X003426Y008507D01*
X003108Y008507D01*
X003062Y008519D01*
X003021Y008543D01*
X002988Y008576D01*
X002964Y008618D01*
X002952Y008663D01*
X002952Y008981D01*
X003426Y008981D01*
X003426Y008984D02*
X002736Y008984D01*
X002767Y008826D02*
X002952Y008826D01*
X002952Y008667D02*
X002769Y008667D01*
X002737Y008509D02*
X003103Y008509D01*
X003426Y008509D02*
X003586Y008509D01*
X003586Y008667D02*
X003426Y008667D01*
X002952Y009143D02*
X002696Y009143D01*
X002590Y009301D02*
X002952Y009301D01*
X002952Y009460D02*
X002478Y009460D01*
X001070Y008033D02*
X000990Y008033D01*
X000990Y007875D02*
X001306Y007875D01*
X001298Y007752D02*
X001298Y007260D01*
X001790Y007260D01*
X001790Y007282D01*
X001777Y007361D01*
X001753Y007438D01*
X001716Y007509D01*
X001669Y007574D01*
X001612Y007631D01*
X001547Y007678D01*
X001476Y007715D01*
X001399Y007739D01*
X001320Y007752D01*
X001298Y007752D01*
X001298Y007716D02*
X001262Y007716D01*
X001262Y007558D02*
X001298Y007558D01*
X001298Y007399D02*
X001262Y007399D01*
X001298Y007241D02*
X001852Y007241D01*
X001764Y007082D02*
X001942Y007082D01*
X001820Y007399D02*
X001765Y007399D01*
X001837Y007558D02*
X001681Y007558D01*
X001472Y007716D02*
X001908Y007716D01*
X001088Y007716D02*
X000990Y007716D01*
X001280Y006242D02*
X002680Y005142D01*
X002944Y005123D01*
X002944Y004623D02*
X002680Y004642D01*
X001280Y005242D01*
X001280Y004242D02*
X002944Y004123D01*
X002299Y003754D02*
X001512Y003754D01*
X001691Y003595D02*
X002299Y003595D01*
X002299Y003437D02*
X001784Y003437D01*
X001820Y003278D02*
X002141Y003278D01*
X002062Y003120D02*
X001814Y003120D01*
X001748Y002961D02*
X002059Y002961D01*
X002131Y002803D02*
X001604Y002803D01*
X001642Y002644D02*
X002450Y002644D01*
X003285Y002486D02*
X003396Y002486D01*
X003336Y002644D02*
X003332Y002644D01*
X003332Y002961D02*
X003336Y002961D01*
X003332Y003120D02*
X003337Y003120D01*
X001829Y003912D02*
X001714Y003912D01*
X004241Y003892D02*
X004245Y003722D01*
X004246Y003551D01*
X004242Y003381D01*
X004234Y003210D01*
X004222Y003040D01*
X004206Y002870D01*
X004185Y002701D01*
X004161Y002532D01*
X005012Y002486D02*
X005390Y002486D01*
X005390Y002644D02*
X005146Y002644D01*
X005280Y002803D02*
X005390Y002803D01*
X006280Y004115D02*
X006718Y003727D01*
X006806Y004045D02*
X006790Y004050D01*
X006670Y004157D01*
X007041Y004157D01*
X007164Y004280D01*
X007164Y004670D01*
X007135Y004699D01*
X007219Y004699D01*
X007265Y004712D01*
X007306Y004735D01*
X007340Y004769D01*
X007363Y004810D01*
X007376Y004856D01*
X007376Y005116D01*
X007376Y005313D01*
X007379Y005313D01*
X007379Y004792D01*
X007399Y004773D01*
X007296Y004670D01*
X007296Y004280D01*
X007329Y004246D01*
X007326Y004233D01*
X007326Y004101D01*
X007326Y003969D01*
X007329Y003956D01*
X007296Y003922D01*
X007296Y003532D01*
X007323Y003504D01*
X007140Y003508D01*
X007164Y003532D01*
X007164Y003922D01*
X007041Y004045D01*
X006806Y004045D01*
X006768Y004071D02*
X007326Y004071D01*
X007326Y004101D02*
X007742Y004101D01*
X007742Y004101D01*
X007326Y004101D01*
X007326Y004229D02*
X007114Y004229D01*
X007164Y004388D02*
X007296Y004388D01*
X007296Y004546D02*
X007164Y004546D01*
X007238Y004705D02*
X007330Y004705D01*
X007376Y004863D02*
X007379Y004863D01*
X007376Y005022D02*
X007379Y005022D01*
X007376Y005116D02*
X007038Y005116D01*
X007038Y005116D01*
X006701Y005116D01*
X006701Y005189D01*
X006570Y005066D01*
X006570Y004793D01*
X006722Y004793D01*
X006713Y004810D01*
X006701Y004856D01*
X006701Y005116D01*
X007038Y005116D01*
X007376Y005116D01*
X007376Y005180D02*
X007379Y005180D01*
X007038Y005116D02*
X007038Y005116D01*
X006701Y005180D02*
X006691Y005180D01*
X006701Y005022D02*
X006570Y005022D01*
X006570Y004863D02*
X006701Y004863D01*
X006280Y005192D02*
X006280Y004115D01*
X007164Y003912D02*
X007296Y003912D01*
X007296Y003754D02*
X007164Y003754D01*
X007164Y003595D02*
X007296Y003595D01*
X007742Y004475D02*
X007747Y004480D01*
X007747Y005116D01*
X008154Y005116D01*
X007131Y005953D02*
X007091Y005953D01*
X006280Y005192D01*
X005594Y005123D02*
X005519Y005097D01*
X005442Y005074D01*
X005365Y005055D01*
X005286Y005039D01*
X005208Y005026D01*
X005128Y005017D01*
X005049Y005011D01*
X004969Y005008D01*
X004889Y005009D01*
X004809Y005013D01*
X004729Y005021D01*
X004650Y005032D01*
X004308Y005656D02*
X003690Y005656D01*
X003752Y005814D02*
X003828Y005814D01*
X003828Y005973D02*
X003752Y005973D01*
X003790Y006906D02*
X003814Y006956D01*
X003841Y007005D01*
X003871Y007052D01*
X003904Y007097D01*
X003940Y007139D01*
X003978Y007180D01*
X004019Y007217D01*
X004063Y007252D01*
X004109Y007284D01*
X004156Y007313D01*
X004206Y007338D01*
X004257Y007361D01*
X004309Y007380D01*
X004363Y007395D01*
X004418Y007407D01*
X004473Y007415D01*
X004528Y007420D01*
X004584Y007421D01*
X004640Y007418D01*
X004695Y007412D01*
X004750Y007402D01*
X004750Y007403D02*
X004780Y007398D01*
X004811Y007397D01*
X004841Y007400D01*
X004871Y007406D01*
X004899Y007415D01*
X004927Y007428D01*
X004953Y007445D01*
X004976Y007464D01*
X004997Y007485D01*
X005016Y007509D01*
X005031Y007535D01*
X005044Y007563D01*
X005053Y007592D01*
X005058Y007622D01*
X005060Y007652D01*
X005570Y007662D02*
X005573Y008008D01*
X005570Y007662D02*
X005572Y007632D01*
X005577Y007602D01*
X005586Y007573D01*
X005598Y007545D01*
X005614Y007519D01*
X005632Y007495D01*
X005654Y007473D01*
X005678Y007454D01*
X005704Y007439D01*
X005731Y007426D01*
X005760Y007417D01*
X005790Y007412D01*
X006060Y007778D02*
X006060Y007778D01*
X006027Y007875D02*
X006599Y007875D01*
X006711Y008033D02*
X006153Y008033D01*
X006177Y008192D02*
X006733Y008192D01*
X006696Y008509D02*
X006536Y008509D01*
X006536Y008667D02*
X006696Y008667D01*
X006696Y008826D02*
X006536Y008826D01*
X006536Y008984D02*
X005613Y008984D01*
X005613Y008826D02*
X005453Y008826D01*
X005453Y008984D02*
X004669Y008984D01*
X004992Y008509D02*
X005130Y008509D01*
X005453Y008509D02*
X005613Y008509D01*
X005613Y008667D02*
X005453Y008667D01*
X005937Y008509D02*
X006213Y008509D01*
X006118Y008350D02*
X007858Y008350D01*
X007964Y008192D02*
X007529Y008192D01*
X007551Y008033D02*
X008070Y008033D01*
X008306Y007875D02*
X007551Y007875D01*
X007823Y008509D02*
X007019Y008509D01*
X007170Y008667D02*
X007791Y008667D01*
X007793Y008826D02*
X007170Y008826D01*
X007170Y009143D02*
X007864Y009143D01*
X007970Y009301D02*
X007170Y009301D01*
X007170Y009460D02*
X008082Y009460D01*
X007824Y008984D02*
X006696Y008984D01*
X005594Y004623D02*
X005421Y004610D01*
X005247Y004601D01*
X005074Y004596D01*
X004900Y004594D01*
X004727Y004596D01*
X004553Y004602D01*
X004380Y004612D01*
X005789Y007412D02*
X006011Y007465D01*
X006233Y007512D01*
X006456Y007555D01*
X006680Y007592D01*
X006905Y007625D01*
X007130Y007653D01*
X003490Y001982D02*
X003173Y001998D01*
X002855Y002021D01*
X002538Y002051D01*
X002222Y002088D01*
X001907Y002133D01*
X001593Y002184D01*
X001280Y002242D01*
X003997Y004701D02*
X002981Y006188D01*
D28*
X002980Y006188D02*
X002780Y006242D01*
X007742Y003727D02*
X007780Y003742D01*
M02*
